<svg width="164" height="292" viewBox="0 0 164 292" fill="none" xmlns="http://www.w3.org/2000/svg">
<path fill-rule="evenodd" clip-rule="evenodd" d="M82.2095 71.5501C116.292 70.43 143.295 55.0797 143.295 36.3078C143.295 16.8078 114.157 1 78.2132 1C42.2696 1 13.1315 16.8078 13.1315 36.3078C13.1315 54.3981 38.2091 69.3108 70.5333 71.3723L69.3208 122.701C31.4367 123.22 1 141.268 1 163.458C1 172.825 6.42507 181.455 15.5453 188.34L6.17114 200.35L29.4017 204.92V217.869L49.8196 215.289C42.2999 227.696 37.8523 236.052 37.0662 241.668L50.8381 247.827C38.3887 261.197 37.9581 270.684 37.295 285.295C37.2259 286.818 37.1542 288.396 37.0662 290.041C37.3435 288.214 37.5812 286.496 37.8075 284.86L37.8076 284.86C39.364 273.61 40.3806 266.262 50.0296 254.423C50.6083 253.713 51.2524 253 51.9271 252.254C53.6617 250.335 55.5986 248.193 57.1452 245.293C57.1452 245.293 52.849 241.668 50.0296 240.326C47.2103 238.983 43.9882 237.372 43.9882 237.372C49.374 227.657 53.6923 221.868 61.1436 213.859L65.5805 213.299L78.5287 224.343L86.907 215.964L108.995 224.343L114.707 213.299L134.511 215.964V200.35L155.075 196.923L149.363 179.405L162.692 166.837L140.943 165.074C140.979 164.538 140.997 163.999 140.997 163.458C140.997 142.431 113.668 125.123 78.5688 122.925L82.2095 71.5501Z" fill="white"/>
<path d="M82.2095 71.5501L82.1766 70.5506C81.6647 70.5674 81.2482 70.9684 81.212 71.4794L82.2095 71.5501ZM70.5333 71.3723L71.533 71.3959C71.5457 70.8594 71.1325 70.4085 70.5969 70.3743L70.5333 71.3723ZM69.3208 122.701L69.3345 123.7C69.8722 123.693 70.3078 123.262 70.3205 122.724L69.3208 122.701ZM15.5453 188.34L16.3336 188.955C16.4985 188.744 16.5717 188.475 16.5367 188.209C16.5018 187.944 16.3616 187.703 16.1477 187.542L15.5453 188.34ZM6.17114 200.35L5.38283 199.735C5.16906 200.009 5.11277 200.374 5.23416 200.7C5.35555 201.025 5.63722 201.265 5.97812 201.332L6.17114 200.35ZM29.4017 204.92H30.4017C30.4017 204.442 30.0636 204.031 29.5947 203.939L29.4017 204.92ZM29.4017 217.869H28.4017C28.4017 218.156 28.5251 218.429 28.7404 218.619C28.9557 218.809 29.2422 218.897 29.527 218.861L29.4017 217.869ZM49.8196 215.289L50.6748 215.808C50.8736 215.48 50.8673 215.067 50.6584 214.745C50.4495 214.423 50.0749 214.249 49.6943 214.297L49.8196 215.289ZM37.0662 241.668L36.0758 241.53C36.0141 241.971 36.2514 242.399 36.6579 242.581L37.0662 241.668ZM50.8381 247.827L51.57 248.508C51.79 248.272 51.8824 247.944 51.8182 247.628C51.7539 247.311 51.541 247.046 51.2464 246.914L50.8381 247.827ZM37.295 285.295L36.296 285.249L37.295 285.295ZM37.0662 290.041L36.0676 289.987C36.0391 290.52 36.4337 290.981 36.9643 291.036C37.4949 291.09 37.9748 290.718 38.0549 290.191L37.0662 290.041ZM37.8075 284.86L38.7982 284.997L38.7998 284.984L37.8075 284.86ZM37.8076 284.86L36.817 284.723L36.8153 284.736L37.8076 284.86ZM50.0296 254.423L50.8048 255.054H50.8048L50.0296 254.423ZM51.9271 252.254L51.1853 251.583L51.1853 251.583L51.9271 252.254ZM57.1452 245.293L58.0275 245.764C58.2495 245.348 58.1505 244.833 57.79 244.529L57.1452 245.293ZM50.0296 240.326L50.4596 239.423H50.4596L50.0296 240.326ZM43.9882 237.372L43.1136 236.887C42.9814 237.126 42.9523 237.408 43.033 237.668C43.1136 237.928 43.2971 238.145 43.5409 238.267L43.9882 237.372ZM61.1436 213.859L61.0183 212.867C60.7859 212.896 60.5711 213.006 60.4115 213.178L61.1436 213.859ZM65.5805 213.299L66.2295 212.538C66.0154 212.355 65.7343 212.271 65.4552 212.306L65.5805 213.299ZM78.5287 224.343L77.8798 225.103C78.2766 225.442 78.867 225.419 79.2358 225.05L78.5287 224.343ZM86.907 215.964L87.2616 215.029C86.8937 214.89 86.4781 214.979 86.1999 215.257L86.907 215.964ZM108.995 224.343L108.64 225.278C109.115 225.458 109.65 225.253 109.883 224.802L108.995 224.343ZM114.707 213.299L114.841 212.308C114.422 212.251 114.013 212.464 113.819 212.839L114.707 213.299ZM134.511 215.964L134.377 216.955C134.663 216.994 134.952 216.907 135.169 216.717C135.386 216.527 135.511 216.253 135.511 215.964H134.511ZM134.511 200.35L134.346 199.364C133.864 199.444 133.511 199.862 133.511 200.35H134.511ZM155.075 196.923L155.24 197.909C155.527 197.861 155.779 197.691 155.93 197.442C156.082 197.192 156.116 196.89 156.026 196.613L155.075 196.923ZM149.363 179.405L148.677 178.677C148.395 178.943 148.292 179.347 148.412 179.715L149.363 179.405ZM162.692 166.837L163.378 167.565C163.666 167.294 163.766 166.879 163.636 166.506C163.505 166.133 163.167 165.873 162.773 165.841L162.692 166.837ZM140.943 165.074L139.946 165.007C139.909 165.553 140.317 166.027 140.862 166.071L140.943 165.074ZM78.5688 122.925L77.5713 122.854C77.5524 123.12 77.6406 123.382 77.8161 123.583C77.9917 123.784 78.2401 123.906 78.5062 123.923L78.5688 122.925ZM82.2423 72.5495C99.4117 71.9853 114.85 67.8371 126.031 61.4155C137.18 55.0122 144.295 46.214 144.295 36.3078H142.295C142.295 45.1734 135.908 53.4364 125.035 59.6812C114.194 65.9078 99.0897 69.9948 82.1766 70.5506L82.2423 72.5495ZM144.295 36.3078C144.295 26.0175 136.621 16.9245 124.71 10.4624C112.759 3.97917 96.3186 0 78.2132 0V2C96.0515 2 112.152 5.92475 123.756 12.2204C135.4 18.5372 142.295 27.0981 142.295 36.3078H144.295ZM78.2132 0C60.1079 0 43.6671 3.97917 31.7167 10.4624C19.8053 16.9245 12.1315 26.0175 12.1315 36.3078H14.1315C14.1315 27.0981 21.0268 18.5372 32.6704 12.2204C44.2749 5.92475 60.3749 2 78.2132 2V0ZM12.1315 36.3078C12.1315 45.8544 18.7415 54.3734 29.1926 60.7061C39.6692 67.0542 54.1841 71.3316 70.4696 72.3703L70.5969 70.3743C54.5583 69.3514 40.3724 65.1418 30.2291 58.9956C20.0603 52.834 14.1315 44.8515 14.1315 36.3078H12.1315ZM69.5336 71.3487L68.3211 122.677L70.3205 122.724L71.533 71.3959L69.5336 71.3487ZM2 163.458C2 152.86 9.27481 143.071 21.4655 135.812C33.6336 128.566 50.5352 123.958 69.3345 123.7L69.3071 121.701C50.2224 121.962 32.9636 126.638 20.4423 134.094C7.94356 141.536 0 151.866 0 163.458H2ZM16.1477 187.542C7.18169 180.774 2 172.408 2 163.458H0C0 173.243 5.66846 182.137 14.9428 189.138L16.1477 187.542ZM6.95946 200.966L16.3336 188.955L14.7569 187.725L5.38283 199.735L6.95946 200.966ZM29.5947 203.939L6.36416 199.369L5.97812 201.332L29.2087 205.902L29.5947 203.939ZM30.4017 217.869V204.92H28.4017V217.869H30.4017ZM49.6943 214.297L29.2764 216.876L29.527 218.861L49.9449 216.282L49.6943 214.297ZM38.0565 241.807C38.4267 239.162 39.6763 235.785 41.8139 231.469C43.9444 227.167 46.9179 222.006 50.6748 215.808L48.9644 214.771C45.2016 220.979 42.1915 226.2 40.0217 230.581C37.859 234.948 36.4917 238.558 36.0758 241.53L38.0565 241.807ZM51.2464 246.914L37.4744 240.755L36.6579 242.581L50.4299 248.74L51.2464 246.914ZM38.294 285.34C38.6267 278.009 38.8997 272.112 40.6052 266.381C42.2999 260.686 45.4293 255.103 51.57 248.508L50.1063 247.145C43.7976 253.921 40.487 259.766 38.6883 265.81C36.9003 271.818 36.6264 277.97 36.296 285.249L38.294 285.34ZM38.0648 290.094C38.1531 288.445 38.2249 286.862 38.294 285.34L36.296 285.249C36.2269 286.773 36.1554 288.347 36.0676 289.987L38.0648 290.094ZM36.817 284.723C36.5906 286.36 36.3537 288.072 36.0775 289.891L38.0549 290.191C38.3333 288.357 38.5719 286.632 38.7981 284.997L36.817 284.723ZM36.8153 284.736L36.8153 284.736L38.7998 284.984L38.7999 284.984L36.8153 284.736ZM49.2545 253.791C44.3729 259.78 41.6409 264.677 39.9401 269.532C38.2466 274.365 37.5928 279.115 36.817 284.723L38.7982 284.997C39.5787 279.355 40.2114 274.806 41.8276 270.193C43.4365 265.601 46.0374 260.904 50.8048 255.054L49.2545 253.791ZM51.1853 251.583C50.5143 252.325 49.8522 253.057 49.2545 253.791L50.8048 255.054C51.3643 254.368 51.9905 253.675 52.6688 252.925L51.1853 251.583ZM56.2628 244.823C54.7813 247.6 52.9239 249.66 51.1853 251.583L52.6688 252.925C54.3995 251.01 56.416 248.785 58.0275 245.764L56.2628 244.823ZM49.5997 241.229C50.9105 241.853 52.6198 243.04 54.0432 244.112C54.7452 244.64 55.3612 245.128 55.8016 245.484C56.0216 245.661 56.1974 245.806 56.3176 245.905C56.3777 245.955 56.424 245.994 56.4549 246.019C56.4703 246.032 56.482 246.042 56.4896 246.048C56.4934 246.052 56.4962 246.054 56.498 246.056C56.4989 246.056 56.4996 246.057 56.4999 246.057C56.5001 246.057 56.5002 246.057 56.5003 246.057C56.5003 246.058 56.5003 246.058 56.5004 246.058C56.5003 246.058 56.5003 246.057 57.1452 245.293C57.79 244.529 57.79 244.529 57.7899 244.529C57.7898 244.529 57.7897 244.529 57.7896 244.529C57.7894 244.528 57.7892 244.528 57.7888 244.528C57.7882 244.527 57.7872 244.527 57.7861 244.526C57.7837 244.524 57.7803 244.521 57.7759 244.517C57.7671 244.51 57.7543 244.499 57.7376 244.485C57.7042 244.457 57.6553 244.416 57.5925 244.364C57.4668 244.26 57.2849 244.111 57.0581 243.928C56.6048 243.562 55.9706 243.059 55.2462 242.514C53.8166 241.438 51.9682 240.141 50.4596 239.423L49.5997 241.229ZM43.9882 237.372C43.5409 238.267 43.541 238.267 43.541 238.267C43.541 238.267 43.5411 238.267 43.5411 238.267C43.5412 238.267 43.5414 238.267 43.5416 238.267C43.542 238.267 43.5426 238.267 43.5434 238.268C43.545 238.269 43.5474 238.27 43.5505 238.271C43.5568 238.274 43.5661 238.279 43.5783 238.285C43.6028 238.297 43.6389 238.315 43.6859 238.339C43.7799 238.386 43.9171 238.454 44.0906 238.54C44.4376 238.713 44.9295 238.957 45.5096 239.242C46.6694 239.814 48.1842 240.555 49.5997 241.229L50.4596 239.423C49.0557 238.754 47.5498 238.018 46.3936 237.448C45.8159 237.164 45.326 236.921 44.9807 236.749C44.8081 236.664 44.6716 236.596 44.5783 236.549C44.5317 236.526 44.4959 236.508 44.4718 236.496C44.4597 236.49 44.4506 236.485 44.4445 236.482C44.4414 236.481 44.4391 236.48 44.4376 236.479C44.4368 236.478 44.4363 236.478 44.4359 236.478C44.4357 236.478 44.4356 236.478 44.4355 236.478C44.4354 236.478 44.4354 236.478 44.4354 236.478C44.4354 236.478 44.4354 236.478 43.9882 237.372ZM60.4115 213.178C52.9093 221.241 48.5417 227.096 43.1136 236.887L44.8628 237.857C50.2062 228.218 54.4754 222.494 61.8758 214.54L60.4115 213.178ZM65.4552 212.306L61.0183 212.867L61.269 214.851L65.7058 214.291L65.4552 212.306ZM79.1777 223.582L66.2295 212.538L64.9316 214.059L77.8798 225.103L79.1777 223.582ZM86.1999 215.257L77.8216 223.636L79.2358 225.05L87.6141 216.672L86.1999 215.257ZM109.35 223.408L87.2616 215.029L86.5523 216.899L108.64 225.278L109.35 223.408ZM113.819 212.839L108.107 223.883L109.883 224.802L115.596 213.758L113.819 212.839ZM134.644 214.973L114.841 212.308L114.574 214.29L134.377 216.955L134.644 214.973ZM133.511 200.35V215.964H135.511V200.35H133.511ZM154.911 195.937L134.346 199.364L134.675 201.337L155.24 197.909L154.911 195.937ZM148.412 179.715L154.125 197.233L156.026 196.613L150.314 179.095L148.412 179.715ZM162.006 166.11L148.677 178.677L150.049 180.132L163.378 167.565L162.006 166.11ZM140.862 166.071L162.611 167.834L162.773 165.841L141.024 164.077L140.862 166.071ZM139.997 163.458C139.997 163.977 139.98 164.493 139.946 165.007L141.941 165.141C141.978 164.582 141.997 164.021 141.997 163.458H139.997ZM78.5062 123.923C95.9207 125.013 111.355 129.851 122.403 136.971C133.468 144.101 139.997 153.415 139.997 163.458H141.997C141.997 152.474 134.862 142.62 123.487 135.29C112.096 127.95 96.3157 123.034 78.6313 121.927L78.5062 123.923ZM79.5663 122.995L83.207 71.6207L81.212 71.4794L77.5713 122.854L79.5663 122.995Z" fill="black"/>
<path d="M37.1749 157.538C36.6551 157.55 36.3895 157.316 36.3982 156.836C36.3939 156.656 36.4468 156.354 36.5569 155.932C36.6098 155.63 36.6823 155.309 36.7552 155.007C37.615 150.745 38.2813 147.609 38.7735 145.577C39.0461 144.41 39.211 143.766 40.4622 143.376C40.7012 143.33 40.9606 143.304 41.1805 143.299C41.5604 143.29 41.8227 143.384 41.9883 143.62L46.8951 151.487C47.0279 151.184 47.3967 149.855 48.0428 147.559C48.1705 147.036 48.3716 146.231 48.607 145.185C49.1536 142.911 50.0865 141.749 51.3861 141.718C51.866 141.707 52.1106 141.901 52.1196 142.281C52.1248 142.501 51.9957 142.964 51.6927 143.692C50.026 147.672 48.9907 151.277 48.5477 154.549C48.4804 155.09 48.4089 155.452 48.3327 155.614C48.085 156.14 47.4718 156.435 46.5321 156.457C45.9922 156.469 45.729 156.336 45.7219 156.036L40.6938 148.112C39.8591 150.892 39.373 153.185 39.1759 155.01C39.1778 155.09 39.1282 155.531 39.0675 156.353C38.9045 157.077 37.8547 157.521 37.1749 157.538ZM52.25 151.781C52.1219 146.342 57.9885 141.463 63.1271 141.342C66.1662 141.27 68.8707 143.127 68.9066 146.347C69.0334 151.725 63.1077 156.646 58.0291 156.766C54.93 156.839 52.3273 155.06 52.25 151.781ZM55.3108 150.928C55.364 153.188 56.78 154.695 59.0793 154.641C60.7988 154.6 62.341 153.824 63.6852 152.291C65.05 150.779 65.6526 149.184 65.6311 147.424C65.5778 145.165 64.1619 143.658 61.8626 143.712C58.2636 143.797 55.2688 147.448 55.3108 150.928ZM78.9422 144.35C78.921 143.45 79.3453 142.78 80.1761 142.38C81.9563 141.518 84.2462 141.064 87.0655 140.997C89.1849 140.947 90.2578 141.482 90.2651 142.642C90.2807 143.302 89.7293 143.675 88.611 143.762C87.1733 143.876 86.0955 143.981 85.3571 144.058C84.2971 147.464 83.6298 150.561 83.3954 153.347C83.3764 153.388 83.3472 153.849 83.3075 154.71C83.0655 155.476 82.1566 155.957 81.3968 155.975C80.8769 155.987 80.6118 155.774 80.6019 155.354C80.5963 155.114 80.7922 154.089 81.1697 152.279C81.7273 149.626 82.2673 147.072 82.8301 144.638C81.1833 145.217 80.2106 145.54 79.9907 145.545C79.3108 145.561 78.9777 145.009 78.9422 144.35ZM89.8897 155.175C89.8574 154.655 89.9971 153.792 90.2483 152.566C90.4475 151.681 90.6467 150.796 90.8264 149.931C90.5417 149.738 90.3957 149.481 90.3872 149.121C90.373 148.522 90.8155 147.771 91.3497 147.518C91.5303 146.694 91.8205 145.427 92.2199 143.697C92.3647 143.053 92.4558 142.671 93.0266 142.277C93.2038 142.153 93.5413 142.045 94.0179 141.894C95.5071 141.419 96.3812 141.158 96.6792 141.071C97.5143 140.851 98.4317 140.729 99.4314 140.706C100.011 140.692 100.432 140.722 100.693 140.756C101.558 140.956 102.055 141.684 102.07 142.304C102.085 142.964 101.595 143.376 100.618 143.499C99.9196 143.595 98.8627 143.74 97.4469 143.934C96.61 144.073 95.5768 144.378 94.289 144.908C94.1227 145.492 93.9374 146.117 93.772 146.741C96.3753 145.999 98.8071 145.622 101.086 145.568C101.486 145.559 101.786 145.552 101.948 145.608C102.49 145.715 103.222 146.198 103.236 146.798C103.253 147.518 102.237 147.722 101.699 147.794C98.03 148.301 95.163 148.889 93.1377 149.537C92.887 150.783 92.7154 151.987 92.6027 153.15C93.7224 153.124 94.9188 152.956 96.1523 152.667C96.2318 152.645 97.4054 152.357 99.653 151.804C99.9119 151.758 100.131 151.712 100.271 151.709C100.811 151.696 101.055 151.891 101.084 152.27C101.063 153.071 100.36 153.808 99.7095 154.203C97.4975 155.416 93.8898 155.981 91.3705 156.04C90.4107 156.063 89.8838 155.775 89.8897 155.175Z" fill="black"/>
<path d="M31.7109 29.5465C31.6777 28.9871 32.0114 27.0187 32.7511 23.6003C33.4508 20.1829 33.9235 18.1712 34.1488 17.5457C34.488 16.6575 35.1179 16.2225 36.0377 16.2008C36.5575 16.1886 36.8421 16.3819 36.8121 16.8027C36.8363 16.9822 36.7453 17.3645 36.578 17.9086C35.3766 21.2578 34.6718 24.4553 34.4035 27.5025C36.1021 27.4224 37.776 27.1429 39.4256 26.6839L41.4337 26.1564C41.6927 26.1103 41.8917 26.0656 42.0517 26.0619C42.5915 26.0491 42.8762 26.2425 42.9056 26.6419C42.8149 29.5848 35.3107 30.3419 33.2112 30.3914C32.2115 30.4149 31.7246 30.1263 31.7109 29.5465ZM45.007 30.0333C44.4472 30.0465 44.1821 29.8327 44.1712 29.3728C44.1889 29.2724 44.2418 28.9711 44.3495 28.4484C45.1239 24.8091 45.8827 21.3503 46.6047 18.0323C46.8916 16.6252 47.3336 15.8546 48.9731 15.8159C49.533 15.8027 49.8176 15.9961 49.847 16.3955C49.8331 16.6559 49.7226 17.0586 49.4768 17.6646C49.383 17.9268 49.2329 18.3505 49.0066 18.936C47.8638 22.2238 47.1761 25.3009 46.9422 28.1072C46.8744 28.6289 46.8225 28.9702 46.7658 29.1116C46.4995 29.6981 45.6068 30.0192 45.007 30.0333ZM50.983 29.8925C50.0691 29.3138 49.5563 27.9255 49.5318 26.8858C49.5172 26.266 49.6874 25.0016 50.5072 24.9823C50.8871 24.9734 51.1727 25.2067 51.4039 25.6814C51.7194 26.3341 51.9901 26.7879 52.2353 27.0022C52.7659 27.4498 53.6514 27.669 54.831 27.6412C56.9105 27.5922 59.0905 26.7206 60.2283 24.9132C60.4992 24.5268 60.6326 24.2435 60.6283 24.0636C60.6151 23.5037 56.8896 23.3115 56.4492 23.3018C55.4886 23.2845 54.0875 23.2575 52.1852 23.1823C51.3041 23.143 50.8552 22.7735 50.8192 22.0942C50.8175 21.1739 51.5909 20.0354 53.0989 18.6595C55.8606 16.1537 58.8315 14.8834 62.0306 14.808C62.7904 14.7901 63.196 15.0206 63.1882 15.5409C63.2118 16.5406 63.1892 17.2814 63.0411 17.785C62.8953 18.3886 61.6721 19.1176 61.0723 19.1318C60.6124 19.1426 60.3859 18.8679 60.3527 18.3085L60.3204 17.7891L60.1 17.7743C59.1384 17.7169 58.0443 17.9828 56.9374 18.549C55.928 19.0129 55.0834 19.673 54.3633 20.5302C54.4629 20.5079 54.8623 20.4785 55.5821 20.4615L55.882 20.4544C57.2816 20.4214 62.6286 20.6555 63.6977 21.0304C64.0609 21.1619 64.2284 21.478 64.2393 21.9379C64.2515 22.4578 64.1233 22.9609 63.8543 23.4274C61.8225 27.1963 57.0103 30.1305 52.7315 30.2314C51.9917 30.2488 51.4085 30.1225 50.983 29.8925ZM65.6354 18.1039C65.6142 17.2042 66.0385 16.534 66.8693 16.1343C68.6495 15.2721 70.9395 14.8181 73.7587 14.7516C75.8781 14.7017 76.951 15.2365 76.9583 16.3967C76.9739 17.0565 76.4225 17.4296 75.3042 17.516C73.8665 17.6299 72.7887 17.7353 72.0503 17.8127C70.9903 21.2186 70.3231 24.3152 70.0886 27.1015C70.0696 27.142 70.0404 27.6028 70.0007 28.464C69.7587 29.2299 68.8498 29.7114 68.09 29.7293C67.5702 29.7416 67.305 29.5278 67.2951 29.1079C67.2895 28.868 67.4854 27.8431 67.8629 26.0337C68.4205 23.3798 68.9605 20.8264 69.5233 18.3924C67.8765 18.9714 66.9038 19.2944 66.6839 19.2996C66.0041 19.3156 65.6709 18.7633 65.6354 18.1039ZM75.6127 24.6707C75.4846 19.2322 81.3512 14.3526 86.4898 14.2315C89.5289 14.1599 92.2334 16.0166 92.2693 19.2367C92.3961 24.6152 86.4704 29.5362 81.3918 29.6559C78.2927 29.7289 75.69 27.9498 75.6127 24.6707ZM78.6735 23.8183C78.7268 26.0777 80.1427 27.5847 82.442 27.5306C84.1616 27.49 85.7037 26.7135 87.048 25.1814C88.4127 23.6688 89.0153 22.0742 88.9938 20.3142C88.9406 18.0548 87.5247 16.5477 85.2253 16.6019C81.6263 16.6868 78.6315 20.3383 78.6735 23.8183ZM101.146 28.3501C101.114 27.8307 101.254 26.9671 101.505 25.7409C101.704 24.8559 101.903 23.971 102.083 23.1065C101.798 22.9132 101.652 22.6566 101.644 22.2967C101.63 21.6968 102.072 20.9462 102.606 20.6935C102.787 19.869 103.077 18.6019 103.477 16.872C103.621 16.2284 103.712 15.8461 104.283 15.4526C104.46 15.3284 104.798 15.2204 105.275 15.0691C106.764 14.5939 107.638 14.3332 107.936 14.2462C108.771 14.0264 109.688 13.9048 110.688 13.8812C111.268 13.8675 111.689 13.8976 111.95 13.9315C112.815 14.1312 113.312 14.8597 113.326 15.4795C113.342 16.1393 112.852 16.551 111.874 16.674C111.176 16.7705 110.119 16.9155 108.704 17.1089C107.867 17.2486 106.834 17.5531 105.546 18.0835C105.379 18.6676 105.194 19.2922 105.029 19.9162C107.632 19.1747 110.064 18.7973 112.343 18.7436C112.743 18.7341 113.043 18.7271 113.204 18.7833C113.747 18.8905 114.479 19.3734 114.493 19.9733C114.51 20.6931 113.494 20.897 112.956 20.9697C109.287 21.4763 106.42 22.0641 104.394 22.712C104.144 23.9582 103.972 25.1626 103.859 26.3256C104.979 26.2992 106.175 26.1309 107.409 25.8418C107.489 25.8199 108.662 25.5322 110.91 24.9791C111.169 24.933 111.388 24.8878 111.528 24.8845C112.067 24.8718 112.312 25.0661 112.341 25.4455C112.32 26.2462 111.617 26.983 110.966 27.3784C108.754 28.5909 105.146 29.156 102.627 29.2154C101.667 29.238 101.141 28.9504 101.146 28.3501ZM115.125 27.5805C115.092 27.0211 115.426 25.0527 116.165 21.6343C116.865 18.2169 117.338 16.2052 117.563 15.5797C117.902 14.6914 118.532 14.2565 119.452 14.2348C119.972 14.2226 120.256 14.4159 120.226 14.8367C120.251 15.0162 120.16 15.3985 119.992 15.9425C118.791 19.2918 118.086 22.4893 117.818 25.5365C119.516 25.4564 121.19 25.1769 122.84 24.7179L124.848 24.1904C125.107 24.1443 125.306 24.0996 125.466 24.0958C126.006 24.0831 126.29 24.2765 126.32 24.6759C126.229 27.6188 118.725 28.3759 116.626 28.4253C115.626 28.4489 115.139 28.1603 115.125 27.5805Z" fill="black"/>
<path d="M25.4273 56.6114C25.1229 56.1416 24.9432 55.5714 24.9542 54.9627C24.9333 54.355 25.2289 53.6404 25.906 52.8487C26.2446 52.4528 26.7993 51.8253 27.4754 51.0016C29.2896 48.8258 31.117 46.1053 33.1176 42.8345C34.2679 40.9058 35.9641 38.0937 38.2019 34.2704C38.836 33.16 39.7447 32.5843 40.96 32.5425C41.6316 32.5194 42.0904 32.8237 42.3032 33.4248C42.3738 33.6145 42.4256 34.189 42.5248 35.2102C43.3428 41.2977 44.441 46.2228 45.8502 49.9525C46.0277 50.4587 46.2372 50.9638 46.4147 51.47C46.6926 52.1008 46.8382 52.6081 46.8194 52.9929C46.8634 54.2722 44.8254 55.5271 43.6741 55.5667C43.0665 55.5876 42.6353 55.1542 42.3486 54.2676C42.2725 53.918 42.0884 53.2199 41.9241 52.1689C38.4966 53.0554 34.3357 54.0312 29.3444 55.0676C28.3728 56.606 27.5677 57.4022 26.9281 57.4242C26.3525 57.444 25.8628 57.1727 25.4273 56.6114ZM39.4214 38.9993C38.356 40.6049 36.0212 44.3995 32.385 50.3842C35.5005 49.7326 38.4185 48.9277 41.138 47.9375C40.7444 45.8058 40.1623 42.8481 39.4214 38.9993ZM49.9982 55.541C48.526 54.6312 47.6814 52.4189 47.6241 50.7559C47.59 49.7645 47.8404 47.7387 49.1516 47.6935C49.7593 47.6726 50.2202 48.0409 50.5984 48.7964C51.1145 49.8352 51.5556 50.5565 51.9515 50.895C52.8083 51.602 54.2287 51.9373 56.1156 51.8723C59.4416 51.7578 62.9144 50.3254 64.7032 47.4141C65.13 46.791 65.3385 46.3356 65.3286 46.0477C65.2977 45.1523 59.3338 44.9094 58.6291 44.9017C57.0918 44.8906 54.8499 44.8717 51.8051 44.7845C50.3946 44.737 49.6701 44.1536 49.6007 43.0673C49.582 41.5951 50.7995 39.7601 53.1883 37.5326C57.5632 33.4756 62.2943 31.3915 67.4113 31.2153C68.6265 31.1734 69.2794 31.5352 69.276 32.3678C69.3311 33.9668 69.3079 35.1523 69.0796 35.9607C68.8568 36.9289 66.9125 38.1165 65.9531 38.1496C65.2175 38.1749 64.8503 37.7393 64.7875 36.8449L64.7269 36.0145L64.374 35.9946C62.8345 35.9196 61.0887 36.3639 59.3275 37.2891C57.7207 38.0489 56.3808 39.1196 55.2438 40.5036C55.4026 40.4661 56.0411 40.4121 57.1924 40.3724L57.6721 40.3559C59.9108 40.2788 68.4695 40.5604 70.1866 41.1416C70.7699 41.3457 71.0434 41.8486 71.0687 42.5841C71.0974 43.4156 70.901 44.2229 70.4786 44.9738C67.2935 51.0391 59.6454 55.8171 52.8015 56.0528C51.6182 56.0936 50.683 55.9017 49.9982 55.541ZM67.9221 55.1479C67.6177 54.6781 67.438 54.1079 67.449 53.4992C67.4281 52.8915 67.7237 52.1769 68.4008 51.3852C68.7394 50.9893 69.2941 50.3618 69.9702 49.538C71.7844 47.3623 73.6118 44.6418 75.6124 41.371C76.7627 39.4423 78.4589 36.6302 80.6967 32.8069C81.3308 31.6964 82.2396 31.1208 83.4548 31.079C84.1264 31.0558 84.5852 31.3602 84.798 31.9613C84.8686 32.151 84.9204 32.7255 85.0196 33.7467C85.8376 39.8342 86.9358 44.7593 88.345 48.489C88.5225 48.9952 88.732 49.5003 88.9095 50.0064C89.1874 50.6373 89.333 51.1445 89.3142 51.5294C89.3583 52.8087 87.3202 54.0636 86.1689 54.1032C85.5613 54.1241 85.1301 53.6907 84.8434 52.8041C84.7673 52.4545 84.5832 51.7564 84.4189 50.7054C80.9914 51.5919 76.8305 52.5677 71.8393 53.6041C70.8676 55.1425 70.0626 55.9387 69.4229 55.9607C68.8473 55.9805 68.3576 55.7092 67.9221 55.1479ZM81.9162 37.5358C80.8508 39.1414 78.516 42.936 74.8799 48.9207C77.9953 48.2691 80.9133 47.4642 83.6328 46.474C83.2392 44.3423 82.6571 41.3845 81.9162 37.5358ZM89.7581 53.6914C89.703 53.0209 90.1078 50.8297 90.8755 47.089C91.341 44.7997 91.8385 42.5092 92.3039 40.2198C92.1992 39.9673 92.1573 39.6805 92.1463 39.3607C92.0978 37.9536 93.4808 36.273 96.2643 34.352C99.1118 32.4289 102.287 30.7186 105.805 30.5974C110.058 30.4509 113.32 33.1242 113.47 37.4737C113.778 46.4284 103.016 51.89 95.5158 53.5251C94.9754 53.6398 93.9575 53.835 92.5283 54.1724C91.291 54.5031 90.7186 54.6189 90.7826 54.6167C90.111 54.6398 89.7801 54.331 89.7581 53.6914ZM94.1463 50.0182C100.87 49.0822 105.339 46.8151 107.584 43.2157C108.406 41.9706 108.809 40.676 108.766 39.4287C108.665 36.4865 106.462 34.8013 103.616 34.8993C101.409 34.9753 99.0444 36.0493 96.4572 38.0916C95.2549 42.2314 94.4949 46.1959 94.1463 50.0182ZM113.36 45.9305C113.06 37.2316 122.361 29.3228 130.581 29.0397C135.442 28.8723 139.801 31.796 139.914 36.9472C140.211 45.5501 130.816 53.5262 122.692 53.8059C117.735 53.9766 113.54 51.1754 113.36 45.9305ZM118.242 44.5136C118.366 48.1274 120.658 50.514 124.336 50.3873C127.086 50.2926 129.54 49.0234 131.664 46.5488C133.821 44.1051 134.757 41.5434 134.692 38.7279C134.568 35.1141 132.277 32.7275 128.599 32.8542C122.842 33.0525 118.114 38.9467 118.242 44.5136Z" fill="black"/>
<mask id="path-6-outside-1_64_436" maskUnits="userSpaceOnUse" x="21.5986" y="172.521" width="29.9466" height="28.9816" fill="black">
<rect fill="white" x="21.5986" y="172.521" width="29.9466" height="28.9816"/>
<path d="M26.273 199.303C29.1593 199.203 36.4007 196.33 39.176 194.939C38.8351 196.611 38.6692 197.58 38.676 197.779C38.7011 198.509 39.145 198.859 40.0075 198.83C41.5004 198.778 42.9007 197.966 43.213 196.427C43.3069 195.295 43.3779 194.462 43.4248 193.896C43.8414 189.597 44.8814 185.077 46.4786 180.339C46.8116 179.397 47.0861 178.69 47.3024 178.218C47.6342 177.243 47.8104 176.573 47.7967 176.175C47.8047 175.444 47.2613 175.097 46.2329 175.132C44.3087 175.199 43.1521 176.335 42.5492 178.116C42.2849 179.121 42.0858 180.091 41.8867 181.061C41.4233 183.037 40.8295 186.047 40.1029 190.024C38.078 191.024 31.1431 194.119 29.2544 194.251C29.1652 193.59 29.6481 191.215 30.5703 187.131C31.3232 183.916 32.187 181.03 33.1274 178.44C33.4947 177.531 33.6389 176.895 33.6606 176.562C33.6046 175.9 33.0955 175.585 32.1335 175.618C30.4084 175.677 29.2712 176.414 28.7221 177.828C28.2747 179.305 27.9509 180.512 27.7198 181.516C26.4154 188.005 25.4279 193.087 24.7585 196.797C24.6166 197.5 24.5663 197.966 24.5388 198.133C24.5674 198.963 25.1451 199.341 26.273 199.303Z"/>
</mask>
<path d="M26.273 199.303C29.1593 199.203 36.4007 196.33 39.176 194.939C38.8351 196.611 38.6692 197.58 38.676 197.779C38.7011 198.509 39.145 198.859 40.0075 198.83C41.5004 198.778 42.9007 197.966 43.213 196.427C43.3069 195.295 43.3779 194.462 43.4248 193.896C43.8414 189.597 44.8814 185.077 46.4786 180.339C46.8116 179.397 47.0861 178.69 47.3024 178.218C47.6342 177.243 47.8104 176.573 47.7967 176.175C47.8047 175.444 47.2613 175.097 46.2329 175.132C44.3087 175.199 43.1521 176.335 42.5492 178.116C42.2849 179.121 42.0858 180.091 41.8867 181.061C41.4233 183.037 40.8295 186.047 40.1029 190.024C38.078 191.024 31.1431 194.119 29.2544 194.251C29.1652 193.59 29.6481 191.215 30.5703 187.131C31.3232 183.916 32.187 181.03 33.1274 178.44C33.4947 177.531 33.6389 176.895 33.6606 176.562C33.6046 175.9 33.0955 175.585 32.1335 175.618C30.4084 175.677 29.2712 176.414 28.7221 177.828C28.2747 179.305 27.9509 180.512 27.7198 181.516C26.4154 188.005 25.4279 193.087 24.7585 196.797C24.6166 197.5 24.5663 197.966 24.5388 198.133C24.5674 198.963 25.1451 199.341 26.273 199.303Z" fill="white"/>
<path d="M39.176 194.939L41.1357 195.338L41.9575 191.308L38.2799 193.151L39.176 194.939ZM43.213 196.427L45.1731 196.825L45.1965 196.71L45.2062 196.593L43.213 196.427ZM43.4248 193.896L41.4341 193.703L41.4328 193.717L41.4316 193.731L43.4248 193.896ZM46.4786 180.339L44.5931 179.672L44.5881 179.686L44.5834 179.7L46.4786 180.339ZM47.3024 178.218L49.121 179.05L49.1631 178.958L49.1957 178.862L47.3024 178.218ZM47.7967 176.175L45.7968 176.153L45.7963 176.198L45.7978 176.244L47.7967 176.175ZM42.5492 178.116L40.6548 177.475L40.6325 177.54L40.6149 177.607L42.5492 178.116ZM41.8867 181.061L43.8339 181.518L43.8402 181.491L43.8459 181.464L41.8867 181.061ZM40.1029 190.024L40.9883 191.818L41.8897 191.373L42.0703 190.384L40.1029 190.024ZM29.2544 194.251L27.2724 194.518L27.523 196.376L29.3933 196.246L29.2544 194.251ZM30.5703 187.131L28.623 186.675L28.6212 186.683L28.6194 186.69L30.5703 187.131ZM33.1274 178.44L31.273 177.691L31.2597 177.724L31.2476 177.758L33.1274 178.44ZM33.6606 176.562L35.6564 176.692L35.6661 176.543L35.6535 176.393L33.6606 176.562ZM28.7221 177.828L26.8577 177.104L26.8301 177.175L26.8079 177.248L28.7221 177.828ZM27.7198 181.516L25.7707 181.068L25.7645 181.095L25.759 181.122L27.7198 181.516ZM24.7585 196.797L26.7189 197.193L26.7231 197.173L26.7267 197.152L24.7585 196.797ZM24.5388 198.133L22.5653 197.809L22.5332 198.004L22.54 198.202L24.5388 198.133ZM26.3419 201.301C27.3014 201.268 28.4765 201.019 29.6386 200.705C30.8351 200.381 32.1515 199.951 33.4423 199.487C36.0134 198.564 38.5948 197.467 40.0722 196.727L38.2799 193.151C36.9819 193.801 34.555 194.837 32.0899 195.723C30.8627 196.164 29.6542 196.557 28.5944 196.844C27.5002 197.14 26.6878 197.287 26.2042 197.304L26.3419 201.301ZM37.2164 194.539C37.044 195.385 36.9132 196.065 36.8255 196.567C36.7818 196.817 36.7465 197.035 36.7219 197.214C36.7054 197.334 36.6686 197.6 36.6772 197.848L40.6748 197.71C40.6799 197.859 40.6613 197.929 40.6847 197.759C40.6999 197.648 40.7261 197.483 40.7657 197.256C40.8444 196.806 40.9671 196.166 41.1357 195.338L37.2164 194.539ZM36.6772 197.848C36.7037 198.617 36.9779 199.52 37.7892 200.16C38.5346 200.748 39.411 200.851 40.0764 200.828L39.9387 196.831C39.7416 196.837 39.9647 196.781 40.2663 197.019C40.4258 197.145 40.5405 197.304 40.6079 197.459C40.67 197.602 40.6745 197.7 40.6748 197.71L36.6772 197.848ZM40.0764 200.828C42.1597 200.757 44.6174 199.562 45.1731 196.825L41.253 196.029C41.207 196.256 41.0967 196.415 40.9084 196.546C40.6952 196.695 40.3597 196.816 39.9387 196.831L40.0764 200.828ZM45.2062 196.593C45.253 196.027 45.2942 195.537 45.3295 195.117C45.3648 194.697 45.3944 194.346 45.418 194.061L41.4316 193.731C41.4083 194.012 41.379 194.36 41.3435 194.782C41.3082 195.203 41.2669 195.695 41.2199 196.262L45.2062 196.593ZM45.4155 194.089C45.8144 189.971 46.8147 185.603 48.3738 180.978L44.5834 179.7C42.9482 184.551 41.8683 189.222 41.4341 193.703L45.4155 194.089ZM48.3642 181.005C48.6918 180.079 48.9427 179.44 49.121 179.05L45.4838 177.385C45.2296 177.941 44.9313 178.715 44.5931 179.672L48.3642 181.005ZM49.1957 178.862C49.3691 178.353 49.5169 177.88 49.6207 177.46C49.7171 177.069 49.812 176.587 49.7955 176.106L45.7978 176.244C45.795 176.161 45.8086 176.212 45.7375 176.5C45.6737 176.759 45.5675 177.108 45.4091 177.573L49.1957 178.862ZM49.7965 176.197C49.8069 175.257 49.4184 174.299 48.5041 173.696C47.7355 173.19 46.8499 173.11 46.1641 173.134L46.3017 177.131C46.4471 177.126 46.5139 177.138 46.5214 177.139C46.5295 177.141 46.4364 177.124 46.3028 177.036C46.1551 176.939 46.0046 176.784 45.9036 176.577C45.8075 176.38 45.796 176.219 45.7968 176.153L49.7965 176.197ZM46.1641 173.134C44.7958 173.181 43.5809 173.623 42.5994 174.458C41.6436 175.271 41.0358 176.349 40.6548 177.475L44.4436 178.757C44.6655 178.102 44.9375 177.721 45.1918 177.504C45.4204 177.31 45.7458 177.15 46.3017 177.131L46.1641 173.134ZM40.6149 177.607C40.3346 178.674 40.1252 179.696 39.9275 180.659L43.8459 181.464C44.0464 180.487 44.2352 179.569 44.4835 178.624L40.6149 177.607ZM39.9396 180.605C39.4639 182.633 38.8626 185.685 38.1354 189.665L42.0703 190.384C42.7964 186.409 43.3827 183.442 43.8339 181.518L39.9396 180.605ZM39.2174 188.231C38.252 188.708 36.0541 189.713 33.8662 190.614C32.7734 191.064 31.7076 191.477 30.8138 191.783C29.8458 192.115 29.2913 192.243 29.1156 192.256L29.3933 196.246C30.1619 196.193 31.1825 195.885 32.1093 195.568C33.1103 195.225 34.2589 194.778 35.389 194.313C37.6469 193.383 39.9289 192.341 40.9883 191.818L39.2174 188.231ZM31.2365 193.984C31.2523 194.101 31.2305 194.058 31.2775 193.68C31.317 193.362 31.389 192.923 31.4981 192.347C31.7158 191.197 32.0602 189.613 32.5212 187.571L28.6194 186.69C28.1582 188.733 27.8 190.378 27.568 191.602C27.4523 192.213 27.3627 192.747 27.308 193.187C27.2607 193.568 27.212 194.071 27.2724 194.518L31.2365 193.984ZM32.5176 187.587C33.2537 184.444 34.0955 181.634 35.0073 179.123L31.2476 177.758C30.2785 180.426 29.3927 183.388 28.623 186.675L32.5176 187.587ZM34.9819 179.189C35.3852 178.191 35.6148 177.329 35.6564 176.692L31.6649 176.432C31.6656 176.421 31.657 176.525 31.5924 176.765C31.5315 176.991 31.4308 177.301 31.273 177.691L34.9819 179.189ZM35.6535 176.393C35.5789 175.512 35.1469 174.659 34.2883 174.128C33.5503 173.672 32.7212 173.597 32.0646 173.619L32.2023 177.617C32.2658 177.615 32.3132 177.616 32.3465 177.618C32.3799 177.62 32.3948 177.623 32.3942 177.623C32.3937 177.623 32.3731 177.619 32.3375 177.606C32.3016 177.593 32.2484 177.569 32.1853 177.53C32.0492 177.446 31.9071 177.313 31.8024 177.132C31.7016 176.957 31.6742 176.807 31.6677 176.73L35.6535 176.393ZM32.0646 173.619C30.9376 173.658 29.845 173.924 28.8994 174.537C27.9363 175.16 27.2655 176.054 26.8577 177.104L30.5864 178.552C30.7278 178.188 30.9001 178.006 31.0742 177.894C31.2657 177.77 31.6042 177.637 32.2023 177.617L32.0646 173.619ZM26.8079 177.248C26.3511 178.756 26.0145 180.008 25.7707 181.068L29.6688 181.965C29.8873 181.015 30.1983 179.853 30.6362 178.408L26.8079 177.248ZM25.759 181.122C24.4539 187.614 23.4633 192.712 22.7903 196.442L26.7267 197.152C27.3925 193.462 28.3769 188.395 29.6805 181.91L25.759 181.122ZM22.7981 196.401C22.7191 196.792 22.6655 197.119 22.6278 197.37C22.6092 197.494 22.5945 197.6 22.5836 197.679C22.5779 197.72 22.5738 197.75 22.5703 197.775C22.5665 197.801 22.5652 197.81 22.5653 197.809L26.5123 198.458C26.5624 198.153 26.5837 197.863 26.7189 197.193L22.7981 196.401ZM22.54 198.202C22.5717 199.123 22.9534 200.084 23.881 200.705C24.6796 201.24 25.6058 201.327 26.3419 201.301L26.2042 197.304C26.033 197.31 25.9476 197.297 25.9256 197.292C25.9048 197.288 25.9852 197.301 26.1064 197.382C26.2408 197.472 26.3678 197.609 26.4519 197.777C26.5301 197.933 26.5371 198.047 26.5376 198.064L22.54 198.202Z" fill="black" mask="url(#path-6-outside-1_64_436)"/>
<mask id="path-8-outside-2_64_436" maskUnits="userSpaceOnUse" x="41.5389" y="177.053" width="30.9804" height="30.0154" fill="black">
<rect fill="white" x="41.5389" y="177.053" width="30.9804" height="30.0154"/>
<path d="M50.4098 204.322C54.0591 204.197 58.6065 202.18 64.0519 198.272C67.5526 195.76 69.2755 193.708 69.2184 192.049C69.1555 190.225 66.9019 189.406 62.4233 189.56C60.1674 189.638 55.0389 190.213 53.1113 191.143C51.8689 191.717 50.1289 193.272 50.1128 194.734C50.2009 195.362 50.5441 195.682 51.2739 195.657C51.473 195.65 51.8688 195.57 52.3962 195.452C57.2695 194.221 61.0664 193.559 63.7536 193.467C64.3839 193.445 64.6882 193.6 64.6985 193.899C64.7304 194.828 60.3879 197.004 59.4406 197.468C56.4971 198.798 54.0307 199.514 52.0402 199.583C50.0829 199.65 48.1668 198.986 48.0891 196.73C48.0399 195.303 48.747 193.651 50.2434 191.773C53.3311 187.88 57.4632 185.38 62.5757 184.34C62.5745 185.27 62.6282 185.866 62.6728 186.197C62.8318 186.955 63.2104 187.341 63.7412 187.322C64.2057 187.306 64.828 187.052 65.6082 186.561C66.6161 185.928 67.1504 185.046 67.0818 184.019C67.0452 182.957 67.0864 182.225 67.1379 181.791C67.2775 181.023 67.3267 180.523 67.3199 180.324C67.2947 179.594 66.6518 179.251 65.3912 179.294C56.1353 179.613 46.8117 186.643 44.6343 195.753C44.3712 196.791 44.2739 197.824 44.275 198.821C44.435 202.502 46.6279 204.453 50.4098 204.322Z"/>
</mask>
<path d="M50.4098 204.322C54.0591 204.197 58.6065 202.18 64.0519 198.272C67.5526 195.76 69.2755 193.708 69.2184 192.049C69.1555 190.225 66.9019 189.406 62.4233 189.56C60.1674 189.638 55.0389 190.213 53.1113 191.143C51.8689 191.717 50.1289 193.272 50.1128 194.734C50.2009 195.362 50.5441 195.682 51.2739 195.657C51.473 195.65 51.8688 195.57 52.3962 195.452C57.2695 194.221 61.0664 193.559 63.7536 193.467C64.3839 193.445 64.6882 193.6 64.6985 193.899C64.7304 194.828 60.3879 197.004 59.4406 197.468C56.4971 198.798 54.0307 199.514 52.0402 199.583C50.0829 199.65 48.1668 198.986 48.0891 196.73C48.0399 195.303 48.747 193.651 50.2434 191.773C53.3311 187.88 57.4632 185.38 62.5757 184.34C62.5745 185.27 62.6282 185.866 62.6728 186.197C62.8318 186.955 63.2104 187.341 63.7412 187.322C64.2057 187.306 64.828 187.052 65.6082 186.561C66.6161 185.928 67.1504 185.046 67.0818 184.019C67.0452 182.957 67.0864 182.225 67.1379 181.791C67.2775 181.023 67.3267 180.523 67.3199 180.324C67.2947 179.594 66.6518 179.251 65.3912 179.294C56.1353 179.613 46.8117 186.643 44.6343 195.753C44.3712 196.791 44.2739 197.824 44.275 198.821C44.435 202.502 46.6279 204.453 50.4098 204.322Z" fill="white"/>
<path d="M64.0519 198.272L62.8859 196.647L64.0519 198.272ZM53.1113 191.143L53.9504 192.958L53.9654 192.951L53.9804 192.944L53.1113 191.143ZM50.1128 194.734L48.1129 194.712L48.1113 194.862L48.1322 195.011L50.1128 194.734ZM52.3962 195.452L52.8322 197.404L52.8591 197.398L52.8859 197.391L52.3962 195.452ZM59.4406 197.468L60.2643 199.291L60.2929 199.278L60.3211 199.264L59.4406 197.468ZM50.2434 191.773L51.8077 193.019L51.8103 193.016L50.2434 191.773ZM62.5757 184.34L64.5757 184.343L64.5788 181.892L62.1771 182.38L62.5757 184.34ZM62.6728 186.197L60.6908 186.464L60.7005 186.536L60.7154 186.607L62.6728 186.197ZM65.6082 186.561L64.545 184.867L64.5416 184.869L65.6082 186.561ZM67.0818 184.019L65.083 184.088L65.0841 184.12L65.0862 184.152L67.0818 184.019ZM67.1379 181.791L65.1701 181.434L65.1591 181.494L65.1519 181.555L67.1379 181.791ZM44.6343 195.753L46.5731 196.244L46.5764 196.231L46.5795 196.218L44.6343 195.753ZM44.275 198.821L42.275 198.823L42.275 198.865L42.2769 198.908L44.275 198.821ZM50.4787 206.321C54.7336 206.175 59.6824 203.87 65.2179 199.897L62.8859 196.647C57.5305 200.49 53.3846 202.219 50.341 202.323L50.4787 206.321ZM65.2179 199.897C67.0318 198.596 68.4906 197.341 69.5064 196.121C70.4958 194.932 71.2705 193.529 71.2172 191.981L67.2195 192.118C67.2233 192.228 67.1651 192.681 66.4323 193.561C65.7257 194.41 64.5728 195.437 62.8859 196.647L65.2179 199.897ZM71.2172 191.981C71.1862 191.082 70.8705 190.243 70.264 189.551C69.6862 188.892 68.9334 188.466 68.1636 188.184C66.6629 187.635 64.6664 187.481 62.3545 187.561L62.4921 191.559C64.6588 191.484 66.0285 191.663 66.7899 191.941C67.1512 192.073 67.2535 192.185 67.2559 192.187C67.256 192.187 67.2516 192.182 67.2453 192.172C67.2389 192.162 67.2327 192.149 67.2276 192.136C67.2163 192.107 67.2188 192.096 67.2195 192.118L71.2172 191.981ZM62.3545 187.561C61.1398 187.603 59.2173 187.774 57.3486 188.054C55.5626 188.321 53.514 188.728 52.2423 189.341L53.9804 192.944C54.6363 192.628 56.1157 192.282 57.9398 192.01C59.6812 191.75 61.4508 191.595 62.4921 191.559L62.3545 187.561ZM52.2722 189.327C51.3982 189.731 50.441 190.425 49.681 191.25C48.9632 192.03 48.1291 193.246 48.1129 194.712L52.1127 194.756C52.1127 194.759 52.1566 194.467 52.6234 193.96C53.048 193.499 53.5821 193.128 53.9504 192.958L52.2722 189.327ZM48.1322 195.011C48.2168 195.615 48.4711 196.397 49.1784 196.982C49.8785 197.56 50.6991 197.678 51.3428 197.656L51.2051 193.658C51.1189 193.661 51.403 193.631 51.727 193.899C52.0583 194.172 52.0969 194.48 52.0935 194.456L48.1322 195.011ZM51.3428 197.656C51.7725 197.641 52.3844 197.504 52.8322 197.404L51.9601 193.5C51.7014 193.558 51.4979 193.601 51.3432 193.63C51.2665 193.645 51.2139 193.653 51.1806 193.658C51.141 193.663 51.156 193.66 51.2051 193.658L51.3428 197.656ZM52.8859 197.391C57.7173 196.171 61.3503 195.551 63.8224 195.465L63.6847 191.468C60.7825 191.568 56.8217 192.272 51.9065 193.513L52.8859 197.391ZM63.8224 195.465C64.024 195.458 63.8786 195.5 63.6067 195.372C63.4435 195.295 63.2033 195.141 63.0029 194.858C62.7944 194.564 62.7091 194.243 62.6996 193.968L66.6973 193.83C66.6827 193.406 66.5554 192.954 66.2673 192.547C65.9872 192.151 65.6297 191.904 65.3104 191.753C64.7261 191.478 64.1134 191.453 63.6847 191.468L63.8224 195.465ZM62.6996 193.968C62.6881 193.633 62.7773 193.386 62.8322 193.264C62.8881 193.14 62.9419 193.072 62.9491 193.063C62.9594 193.05 62.913 193.108 62.7564 193.236C62.4526 193.485 61.9818 193.799 61.4098 194.141C60.2834 194.815 59.0216 195.446 58.5602 195.672L60.3211 199.264C60.8069 199.026 62.19 198.336 63.4637 197.574C64.0917 197.198 64.7598 196.765 65.2908 196.331C65.5517 196.117 65.8467 195.849 66.092 195.537C66.2849 195.292 66.7265 194.679 66.6973 193.83L62.6996 193.968ZM58.6169 195.645C55.7718 196.931 53.5827 197.529 51.9714 197.584L52.109 201.582C54.4787 201.5 57.2224 200.665 60.2643 199.291L58.6169 195.645ZM51.9714 197.584C51.1877 197.611 50.6585 197.474 50.3882 197.312C50.2755 197.245 50.223 197.183 50.1908 197.128C50.1582 197.072 50.0975 196.939 50.0879 196.661L46.0902 196.799C46.152 198.593 47.0064 199.948 48.3313 200.743C49.5279 201.46 50.9354 201.622 52.109 201.582L51.9714 197.584ZM50.0879 196.661C50.0628 195.933 50.4306 194.748 51.8076 193.019L48.6791 190.527C47.0633 192.555 46.017 194.673 46.0902 196.799L50.0879 196.661ZM51.8103 193.016C54.592 189.509 58.3023 187.25 62.9742 186.3L62.1771 182.38C56.6241 183.509 52.0702 186.251 48.6764 190.53L51.8103 193.016ZM60.5757 184.337C60.5744 185.344 60.6324 186.031 60.6908 186.464L64.6549 185.929C64.624 185.701 64.5746 185.196 64.5757 184.343L60.5757 184.337ZM60.7154 186.607C60.8402 187.203 61.0952 187.883 61.623 188.434C62.2037 189.04 62.9843 189.35 63.8101 189.321L63.6724 185.324C63.7945 185.319 63.9523 185.338 64.1208 185.406C64.2899 185.474 64.421 185.572 64.5122 185.668C64.6783 185.841 64.6644 185.949 64.6303 185.786L60.7154 186.607ZM63.8101 189.321C64.8333 189.286 65.8368 188.781 66.6748 188.252L64.5416 184.869C64.2167 185.074 63.9723 185.198 63.8007 185.268C63.619 185.342 63.5888 185.326 63.6724 185.324L63.8101 189.321ZM66.6714 188.255C68.141 187.332 69.2065 185.819 69.0773 183.885L65.0862 184.152C65.0936 184.263 65.0728 184.342 65.0234 184.426C64.9657 184.524 64.833 184.686 64.545 184.867L66.6714 188.255ZM69.0806 183.95C69.0466 182.965 69.0871 182.337 69.124 182.027L65.1519 181.555C65.0857 182.113 65.0438 182.95 65.083 184.088L69.0806 183.95ZM69.1057 182.149C69.2452 181.381 69.3337 180.691 69.3187 180.255L65.3211 180.393C65.3195 180.347 65.3221 180.34 65.3185 180.395C65.3154 180.441 65.309 180.512 65.2975 180.611C65.2744 180.807 65.2341 181.082 65.1701 181.434L69.1057 182.149ZM69.3187 180.255C69.2816 179.179 68.7134 178.263 67.7608 177.755C66.9776 177.336 66.0801 177.269 65.3223 177.295L65.46 181.293C65.6846 181.285 65.829 181.297 65.9097 181.31C65.9939 181.323 65.9651 181.33 65.8769 181.283C65.776 181.229 65.6162 181.113 65.4873 180.906C65.3586 180.699 65.3249 180.505 65.3211 180.393L69.3187 180.255ZM65.3223 177.295C55.2431 177.642 45.0928 185.231 42.6891 195.288L46.5795 196.218C48.5305 188.055 57.0275 181.583 65.46 181.293L65.3223 177.295ZM42.6956 195.261C42.3836 196.493 42.2737 197.696 42.275 198.823L46.275 198.818C46.274 197.953 46.3587 197.09 46.5731 196.244L42.6956 195.261ZM42.2769 198.908C42.3733 201.127 43.1027 203.106 44.6505 204.491C46.1878 205.867 48.2447 206.398 50.4787 206.321L50.341 202.323C48.793 202.377 47.8625 201.998 47.3179 201.51C46.7837 201.032 46.3366 200.196 46.2731 198.734L42.2769 198.908Z" fill="black" mask="url(#path-8-outside-2_64_436)"/>
<mask id="path-10-outside-3_64_436" maskUnits="userSpaceOnUse" x="64.829" y="177.053" width="30.9804" height="30.0154" fill="black">
<rect fill="white" x="64.829" y="177.053" width="30.9804" height="30.0154"/>
<path d="M73.6999 204.322C77.3491 204.197 81.8965 202.18 87.342 198.272C90.8426 195.76 92.5655 193.708 92.5084 192.049C92.4456 190.225 90.192 189.406 85.7133 189.56C83.4574 189.638 78.329 190.213 76.4014 191.143C75.159 191.717 73.4189 193.272 73.4029 194.734C73.4909 195.362 73.8341 195.682 74.564 195.657C74.763 195.65 75.1588 195.57 75.6862 195.452C80.5596 194.221 84.3564 193.559 87.0436 193.467C87.6739 193.445 87.9782 193.6 87.9885 193.899C88.0205 194.828 83.6779 197.004 82.7307 197.468C79.7872 198.798 77.3207 199.514 75.3302 199.583C73.3729 199.65 71.4568 198.986 71.3791 196.73C71.33 195.303 72.037 193.651 73.5334 191.773C76.6211 187.88 80.7533 185.38 85.8657 184.34C85.8645 185.27 85.9183 185.866 85.9629 186.197C86.1218 186.955 86.5005 187.341 87.0313 187.322C87.4957 187.306 88.1181 187.052 88.8983 186.561C89.9061 185.928 90.4404 185.046 90.3718 184.019C90.3352 182.957 90.3765 182.225 90.428 181.791C90.5676 181.023 90.6168 180.523 90.6099 180.324C90.5848 179.594 89.9419 179.251 88.6812 179.294C79.4254 179.613 70.1017 186.643 67.9244 195.753C67.6612 196.791 67.5639 197.824 67.565 198.821C67.725 202.502 69.9179 204.453 73.6999 204.322Z"/>
</mask>
<path d="M73.6999 204.322C77.3491 204.197 81.8965 202.18 87.342 198.272C90.8426 195.76 92.5655 193.708 92.5084 192.049C92.4456 190.225 90.192 189.406 85.7133 189.56C83.4574 189.638 78.329 190.213 76.4014 191.143C75.159 191.717 73.4189 193.272 73.4029 194.734C73.4909 195.362 73.8341 195.682 74.564 195.657C74.763 195.65 75.1588 195.57 75.6862 195.452C80.5596 194.221 84.3564 193.559 87.0436 193.467C87.6739 193.445 87.9782 193.6 87.9885 193.899C88.0205 194.828 83.6779 197.004 82.7307 197.468C79.7872 198.798 77.3207 199.514 75.3302 199.583C73.3729 199.65 71.4568 198.986 71.3791 196.73C71.33 195.303 72.037 193.651 73.5334 191.773C76.6211 187.88 80.7533 185.38 85.8657 184.34C85.8645 185.27 85.9183 185.866 85.9629 186.197C86.1218 186.955 86.5005 187.341 87.0313 187.322C87.4957 187.306 88.1181 187.052 88.8983 186.561C89.9061 185.928 90.4404 185.046 90.3718 184.019C90.3352 182.957 90.3765 182.225 90.428 181.791C90.5676 181.023 90.6168 180.523 90.6099 180.324C90.5848 179.594 89.9419 179.251 88.6812 179.294C79.4254 179.613 70.1017 186.643 67.9244 195.753C67.6612 196.791 67.5639 197.824 67.565 198.821C67.725 202.502 69.9179 204.453 73.6999 204.322Z" fill="white"/>
<path d="M87.342 198.272L86.1759 196.647L87.342 198.272ZM76.4014 191.143L77.2405 192.958L77.2555 192.951L77.2704 192.944L76.4014 191.143ZM73.4029 194.734L71.403 194.712L71.4013 194.862L71.4222 195.011L73.4029 194.734ZM75.6862 195.452L76.1222 197.404L76.1491 197.398L76.1759 197.391L75.6862 195.452ZM82.7307 197.468L83.5543 199.291L83.5829 199.278L83.6111 199.264L82.7307 197.468ZM73.5334 191.773L75.0977 193.019L75.1003 193.016L73.5334 191.773ZM85.8657 184.34L87.8657 184.343L87.8688 181.892L85.4671 182.38L85.8657 184.34ZM85.9629 186.197L83.9808 186.464L83.9905 186.536L84.0054 186.607L85.9629 186.197ZM88.8983 186.561L87.8351 184.867L87.8317 184.869L88.8983 186.561ZM90.3718 184.019L88.373 184.088L88.3741 184.12L88.3763 184.152L90.3718 184.019ZM90.428 181.791L88.4601 181.434L88.4492 181.494L88.4419 181.555L90.428 181.791ZM67.9244 195.753L69.8631 196.244L69.8664 196.231L69.8696 196.218L67.9244 195.753ZM67.565 198.821L65.565 198.823L65.5651 198.865L65.5669 198.908L67.565 198.821ZM73.7687 206.321C78.0237 206.175 82.9725 203.87 88.508 199.897L86.1759 196.647C80.8205 200.49 76.6746 202.219 73.631 202.323L73.7687 206.321ZM88.508 199.897C90.3218 198.596 91.7806 197.341 92.7964 196.121C93.7859 194.932 94.5606 193.529 94.5072 191.981L90.5096 192.118C90.5134 192.228 90.4552 192.681 89.7223 193.561C89.0158 194.41 87.8628 195.437 86.1759 196.647L88.508 199.897ZM94.5072 191.981C94.4763 191.082 94.1606 190.243 93.554 189.551C92.9763 188.892 92.2234 188.466 91.4536 188.184C89.9529 187.635 87.9564 187.481 85.6445 187.561L85.7822 191.559C87.9489 191.484 89.3185 191.663 90.0799 191.941C90.4413 192.073 90.5435 192.185 90.5459 192.187C90.546 192.187 90.5416 192.182 90.5353 192.172C90.529 192.162 90.5228 192.149 90.5177 192.136C90.5064 192.107 90.5088 192.096 90.5096 192.118L94.5072 191.981ZM85.6445 187.561C84.4299 187.603 82.5074 187.774 80.6386 188.054C78.8526 188.321 76.804 188.728 75.5323 189.341L77.2704 192.944C77.9264 192.628 79.4058 192.282 81.2298 192.01C82.9712 191.75 84.7409 191.595 85.7822 191.559L85.6445 187.561ZM75.5623 189.327C74.6883 189.731 73.7311 190.425 72.9711 191.25C72.2532 192.03 71.4191 193.246 71.403 194.712L75.4027 194.756C75.4027 194.759 75.4466 194.467 75.9134 193.96C76.3381 193.499 76.8721 193.128 77.2405 192.958L75.5623 189.327ZM71.4222 195.011C71.5069 195.615 71.7611 196.397 72.4684 196.982C73.1685 197.56 73.9891 197.678 74.6328 197.656L74.4951 193.658C74.4089 193.661 74.693 193.631 75.017 193.899C75.3483 194.172 75.3869 194.48 75.3835 194.456L71.4222 195.011ZM74.6328 197.656C75.0625 197.641 75.6744 197.504 76.1222 197.404L75.2502 193.5C74.9915 193.558 74.788 193.601 74.6332 193.63C74.5565 193.645 74.5039 193.653 74.4707 193.658C74.431 193.663 74.4461 193.66 74.4951 193.658L74.6328 197.656ZM76.1759 197.391C81.0074 196.171 84.6403 195.551 87.1124 195.465L86.9748 191.468C84.0725 191.568 80.1117 192.272 75.1965 193.513L76.1759 197.391ZM87.1124 195.465C87.3141 195.458 87.1687 195.5 86.8967 195.372C86.7336 195.295 86.4934 195.141 86.293 194.858C86.0845 194.564 85.9991 194.243 85.9897 193.968L89.9873 193.83C89.9727 193.406 89.8455 192.954 89.5574 192.547C89.2773 192.151 88.9197 191.904 88.6004 191.753C88.0162 191.478 87.4035 191.453 86.9748 191.468L87.1124 195.465ZM85.9897 193.968C85.9781 193.633 86.0674 193.386 86.1223 193.264C86.1782 193.14 86.2319 193.072 86.2391 193.063C86.2494 193.05 86.203 193.108 86.0465 193.236C85.7427 193.485 85.2719 193.799 84.6999 194.141C83.5735 194.815 82.3116 195.446 81.8502 195.672L83.6111 199.264C84.0969 199.026 85.48 198.336 86.7537 197.574C87.3818 197.198 88.0498 196.765 88.5809 196.331C88.8417 196.117 89.1367 195.849 89.3821 195.537C89.575 195.292 90.0165 194.679 89.9873 193.83L85.9897 193.968ZM81.907 195.645C79.0619 196.931 76.8727 197.529 75.2614 197.584L75.3991 201.582C77.7688 201.5 80.5125 200.665 83.5543 199.291L81.907 195.645ZM75.2614 197.584C74.4777 197.611 73.9485 197.474 73.6783 197.312C73.5655 197.245 73.5131 197.183 73.4808 197.128C73.4482 197.072 73.3875 196.939 73.3779 196.661L69.3803 196.799C69.4421 198.593 70.2964 199.948 71.6213 200.743C72.8179 201.46 74.2254 201.622 75.3991 201.582L75.2614 197.584ZM73.3779 196.661C73.3529 195.933 73.7207 194.748 75.0977 193.019L71.9691 190.527C70.3533 192.555 69.3071 194.673 69.3803 196.799L73.3779 196.661ZM75.1003 193.016C77.8821 189.509 81.5924 187.25 86.2643 186.3L85.4671 182.38C79.9142 183.509 75.3602 186.251 71.9665 190.53L75.1003 193.016ZM83.8657 184.337C83.8644 185.344 83.9224 186.031 83.9808 186.464L87.9449 185.929C87.9141 185.701 87.8646 185.196 87.8657 184.343L83.8657 184.337ZM84.0054 186.607C84.1302 187.203 84.3852 187.883 84.9131 188.434C85.4938 189.04 86.2743 189.35 87.1001 189.321L86.9624 185.324C87.0845 185.319 87.2423 185.338 87.4108 185.406C87.58 185.474 87.711 185.572 87.8022 185.668C87.9683 185.841 87.9545 185.949 87.9203 185.786L84.0054 186.607ZM87.1001 189.321C88.1233 189.286 89.1269 188.781 89.9649 188.252L87.8317 184.869C87.5067 185.074 87.2623 185.198 87.0908 185.268C86.9091 185.342 86.8789 185.326 86.9624 185.324L87.1001 189.321ZM89.9615 188.255C91.4311 187.332 92.4965 185.819 92.3674 183.885L88.3763 184.152C88.3837 184.263 88.3629 184.342 88.3135 184.426C88.2557 184.524 88.123 184.686 87.8351 184.867L89.9615 188.255ZM92.3706 183.95C92.3367 182.965 92.3772 182.337 92.414 182.027L88.4419 181.555C88.3757 182.113 88.3338 182.95 88.373 184.088L92.3706 183.95ZM92.3958 182.149C92.5353 181.381 92.6237 180.691 92.6087 180.255L88.6111 180.393C88.6095 180.347 88.6122 180.34 88.6085 180.395C88.6054 180.441 88.5991 180.512 88.5875 180.611C88.5644 180.807 88.5241 181.082 88.4601 181.434L92.3958 182.149ZM92.6087 180.255C92.5717 179.179 92.0034 178.263 91.0508 177.755C90.2676 177.336 89.3701 177.269 88.6124 177.295L88.7501 181.293C88.9747 181.285 89.119 181.297 89.1997 181.31C89.2839 181.323 89.2552 181.33 89.167 181.283C89.0661 181.229 88.9062 181.113 88.7774 180.906C88.6486 180.699 88.615 180.505 88.6111 180.393L92.6087 180.255ZM88.6124 177.295C78.5331 177.642 68.3828 185.231 65.9791 195.288L69.8696 196.218C71.8206 188.055 80.3176 181.583 88.7501 181.293L88.6124 177.295ZM65.9856 195.261C65.6737 196.493 65.5638 197.696 65.565 198.823L69.565 198.818C69.5641 197.953 69.6487 197.09 69.8631 196.244L65.9856 195.261ZM65.5669 198.908C65.6634 201.127 66.3928 203.106 67.9405 204.491C69.4778 205.867 71.5348 206.398 73.7687 206.321L73.631 202.323C72.083 202.377 71.1525 201.998 70.6079 201.51C70.0737 201.032 69.6267 200.196 69.5631 198.734L65.5669 198.908Z" fill="black" mask="url(#path-10-outside-3_64_436)"/>
<mask id="path-12-outside-4_64_436" maskUnits="userSpaceOnUse" x="88.0443" y="176.948" width="29.016" height="30.946" fill="black">
<rect fill="white" x="88.0443" y="176.948" width="29.016" height="30.946"/>
<path d="M91.5356 203.94C91.563 204.736 92.008 205.119 92.8705 205.09C93.4013 205.071 93.9607 204.919 94.5144 204.601C95.2008 204.279 95.6195 203.899 95.8369 203.46C95.9582 203.123 96.0394 202.589 96.0783 201.791C96.1722 199.695 96.4274 197.461 96.9057 194.953C99.8892 193.821 103.213 192.909 106.811 192.287C106.245 195.13 105.937 196.801 105.821 197.27C105.593 198.374 105.39 199.245 105.243 199.781C104.978 200.787 104.875 201.654 104.899 202.35C104.925 203.08 105.402 203.429 106.264 203.399C107.027 203.373 107.685 203.184 108.235 202.767C108.885 202.346 109.231 201.769 109.408 201.132C109.504 200.066 109.576 199.266 109.592 198.768C109.736 197.168 110.187 194.828 110.876 191.682C111.505 191.627 112.066 191.508 112.522 191.26C113.143 190.973 113.394 190.532 113.376 190.002C113.383 189.237 112.829 188.592 111.783 188.13C112.577 185.147 113.321 182.63 114.049 180.612C113.994 179.983 113.583 179.632 112.721 179.661C110.664 179.732 109.401 180.672 108.932 182.482C108.492 184.191 108.025 186.067 107.6 188.174C104.454 188.449 101.256 189.157 97.9058 190.235C98.4 188.192 98.9607 186.147 99.6208 184.098C99.8931 183.325 99.9744 182.791 99.9618 182.426C99.9378 181.729 99.4928 181.346 98.5971 181.377C97.4691 181.415 95.7966 182.038 95.3699 183.148C94.6148 184.37 93.4511 192.05 93.2382 193.585C92.586 197.792 92.1225 200.731 91.7507 202.471C91.6088 203.173 91.5264 203.674 91.5356 203.94Z"/>
</mask>
<path d="M91.5356 203.94C91.563 204.736 92.008 205.119 92.8705 205.09C93.4013 205.071 93.9607 204.919 94.5144 204.601C95.2008 204.279 95.6195 203.899 95.8369 203.46C95.9582 203.123 96.0394 202.589 96.0783 201.791C96.1722 199.695 96.4274 197.461 96.9057 194.953C99.8892 193.821 103.213 192.909 106.811 192.287C106.245 195.13 105.937 196.801 105.821 197.27C105.593 198.374 105.39 199.245 105.243 199.781C104.978 200.787 104.875 201.654 104.899 202.35C104.925 203.08 105.402 203.429 106.264 203.399C107.027 203.373 107.685 203.184 108.235 202.767C108.885 202.346 109.231 201.769 109.408 201.132C109.504 200.066 109.576 199.266 109.592 198.768C109.736 197.168 110.187 194.828 110.876 191.682C111.505 191.627 112.066 191.508 112.522 191.26C113.143 190.973 113.394 190.532 113.376 190.002C113.383 189.237 112.829 188.592 111.783 188.13C112.577 185.147 113.321 182.63 114.049 180.612C113.994 179.983 113.583 179.632 112.721 179.661C110.664 179.732 109.401 180.672 108.932 182.482C108.492 184.191 108.025 186.067 107.6 188.174C104.454 188.449 101.256 189.157 97.9058 190.235C98.4 188.192 98.9607 186.147 99.6208 184.098C99.8931 183.325 99.9744 182.791 99.9618 182.426C99.9378 181.729 99.4928 181.346 98.5971 181.377C97.4691 181.415 95.7966 182.038 95.3699 183.148C94.6148 184.37 93.4511 192.05 93.2382 193.585C92.586 197.792 92.1225 200.731 91.7507 202.471C91.6088 203.173 91.5264 203.674 91.5356 203.94Z" fill="white"/>
<path d="M94.5144 204.601L93.6638 202.791L93.5895 202.826L93.5184 202.867L94.5144 204.601ZM95.8369 203.46L97.6294 204.347L97.6798 204.245L97.7183 204.138L95.8369 203.46ZM96.0783 201.791L98.076 201.888L98.0763 201.88L96.0783 201.791ZM96.9057 194.953L96.196 193.083L95.1506 193.48L94.9411 194.578L96.9057 194.953ZM106.811 192.287L108.773 192.678L109.342 189.82L106.471 190.316L106.811 192.287ZM105.821 197.27L103.88 196.787L103.87 196.826L103.862 196.866L105.821 197.27ZM105.243 199.781L103.314 199.251L103.311 199.262L103.308 199.273L105.243 199.781ZM108.235 202.767L107.148 201.088L107.086 201.129L107.026 201.174L108.235 202.767ZM109.408 201.132L111.335 201.668L111.383 201.493L111.4 201.312L109.408 201.132ZM109.592 198.768L107.6 198.588L107.595 198.646L107.593 198.703L109.592 198.768ZM110.876 191.682L110.702 189.69L109.237 189.817L108.922 191.254L110.876 191.682ZM112.522 191.26L111.683 189.444L111.624 189.472L111.567 189.503L112.522 191.26ZM113.376 190.002L111.376 189.984L111.375 190.027L111.377 190.07L113.376 190.002ZM111.783 188.13L109.851 187.616L109.411 189.268L110.975 189.959L111.783 188.13ZM114.049 180.612L115.93 181.29L116.079 180.876L116.041 180.438L114.049 180.612ZM108.932 182.482L106.996 181.98L106.995 181.984L108.932 182.482ZM107.6 188.174L107.774 190.167L109.264 190.037L109.56 188.57L107.6 188.174ZM97.9058 190.235L95.9618 189.765L95.123 193.232L98.5186 192.139L97.9058 190.235ZM99.6208 184.098L97.7344 183.434L97.7254 183.459L97.7172 183.485L99.6208 184.098ZM95.3699 183.148L97.0712 184.2L97.1697 184.041L97.2368 183.866L95.3699 183.148ZM93.2382 193.585L95.2146 193.891L95.2171 193.875L95.2193 193.859L93.2382 193.585ZM91.7507 202.471L89.7948 202.053L89.7925 202.064L89.7903 202.075L91.7507 202.471ZM89.5367 204.009C89.5625 204.758 89.8045 205.668 90.5847 206.34C91.3337 206.985 92.2379 207.113 92.9394 207.088L92.8017 203.091C92.6406 203.096 92.891 203.047 93.195 203.309C93.5303 203.598 93.536 203.918 93.5344 203.871L89.5367 204.009ZM92.9394 207.088C93.8099 207.058 94.686 206.809 95.5105 206.336L93.5184 202.867C93.2354 203.029 92.9928 203.084 92.8017 203.091L92.9394 207.088ZM95.3651 206.411C96.3027 205.971 97.1458 205.324 97.6294 204.347L94.0444 202.573C94.0933 202.474 94.0989 202.587 93.6638 202.791L95.3651 206.411ZM97.7183 204.138C97.9462 203.506 98.0354 202.721 98.076 201.888L94.0807 201.693C94.0633 202.051 94.0378 202.316 94.0096 202.509C93.9803 202.708 93.9546 202.784 93.9555 202.781L97.7183 204.138ZM98.0763 201.88C98.1657 199.886 98.4089 197.747 98.8703 195.328L94.9411 194.578C94.446 197.174 94.1788 199.504 94.0803 201.701L98.0763 201.88ZM97.6154 196.823C100.472 195.739 103.672 194.859 107.152 194.258L106.471 190.316C102.753 190.959 99.306 191.903 96.196 193.083L97.6154 196.823ZM104.85 191.896C104.267 194.822 103.981 196.378 103.88 196.787L107.761 197.753C107.893 197.224 108.223 195.437 108.773 192.678L104.85 191.896ZM103.862 196.866C103.637 197.955 103.445 198.776 103.314 199.251L107.171 200.312C107.336 199.713 107.549 198.793 107.779 197.674L103.862 196.866ZM103.308 199.273C103.008 200.417 102.868 201.483 102.901 202.419L106.898 202.282C106.883 201.825 106.949 201.156 107.177 200.289L103.308 199.273ZM102.901 202.419C102.929 203.234 103.241 204.132 104.059 204.753C104.801 205.316 105.665 205.421 106.333 205.398L106.195 201.401C106 201.407 106.195 201.353 106.477 201.567C106.629 201.682 106.747 201.834 106.821 201.994C106.889 202.144 106.897 202.255 106.898 202.282L102.901 202.419ZM106.333 205.398C107.393 205.362 108.483 205.089 109.444 204.36L107.026 201.174C106.887 201.28 106.661 201.385 106.195 201.401L106.333 205.398ZM109.323 204.445C110.456 203.711 111.052 202.684 111.335 201.668L107.481 200.596C107.441 200.741 107.394 200.835 107.35 200.899C107.309 200.958 107.251 201.021 107.148 201.088L109.323 204.445ZM111.4 201.312C111.493 200.278 111.573 199.404 111.591 198.832L107.593 198.703C107.58 199.129 107.515 199.854 107.416 200.953L111.4 201.312ZM111.584 198.947C111.715 197.491 112.138 195.268 112.83 192.11L108.922 191.254C108.236 194.388 107.757 196.846 107.6 198.588L111.584 198.947ZM111.05 193.674C111.794 193.609 112.671 193.456 113.478 193.017L111.567 189.503C111.461 189.56 111.216 189.645 110.702 189.69L111.05 193.674ZM113.361 193.075C113.933 192.811 114.478 192.408 114.866 191.812C115.26 191.206 115.396 190.545 115.374 189.933L111.377 190.07C111.374 189.989 111.394 189.814 111.512 189.632C111.623 189.461 111.733 189.421 111.683 189.444L113.361 193.075ZM115.376 190.02C115.393 188.076 113.941 186.897 112.592 186.301L110.975 189.959C111.14 190.032 111.258 190.1 111.337 190.155C111.416 190.21 111.448 190.245 111.452 190.25C111.455 190.253 111.432 190.227 111.41 190.169C111.386 190.108 111.375 190.042 111.376 189.984L115.376 190.02ZM113.716 188.644C114.505 185.682 115.231 183.229 115.93 181.29L112.167 179.933C111.411 182.031 110.65 184.611 109.851 187.616L113.716 188.644ZM116.041 180.438C115.977 179.707 115.668 178.874 114.886 178.289C114.164 177.748 113.326 177.639 112.652 177.662L112.789 181.66C112.977 181.654 112.776 181.706 112.489 181.49C112.338 181.378 112.221 181.232 112.146 181.079C112.075 180.935 112.06 180.825 112.056 180.786L116.041 180.438ZM112.652 177.662C111.34 177.708 110.081 178.038 109.036 178.815C107.974 179.606 107.322 180.72 106.996 181.98L110.868 182.984C111.01 182.434 111.225 182.173 111.425 182.024C111.643 181.861 112.044 181.686 112.789 181.66L112.652 177.662ZM106.995 181.984C106.553 183.704 106.076 185.62 105.639 187.778L109.56 188.57C109.975 186.515 110.432 184.679 110.869 182.98L106.995 181.984ZM107.426 186.182C104.1 186.472 100.753 187.218 97.2929 188.332L98.5186 192.139C101.76 191.096 104.808 190.426 107.774 190.167L107.426 186.182ZM99.8497 190.706C100.334 188.702 100.882 186.705 101.524 184.711L97.7172 183.485C97.0393 185.589 96.4656 187.683 95.9618 189.765L99.8497 190.706ZM101.507 184.762C101.826 183.858 101.985 183.061 101.961 182.357L97.963 182.494C97.9639 182.52 97.9604 182.792 97.7344 183.434L101.507 184.762ZM101.961 182.357C101.934 181.579 101.645 180.691 100.848 180.06C100.109 179.475 99.2326 179.353 98.5283 179.378L98.6659 183.375C98.8573 183.369 98.6516 183.423 98.3651 183.197C98.2157 183.078 98.1038 182.927 98.0357 182.773C97.972 182.629 97.964 182.524 97.963 182.494L101.961 182.357ZM98.5283 179.378C97.677 179.407 96.7017 179.644 95.8425 180.064C95.0234 180.464 93.9768 181.198 93.5029 182.431L97.2368 183.866C97.2085 183.94 97.1854 183.939 97.2478 183.882C97.3109 183.824 97.4247 183.742 97.5986 183.657C97.9643 183.479 98.3893 183.385 98.6659 183.375L98.5283 179.378ZM93.6686 182.097C93.4349 182.475 93.2739 182.933 93.1636 183.281C93.0389 183.675 92.918 184.132 92.8029 184.614C92.572 185.581 92.3416 186.744 92.133 187.891C91.7151 190.189 91.3666 192.521 91.2572 193.31L95.2193 193.859C95.3227 193.114 95.6625 190.838 96.0684 188.607C96.2717 187.489 96.4872 186.407 96.6935 185.543C96.797 185.109 96.8926 184.755 96.9769 184.489C97.0756 184.177 97.1161 184.127 97.0712 184.2L93.6686 182.097ZM91.2618 193.278C90.6052 197.514 90.1518 200.383 89.7948 202.053L93.7065 202.889C94.0933 201.079 94.5667 198.071 95.2146 193.891L91.2618 193.278ZM89.7903 202.075C89.6636 202.702 89.5178 203.459 89.5367 204.009L93.5344 203.871C93.536 203.919 93.5326 203.928 93.5372 203.878C93.5412 203.834 93.5493 203.766 93.5641 203.668C93.5939 203.47 93.6424 203.207 93.7111 202.867L89.7903 202.075Z" fill="black" mask="url(#path-12-outside-4_64_436)"/>
<mask id="path-14-outside-5_64_436" maskUnits="userSpaceOnUse" x="110.023" y="170.26" width="27.2237" height="36.8736" fill="black">
<rect fill="white" x="110.023" y="170.26" width="27.2237" height="36.8736"/>
<path d="M117.769 194.171C117.796 194.943 118.426 195.269 119.777 195.223C120.703 195.191 121.349 194.859 121.675 194.23C121.962 193.563 122.208 192.859 122.493 192.153C123.159 190.159 124.209 188.112 125.683 186.013C127.488 183.438 128.814 181.537 129.66 180.271C131.87 177.103 132.971 175.403 132.962 175.133C132.919 173.897 130.67 173.704 129.744 173.736C128.045 173.794 126.9 174.22 126.272 175.054C125.533 176.046 124.802 177.269 124.119 178.761L122.4 182.725C119.9 188.686 118.539 191.825 118.432 192.1C117.962 193.043 117.716 193.748 117.769 194.171ZM114.102 203.304C114.13 204.114 114.724 204.519 115.882 204.479C117.041 204.439 117.801 204.065 118.241 203.393C118.646 202.799 120.449 199.026 120.43 198.486C120.406 197.791 119.661 197.469 118.155 197.521C116.611 197.574 115.658 197.954 115.337 198.739C114.485 200.933 114.074 202.493 114.102 203.304Z"/>
</mask>
<path d="M117.769 194.171C117.796 194.943 118.426 195.269 119.777 195.223C120.703 195.191 121.349 194.859 121.675 194.23C121.962 193.563 122.208 192.859 122.493 192.153C123.159 190.159 124.209 188.112 125.683 186.013C127.488 183.438 128.814 181.537 129.66 180.271C131.87 177.103 132.971 175.403 132.962 175.133C132.919 173.897 130.67 173.704 129.744 173.736C128.045 173.794 126.9 174.22 126.272 175.054C125.533 176.046 124.802 177.269 124.119 178.761L122.4 182.725C119.9 188.686 118.539 191.825 118.432 192.1C117.962 193.043 117.716 193.748 117.769 194.171ZM114.102 203.304C114.13 204.114 114.724 204.519 115.882 204.479C117.041 204.439 117.801 204.065 118.241 203.393C118.646 202.799 120.449 199.026 120.43 198.486C120.406 197.791 119.661 197.469 118.155 197.521C116.611 197.574 115.658 197.954 115.337 198.739C114.485 200.933 114.074 202.493 114.102 203.304Z" fill="white"/>
<path d="M117.769 194.171L120.095 194.091L120.092 193.985L120.079 193.881L117.769 194.171ZM121.675 194.23L123.742 195.3L123.781 195.225L123.814 195.148L121.675 194.23ZM122.493 192.153L124.651 193.024L124.678 192.958L124.701 192.89L122.493 192.153ZM125.683 186.013L127.588 187.35L127.589 187.349L125.683 186.013ZM129.66 180.271L127.751 178.94L127.737 178.959L127.724 178.979L129.66 180.271ZM126.272 175.054L124.413 173.652L124.405 173.663L126.272 175.054ZM124.119 178.761L122.002 177.793L121.993 177.814L121.984 177.835L124.119 178.761ZM122.4 182.725L120.265 181.799L120.259 181.811L120.254 181.824L122.4 182.725ZM118.432 192.1L120.516 193.137L120.563 193.042L120.602 192.942L118.432 192.1ZM118.241 203.393L116.318 202.082L116.306 202.099L116.295 202.117L118.241 203.393ZM115.337 198.739L113.183 197.857L113.175 197.876L113.167 197.896L115.337 198.739ZM115.443 194.251C115.461 194.758 115.584 195.329 115.914 195.874C116.248 196.426 116.712 196.813 117.198 197.067C118.077 197.526 119.073 197.576 119.857 197.549L119.697 192.897C119.45 192.905 119.303 192.894 119.23 192.883C119.152 192.872 119.218 192.87 119.354 192.941C119.511 193.023 119.728 193.186 119.895 193.461C120.057 193.729 120.091 193.971 120.095 194.091L115.443 194.251ZM119.857 197.549C121.302 197.499 122.901 196.924 123.742 195.3L119.609 193.159C119.635 193.109 119.675 193.05 119.731 192.995C119.786 192.94 119.839 192.905 119.876 192.886C119.944 192.851 119.913 192.889 119.697 192.897L119.857 197.549ZM123.814 195.148C124.094 194.495 124.44 193.548 124.651 193.024L120.335 191.281C119.976 192.17 119.829 192.631 119.536 193.312L123.814 195.148ZM124.701 192.89C125.285 191.14 126.223 189.294 127.588 187.35L123.778 184.676C122.195 186.931 121.032 189.177 120.285 191.416L124.701 192.89ZM127.589 187.349C129.389 184.781 130.732 182.857 131.595 181.564L127.724 178.979C126.896 180.218 125.587 182.096 123.777 184.677L127.589 187.349ZM131.569 181.603C132.677 180.014 133.525 178.768 134.1 177.875C134.384 177.433 134.623 177.045 134.797 176.73C134.883 176.576 134.976 176.397 135.054 176.215C135.092 176.124 135.143 175.996 135.187 175.845C135.221 175.726 135.301 175.43 135.288 175.053L130.635 175.213C130.624 174.869 130.696 174.618 130.714 174.555C130.741 174.46 130.767 174.399 130.772 174.387C130.783 174.362 130.775 174.385 130.723 174.478C130.625 174.657 130.452 174.942 130.186 175.355C129.66 176.172 128.852 177.361 127.751 178.94L131.569 181.603ZM135.288 175.053C135.249 173.941 134.682 173.115 134.055 172.595C133.481 172.121 132.83 171.868 132.334 171.724C131.336 171.434 130.277 171.389 129.664 171.41L129.824 176.062C129.954 176.058 130.167 176.061 130.408 176.084C130.653 176.107 130.871 176.147 131.034 176.194C131.222 176.249 131.199 176.274 131.087 176.182C131.019 176.125 130.905 176.013 130.806 175.831C130.701 175.64 130.643 175.424 130.635 175.213L135.288 175.053ZM129.664 171.41C127.72 171.477 125.679 171.974 124.413 173.652L128.13 176.455C128.133 176.451 128.185 176.374 128.429 176.282C128.694 176.182 129.134 176.086 129.824 176.062L129.664 171.41ZM124.405 173.663C123.558 174.8 122.746 176.168 122.002 177.793L126.235 179.73C126.858 178.37 127.507 177.291 128.138 176.444L124.405 173.663ZM121.984 177.835L120.265 181.799L124.535 183.651L126.254 179.688L121.984 177.835ZM120.254 181.824C117.783 187.714 116.383 190.947 116.263 191.257L120.602 192.942C120.6 192.947 120.617 192.904 120.675 192.768C120.725 192.648 120.796 192.483 120.887 192.27C121.067 191.846 121.327 191.239 121.66 190.457C122.327 188.889 123.294 186.61 124.546 183.625L120.254 181.824ZM116.349 191.062C116.09 191.582 115.856 192.107 115.693 192.606C115.547 193.05 115.368 193.73 115.46 194.461L120.079 193.881C120.101 194.062 120.082 194.174 120.081 194.177C120.08 194.187 120.085 194.15 120.116 194.055C120.18 193.86 120.305 193.561 120.516 193.137L116.349 191.062ZM111.776 203.384C111.812 204.414 112.26 205.47 113.279 206.148C114.157 206.733 115.165 206.833 115.962 206.805L115.802 202.153C115.648 202.158 115.584 202.146 115.588 202.147C115.593 202.147 115.705 202.171 115.858 202.273C116.026 202.384 116.188 202.555 116.3 202.772C116.406 202.979 116.426 203.149 116.429 203.223L111.776 203.384ZM115.962 206.805C117.597 206.749 119.2 206.176 120.188 204.669L116.295 202.117C116.3 202.109 116.313 202.092 116.332 202.076C116.35 202.061 116.358 202.059 116.344 202.065C116.311 202.081 116.158 202.141 115.802 202.153L115.962 206.805ZM120.165 204.704C120.499 204.214 121.132 202.929 121.609 201.892C121.868 201.329 122.124 200.745 122.319 200.249C122.415 200.005 122.509 199.75 122.582 199.516C122.618 199.398 122.774 198.921 122.756 198.406L118.104 198.566C118.095 198.313 118.137 198.138 118.137 198.137C118.144 198.103 118.147 198.1 118.135 198.139C118.111 198.217 118.064 198.351 117.987 198.545C117.837 198.927 117.62 199.425 117.38 199.947C117.142 200.465 116.892 200.983 116.68 201.4C116.574 201.609 116.483 201.785 116.41 201.918C116.326 202.072 116.3 202.109 116.318 202.082L120.165 204.704ZM122.756 198.406C122.736 197.798 122.545 197.172 122.128 196.625C121.728 196.099 121.219 195.777 120.761 195.582C119.908 195.218 118.932 195.165 118.075 195.194L118.235 199.847C118.528 199.837 118.733 199.847 118.866 199.863C119.006 199.88 119.01 199.896 118.936 199.864C118.855 199.83 118.631 199.716 118.425 199.444C118.202 199.152 118.113 198.826 118.104 198.566L122.756 198.406ZM118.075 195.194C117.164 195.226 116.22 195.356 115.379 195.713C114.488 196.09 113.63 196.765 113.183 197.857L117.491 199.62C117.438 199.749 117.358 199.858 117.276 199.933C117.202 200.002 117.158 200.014 117.196 199.998C117.235 199.982 117.334 199.947 117.516 199.915C117.696 199.883 117.933 199.857 118.235 199.847L118.075 195.194ZM113.167 197.896C112.722 199.042 112.376 200.064 112.142 200.936C111.921 201.76 111.75 202.624 111.776 203.384L116.429 203.223C116.429 203.225 116.427 203.137 116.461 202.93C116.493 202.732 116.549 202.472 116.637 202.143C116.814 201.484 117.099 200.629 117.506 199.581L113.167 197.896Z" fill="black" mask="url(#path-14-outside-5_64_436)"/>
<path d="M16.1257 174.924C13.9457 174.924 12.6857 173.684 12.6857 171.524C12.6857 170.924 12.7657 170.364 12.9257 169.804C14.4857 164.304 20.1457 160.204 25.8257 160.204C26.5857 160.204 26.9657 160.424 26.9657 160.844C26.9657 160.964 26.9057 161.284 26.8057 161.824C26.7457 162.024 26.7257 162.504 26.7257 163.244C26.7257 163.784 26.4257 164.224 25.7657 164.584C25.2657 164.884 24.9057 165.024 24.6257 165.024C24.1857 165.024 23.9857 164.624 23.9857 163.844C23.9857 163.764 24.0057 163.544 24.0057 163.224C21.5657 163.624 19.5057 164.544 17.8657 165.964C15.9857 167.624 15.0657 169.064 15.0657 170.344C15.0657 171.784 16.4257 172.204 17.6257 172.204C18.3857 172.204 19.3657 171.984 20.5657 171.524C21.0257 171.344 21.9657 170.904 23.4057 170.224C24.3657 169.764 24.9457 169.544 25.1657 169.544C25.5057 169.544 25.7057 169.744 25.6857 170.144C25.7057 170.644 25.4857 171.084 25.0857 171.404C25.0057 171.484 24.6057 171.744 23.8257 172.184C20.7457 174.004 18.1657 174.924 16.1257 174.924ZM28.0276 170.044C28.0276 164.604 34.0076 159.864 39.1476 159.864C42.1876 159.864 44.8476 161.784 44.8076 165.004C44.8076 170.384 38.7676 175.164 33.6876 175.164C30.5876 175.164 28.0276 173.324 28.0276 170.044ZM31.1076 169.264C31.1076 171.524 32.4876 173.064 34.7876 173.064C36.5076 173.064 38.0676 172.324 39.4476 170.824C40.8476 169.344 41.4876 167.764 41.5076 166.004C41.5076 163.744 40.1276 162.204 37.8276 162.204C34.2276 162.204 31.1476 165.784 31.1076 169.264ZM43.8876 173.784C43.9076 173.444 44.0476 173.044 44.3476 172.604C45.7876 170.684 46.9276 168.884 48.0676 166.744C48.6676 165.644 49.5676 163.984 50.7276 161.764C51.1076 161.064 51.5676 160.724 52.1276 160.724C52.5876 160.724 52.8276 161.164 52.8276 162.044C52.8276 162.224 52.8076 162.504 52.7676 162.884V163.744C52.7476 165.404 52.8876 167.404 53.1676 169.764C54.4876 167.564 55.6676 165.484 56.6476 163.504C56.8876 162.984 57.3676 162.064 58.0076 160.744C58.3676 160.064 58.8276 159.724 59.3676 159.724C59.8476 159.724 60.0876 160.224 60.0876 161.244C60.0876 161.504 60.0476 161.984 59.9876 162.704V162.684L59.9476 165.824C59.9476 167.984 60.0276 169.724 60.2276 171.044C60.2876 171.344 60.3276 171.644 60.3676 171.944C60.4476 172.304 60.4876 172.624 60.4876 172.884C60.4876 173.644 59.3076 174.764 58.5476 174.764C58.3076 174.764 58.1276 174.644 57.9676 174.404C57.8676 174.244 57.8076 172.924 57.7676 170.404L57.6676 165.884C56.7076 167.544 55.8676 169.064 55.1676 170.404L53.8476 172.824C53.1876 174.064 52.7476 174.784 52.5276 175.004C52.2276 175.284 51.9676 175.404 51.7676 175.404C51.4676 175.404 51.2276 175.224 51.0076 174.844C50.8876 174.544 50.8076 174.204 50.8076 173.844C50.8076 173.564 50.8476 173.324 50.9676 173.124C50.9276 172.304 50.8276 170.084 50.6676 166.424C49.8076 167.924 48.4076 170.304 46.4876 173.584C46.1076 174.224 45.8876 174.584 45.8076 174.684C45.4876 175.164 45.1676 175.404 44.8876 175.404C44.1276 175.404 43.8876 174.384 43.8876 173.784ZM61.589 174.824C61.409 174.524 61.309 174.164 61.329 173.784C61.329 173.404 61.529 172.964 61.969 172.484C62.189 172.244 62.549 171.864 62.989 171.364C64.169 170.044 65.369 168.384 66.689 166.384C67.449 165.204 68.569 163.484 70.049 161.144C70.469 160.464 71.049 160.124 71.809 160.124C72.229 160.124 72.509 160.324 72.629 160.704C72.669 160.824 72.689 161.184 72.729 161.824C73.109 165.644 73.689 168.744 74.489 171.104C74.589 171.424 74.709 171.744 74.809 172.064C74.969 172.464 75.049 172.784 75.029 173.024C75.029 173.824 73.729 174.564 73.009 174.564C72.629 174.564 72.369 174.284 72.209 173.724C72.169 173.504 72.069 173.064 71.989 172.404C69.829 172.884 67.209 173.404 64.069 173.944C63.429 174.884 62.909 175.364 62.509 175.364C62.149 175.364 61.849 175.184 61.589 174.824ZM70.709 164.124C70.009 165.104 68.469 167.424 66.069 171.084C68.029 170.744 69.869 170.304 71.589 169.744C71.389 168.404 71.089 166.544 70.709 164.124ZM78.3598 174.684C77.4598 174.084 76.9798 172.684 76.9798 171.644C76.9798 171.024 77.1798 169.764 77.9998 169.764C78.3798 169.764 78.6598 170.004 78.8798 170.484C79.1798 171.144 79.4398 171.604 79.6798 171.824C80.1998 172.284 81.0798 172.524 82.2598 172.524C84.3398 172.524 86.5398 171.704 87.7198 169.924C87.9998 169.544 88.1398 169.264 88.1398 169.084C88.1398 168.524 84.4198 168.244 83.9798 168.224C83.0198 168.184 81.6198 168.124 79.7198 168.004C78.8398 167.944 78.3998 167.564 78.3798 166.884C78.3998 165.964 79.1998 164.844 80.7398 163.504C83.5598 161.064 86.5598 159.864 89.7598 159.864C90.5198 159.864 90.9198 160.104 90.8998 160.624C90.8998 161.624 90.8598 162.364 90.6998 162.864C90.5398 163.464 89.2998 164.164 88.6998 164.164C88.2398 164.164 88.0198 163.884 87.9998 163.324L87.9798 162.804L87.7598 162.784C86.7998 162.704 85.6998 162.944 84.5798 163.484C83.5598 163.924 82.6998 164.564 81.9598 165.404C82.0598 165.384 82.4598 165.364 83.1798 165.364H83.4798C84.8798 165.364 90.2198 165.724 91.2798 166.124C91.6398 166.264 91.7998 166.584 91.7998 167.044C91.7998 167.564 91.6598 168.064 91.3798 168.524C89.2598 172.244 84.3798 175.064 80.0998 175.064C79.3598 175.064 78.7798 174.924 78.3598 174.684ZM100.831 174.324C100.811 173.804 100.971 172.944 101.251 171.724C101.471 170.844 101.691 169.964 101.891 169.104C101.611 168.904 101.471 168.644 101.471 168.284C101.471 167.684 101.931 166.944 102.471 166.704C102.671 165.884 102.991 164.624 103.431 162.904C103.591 162.264 103.691 161.884 104.271 161.504C104.451 161.384 104.791 161.284 105.271 161.144C106.771 160.704 107.651 160.464 107.951 160.384C108.791 160.184 109.711 160.084 110.711 160.084C111.291 160.084 111.711 160.124 111.971 160.164C112.831 160.384 113.311 161.124 113.311 161.744C113.311 162.404 112.811 162.804 111.831 162.904C111.131 162.984 110.071 163.104 108.651 163.264C107.811 163.384 106.771 163.664 105.471 164.164C105.291 164.744 105.091 165.364 104.911 165.984C107.531 165.304 109.971 164.984 112.251 164.984C112.651 164.984 112.951 164.984 113.111 165.044C113.651 165.164 114.371 165.664 114.371 166.264C114.371 166.984 113.351 167.164 112.811 167.224C109.131 167.644 106.251 168.164 104.211 168.764C103.931 170.004 103.731 171.204 103.591 172.364C104.711 172.364 105.911 172.224 107.151 171.964C107.231 171.944 108.411 171.684 110.671 171.184C110.931 171.144 111.151 171.104 111.291 171.104C111.831 171.104 112.071 171.304 112.091 171.684C112.051 172.484 111.331 173.204 110.671 173.584C108.431 174.744 104.811 175.224 102.291 175.224C101.331 175.224 100.811 174.924 100.831 174.324ZM114.824 173.884C114.804 173.324 115.184 171.364 116.004 167.964C116.784 164.564 117.304 162.564 117.544 161.944C117.904 161.064 118.544 160.644 119.464 160.644C119.984 160.644 120.264 160.844 120.224 161.264C120.244 161.444 120.144 161.824 119.964 162.364C118.684 165.684 117.904 168.864 117.564 171.904C119.264 171.864 120.944 171.624 122.604 171.204L124.624 170.724C124.884 170.684 125.084 170.644 125.244 170.644C125.784 170.644 126.064 170.844 126.084 171.244C125.924 174.184 118.404 174.764 116.304 174.764C115.304 174.764 114.824 174.464 114.824 173.884ZM126.926 169.784C126.246 169.784 125.826 169.204 125.786 168.524C125.806 167.924 126.046 167.544 126.506 167.384C126.686 167.324 127.166 167.304 127.926 167.304C129.206 167.304 130.386 167.204 131.486 167.024C131.806 166.984 132.486 166.784 133.546 166.484C134.586 166.184 135.146 166.044 135.286 166.044C135.966 166.044 136.166 166.784 136.166 167.324C136.186 167.864 135.866 168.284 135.226 168.584C134.726 168.824 134.066 168.984 133.146 169.104C131.086 169.244 128.966 169.784 126.926 169.784Z" fill="black"/>
</svg>
