<svg width="123" height="70" viewBox="0 0 123 70" fill="none" xmlns="http://www.w3.org/2000/svg">
<path fill-rule="evenodd" clip-rule="evenodd" d="M7.70548 24.6582C2.55116 22.1422 1 18.3921 1 14.3734C1 9.42865 5.54548 5.09694 13.0521 2.6817C16.693 1.51023 20.9708 1 25.8858 1C40.9342 1 54.5471 6.29223 53.9547 15.1736C53.6238 20.136 52.1044 22.2759 48.2311 24.3524C50.9442 24.2202 53.6753 24.1754 56.4042 24.1306C57.7274 24.1089 59.05 24.0872 60.3699 24.0555L60.5702 24.0452C67.8019 24.1556 75.0286 24.4807 82.2229 25.0194C88.2654 25.4544 94.1866 26.0985 99.8907 27.5014C107.837 29.4069 114.3 33.0421 117.922 37.6432C121.257 41.7527 122.009 46.1348 120.851 50.6124C119.803 54.6391 117.529 58.2838 112.464 61.1274C105.482 65.0764 96.6865 66.6249 87.3176 67.3232C82.9088 67.6498 78.4572 67.7747 74.0046 67.8996C72.2589 67.9486 70.5131 67.9976 68.7696 68.0587C59.3933 68.4716 49.9323 68.0836 40.6768 66.9067C33.7785 65.9699 26.968 64.833 21.1916 62.1819C16.7684 60.1521 12.9171 57.9035 10.9128 54.6908C7.70097 49.7346 7.25672 44.3365 9.64615 39.3001C12.0145 34.2496 16.6289 30.3164 24.2748 27.8761C17.2515 27.6946 11.5016 26.5111 7.70548 24.6582Z" fill="white"/>
<path d="M7.70548 24.6582L8.14413 23.7595L7.70548 24.6582ZM13.0521 2.6817L13.3584 3.63364L13.0521 2.6817ZM53.9547 15.1736L54.9525 15.2401L53.9547 15.1736ZM48.2311 24.3524L47.7586 23.4711C47.3466 23.692 47.1426 24.1689 47.2675 24.6195C47.3924 25.0701 47.8128 25.374 48.2798 25.3512L48.2311 24.3524ZM56.4042 24.1306L56.3878 23.1307L56.4042 24.1306ZM60.3699 24.0555L60.3939 25.0553C60.403 25.055 60.4122 25.0547 60.4214 25.0542L60.3699 24.0555ZM60.5702 24.0452L60.5854 23.0453C60.5632 23.045 60.5409 23.0454 60.5186 23.0465L60.5702 24.0452ZM82.2229 25.0194L82.1483 26.0167L82.1511 26.0169L82.2229 25.0194ZM99.8907 27.5014L99.6519 28.4725L99.6576 28.4739L99.8907 27.5014ZM117.922 37.6432L117.136 38.2618C117.139 38.2657 117.142 38.2695 117.145 38.2734L117.922 37.6432ZM120.851 50.6124L121.819 50.8643L121.819 50.8628L120.851 50.6124ZM112.464 61.1274L111.975 60.2554L111.972 60.257L112.464 61.1274ZM87.3176 67.3232L87.3915 68.3204L87.3919 68.3204L87.3176 67.3232ZM74.0046 67.8996L74.0326 68.8992L74.0046 67.8996ZM68.7696 68.0587L68.7346 67.0593L68.7256 67.0597L68.7696 68.0587ZM40.6768 66.9067L40.5422 67.8977L40.5507 67.8987L40.6768 66.9067ZM21.1916 62.1819L21.6087 61.273L21.6086 61.273L21.1916 62.1819ZM10.9128 54.6908L11.7612 54.1615C11.7582 54.1566 11.7551 54.1518 11.752 54.147L10.9128 54.6908ZM9.64615 39.3001L10.5496 39.7287L10.5515 39.7246L9.64615 39.3001ZM24.2748 27.8761L24.5788 28.8288C25.0437 28.6804 25.3336 28.2182 25.2648 27.735C25.1959 27.2519 24.7884 26.8891 24.3006 26.8765L24.2748 27.8761ZM0.514018 18.171C0.670466 18.7006 1.22667 19.0032 1.75633 18.8467C2.28599 18.6903 2.58854 18.1341 2.4321 17.6044L0.514018 18.171ZM5.35317 21.9842C4.92994 21.6294 4.29921 21.6849 3.9444 22.1081C3.58958 22.5313 3.64505 23.1621 4.06828 23.5169L5.35317 21.9842ZM9.49948 26.4955C10.0187 26.6836 10.5922 26.4152 10.7803 25.896C10.9684 25.3767 10.7 24.8032 10.1808 24.6151L9.49948 26.4955ZM13.7713 25.6567C13.233 25.5332 12.6965 25.8693 12.5729 26.4076C12.4494 26.9459 12.7855 27.4824 13.3238 27.606L13.7713 25.6567ZM17.9888 28.4184C18.5368 28.4871 19.0367 28.0985 19.1053 27.5505C19.174 27.0025 18.7854 26.5026 18.2374 26.4339L17.9888 28.4184ZM22.0181 26.7794C21.4668 26.7464 20.9932 27.1666 20.9602 27.7179C20.9272 28.2692 21.3474 28.7428 21.8987 28.7758L22.0181 26.7794ZM21.4487 27.8227C20.9354 28.0265 20.6845 28.6079 20.8883 29.1212C21.0921 29.6345 21.6735 29.8853 22.1868 29.6815L21.4487 27.8227ZM18.4027 31.495C18.8812 31.2192 19.0454 30.6077 18.7696 30.1292C18.4938 29.6508 17.8823 29.4865 17.4038 29.7623L18.4027 31.495ZM13.0254 32.9823C12.6234 33.361 12.6045 33.9939 12.9833 34.3959C13.362 34.7978 13.9949 34.8167 14.3969 34.438L13.0254 32.9823ZM11.7528 37.5753C12.0562 37.1138 11.9281 36.4937 11.4666 36.1903C11.0051 35.8869 10.3851 36.0151 10.0817 36.4765L11.7528 37.5753ZM7.33388 43.3321C7.24479 43.8772 7.61442 44.3913 8.15947 44.4804C8.70452 44.5695 9.21859 44.1998 9.30768 43.6548L7.33388 43.3321ZM9.9131 50.417C9.73343 49.8947 9.16441 49.617 8.64217 49.7967C8.11993 49.9763 7.84222 50.5454 8.0219 51.0676L9.9131 50.417ZM12.5241 58.0962C12.9347 58.4655 13.567 58.432 13.9363 58.0214C14.3056 57.6107 14.2721 56.9785 13.8614 56.6091L12.5241 58.0962ZM18.5113 59.7457C18.0248 59.4843 17.4185 59.6667 17.1571 60.1532C16.8957 60.6397 17.0781 61.246 17.5646 61.5075L18.5113 59.7457ZM23.3792 64.1665C23.897 64.3586 24.4725 64.0946 24.6646 63.5768C24.8567 63.059 24.5927 62.4835 24.0749 62.2914L23.3792 64.1665ZM28.345 63.6316C27.8111 63.4903 27.2638 63.8085 27.1225 64.3424C26.9812 64.8764 27.2995 65.4237 27.8334 65.565L28.345 63.6316ZM33.2649 66.7655C33.808 66.8659 34.3296 66.507 34.43 65.9639C34.5304 65.4208 34.1715 64.8992 33.6284 64.7988L33.2649 66.7655ZM38.1056 65.5341C37.5592 65.4535 37.0509 65.831 36.9703 66.3774C36.8896 66.9238 37.2672 67.432 37.8136 67.5127L38.1056 65.5341ZM43.1074 68.2033C43.6563 68.2643 44.1508 67.8688 44.2118 67.3199C44.2728 66.771 43.8773 66.2766 43.3284 66.2156L43.1074 68.2033ZM47.5472 66.6289C46.9969 66.5822 46.5129 66.9904 46.4662 67.5407C46.4195 68.091 46.8278 68.575 47.3781 68.6217L47.5472 66.6289ZM52.5148 68.9775C53.0663 69.0071 53.5374 68.5841 53.567 68.0326C53.5967 67.4811 53.1736 67.01 52.6221 66.9804L52.5148 68.9775ZM56.858 67.1536C56.306 67.1381 55.8459 67.5731 55.8304 68.1251C55.8149 68.6772 56.2499 69.1373 56.802 69.1528L56.858 67.1536ZM61.9504 69.2179C62.5027 69.2164 62.9492 68.7675 62.9476 68.2152C62.9461 67.6629 62.4972 67.2164 61.9449 67.2179L61.9504 69.2179ZM66.1837 67.1518C65.6317 67.1675 65.1969 67.6278 65.2126 68.1799C65.2283 68.7319 65.6886 69.1667 66.2407 69.151L66.1837 67.1518ZM70.2289 69.0106C70.7809 68.9931 71.2142 68.5314 71.1967 67.9794C71.1792 67.4274 70.7175 66.9941 70.1655 67.0116L70.2289 69.0106ZM72.5482 66.9403C71.9961 66.9561 71.5614 67.4164 71.5772 67.9685C71.5929 68.5205 72.0533 68.9553 72.6053 68.9395L72.5482 66.9403ZM77.669 68.7931C78.221 68.7758 78.6544 68.3142 78.6371 67.7622C78.6197 67.2102 78.1582 66.7768 77.6062 66.7941L77.669 68.7931ZM83.638 66.5515C83.0865 66.5803 82.6627 67.0507 82.6916 67.6023C82.7204 68.1538 83.1908 68.5776 83.7424 68.5488L83.638 66.5515ZM90.9655 68.0069C91.5149 67.9508 91.9148 67.46 91.8587 66.9105C91.8026 66.3611 91.3117 65.9612 90.7623 66.0173L90.9655 68.0069ZM96.5809 65.2491C96.0361 65.3397 95.6679 65.8548 95.7585 66.3996C95.8491 66.9444 96.3642 67.3126 96.909 67.222L96.5809 65.2491ZM103.968 65.6628C104.499 65.5114 104.807 64.9581 104.656 64.427C104.504 63.8959 103.951 63.588 103.42 63.7394L103.968 65.6628ZM108.879 61.7986C108.373 62.0201 108.142 62.6098 108.364 63.1157C108.585 63.6216 109.175 63.8521 109.681 63.6306L108.879 61.7986ZM116.224 59.771C116.649 59.4179 116.707 58.7874 116.354 58.3628C116.001 57.9381 115.37 57.8802 114.945 58.2333L116.224 59.771ZM118.634 53.6859C118.382 54.1772 118.576 54.78 119.067 55.0324C119.558 55.2848 120.161 55.0911 120.413 54.5999L118.634 53.6859ZM122.36 46.8904C122.364 46.3381 121.92 45.8866 121.368 45.882C120.816 45.8774 120.364 46.3214 120.36 46.8736L122.36 46.8904ZM119.067 41.2465C119.31 41.7426 119.909 41.9479 120.405 41.7051C120.901 41.4623 121.106 40.8634 120.864 40.3673L119.067 41.2465ZM116.675 34.8022C116.275 34.4213 115.642 34.4369 115.261 34.8369C114.881 35.2369 114.896 35.8699 115.296 36.2507L116.675 34.8022ZM111.677 33.4227C112.14 33.7232 112.759 33.591 113.06 33.1276C113.36 32.6642 113.228 32.045 112.765 31.7445L111.677 33.4227ZM107.551 28.9774C107.044 28.7583 106.456 28.9916 106.237 29.4985C106.017 30.0054 106.251 30.5941 106.758 30.8132L107.551 28.9774ZM102.37 29.2104C102.899 29.3712 103.458 29.0734 103.618 28.545C103.779 28.0167 103.481 27.458 102.953 27.2971L102.37 29.2104ZM97.72 25.9833C97.1794 25.8704 96.6496 26.2171 96.5366 26.7577C96.4237 27.2983 96.7704 27.8281 97.311 27.9411L97.72 25.9833ZM93.3665 27.2232C93.912 27.309 94.4239 26.9362 94.5096 26.3906C94.5954 25.845 94.2226 25.3332 93.677 25.2475L93.3665 27.2232ZM88.8025 24.6017C88.2535 24.541 87.7593 24.9369 87.6987 25.4858C87.638 26.0348 88.0339 26.5289 88.5828 26.5896L88.8025 24.6017ZM84.5685 26.204C85.1189 26.2499 85.6022 25.8409 85.6481 25.2905C85.694 24.7401 85.2851 24.2568 84.7347 24.2109L84.5685 26.204ZM79.3408 23.8129C78.7897 23.7762 78.3132 24.1931 78.2765 24.7442C78.2397 25.2952 78.6566 25.7718 79.2077 25.8085L79.3408 23.8129ZM74.3033 25.5148C74.8548 25.5441 75.3256 25.1207 75.3549 24.5692C75.3842 24.0177 74.9608 23.5469 74.4093 23.5176L74.3033 25.5148ZM68.487 23.2512C67.9351 23.2309 67.4712 23.6618 67.4509 24.2137C67.4305 24.7656 67.8615 25.2295 68.4134 25.2499L68.487 23.2512ZM63.5023 25.102C64.0545 25.1149 64.5125 24.6778 64.5254 24.1256C64.5383 23.5735 64.1012 23.1154 63.549 23.1025L63.5023 25.102ZM60.464 23.0493C59.9124 23.0778 59.4884 23.548 59.5169 24.0996C59.5453 24.6511 60.0155 25.0752 60.5671 25.0467L60.464 23.0493ZM60.4761 25.0514C61.0276 25.0229 61.4516 24.5527 61.4232 24.0012C61.3947 23.4496 60.9245 23.0256 60.3729 23.054L60.4761 25.0514ZM59.268 23.0796C58.7158 23.0909 58.2773 23.5477 58.2886 24.0998C58.2999 24.652 58.7566 25.0905 59.3088 25.0792L59.268 23.0796ZM57.5028 25.1125C58.055 25.1031 58.495 24.6479 58.4856 24.0957C58.4763 23.5435 58.021 23.1034 57.4688 23.1128L57.5028 25.1125ZM54.1558 23.1691C53.6036 23.1795 53.1644 23.6356 53.1748 24.1877C53.1851 24.7399 53.6412 25.1792 54.1934 25.1688L54.1558 23.1691ZM50.4926 25.2612C51.0446 25.2428 51.4771 24.7804 51.4587 24.2284C51.4402 23.6764 50.9778 23.2439 50.4258 23.2624L50.4926 25.2612ZM51.4863 23.3967C51.9068 23.0387 51.9575 22.4076 51.5995 21.987C51.2414 21.5665 50.6103 21.5158 50.1898 21.8738L51.4863 23.3967ZM52.5341 18.0182C52.3981 18.5535 52.7218 19.0977 53.257 19.2337C53.7923 19.3697 54.3365 19.046 54.4725 18.5107L52.5341 18.0182ZM54.5062 11.7615C54.3298 11.2381 53.7625 10.9569 53.2392 11.1333C52.7158 11.3097 52.4346 11.877 52.611 12.4003L54.5062 11.7615ZM49.9424 8.57904C50.3536 8.94777 50.9858 8.91338 51.3546 8.50222C51.7233 8.09106 51.6889 7.45883 51.2777 7.0901L49.9424 8.57904ZM45.7092 3.62279C45.2044 3.39869 44.6136 3.62623 44.3895 4.13101C44.1654 4.63579 44.3929 5.22666 44.8977 5.45075L45.7092 3.62279ZM40.1072 3.76984C40.6399 3.91563 41.1899 3.60197 41.3357 3.06927C41.4815 2.53658 41.1679 1.98656 40.6352 1.84078L40.1072 3.76984ZM34.3641 0.571836C33.8171 0.495824 33.312 0.877659 33.236 1.42469C33.16 1.97172 33.5418 2.47679 34.0889 2.5528L34.3641 0.571836ZM28.9732 2.07609C29.5248 2.10345 29.9942 1.67845 30.0215 1.12685C30.0489 0.575238 29.6239 0.1059 29.0723 0.0785491L28.9732 2.07609ZM22.2864 0.0982547C21.735 0.129742 21.3136 0.602255 21.3451 1.15364C21.3765 1.70503 21.8491 2.12649 22.4004 2.095L22.2864 0.0982547ZM16.6764 2.78646C17.2183 2.67998 17.5713 2.15435 17.4649 1.61243C17.3584 1.07051 16.8328 0.717504 16.2908 0.823979L16.6764 2.78646ZM10.376 2.59219C9.86489 2.80153 9.62029 3.38555 9.82963 3.89662C10.039 4.40769 10.623 4.65229 11.1341 4.44295L10.376 2.59219ZM7.64812 6.19822C8.11786 5.90777 8.26319 5.29151 7.97273 4.82177C7.68227 4.35203 7.06601 4.2067 6.59628 4.49716L7.64812 6.19822ZM2.62066 7.80548C2.26004 8.22378 2.30681 8.85522 2.72511 9.21583C3.14341 9.57645 3.77485 9.52968 4.13546 9.11138L2.62066 7.80548ZM2.32334 12.2647C2.48758 11.7374 2.19326 11.1768 1.66596 11.0126C1.13866 10.8483 0.57806 11.1427 0.413821 11.67L2.32334 12.2647ZM0 14.3734C0 15.6539 0.148028 16.9319 0.514018 18.171L2.4321 17.6044C2.13054 16.5835 2 15.5013 2 14.3734H0ZM4.06828 23.5169C4.96394 24.2677 6.02419 24.9503 7.26684 25.5568L8.14413 23.7595C7.02995 23.2156 6.11003 22.6187 5.35317 21.9842L4.06828 23.5169ZM7.26684 25.5568C7.9568 25.8936 8.70259 26.2068 9.49948 26.4955L10.1808 24.6151C9.44302 24.3478 8.76339 24.0618 8.14413 23.7595L7.26684 25.5568ZM13.3238 27.606C14.7696 27.9379 16.3291 28.2105 17.9888 28.4184L18.2374 26.4339C16.6375 26.2335 15.1449 25.9721 13.7713 25.6567L13.3238 27.606ZM21.8987 28.7758C22.6657 28.8216 23.4494 28.8551 24.2489 28.8758L24.3006 26.8765C23.5231 26.8564 22.762 26.8238 22.0181 26.7794L21.8987 28.7758ZM23.9707 26.9235C23.0933 27.2035 22.2529 27.5034 21.4487 27.8227L22.1868 29.6815C22.946 29.3801 23.7429 29.0956 24.5788 28.8288L23.9707 26.9235ZM17.4038 29.7623C15.7377 30.7228 14.2823 31.7981 13.0254 32.9823L14.3969 34.438C15.5319 33.3686 16.8601 32.3843 18.4027 31.495L17.4038 29.7623ZM10.0817 36.4765C9.57493 37.2473 9.129 38.0476 8.74075 38.8755L10.5515 39.7246C10.9001 38.9815 11.2995 38.2647 11.7528 37.5753L10.0817 36.4765ZM8.74267 38.8714C8.05144 40.3284 7.58081 41.8214 7.33388 43.3321L9.30768 43.6548C9.52295 42.3378 9.935 41.0242 10.5496 39.7287L8.74267 38.8714ZM8.0219 51.0676C8.51007 52.4865 9.19596 53.8804 10.0736 55.2346L11.752 54.147C10.9564 52.9194 10.3447 51.6714 9.9131 50.417L8.0219 51.0676ZM10.0643 55.2201C10.7267 56.2818 11.5636 57.2325 12.5241 58.0962L13.8614 56.6091C13.013 55.8462 12.3067 55.0359 11.7612 54.1615L10.0643 55.2201ZM17.5646 61.5075C18.5918 62.0595 19.6692 62.5836 20.7745 63.0908L21.6086 61.273C20.5289 60.7775 19.4912 60.2723 18.5113 59.7457L17.5646 61.5075ZM20.7744 63.0907C21.624 63.4807 22.4933 63.8379 23.3792 64.1665L24.0749 62.2914C23.2319 61.9787 22.4091 61.6404 21.6087 61.273L20.7744 63.0907ZM27.8334 65.565C29.6056 66.034 31.4233 66.4251 33.2649 66.7655L33.6284 64.7988C31.8237 64.4653 30.0571 64.0846 28.345 63.6316L27.8334 65.565ZM37.8136 67.5127C38.7213 67.6466 39.6317 67.774 40.5422 67.8976L40.8114 65.9158C39.9059 65.7928 39.0034 65.6666 38.1056 65.5341L37.8136 67.5127ZM40.5507 67.8987C41.4013 68.0069 42.2536 68.1084 43.1074 68.2033L43.3284 66.2156C42.485 66.1218 41.6431 66.0215 40.803 65.9147L40.5507 67.8987ZM47.3781 68.6217C49.0865 68.7667 50.7993 68.8853 52.5148 68.9775L52.6221 66.9804C50.9272 66.8893 49.235 66.7721 47.5472 66.6289L47.3781 68.6217ZM56.802 69.1528C58.5174 69.2009 60.2341 69.2226 61.9504 69.2179L61.9449 67.2179C60.2492 67.2226 58.553 67.2011 56.858 67.1536L56.802 69.1528ZM66.2407 69.151C67.0989 69.1265 67.9566 69.0955 68.8136 69.0577L68.7256 67.0597C67.879 67.0969 67.0316 67.1276 66.1837 67.1518L66.2407 69.151ZM68.8047 69.0581C69.2791 69.0414 69.7539 69.0257 70.2289 69.0106L70.1655 67.0116C69.6885 67.0268 69.2115 67.0426 68.7346 67.0593L68.8047 69.0581ZM72.6053 68.9395C73.0809 68.9259 73.5566 68.9126 74.0326 68.8992L73.9765 66.9C73.5006 66.9134 73.0244 66.9267 72.5482 66.9403L72.6053 68.9395ZM74.0326 68.8992C75.2437 68.8652 76.4566 68.8312 77.669 68.7931L77.6062 66.7941C76.3978 66.8321 75.1882 66.866 73.9765 66.9L74.0326 68.8992ZM83.7424 68.5488C84.9602 68.4851 86.1769 68.4104 87.3915 68.3204L87.2437 66.3259C86.0458 66.4147 84.8438 66.4885 83.638 66.5515L83.7424 68.5488ZM87.3919 68.3204C88.5921 68.231 89.7842 68.1276 90.9655 68.0069L90.7623 66.0173C89.6013 66.1358 88.4275 66.2377 87.2433 66.3259L87.3919 68.3204ZM96.909 67.222C99.3375 66.8181 101.7 66.3093 103.968 65.6628L103.42 63.7394C101.237 64.3617 98.9494 64.8552 96.5809 65.2491L96.909 67.222ZM109.681 63.6306C110.808 63.1372 111.901 62.5948 112.957 61.9978L111.972 60.257C110.98 60.8181 109.948 61.3305 108.879 61.7986L109.681 63.6306ZM112.954 61.9994C114.189 61.3059 115.273 60.5618 116.224 59.771L114.945 58.2333C114.096 58.9401 113.113 59.6165 111.975 60.2554L112.954 61.9994ZM120.413 54.5999C121.034 53.3911 121.487 52.1401 121.819 50.8643L119.883 50.3604C119.583 51.5157 119.179 52.626 118.634 53.6859L120.413 54.5999ZM121.819 50.8628C122.162 49.5391 122.349 48.2129 122.36 46.8904L120.36 46.8736C120.35 48.0179 120.188 49.1812 119.883 50.3619L121.819 50.8628ZM120.864 40.3673C120.304 39.2241 119.584 38.1052 118.698 37.0131L117.145 38.2734C117.944 39.2575 118.579 40.2496 119.067 41.2465L120.864 40.3673ZM118.707 37.0247C118.1 36.2536 117.421 35.5118 116.675 34.8022L115.296 36.2507C115.978 36.8994 116.592 37.5709 117.136 38.2618L118.707 37.0247ZM112.765 31.7445C111.182 30.7184 109.435 29.7916 107.551 28.9774L106.758 30.8132C108.548 31.5872 110.196 32.4625 111.677 33.4227L112.765 31.7445ZM102.953 27.2971C102.032 27.0167 101.088 26.7603 100.124 26.529L99.6576 28.4739C100.584 28.696 101.489 28.9419 102.37 29.2104L102.953 27.2971ZM100.13 26.5304C99.3299 26.3337 98.5266 26.1518 97.72 25.9833L97.311 27.9411C98.0958 28.105 98.8762 28.2817 99.6519 28.4725L100.13 26.5304ZM93.677 25.2475C92.0628 24.9937 90.437 24.7823 88.8025 24.6017L88.5828 26.5896C90.1921 26.7674 91.7871 26.975 93.3665 27.2232L93.677 25.2475ZM84.7347 24.2109C83.9232 24.1432 83.1097 24.0807 82.2947 24.022L82.1511 26.0169C82.9598 26.0751 83.7656 26.137 84.5685 26.204L84.7347 24.2109ZM82.2976 24.0222C81.3126 23.9485 80.327 23.8787 79.3408 23.8129L79.2077 25.8085C80.1884 25.8739 81.1687 25.9433 82.1483 26.0167L82.2976 24.0222ZM74.4093 23.5176C72.4367 23.4128 70.4624 23.324 68.487 23.2512L68.4134 25.2499C70.378 25.3223 72.3415 25.4106 74.3033 25.5148L74.4093 23.5176ZM63.549 23.1025C62.5613 23.0795 61.5734 23.0604 60.5854 23.0453L60.5549 25.0451C61.5375 25.0601 62.52 25.0791 63.5023 25.102L63.549 23.1025ZM60.5186 23.0465L60.464 23.0493L60.5671 25.0467L60.6217 25.0439L60.5186 23.0465ZM60.3729 23.054L60.3183 23.0569L60.4214 25.0542L60.4761 25.0514L60.3729 23.054ZM60.3459 23.0558C59.987 23.0644 59.6277 23.0723 59.268 23.0796L59.3088 25.0792C59.6705 25.0718 60.0322 25.0639 60.3939 25.0553L60.3459 23.0558ZM57.4688 23.1128C57.1087 23.1189 56.7484 23.1248 56.3878 23.1307L56.4206 25.1305C56.7811 25.1246 57.142 25.1186 57.5028 25.1125L57.4688 23.1128ZM56.3878 23.1307C55.6448 23.1429 54.9003 23.1551 54.1558 23.1691L54.1934 25.1688C54.9351 25.1548 55.6772 25.1427 56.4206 25.1305L56.3878 23.1307ZM50.4258 23.2624C49.6778 23.2874 48.9298 23.3172 48.1825 23.3536L48.2798 25.3512C49.0154 25.3154 49.7531 25.286 50.4926 25.2612L50.4258 23.2624ZM48.7036 25.2337C49.7695 24.6623 50.6968 24.0688 51.4863 23.3967L50.1898 21.8738C49.5435 22.424 48.7473 22.941 47.7586 23.4711L48.7036 25.2337ZM54.4725 18.5107C54.7192 17.5395 54.8713 16.4582 54.9525 15.2401L52.957 15.107C52.8812 16.2425 52.7427 17.1972 52.5341 18.0182L54.4725 18.5107ZM54.9525 15.2401C55.0336 14.0239 54.8768 12.8609 54.5062 11.7615L52.611 12.4003C52.8978 13.2513 53.0206 14.1521 52.957 15.107L54.9525 15.2401ZM51.2777 7.0901C49.7721 5.73985 47.8751 4.5843 45.7092 3.62279L44.8977 5.45075C46.9248 6.35064 48.6303 7.40226 49.9424 8.57904L51.2777 7.0901ZM40.6352 1.84078C38.6632 1.30112 36.5571 0.876557 34.3641 0.571836L34.0889 2.5528C36.2051 2.84686 38.2262 3.25506 40.1072 3.76984L40.6352 1.84078ZM29.0723 0.0785491C28.02 0.0263724 26.9564 0 25.8858 0V2C26.9236 2 27.9542 2.02557 28.9732 2.07609L29.0723 0.0785491ZM25.8858 0C24.6487 0 23.4488 0.031877 22.2864 0.0982547L22.4004 2.095C23.5212 2.031 24.6828 2 25.8858 2V0ZM16.2908 0.823979C15.0557 1.06666 13.8736 1.36688 12.7458 1.72976L13.3584 3.63364C14.4047 3.29699 15.5103 3.01556 16.6764 2.78646L16.2908 0.823979ZM12.7458 1.72976C11.9225 1.99466 11.1318 2.28259 10.376 2.59219L11.1341 4.44295C11.8398 4.15388 12.5818 3.88351 13.3584 3.63364L12.7458 1.72976ZM6.59628 4.49716C5.0151 5.47486 3.67381 6.58386 2.62066 7.80548L4.13546 9.11138C5.03292 8.07036 6.20865 7.0883 7.64812 6.19822L6.59628 4.49716ZM0.413821 11.67C0.141205 12.5452 0 13.4494 0 14.3734H2C2 13.6556 2.10935 12.9517 2.32334 12.2647L0.413821 11.67Z" fill="black"/>
<path d="M14.8466 17.89C14.7966 17.8 15.0666 16.49 15.6766 13.96C15.6066 13.85 15.6066 13.7 15.6466 13.52C15.7166 13.25 16.0566 12.88 16.6666 12.41C17.6266 11.69 18.5166 11.33 19.3466 11.33C19.9366 11.33 20.3966 11.52 20.7466 11.9C21.1066 12.29 21.2166 12.78 21.0766 13.35C20.5866 15.31 17.7166 16.05 15.9766 16.28C15.9666 16.36 15.9466 16.58 15.9166 16.94C15.9066 17.21 15.8766 17.43 15.8366 17.6C15.7766 17.86 15.3366 18.02 15.0966 18.02C14.9666 18.02 14.8866 17.98 14.8466 17.89ZM16.1266 15.39C17.6866 15.34 18.7466 15.07 19.3166 14.58C19.7166 14.24 19.9466 13.91 20.0266 13.59C20.1166 13.22 19.9966 12.92 19.6466 12.68C19.3566 12.46 19.0266 12.35 18.6366 12.35C18.0666 12.35 17.3966 12.65 16.6566 13.24C16.4466 13.95 16.2766 14.66 16.1266 15.39ZM21.3333 17.09C21.2233 16.76 21.2033 16.44 21.2733 16.14C21.3333 15.9 21.4233 15.78 21.5533 15.78C21.6833 15.78 21.7833 15.86 21.8533 16.01C21.9133 16.14 21.9633 16.26 22.0033 16.39C22.2433 16.85 22.7633 17.08 23.5733 17.08C24.6333 17.08 26.0233 16.52 26.3833 15.44C26.4133 15.29 26.3533 15.19 26.2033 15.12C25.8233 14.96 25.2033 14.86 24.3433 14.81C23.6833 14.78 23.0133 14.75 22.3533 14.72C21.8933 14.68 21.7633 14.5 21.8833 14.03C21.9533 13.75 22.2833 13.35 22.8633 12.84C24.1133 11.73 25.4833 11.17 26.9533 11.17C27.3033 11.17 27.4033 11.21 27.3533 11.52C27.3533 11.78 27.3533 12.16 27.2833 12.41C27.2133 12.65 26.6833 12.93 26.4433 12.93C26.3333 12.93 26.2633 12.72 26.2633 12.3C26.1833 12.29 26.0933 12.29 26.0033 12.29C25.0333 12.29 24.1733 12.66 23.4133 13.4C23.2733 13.53 23.2033 13.61 23.1933 13.66C23.1733 13.76 25.1633 13.77 25.9433 13.84C26.8633 13.91 27.4433 14 27.6633 14.09C27.8433 14.16 27.8833 14.35 27.8033 14.68C27.7633 14.82 27.7133 14.94 27.6633 15.03C26.7233 16.72 24.5133 17.99 22.5833 17.99C21.9033 17.99 21.5333 17.76 21.3333 17.09ZM28.3915 17.09C28.2815 16.76 28.2615 16.44 28.3315 16.14C28.3915 15.9 28.4815 15.78 28.6115 15.78C28.7415 15.78 28.8415 15.86 28.9115 16.01C28.9715 16.14 29.0215 16.26 29.0615 16.39C29.3015 16.85 29.8215 17.08 30.6315 17.08C31.6915 17.08 33.0815 16.52 33.4415 15.44C33.4715 15.29 33.4115 15.19 33.2615 15.12C32.8815 14.96 32.2615 14.86 31.4015 14.81C30.7415 14.78 30.0715 14.75 29.4115 14.72C28.9515 14.68 28.8215 14.5 28.9415 14.03C29.0115 13.75 29.3415 13.35 29.9215 12.84C31.1715 11.73 32.5415 11.17 34.0115 11.17C34.3615 11.17 34.4615 11.21 34.4115 11.52C34.4115 11.78 34.4115 12.16 34.3415 12.41C34.2715 12.65 33.7415 12.93 33.5015 12.93C33.3915 12.93 33.3215 12.72 33.3215 12.3C33.2415 12.29 33.1515 12.29 33.0615 12.29C32.0915 12.29 31.2315 12.66 30.4715 13.4C30.3315 13.53 30.2615 13.61 30.2515 13.66C30.2315 13.76 32.2215 13.77 33.0015 13.84C33.9215 13.91 34.5015 14 34.7215 14.09C34.9015 14.16 34.9415 14.35 34.8615 14.68C34.8215 14.82 34.7715 14.94 34.7215 15.03C33.7815 16.72 31.5715 17.99 29.6415 17.99C28.9615 17.99 28.5915 17.76 28.3915 17.09ZM35.523 12.88C35.473 12.75 35.463 12.6 35.503 12.45C35.573 12.18 35.733 11.98 35.993 11.87C36.853 11.5 37.893 11.32 39.123 11.32C39.493 11.32 39.783 11.35 39.963 11.4C40.263 11.49 40.443 11.65 40.493 11.9C40.503 11.97 40.513 12.02 40.503 12.07C40.483 12.14 40.453 12.19 40.413 12.23C40.323 12.31 40.133 12.36 39.843 12.38C39.283 12.4 38.753 12.43 38.243 12.48C37.813 13.91 37.403 15.38 37.283 16.88C37.243 17.32 37.223 17.56 37.213 17.59C37.153 17.83 36.693 17.97 36.473 17.97C36.323 17.97 36.253 17.92 36.223 17.81C36.203 17.62 36.573 15.9 37.343 12.65C37.083 12.74 36.823 12.83 36.563 12.91C36.173 13.04 35.943 13.1 35.833 13.1C35.683 13.1 35.583 13.03 35.523 12.88Z" fill="black"/>
<path d="M43.8428 12.0945L46.3184 11M44.0833 14.7646L47.96 14.6221M43.8428 17.5928L46.605 18.5049" stroke="#ACACAC" stroke-width="1.5" stroke-linecap="round" stroke-linejoin="round"/>
<path d="M11.1172 12.0945L8.6416 11M10.8767 14.7646L6.99991 14.6221M11.1172 17.5928L8.35492 18.5049" stroke="#ACACAC" stroke-width="1.5" stroke-linecap="round" stroke-linejoin="round"/>
<path d="M22.3944 43.8097C22.3563 43.6794 22.7196 41.992 23.4843 38.7345C23.4074 38.5779 23.3957 38.3959 23.4492 38.1882C23.5027 37.9936 23.6081 37.7994 23.8045 37.6058C23.8961 37.5155 24.0923 37.3609 24.3669 37.1419C25.831 36.0215 27.2001 35.4724 28.5 35.4819C29.449 35.4888 30.1875 35.8321 30.6765 36.5247C31.1525 37.2172 31.2895 38.0372 31.0487 38.9845C30.7145 40.2431 29.8227 41.3156 28.3603 42.189C26.6628 43.2167 25.1134 43.5435 23.226 43.8678C22.8093 43.9557 22.601 44.0062 22.601 44.0062C22.484 44.0054 22.4194 43.9399 22.3944 43.8097ZM24.7513 37.9117C24.2721 39.4552 23.9095 41.0387 23.7418 42.6495C25.8622 42.4699 29.0011 41.6737 29.6162 39.3121C29.8034 38.5984 29.6908 37.9996 29.3044 37.5028C28.8919 37.0187 28.3477 36.7678 27.6327 36.7626C26.7357 36.7561 25.7709 37.1391 24.7513 37.9117ZM32.5303 43.0123C31.925 42.2279 31.763 41.2647 32.0704 40.1099C32.7266 37.4626 35.7068 35.2482 38.4237 35.268C39.5807 35.2764 40.4748 35.6729 41.0931 36.4574C41.7114 37.2549 41.8604 38.218 41.566 39.3729C40.8966 42.0331 37.9035 44.2344 35.1866 44.2147C34.0166 44.2062 33.1355 43.8098 32.5303 43.0123ZM33.5678 39.7828C33.3271 40.7041 33.4253 41.4978 33.8623 42.19C34.2991 42.9082 34.9855 43.2642 35.8955 43.2708C37.7414 43.2842 39.5091 41.555 39.9376 39.8291C40.1783 38.9078 40.0801 38.1141 39.6431 37.4219C39.1933 36.7036 38.5199 36.3477 37.6099 36.3411C35.7509 36.3276 34.0093 38.057 33.5678 39.7828ZM41.8617 44.1722C41.8363 44.094 42.0778 43.0557 42.5342 41.07C42.9506 39.2269 43.1927 38.1237 43.2863 37.7603C43.4466 37.1635 43.5663 36.8004 43.6452 36.6709C43.8426 36.3474 44.1947 36.1939 44.6887 36.1975C44.8707 36.1988 44.9873 36.2517 45.0516 36.3431L48.1473 41.5008C48.2139 41.2802 48.4935 40.3723 48.96 38.7896C49.1063 38.3356 49.2397 37.8686 49.3731 37.4016C49.5459 36.8698 49.7052 36.416 49.851 36.04C50.0099 35.6381 50.3494 35.4326 50.8824 35.4365C51.1294 35.4383 51.2064 35.5688 51.1396 35.8284C51.1262 35.8803 51.0598 36.0748 50.9014 36.3986C50.2671 37.8111 49.7492 39.3153 49.3344 40.9374C49.1739 41.5472 49.0532 42.0664 48.9852 42.4819C48.9847 42.5469 48.9576 42.6897 48.9432 42.8846C48.916 43.0534 48.902 43.1963 48.8752 43.3001C48.7681 43.7283 48.4155 43.9468 47.8305 43.9425C47.5835 43.9407 47.4299 43.6146 47.3019 43.3407L44.3204 38.5739C43.8419 40.0264 43.4408 41.5446 43.2348 43.0641C43.2475 43.1032 43.2335 43.2331 43.2188 43.467C43.2046 43.6359 43.1777 43.7657 43.1509 43.8695C43.0575 44.2069 42.523 44.411 42.211 44.4087C41.99 44.4071 41.8865 44.3284 41.8617 44.1722ZM50.7296 44.0156C50.6915 43.8853 51.0548 42.1979 51.8195 38.9404C51.7426 38.7838 51.7309 38.6017 51.7844 38.3941C51.8378 38.1995 51.9433 38.0053 52.1397 37.8117C52.2313 37.7213 52.4275 37.5668 52.7021 37.3477C54.1662 36.2274 55.5353 35.6783 56.8352 35.6877C57.7842 35.6946 58.5227 36.038 59.0117 36.7306C59.4877 37.4231 59.6247 38.2431 59.3838 39.1903C59.0497 40.4489 58.1579 41.5215 56.6955 42.3949C54.998 43.4226 53.4486 43.7493 51.5612 44.0736C51.1445 44.1616 50.9361 44.2121 50.9361 44.2121C50.8191 44.2112 50.7546 44.1458 50.7296 44.0156ZM53.0865 38.1176C52.6072 39.6611 52.2447 41.2445 52.077 42.8554C54.1974 42.6758 57.3363 41.8795 57.9514 39.5179C58.1386 38.8043 58.026 38.2055 57.6396 37.7086C57.2271 37.2246 56.6829 36.9737 55.9679 36.9685C55.0709 36.9619 54.1061 37.3449 53.0865 38.1176ZM60.0532 44.0833C60.0022 43.94 60.2182 42.8365 60.7011 40.786C60.4418 40.6931 60.3654 40.4715 60.4458 40.1471C60.5259 39.8487 60.7224 39.6421 60.9962 39.5401C61.0501 39.2805 61.5481 36.944 61.6266 36.8666C61.706 36.6721 61.8111 36.5299 61.9808 36.4271C62.0592 36.3757 62.2547 36.3121 62.5413 36.2232C63.0103 36.0966 63.4792 35.97 63.9482 35.8304C64.4822 35.6913 64.9377 35.6296 65.3407 35.6325L65.7697 35.6356C66.1338 35.6253 66.3807 35.6401 66.5104 35.68C66.7439 35.7467 66.938 35.8781 67.0665 36.0741C67.1821 36.2699 67.2328 36.4523 67.1796 36.6209C67.126 36.8415 66.891 36.9698 66.4618 37.0057C65.4341 37.0892 64.7837 37.1495 64.4973 37.1994C63.9376 37.2864 63.2732 37.4766 62.5171 37.7701C62.3577 38.2369 62.2111 38.7299 62.0904 39.236C63.7968 38.7804 65.2804 38.5572 66.5674 38.5665C66.8144 38.5683 67.0093 38.5827 67.1391 38.6097C67.308 38.6239 67.4764 38.7031 67.6445 38.8344C67.8255 38.9787 67.9023 39.1352 67.8622 39.2909C67.822 39.4597 67.5741 39.5749 67.1057 39.6365C64.8159 39.8668 63.0456 40.179 61.7688 40.5597C61.5807 41.4034 61.4447 42.2214 61.374 43.0139C61.9979 43.0184 62.7265 42.9457 63.5856 42.796L65.8509 42.3444C65.9941 42.3195 66.0982 42.3072 66.1762 42.3078C66.4492 42.3098 66.5654 42.4276 66.4987 42.6611C66.163 44.1277 61.9097 44.4218 60.7788 44.4136C60.3758 44.4107 60.1296 44.3049 60.0532 44.0833ZM73.4844 44.1809C73.4335 44.0375 73.6495 42.9341 74.1324 40.8835C73.8731 40.7907 73.7967 40.5691 73.8771 40.2447C73.9572 39.9462 74.1537 39.7397 74.4275 39.6377C74.4814 39.378 74.9794 37.0416 75.0579 36.9642C75.1373 36.7697 75.2424 36.6275 75.4121 36.5247C75.4905 36.4733 75.686 36.4097 75.9726 36.3208C76.4416 36.1942 76.9105 36.0676 77.3795 35.928C77.9135 35.7889 78.369 35.7272 78.772 35.7301L79.201 35.7332C79.5651 35.7229 79.812 35.7377 79.9417 35.7776C80.1752 35.8443 80.3692 35.9757 80.4978 36.1717C80.6134 36.3675 80.6641 36.5499 80.6109 36.7185C80.5572 36.9391 80.3223 37.0674 79.893 37.1033C78.8654 37.1868 78.2149 37.2471 77.9286 37.297C77.3689 37.384 76.7045 37.5741 75.9484 37.8677C75.789 38.3345 75.6424 38.8275 75.5217 39.3336C77.2281 38.878 78.7117 38.6548 79.9987 38.6641C80.2457 38.6659 80.4406 38.6803 80.5704 38.7073C80.7393 38.7215 80.9077 38.8007 81.0758 38.9319C81.2567 39.0763 81.3336 39.2328 81.2935 39.3885C81.2532 39.5572 81.0054 39.6724 80.5369 39.734C78.2472 39.9644 76.4769 40.2766 75.2001 40.6573C75.012 41.501 74.876 42.319 74.8053 43.1115C75.4292 43.116 76.1578 43.0433 77.0169 42.8936L79.2822 42.442C79.4254 42.417 79.5295 42.4048 79.6075 42.4054C79.8805 42.4073 79.9966 42.5252 79.9299 42.7587C79.5943 44.2253 75.341 44.5194 74.2101 44.5112C73.8071 44.5083 73.5608 44.4025 73.4844 44.1809ZM81.9844 43.2807C81.8445 42.8506 81.8215 42.4345 81.9154 42.0451C81.9956 41.7337 82.1137 41.5786 82.2827 41.5798C82.4517 41.581 82.581 41.6859 82.6706 41.8816C82.7473 42.0512 82.8112 42.2076 82.862 42.377C83.1696 42.9773 83.8434 43.2812 84.8964 43.2888C86.2744 43.2988 88.0866 42.584 88.5648 41.1834C88.6052 40.9887 88.5281 40.8581 88.3338 40.7657C87.8413 40.5541 87.0363 40.4183 85.9188 40.3452C85.0611 40.2999 84.1904 40.2546 83.3327 40.2094C82.7351 40.153 82.5678 39.9178 82.7283 39.308C82.8219 38.9446 83.2547 38.4278 84.0135 37.7703C85.6489 36.3391 87.4351 35.6241 89.3461 35.6379C89.8011 35.6412 89.9307 35.6942 89.8628 36.0967C89.8603 36.4347 89.8567 36.9287 89.7634 37.253C89.6701 37.5643 88.9785 37.9233 88.6665 37.9211C88.5235 37.92 88.4345 37.6464 88.4384 37.1004C88.3345 37.0866 88.2175 37.0858 88.1006 37.0849C86.8396 37.0758 85.7181 37.5486 84.7232 38.5034C84.5399 38.6711 84.4482 38.7744 84.4347 38.8393C84.4078 38.9691 86.9946 39.0009 88.0079 39.0993C89.2032 39.199 89.9564 39.3215 90.2415 39.4405C90.4748 39.5332 90.525 39.7806 90.4179 40.2088C90.3646 40.3905 90.2985 40.546 90.2326 40.6625C88.9947 42.8506 86.1098 44.4807 83.6008 44.4624C82.7169 44.456 82.238 44.1535 81.9844 43.2807ZM91.4249 37.8761C91.3612 37.7066 91.3496 37.5115 91.403 37.3169C91.4965 36.9666 91.7064 36.7081 92.0454 36.5676C93.1669 36.0947 94.5206 35.8705 96.1195 35.8822C96.6005 35.8857 96.9772 35.9274 97.2108 35.9941C97.5999 36.1139 97.8324 36.3236 97.895 36.6491C97.9074 36.7402 97.9199 36.8053 97.9064 36.8702C97.8797 36.961 97.8403 37.0257 97.7879 37.0773C97.6701 37.1805 97.4227 37.2437 97.0455 37.2669C96.3173 37.2876 95.6281 37.3216 94.9646 37.3818C94.3921 39.2367 93.8452 41.1438 93.6751 43.0926C93.6189 43.6642 93.5907 43.976 93.5774 44.0149C93.4971 44.3263 92.8978 44.504 92.6118 44.5019C92.4168 44.5005 92.3263 44.4348 92.2883 44.2915C92.2641 44.0444 92.7614 41.8119 93.793 37.5943C93.4542 37.7088 93.1154 37.8234 92.7766 37.9249C92.2684 38.0902 91.9688 38.1661 91.8258 38.165C91.6308 38.1636 91.5015 38.0717 91.4249 37.8761ZM95.6204 44.3938C95.505 44.1719 95.4806 43.9507 95.521 43.756C95.5477 43.6522 95.6922 43.4583 95.9542 43.1742C96.1116 42.9803 96.295 42.7866 96.4785 42.5929C97.1734 41.779 97.9087 40.7703 98.6845 39.5669L100.67 36.4222C100.907 36.0729 101.207 35.8931 101.597 35.896C101.779 35.8973 101.896 35.9891 101.959 36.1716C102.01 36.341 102.034 36.5622 102.058 36.8353C102.094 37.2646 102.093 37.4986 102.105 37.5247C102.339 39.3984 102.663 41.2598 103.353 43.0199C103.441 43.3196 103.479 43.5148 103.452 43.6056C103.372 43.9561 102.81 44.316 102.459 44.3134C102.29 44.3122 102.148 44.1292 102.06 43.7515C102.01 43.4912 101.973 43.2309 101.936 42.9576C100.595 43.2469 98.9154 43.5727 96.9239 43.9092C96.5429 44.4655 96.2679 44.7365 96.0859 44.7351C95.8909 44.7337 95.7357 44.6156 95.6204 44.3938ZM97.8698 42.5511C99.2494 42.3401 100.526 42.0503 101.711 41.6559C101.575 40.7839 101.363 39.4694 101.051 37.725C100.578 38.3846 99.5265 39.989 97.8698 42.5511ZM100.158 35.3785C100.094 35.287 100.055 35.1697 100.07 35.0268C100.084 34.8839 100.189 34.7287 100.385 34.5741C100.725 34.3166 103.076 32.7736 103.297 32.7232C103.441 32.6983 103.57 32.7772 103.647 32.9078C103.724 33.0513 103.775 33.1817 103.761 33.3376C103.733 33.5844 103.615 33.7916 103.393 33.933C103.131 34.1261 102.714 34.344 102.192 34.6132C101.604 34.908 101.2 35.1391 100.965 35.2803C100.769 35.4089 100.599 35.4857 100.482 35.5108C100.339 35.5358 100.235 35.4961 100.158 35.3785ZM35.6965 59.4918C35.1143 59.0975 34.809 58.1853 34.8139 57.5093C34.8168 57.1063 34.9527 56.2883 35.4857 56.2922C35.7327 56.294 35.9136 56.4513 36.0543 56.7643C36.2462 57.1947 36.413 57.4949 36.568 57.6391C36.9038 57.9405 37.4746 58.1007 38.2416 58.1062C39.5936 58.1161 41.0274 57.5935 41.8028 56.4421C41.9866 56.1964 42.0789 56.0151 42.0798 55.8981C42.0824 55.5341 39.6658 55.3345 39.3799 55.3194C38.7561 55.2889 37.8464 55.2433 36.612 55.1563C36.0403 55.1132 35.7561 54.8641 35.7463 54.422C35.7637 53.8241 36.2889 53.0999 37.2962 52.2362C39.1407 50.6636 41.0963 49.8978 43.1763 49.9129C43.6703 49.9165 43.9291 50.0743 43.9137 50.4122C43.9089 51.0622 43.8794 51.543 43.7731 51.8673C43.6663 52.2565 42.857 52.7056 42.467 52.7028C42.168 52.7006 42.0263 52.5176 42.016 52.1535L42.0054 51.8154L41.8625 51.8014C41.2389 51.7448 40.5228 51.8956 39.7923 52.2413C39.1272 52.5225 38.5652 52.9344 38.0802 53.4769C38.1453 53.4644 38.4054 53.4533 38.8734 53.4567L39.0684 53.4581C39.9784 53.4647 43.4476 53.7239 44.1347 53.9889C44.368 54.0816 44.4705 54.2904 44.4683 54.5894C44.4659 54.9274 44.3725 55.2517 44.1883 55.5494C42.7928 57.9573 39.6076 59.7672 36.8257 59.747C36.3447 59.7435 35.9683 59.6498 35.6965 59.4918ZM45.3399 59.8219C45.0149 59.8195 44.8599 59.6884 44.8619 59.4154C44.8641 59.1034 45.0527 58.2077 45.4402 56.7545C45.6678 55.8461 45.9085 54.9249 46.1492 54.0036C46.124 53.8994 46.1117 53.7953 46.0997 53.6652C46.1056 52.8462 47.0728 52.1382 47.6739 51.7136C48.7457 50.9154 50.1552 50.1716 51.5201 50.1815C52.9241 50.1917 54.192 51.0329 54.1811 52.5409C54.1837 55.752 49.3772 57.0431 46.8527 57.3758L46.7683 58.2592C46.7248 58.8829 46.6825 59.3376 46.0821 59.6582C45.8474 59.7605 45.5999 59.8237 45.3399 59.8219ZM47.8849 53.0932C47.6055 53.9752 47.3519 54.8833 47.1372 55.8048C49.1398 55.7284 50.5204 55.3744 51.2919 54.756C51.9589 54.2018 52.2877 53.6842 52.2912 53.2032C52.2975 52.3322 51.2603 51.9477 50.5323 51.9424C49.7783 51.9369 48.8915 52.3205 47.8849 53.0932ZM54.6494 59.6295C54.2854 59.6268 54.1174 59.4826 54.1196 59.1836C54.1331 59.1187 54.1735 58.924 54.2539 58.5866C54.83 56.2377 55.3923 54.0057 55.9278 51.8646C56.1424 50.9561 56.445 50.4643 57.511 50.472C57.875 50.4747 58.056 50.606 58.0671 50.8661C58.0529 51.035 57.973 51.2944 57.8012 51.6832C57.735 51.8517 57.629 52.1239 57.4702 52.4998C56.6619 54.613 56.1534 56.5983 55.9452 58.4169C55.8908 58.7545 55.8502 58.9752 55.8105 59.0659C55.6258 59.4416 55.0394 59.6323 54.6494 59.6295ZM57.4312 59.4547C57.4202 59.1816 57.6216 58.299 57.9965 56.7937C58.2242 55.8724 58.4649 54.9511 58.6926 54.0297C58.6544 53.9254 58.6422 53.8083 58.6432 53.6783C58.6473 53.1064 59.2371 52.4476 60.3995 51.7151C61.5879 50.9827 62.9055 50.3422 64.3355 50.3526C66.0645 50.3652 67.3432 51.5055 67.3304 53.2735C67.3039 56.9134 62.843 58.948 59.771 59.4847C59.5498 59.5221 59.1333 59.5841 58.5475 59.6968C58.0396 59.8101 57.8053 59.8474 57.8313 59.8476C57.5584 59.8456 57.4293 59.7147 57.4312 59.4547ZM59.2745 58.038C62.0195 57.772 63.8717 56.9274 64.8441 55.5044C65.1987 55.013 65.3844 54.4943 65.3881 53.9874C65.3968 52.7914 64.531 52.0701 63.3741 52.0617C62.4771 52.0552 61.4992 52.4511 60.4145 53.2362C59.8564 54.8962 59.4808 56.4925 59.2745 58.038ZM67.7722 59.4908C67.7616 59.1527 67.8697 58.5945 68.0575 57.8029C68.2046 57.2319 68.3518 56.661 68.4858 56.1029C68.3048 55.9716 68.215 55.8019 68.2167 55.568C68.2195 55.178 68.522 54.6991 68.8742 54.5457C69.008 54.0137 69.222 53.1962 69.5161 52.0803C69.6231 51.6651 69.6899 51.4185 70.0687 51.1743C70.1862 51.0971 70.4077 51.0338 70.7204 50.945C71.6974 50.6661 72.2705 50.5143 72.4659 50.4637C73.0128 50.3377 73.6113 50.277 74.2613 50.2817C74.6383 50.2845 74.9111 50.3125 75.0799 50.3397C75.6378 50.4867 75.9463 50.97 75.9434 51.373C75.9403 51.802 75.6134 52.0596 74.9759 52.12C74.5206 52.1687 73.831 52.2417 72.9073 52.3389C72.3607 52.413 71.6834 52.5901 70.8361 52.9089C70.7164 53.2851 70.5834 53.6871 70.4635 54.0892C72.1697 53.6596 73.7571 53.4631 75.2391 53.4739C75.4991 53.4758 75.6941 53.4772 75.7978 53.517C76.1482 53.5975 76.6139 53.9259 76.611 54.3159C76.6076 54.7839 75.9438 54.8961 75.5925 54.9325C73.1986 55.1881 71.3242 55.5125 69.9954 55.8929C69.8075 56.6975 69.6719 57.4766 69.5754 58.2299C70.3034 58.2352 71.084 58.1499 71.8912 57.9867C71.9433 57.9741 72.7115 57.8107 74.1829 57.4963C74.352 57.4716 74.4952 57.4466 74.5862 57.4473C74.9372 57.4498 75.0923 57.581 75.1035 57.828C75.0737 58.3478 74.6023 58.8124 74.1715 59.0563C72.7101 59.7997 70.3549 60.0946 68.7169 60.0827C68.0929 60.0782 67.7564 59.8807 67.7722 59.4908ZM77.757 59.8494C77.5758 59.7441 77.4861 59.5614 77.4876 59.3534L79.9022 56.2509L79.0059 54.3593C78.6338 53.6806 78.2881 52.9501 78.0073 52.233C77.9565 52.0766 77.9443 51.9595 77.9452 51.8425C77.9339 51.6084 78.066 51.3234 78.3023 51.0001C78.5516 50.6899 78.7867 50.5356 79.0207 50.5373C79.1637 50.5384 79.28 50.6302 79.3957 50.813L79.6629 51.608C80.0319 52.7157 80.4919 53.8111 81.0429 54.9201C81.3706 54.5455 82.2097 53.5766 83.573 52.0264C83.7697 51.7939 84.1498 51.3676 84.7002 50.7606C84.949 50.5154 85.2489 50.3876 85.5869 50.39C86.0029 50.393 86.508 50.6567 86.5046 51.1247C86.4379 51.3582 86.1885 51.6944 85.7043 52.1329C83.3739 54.378 81.1467 56.7409 79.3072 59.4186C78.9793 59.8063 78.6658 60.012 78.3409 60.0096C78.0939 60.0078 77.9122 59.9545 77.757 59.8494ZM86.1038 56.7509C85.7658 56.7485 85.6104 56.6694 85.6636 56.5007C85.9045 55.5535 86.1032 55.0479 86.2467 54.9709C86.2859 54.9452 86.663 54.935 87.365 54.9401C88.821 54.9506 89.8495 54.7371 90.4506 54.3125C90.9211 53.9779 91.1965 53.6419 91.29 53.3045C91.4105 52.8244 91.2055 52.4069 90.6748 52.091C90.2348 51.8148 89.7286 51.6941 89.1826 51.6902C88.3897 51.6844 87.398 52.1842 86.7192 52.5693C86.3668 52.7617 86.1579 52.8772 86.0929 52.8768C85.9759 52.8759 85.9378 52.7586 86.0044 52.5381C86.0716 52.2396 86.2294 51.9937 86.4777 51.8135C87.4189 51.0923 89.0478 50.5712 90.2307 50.5798C91.0497 50.5857 91.7631 50.8119 92.3319 51.258C92.9782 51.7698 93.2075 52.4084 93.0069 53.187C92.8864 53.6671 92.5844 54.081 92.0745 54.4803C90.9762 55.3303 89.2695 55.8379 86.9675 55.9642C86.8222 56.2881 86.7299 56.4695 86.6774 56.5341C86.5464 56.6762 86.3508 56.7527 86.1038 56.7509ZM84.9392 59.5766C84.6272 59.5743 84.498 59.4693 84.5514 59.2747C84.645 58.9244 84.7512 58.6132 84.8701 58.354C84.9625 58.1597 85.2102 58.0705 85.6392 58.0736C86.0032 58.0762 86.1718 58.1295 86.1449 58.2463C86.1182 58.3501 85.6174 59.2825 85.5386 59.3859C85.4337 59.5151 85.2252 59.5786 84.9392 59.5766Z" fill="black"/>
</svg>
