<svg width="177" height="112" viewBox="0 0 177 112" fill="none" xmlns="http://www.w3.org/2000/svg">
<path d="M53.6674 13.2004C52.8923 25.4433 39.2885 17.4476 35.0504 14.5606C38.9058 19.6183 42.4484 29.4008 23.7425 26.1899C28.7121 32.6486 25.4331 36.7054 16.1811 34.9285C20.6005 39.0463 20.6833 47.2863 7.15095 43.2241C14.4755 47.4815 12.9343 55.1177 2.94523 54.4853C7.45045 56.8888 14.963 63.2858 8.97152 69.6456C18.1914 72.7417 14.0951 79.8717 10.2899 84.8034C20.1886 82.3265 27.4202 78.0947 26.5933 91.1559C30.5557 89.3377 38.976 84.2497 37.9879 99.8578C47.3864 89.2209 54.4277 95.2827 55.5862 100.972C60.0079 98.2961 69.4793 97.4179 72.7576 105.606C80.6685 97.7124 88.659 103.115 91.6654 106.803C100.365 98.9298 108.102 103.853 110.932 107.136C114.593 99.6827 122.925 100.013 127.622 102.577C130.766 98.4898 138.432 97.3495 144.11 103.62C142.543 93.8264 150.964 94.4975 155.371 96.0573C148.945 78.507 163.564 79.3833 169.763 79.825C162.624 77.4518 162.252 64.1273 173.165 57.281C162.756 54.7304 164.66 44.3347 166.913 39.4558C160.448 39.7285 152.175 37.5679 155.002 28.3355C146.631 27.8055 143.95 25.3624 147.433 14.3559C135.9 22.9804 125.514 19.5908 124.018 15.1706C121.138 17.8588 114.203 20.9792 109.505 11.9547C102.853 19.6107 95.7885 15.2877 94.6921 11.0169C91.0741 15.0132 85.0481 15.1871 82.5797 5.59841C83.0988 12.58 79.565 15.9295 70.9086 11.8083C72.2303 18.3459 62.2712 20.5094 53.6674 13.2004Z" fill="white" stroke="black" stroke-width="2" stroke-linecap="round" stroke-linejoin="round"/>
<path d="M47.9388 37.3965C47.9397 37.2706 47.9551 37.0747 48.013 36.8091C48.0706 36.5995 48.114 36.4038 48.1715 36.1942C48.3754 35.1037 48.5794 34.0131 48.7693 32.9225C49.0027 31.6221 49.2488 30.5179 49.4792 29.6375C49.6231 29.0926 50.1576 28.7604 50.7176 28.7645C51.0395 28.7668 51.1506 28.8937 51.0928 29.1452C51.0927 29.1592 50.9925 29.4665 50.792 30.0811C50.5488 30.7933 50.3333 31.5478 50.1317 32.3163C51.5908 31.8929 53.0067 31.6372 54.3652 31.5771L54.8411 29.6625C55.0573 28.81 55.3549 28.3222 56.3069 28.3291C56.7409 28.3323 56.6691 28.5697 56.5407 28.9048L56.2694 29.6309C56.0549 30.2453 55.8403 30.8878 55.6253 31.5722C55.793 31.6155 55.9604 31.7007 56.0994 31.8277C56.2663 31.9829 56.3352 32.1374 56.2921 32.2911C56.2342 32.5427 55.9113 32.6663 55.3374 32.6622C55.0062 33.9198 54.8032 34.8844 54.7142 35.5697C54.7118 35.9057 54.695 36.2836 54.5947 36.6049C54.5082 36.9543 53.9604 37.1883 53.5824 37.1855C52.8825 37.1805 53.3241 36.1336 53.5689 35.1974C53.7567 34.4007 53.9445 33.6041 54.0903 32.8071C52.5348 33.0058 51.1045 33.3174 49.7994 33.742C49.6106 34.6786 49.4931 35.4338 49.4189 36.0073C49.3721 36.6649 49.3275 37.0286 49.313 37.0985C49.2127 37.4058 48.5671 37.6251 48.2731 37.623C48.0631 37.6215 47.9656 37.5507 47.9388 37.3965ZM55.9514 37.4688C55.8271 37.2299 55.8008 36.9917 55.8444 36.782C55.8732 36.6702 56.0287 36.4613 56.3109 36.1553C56.4804 35.9466 56.678 35.738 56.8755 35.5294C57.6239 34.6528 58.4158 33.5666 59.2512 32.2706L61.3899 28.8841C61.6446 28.5079 61.968 28.3142 62.388 28.3173C62.584 28.3187 62.7093 28.4176 62.7779 28.6141C62.8326 28.7965 62.8588 29.0347 62.8847 29.3289C62.9233 29.7912 62.9215 30.0432 62.9353 30.0713C63.1867 32.0892 63.5361 34.0938 64.2783 35.9892C64.374 36.3119 64.4145 36.5222 64.3858 36.62C64.299 36.9974 63.6942 37.385 63.3162 37.3823C63.1342 37.3809 62.9816 37.1838 62.8866 36.7771C62.8326 36.4967 62.7927 36.2164 62.7528 35.9221C61.3085 36.2337 59.4999 36.5845 57.3552 36.947C56.9448 37.546 56.6487 37.8378 56.4527 37.8364C56.2427 37.8349 56.0756 37.7077 55.9514 37.4688ZM58.3739 35.4843C59.8595 35.2571 61.2338 34.9451 62.511 34.5203C62.3638 33.5813 62.1361 32.1656 61.7997 30.2871C61.2905 30.9974 60.1579 32.7252 58.3739 35.4843ZM65.9025 36.449C65.7519 35.9859 65.7272 35.5377 65.8282 35.1185C65.9146 34.7831 66.0419 34.616 66.2239 34.6173C66.4059 34.6186 66.545 34.7317 66.6415 34.9424C66.7242 35.125 66.793 35.2935 66.8476 35.4759C67.179 36.1223 67.9046 36.4496 69.0386 36.4578C70.5225 36.4686 72.4742 35.6988 72.9891 34.1905C73.0327 33.9808 72.9497 33.8402 72.7404 33.7406C72.21 33.5128 71.3431 33.3665 70.1396 33.2877C69.216 33.239 68.2783 33.1902 67.3546 33.1415C66.711 33.0808 66.5309 32.8275 66.7036 32.1707C66.8045 31.7795 67.2706 31.2228 68.0877 30.5148C69.849 28.9735 71.7726 28.2035 73.8306 28.2184C74.3205 28.222 74.4601 28.279 74.387 28.7125C74.3843 29.0765 74.3805 29.6085 74.2799 29.9577C74.1795 30.293 73.4347 30.6796 73.0987 30.6772C72.9447 30.676 72.8488 30.3813 72.8531 29.7934C72.7412 29.7785 72.6152 29.7776 72.4892 29.7767C71.1312 29.7669 69.9235 30.2761 68.852 31.3043C68.6547 31.4849 68.5559 31.5962 68.5414 31.6661C68.5123 31.8059 71.2982 31.8401 72.3894 31.946C73.6767 32.0534 74.4877 32.1853 74.7948 32.3135C75.0461 32.4134 75.1002 32.6798 74.9848 33.1409C74.9274 33.3365 74.8562 33.504 74.7853 33.6295C73.4521 35.9859 70.3453 37.7414 67.6433 37.7217C66.6914 37.7148 66.1757 37.389 65.9025 36.449ZM76.0693 30.6288C76.0006 30.4462 75.9881 30.2362 76.0457 30.0266C76.1464 29.6493 76.3724 29.3709 76.7375 29.2196C77.9453 28.7103 79.4031 28.4689 81.125 28.4814C81.643 28.4852 82.0487 28.5301 82.3002 28.602C82.7193 28.731 82.9696 28.9568 83.0371 29.3073C83.0504 29.4054 83.0639 29.4755 83.0493 29.5454C83.0206 29.6432 82.9781 29.7129 82.9217 29.7685C82.7949 29.8796 82.5284 29.9477 82.1222 29.9727C81.338 29.995 80.5957 30.0316 79.8813 30.0964C79.2647 32.094 78.6758 34.1478 78.4925 36.2465C78.4321 36.8621 78.4016 37.1979 78.3873 37.2398C78.3009 37.5751 77.6555 37.7665 77.3475 37.7642C77.1375 37.7627 77.04 37.692 76.9991 37.5377C76.973 37.2715 77.5085 34.8673 78.6196 30.3253C78.2547 30.4486 77.8897 30.572 77.5249 30.6813C76.9776 30.8594 76.655 30.941 76.501 30.9399C76.291 30.9384 76.1518 30.8394 76.0693 30.6288ZM80.5874 37.6478C80.4632 37.4089 80.4369 37.1707 80.4804 36.961C80.5092 36.8492 80.6648 36.6403 80.947 36.3343C81.1165 36.1256 81.314 35.917 81.5116 35.7084C82.2599 34.8318 83.0519 33.7456 83.8873 32.4496L86.026 29.063C86.2807 28.6869 86.6041 28.4932 87.0241 28.4963C87.2201 28.4977 87.3454 28.5966 87.414 28.7931C87.4686 28.9755 87.4949 29.2137 87.5208 29.5079C87.5594 29.9702 87.5576 30.2222 87.5714 30.2503C87.8227 32.2682 88.1722 34.2728 88.9144 36.1682C89.0101 36.4909 89.0505 36.7012 89.0218 36.799C88.9351 37.1764 88.3303 37.564 87.9523 37.5613C87.7703 37.5599 87.6177 37.3628 87.5227 36.9561C87.4687 36.6757 87.4287 36.3954 87.3889 36.1011C85.9446 36.4127 84.136 36.7635 81.9913 37.1259C81.5809 37.725 81.2848 38.0168 81.0888 38.0154C80.8788 38.0139 80.7117 37.8867 80.5874 37.6478ZM83.0099 35.6633C84.4956 35.4361 85.8699 35.1241 87.147 34.6993C86.9999 33.7602 86.7721 32.3446 86.4358 30.4661C85.9266 31.1764 84.794 32.9042 83.0099 35.6633ZM95.625 37.743C95.6259 37.617 95.6413 37.4211 95.6993 37.1555C95.7568 36.946 95.8002 36.7503 95.8577 36.5407C96.0617 35.4501 96.2656 34.3596 96.4555 33.2689C96.689 31.9686 96.935 30.8644 97.1654 29.984C97.3094 29.439 97.8438 29.1069 98.4038 29.111C98.7258 29.1133 98.8369 29.2401 98.779 29.4917C98.7789 29.5057 98.6787 29.813 98.4782 30.4276C98.2351 31.1398 98.0196 31.8943 97.818 32.6628C99.2771 32.2394 100.693 31.9837 102.051 31.9236L102.527 30.009C102.744 29.1565 103.041 28.6687 103.993 28.6756C104.441 28.6788 104.341 28.9021 104.227 29.2513L103.956 29.9773C103.741 30.5918 103.527 31.2343 103.312 31.9187C103.479 31.9619 103.647 32.0472 103.786 32.1742C103.953 32.3294 104.021 32.4839 103.978 32.6376C103.92 32.8892 103.598 33.0128 103.024 33.0087C102.692 34.2663 102.489 35.2308 102.4 35.9162C102.398 36.2522 102.381 36.6301 102.281 36.9514C102.194 37.3007 101.647 37.5348 101.269 37.532C100.569 37.5269 101.01 36.4801 101.255 35.5439C101.443 34.7472 101.631 33.9506 101.777 33.1536C100.221 33.3523 98.7907 33.6639 97.4856 34.0884C97.2968 35.0251 97.1793 35.7803 97.1051 36.3537C97.0584 37.0114 97.0137 37.3751 96.9992 37.445C96.899 37.7523 96.2534 37.9716 95.9594 37.9695C95.7494 37.9679 95.6519 37.8972 95.625 37.743ZM103.638 37.8152C103.513 37.5763 103.487 37.3381 103.531 37.1284C103.559 37.0166 103.715 36.8078 103.997 36.5018C104.167 36.293 104.364 36.0845 104.562 35.8759C105.31 34.9993 106.102 33.913 106.937 32.6171L109.076 29.2305C109.331 28.8544 109.654 28.6607 110.074 28.6638C110.27 28.6652 110.396 28.7641 110.464 28.9606C110.519 29.143 110.545 29.3812 110.571 29.6754C110.61 30.1377 110.608 30.3897 110.622 30.4178C110.873 32.4357 111.222 34.4403 111.965 36.3357C112.06 36.6584 112.101 36.8687 112.072 36.9665C111.985 37.3439 111.38 37.7315 111.002 37.7287C110.82 37.7274 110.668 37.5303 110.573 37.1236C110.519 36.8432 110.479 36.5629 110.439 36.2686C108.995 36.5801 107.186 36.931 105.041 37.2934C104.631 37.8925 104.335 38.1843 104.139 38.1829C103.929 38.1814 103.762 38.0541 103.638 37.8152ZM106.06 35.8308C107.546 35.6036 108.92 35.2916 110.197 34.8668C110.05 33.9277 109.822 32.512 109.486 30.6335C108.977 31.3439 107.844 33.0717 106.06 35.8308ZM113.811 37.0771C113.493 36.5008 113.442 35.7724 113.673 34.8781C114.538 31.4123 118.323 28.7797 121.837 28.8052C122.187 28.8078 122.383 28.8652 122.424 28.9915C122.451 29.0617 122.408 29.2854 122.307 29.6487C122.278 29.7745 122.263 29.9704 122.289 30.2225C122.301 30.4746 122.3 30.6566 122.271 30.7824C122.184 31.1598 121.453 31.5745 121.089 31.5719C120.935 31.5707 120.852 31.4021 120.827 31.0799C120.856 30.8422 120.858 30.6182 120.86 30.3802C119.122 30.6335 117.703 31.2393 116.562 32.225C115.576 33.0999 114.968 33.9355 114.766 34.732C114.622 35.291 114.73 35.7538 115.106 36.1065C115.439 36.4309 115.914 36.5884 116.502 36.5927C117.706 36.6014 119.35 35.8433 120.446 35.3333C121.064 35.0438 121.415 34.8923 121.485 34.8928C121.667 34.8942 121.693 35.0764 121.607 35.4397C121.564 35.5934 121.409 35.7463 121.155 35.9265C120.944 36.0369 120.748 36.1475 120.551 36.2721C118.554 37.4476 116.912 38.0237 115.638 38.0144C114.756 38.008 114.156 37.6957 113.811 37.0771ZM123.042 37.9002C122.987 37.7458 123.22 36.5575 123.74 34.3492C123.46 34.2492 123.378 34.0106 123.465 33.6612C123.551 33.3398 123.763 33.1173 124.058 33.0075C124.116 32.7279 124.652 30.2117 124.736 30.1283C124.822 29.9189 124.935 29.7658 125.118 29.6551C125.202 29.5997 125.413 29.5312 125.722 29.4355C126.227 29.2991 126.732 29.1628 127.237 29.0125C127.812 28.8626 128.302 28.7962 128.736 28.7994L129.198 28.8027C129.59 28.7916 129.856 28.8075 129.996 28.8505C130.247 28.9223 130.456 29.0639 130.595 29.2749C130.719 29.4858 130.774 29.6822 130.717 29.8638C130.659 30.1014 130.406 30.2395 129.944 30.2782C128.837 30.3681 128.136 30.433 127.828 30.4868C127.225 30.5804 126.51 30.7852 125.695 31.1013C125.524 31.6041 125.366 32.135 125.236 32.68C127.074 32.1894 128.671 31.949 130.057 31.959C130.323 31.961 130.533 31.9765 130.673 32.0055C130.855 32.0208 131.036 32.1062 131.217 32.2475C131.412 32.4029 131.495 32.5715 131.452 32.7392C131.408 32.9209 131.141 33.0449 130.637 33.1113C128.171 33.3594 126.265 33.6955 124.89 34.1055C124.687 35.0141 124.541 35.8951 124.464 36.7485C125.136 36.7534 125.921 36.6751 126.846 36.5138L129.286 36.0275C129.44 36.0007 129.552 35.9875 129.636 35.9881C129.93 35.9902 130.055 36.1171 129.983 36.3686C129.622 37.948 125.041 38.2648 123.823 38.2559C123.389 38.2528 123.124 38.1388 123.042 37.9002ZM131.696 38.2011C131.669 38.1169 131.929 36.9988 132.421 34.8603C132.869 32.8755 133.13 31.6874 133.231 31.2961C133.403 30.6533 133.532 30.2622 133.617 30.1229C133.83 29.7744 134.209 29.6091 134.741 29.613C134.937 29.6144 135.063 29.6713 135.132 29.7698L138.466 35.3242C138.537 35.0867 138.838 34.1089 139.341 32.4045C139.498 31.9156 139.642 31.4127 139.786 30.9097C139.972 30.337 140.143 29.8483 140.3 29.4434C140.471 29.0106 140.837 28.7893 141.411 28.7934C141.677 28.7954 141.76 28.936 141.688 29.2155C141.674 29.2714 141.602 29.4808 141.432 29.8296C140.748 31.3507 140.191 32.9707 139.744 34.7175C139.571 35.3742 139.441 35.9333 139.368 36.3808C139.367 36.4508 139.338 36.6046 139.323 36.8145C139.293 36.9963 139.278 37.1502 139.249 37.262C139.134 37.7231 138.754 37.9584 138.124 37.9538C137.858 37.9519 137.693 37.6007 137.555 37.3057L134.344 32.1722C133.829 33.7365 133.397 35.3714 133.175 37.0078C133.189 37.0499 133.174 37.1898 133.158 37.4417C133.143 37.6236 133.114 37.7634 133.085 37.8752C132.984 38.2385 132.409 38.4583 132.073 38.4559C131.835 38.4541 131.723 38.3693 131.696 38.2011ZM57.203 45.4921C57.1343 45.3096 57.1218 45.0995 57.1794 44.8899C57.2801 44.5126 57.5061 44.2342 57.8712 44.0829C59.079 43.5736 60.5368 43.3322 62.2587 43.3447C62.7767 43.3485 63.1824 43.3935 63.4339 43.4653C63.853 43.5943 64.1033 43.8202 64.1708 44.1707C64.1841 44.2688 64.1976 44.3389 64.183 44.4088C64.1543 44.5065 64.1118 44.5762 64.0554 44.6318C63.9286 44.7429 63.6621 44.811 63.2559 44.836C62.4717 44.8583 61.7294 44.8949 61.015 44.9598C60.3984 46.9573 59.8095 49.0111 59.6262 51.1098C59.5658 51.7254 59.5353 52.0612 59.521 52.1031C59.4346 52.4385 58.7892 52.6298 58.4812 52.6275C58.2712 52.626 58.1737 52.5553 58.1328 52.401C58.1067 52.1348 58.6422 49.7306 59.7533 45.1886C59.3884 45.3119 59.0234 45.4353 58.6586 45.5446C58.1113 45.7227 57.7887 45.8043 57.6347 45.8032C57.4247 45.8017 57.2855 45.7027 57.203 45.4921ZM61.7211 52.5111C61.5969 52.2722 61.5706 52.034 61.6141 51.8243C61.6429 51.7125 61.7985 51.5036 62.0807 51.1977C62.2502 50.9889 62.4477 50.7803 62.6453 50.5717C63.3936 49.6952 64.1856 48.6089 65.021 47.3129L67.1597 43.9264C67.4144 43.5502 67.7378 43.3566 68.1578 43.3596C68.3538 43.361 68.4791 43.4599 68.5477 43.6564C68.6023 43.8388 68.6286 44.077 68.6545 44.3712C68.6931 44.8335 68.6913 45.0855 68.7051 45.1136C68.9564 47.1315 69.3059 49.1361 70.0481 51.0315C70.1438 51.3542 70.1842 51.5645 70.1555 51.6623C70.0688 52.0397 69.464 52.4273 69.086 52.4246C68.904 52.4233 68.7514 52.2262 68.6564 51.8195C68.6024 51.5391 68.5624 51.2588 68.5226 50.9645C67.0783 51.276 65.2697 51.6268 63.125 51.9893C62.7146 52.5883 62.4185 52.8802 62.2225 52.8787C62.0125 52.8772 61.8454 52.75 61.7211 52.5111ZM64.1436 50.5266C65.6293 50.2994 67.0036 49.9874 68.2807 49.5627C68.1336 48.6236 67.9058 47.2079 67.5695 45.3294C67.0603 46.0397 65.9277 47.7675 64.1436 50.5266ZM71.2436 45.5941C71.175 45.4116 71.1625 45.2015 71.22 44.9919C71.3208 44.6146 71.5468 44.3363 71.9119 44.1849C73.1196 43.6757 74.5774 43.4342 76.2994 43.4468C76.8174 43.4505 77.223 43.4955 77.4745 43.5673C77.8936 43.6963 78.144 43.9222 78.2114 44.2727C78.2247 44.3708 78.2382 44.4409 78.2237 44.5108C78.195 44.6086 78.1525 44.6783 78.0961 44.7338C77.9693 44.8449 77.7028 44.913 77.2966 44.938C76.5124 44.9603 75.7701 44.997 75.0556 45.0618C74.4391 47.0593 73.8501 49.1131 73.6669 51.2118C73.6064 51.8274 73.576 52.1632 73.5617 52.2051C73.4752 52.5405 72.8298 52.7318 72.5218 52.7296C72.3118 52.728 72.2143 52.6573 72.1735 52.503C72.1474 52.2368 72.6829 49.8327 73.7939 45.2906C73.429 45.414 73.0641 45.5373 72.6993 45.6467C72.152 45.8247 71.8294 45.9063 71.6754 45.9052C71.4654 45.9037 71.3261 45.8047 71.2436 45.5941ZM77.9978 52.5593C77.5918 52.5564 77.4533 52.3454 77.5684 51.9122C77.8853 50.6965 78.132 49.4942 78.3929 48.2781C78.6539 47.034 78.8851 46.0416 79.0724 45.315C79.2165 44.756 79.3452 44.3789 79.4866 44.1839C79.7129 43.8776 80.078 43.7262 80.582 43.7299C80.876 43.732 80.9872 43.8308 80.9437 44.0405C80.9439 44.0125 80.8011 44.4035 80.5153 45.1994C80.1869 46.0791 79.814 47.3084 79.4103 48.9155C79.0934 50.1312 78.9766 50.7884 79.0738 50.9011C79.1156 50.9294 79.1715 50.9438 79.2695 50.9445C80.1095 50.9506 82.8055 49.8642 83.6904 49.4646C84.0386 47.7871 84.3566 46.4034 84.6306 45.3133C84.8605 44.503 85.062 43.7484 86.0699 43.7558C86.4199 43.7583 86.5591 43.8713 86.5156 44.081C86.4295 44.3604 86.072 45.3938 85.9587 45.575C85.3721 47.3068 84.8973 49.0674 84.6321 50.8855C84.543 51.5849 84.4843 51.9625 84.4698 52.0323C84.3832 52.3817 83.8215 52.6157 83.4435 52.6129C83.2195 52.6113 83.1081 52.5265 83.0812 52.3723C83.0817 52.3163 83.1691 51.8409 83.3717 50.9323C82.2056 51.4979 79.2297 52.5683 77.9978 52.5593ZM85.6326 52.6848C85.5084 52.4459 85.4821 52.2077 85.5256 51.998C85.5544 51.8862 85.7099 51.6774 85.9922 51.3714C86.1617 51.1626 86.3592 50.954 86.5567 50.7455C87.3051 49.8689 88.097 48.7826 88.9325 47.4867L91.0711 44.1001C91.3259 43.7239 91.6493 43.5303 92.0693 43.5333C92.2653 43.5348 92.3906 43.6337 92.4591 43.8302C92.5138 44.0126 92.5401 44.2508 92.5659 44.545C92.6046 45.0073 92.6028 45.2593 92.6166 45.2874C92.8679 47.3052 93.2173 49.3098 93.9596 51.2053C94.0552 51.528 94.0957 51.7383 94.067 51.8361C93.9803 52.2135 93.3754 52.6011 92.9974 52.5983C92.8154 52.597 92.6629 52.3999 92.5678 51.9932C92.5139 51.7128 92.4739 51.4325 92.434 51.1382C90.9897 51.4497 89.1811 51.8006 87.0364 52.163C86.6261 52.762 86.33 53.0539 86.134 53.0525C85.924 53.0509 85.7569 52.9237 85.6326 52.6848ZM88.0551 50.7004C89.5408 50.4732 90.9151 50.1611 92.1922 49.7364C92.045 48.7973 91.8173 47.3816 91.481 45.5031C90.9718 46.2134 89.8392 47.9413 88.0551 50.7004ZM95.9587 51.3878C95.475 50.5163 95.3703 49.5075 95.6587 48.3615C95.7596 47.9563 96.0411 47.7483 96.4891 47.7516C96.7411 47.7534 96.8514 47.9922 96.806 48.4539C96.7286 49.4753 96.8492 50.2182 97.238 50.6551C97.6823 51.1763 98.2823 51.4467 99.0243 51.4521C99.6403 51.4566 100.229 51.2928 100.764 50.9747C101.959 50.2834 102.317 49.1939 102.634 47.9362C103.023 46.399 103.156 45.4759 103.018 45.1529C102.977 45.0266 102.823 44.9695 102.557 44.9676C102.306 44.9657 101.927 45.019 101.408 45.1272C100.875 45.2494 100.511 45.3027 100.329 45.3014C100.175 45.3003 100.12 45.1879 100.177 44.9783C100.321 44.4473 100.59 44.0993 100.997 43.9482C101.558 43.7423 102.399 43.6364 103.519 43.6445C104.121 43.6489 104.498 43.7356 104.637 43.8907C104.749 44.0035 104.803 44.1859 104.802 44.4239C104.79 46.0618 103.791 48.5606 102.997 49.9269C102.09 51.5444 100.358 52.8058 98.4545 52.792C97.3206 52.7837 96.4979 52.3157 95.9587 51.3878ZM104.9 52.7688C104.845 52.6144 105.078 51.4261 105.598 49.2178C105.319 49.1178 105.237 48.8791 105.323 48.5298C105.409 48.2084 105.621 47.9859 105.916 47.8761C105.974 47.5965 106.51 45.0803 106.595 44.9969C106.68 44.7875 106.793 44.6343 106.976 44.5237C107.061 44.4683 107.271 44.3998 107.58 44.3041C108.085 44.1677 108.59 44.0314 109.095 43.881C109.67 43.7312 110.161 43.6648 110.595 43.6679L111.056 43.6713C111.449 43.6601 111.714 43.6761 111.854 43.7191C112.106 43.7909 112.315 43.9324 112.453 44.1435C112.578 44.3544 112.632 44.5508 112.575 44.7324C112.517 44.9699 112.264 45.1081 111.802 45.1467C110.695 45.2367 109.995 45.3016 109.686 45.3554C109.084 45.449 108.368 45.6538 107.554 45.9699C107.382 46.4727 107.224 47.0035 107.094 47.5486C108.932 47.0579 110.53 46.8175 111.916 46.8276C112.182 46.8296 112.391 46.8451 112.531 46.8741C112.713 46.8894 112.895 46.9747 113.076 47.1161C113.27 47.2715 113.353 47.4401 113.31 47.6078C113.267 47.7895 113 47.9135 112.495 47.9799C110.029 48.228 108.123 48.5641 106.748 48.9741C106.545 49.8827 106.399 50.7636 106.323 51.6171C106.995 51.622 107.779 51.5437 108.704 51.3824L111.144 50.8961C111.298 50.8692 111.41 50.8561 111.494 50.8567C111.788 50.8588 111.913 50.9857 111.842 51.2372C111.48 52.8166 106.9 53.1333 105.682 53.1245C105.248 53.1213 104.983 53.0074 104.9 52.7688ZM114.054 51.7993C113.903 51.3362 113.879 50.888 113.98 50.4687C114.066 50.1333 114.193 49.9663 114.375 49.9676C114.557 49.9689 114.697 50.0819 114.793 50.2926C114.876 50.4752 114.944 50.6437 114.999 50.8261C115.33 51.4726 116.056 51.7998 117.19 51.8081C118.674 51.8189 120.626 51.049 121.141 49.5407C121.184 49.331 121.101 49.1904 120.892 49.0909C120.362 48.863 119.495 48.7167 118.291 48.638C117.367 48.5893 116.43 48.5405 115.506 48.4918C114.862 48.4311 114.682 48.1778 114.855 47.521C114.956 47.1297 115.422 46.5731 116.239 45.865C118 44.3238 119.924 43.5537 121.982 43.5687C122.472 43.5722 122.612 43.6292 122.538 44.0627C122.536 44.4267 122.532 44.9587 122.431 45.308C122.331 45.6433 121.586 46.0299 121.25 46.0274C121.096 46.0263 121 45.7316 121.005 45.1436C120.893 45.1288 120.767 45.1279 120.641 45.127C119.283 45.1171 118.075 45.6263 117.003 46.6546C116.806 46.8352 116.707 46.9464 116.693 47.0163C116.664 47.1561 119.45 47.1904 120.541 47.2963C121.828 47.4037 122.639 47.5356 122.946 47.6638C123.198 47.7636 123.252 48.03 123.136 48.4912C123.079 48.6868 123.008 48.8543 122.937 48.9798C121.604 51.3361 118.497 53.0916 115.795 53.072C114.843 53.0651 114.327 52.7393 114.054 51.7993ZM125.361 50.2014C124.997 50.1988 124.83 50.1135 124.887 49.9319C125.147 48.9118 125.361 48.3673 125.515 48.2845C125.558 48.2568 125.964 48.2457 126.72 48.2512C128.288 48.2626 129.395 48.0327 130.043 47.5753C130.549 47.215 130.846 46.8532 130.947 46.4899C131.076 45.9728 130.856 45.5232 130.284 45.183C129.81 44.8856 129.265 44.7556 128.677 44.7513C127.823 44.7451 126.755 45.2834 126.024 45.6981C125.645 45.9053 125.42 46.0297 125.35 46.0292C125.224 46.0283 125.183 45.902 125.254 45.6645C125.327 45.343 125.497 45.0782 125.764 44.8842C126.778 44.1075 128.532 43.5463 129.806 43.5555C130.688 43.5619 131.456 43.8055 132.069 44.286C132.765 44.837 133.012 45.5249 132.795 46.3633C132.666 46.8804 132.34 47.326 131.791 47.7561C130.609 48.6715 128.771 49.2181 126.292 49.3541C126.135 49.703 126.036 49.8983 125.979 49.9679C125.838 50.1209 125.627 50.2033 125.361 50.2014ZM124.107 53.2444C123.771 53.2419 123.632 53.1289 123.69 52.9193C123.79 52.542 123.905 52.2069 124.033 51.9278C124.132 51.7185 124.399 51.6224 124.861 51.6258C125.253 51.6286 125.435 51.686 125.406 51.8118C125.377 51.9236 124.838 52.9277 124.753 53.0391C124.64 53.1782 124.415 53.2466 124.107 53.2444Z" fill="black"/>
<mask id="path-3-outside-1_74_287" maskUnits="userSpaceOnUse" x="21.2415" y="52.9269" width="33.048" height="32.0831" fill="black">
<rect fill="white" x="21.2415" y="52.9269" width="33.048" height="32.0831"/>
<path d="M24.1448 79.3791C24.1586 78.814 24.368 78.1425 24.8405 77.3955C27.1194 74.1284 28.9075 71.0775 30.6763 67.4627C31.6087 65.6037 33.0067 62.7988 34.8041 59.0501C35.3944 57.8672 36.138 57.277 37.0669 57.245C37.8299 57.2187 38.2532 57.9349 38.3035 59.3946C38.3137 59.6931 38.2966 60.1587 38.2519 60.7914L38.301 62.2179C38.3627 64.9726 38.7092 68.2821 39.3085 72.1808C41.3723 68.4561 43.2108 64.9385 44.7233 61.5981C45.0917 60.7219 45.8354 59.1684 46.8216 56.9423C47.3799 55.7938 48.1235 55.2035 49.0192 55.1726C49.8154 55.1452 50.2421 55.9609 50.3003 57.6528C50.3152 58.0841 50.2763 58.8826 50.2179 60.0803L50.2167 60.0471L50.3297 65.2579C50.4531 68.8408 50.6852 71.7225 51.0924 73.9006C51.2091 74.3948 51.2926 74.8902 51.376 75.3855C51.5293 75.9781 51.6139 76.5066 51.6288 76.9379C51.6722 78.1986 49.7789 80.1238 48.5182 80.1672C48.1201 80.1809 47.8147 79.9921 47.5356 79.6032C47.3605 79.3435 47.1856 77.1574 46.9753 72.9796L46.5512 65.4877C45.0536 68.2961 43.7471 70.8654 42.6625 73.1281L40.6112 77.2177C39.5873 79.3123 38.8986 80.5317 38.5462 80.9092C38.0646 81.3908 37.6401 81.6047 37.3084 81.6161C36.8108 81.6333 36.4024 81.3484 36.0157 80.7306C35.7996 80.2399 35.6474 79.6805 35.6269 79.0833C35.6109 78.6189 35.6635 78.2185 35.8511 77.8799C35.7379 76.522 35.4452 72.8452 34.9708 66.7833C33.6299 69.3206 31.4436 73.3484 28.4462 78.8988C27.8524 79.9821 27.5081 80.5918 27.3811 80.7623C26.8777 81.5768 26.3606 81.9932 25.8961 82.0092C24.6355 82.0526 24.1791 80.3744 24.1448 79.3791Z"/>
</mask>
<path d="M24.1448 79.3791C24.1586 78.814 24.368 78.1425 24.8405 77.3955C27.1194 74.1284 28.9075 71.0775 30.6763 67.4627C31.6087 65.6037 33.0067 62.7988 34.8041 59.0501C35.3944 57.8672 36.138 57.277 37.0669 57.245C37.8299 57.2187 38.2532 57.9349 38.3035 59.3946C38.3137 59.6931 38.2966 60.1587 38.2519 60.7914L38.301 62.2179C38.3627 64.9726 38.7092 68.2821 39.3085 72.1808C41.3723 68.4561 43.2108 64.9385 44.7233 61.5981C45.0917 60.7219 45.8354 59.1684 46.8216 56.9423C47.3799 55.7938 48.1235 55.2035 49.0192 55.1726C49.8154 55.1452 50.2421 55.9609 50.3003 57.6528C50.3152 58.0841 50.2763 58.8826 50.2179 60.0803L50.2167 60.0471L50.3297 65.2579C50.4531 68.8408 50.6852 71.7225 51.0924 73.9006C51.2091 74.3948 51.2926 74.8902 51.376 75.3855C51.5293 75.9781 51.6139 76.5066 51.6288 76.9379C51.6722 78.1986 49.7789 80.1238 48.5182 80.1672C48.1201 80.1809 47.8147 79.9921 47.5356 79.6032C47.3605 79.3435 47.1856 77.1574 46.9753 72.9796L46.5512 65.4877C45.0536 68.2961 43.7471 70.8654 42.6625 73.1281L40.6112 77.2177C39.5873 79.3123 38.8986 80.5317 38.5462 80.9092C38.0646 81.3908 37.6401 81.6047 37.3084 81.6161C36.8108 81.6333 36.4024 81.3484 36.0157 80.7306C35.7996 80.2399 35.6474 79.6805 35.6269 79.0833C35.6109 78.6189 35.6635 78.2185 35.8511 77.8799C35.7379 76.522 35.4452 72.8452 34.9708 66.7833C33.6299 69.3206 31.4436 73.3484 28.4462 78.8988C27.8524 79.9821 27.5081 80.5918 27.3811 80.7623C26.8777 81.5768 26.3606 81.9932 25.8961 82.0092C24.6355 82.0526 24.1791 80.3744 24.1448 79.3791Z" fill="white"/>
<path d="M24.1448 79.3791L22.1454 79.3304L22.144 79.3892L22.146 79.4479L24.1448 79.3791ZM24.8405 77.3955L23.2001 76.2513L23.1743 76.2882L23.1502 76.3264L24.8405 77.3955ZM30.6763 67.4627L28.8886 66.566L28.8841 66.5748L28.8798 66.5837L30.6763 67.4627ZM34.8041 59.0501L33.0146 58.157L33.0075 58.1711L33.0006 58.1854L34.8041 59.0501ZM38.2519 60.7914L36.2569 60.6506L36.2495 60.7553L36.2531 60.8602L38.2519 60.7914ZM38.301 62.2179L40.3005 62.1731L40.3003 62.1611L40.2999 62.149L38.301 62.2179ZM39.3085 72.1808L37.3317 72.4846L38.2209 78.2699L41.0578 73.1501L39.3085 72.1808ZM44.7233 61.5981L46.5453 62.4231L46.5565 62.3983L46.567 62.3733L44.7233 61.5981ZM46.8216 56.9423L45.0228 56.0679L45.0073 56.0998L44.993 56.1322L46.8216 56.9423ZM50.2179 60.0803L48.219 60.1492L52.2155 60.1777L50.2179 60.0803ZM50.2167 60.0471L52.2155 59.9783L48.2172 60.0905L50.2167 60.0471ZM50.3297 65.2579L48.3302 65.3013L48.3305 65.314L48.3309 65.3268L50.3297 65.2579ZM51.0924 73.9006L49.1265 74.2681L49.1351 74.3144L49.1459 74.3601L51.0924 73.9006ZM51.376 75.3855L49.4039 75.7179L49.4182 75.8029L49.4398 75.8863L51.376 75.3855ZM47.5356 79.6032L45.8771 80.7209L45.8935 80.7453L45.9106 80.7692L47.5356 79.6032ZM46.9753 72.9796L48.9728 72.879L48.9721 72.8665L46.9753 72.9796ZM46.5512 65.4877L48.548 65.3747L48.1447 58.249L44.7864 64.5466L46.5512 65.4877ZM42.6625 73.1281L44.4502 74.0248L44.4583 74.0088L44.4661 73.9926L42.6625 73.1281ZM40.6112 77.2177L38.8235 76.321L38.8189 76.3301L38.8144 76.3393L40.6112 77.2177ZM38.5462 80.9092L39.9604 82.3235L39.9847 82.2991L40.0083 82.2739L38.5462 80.9092ZM36.0158 80.7306L34.1855 81.5369L34.2437 81.6692L34.3204 81.7917L36.0158 80.7306ZM35.8511 77.8799L37.6005 78.8492L37.8946 78.3184L37.8442 77.7137L35.8511 77.8799ZM34.9708 66.7833L36.9647 66.6273L36.4262 59.7486L33.2025 65.8489L34.9708 66.7833ZM28.4462 78.8988L30.2001 79.8601L30.206 79.8492L28.4462 78.8988ZM27.3811 80.7623L25.7773 79.5674L25.7254 79.637L25.6798 79.7108L27.3811 80.7623ZM26.1443 79.4278C26.147 79.3136 26.1978 78.991 26.5307 78.4646L23.1502 76.3264C22.5381 77.294 22.1702 78.3144 22.1454 79.3304L26.1443 79.4278ZM26.4808 78.5397C28.8202 75.1859 30.6602 72.0461 32.4728 68.3417L28.8798 66.5837C27.1549 70.1089 25.4186 73.0709 23.2001 76.2513L26.4808 78.5397ZM32.464 68.3594C33.3995 66.4943 34.8032 63.6779 36.6075 59.9148L33.0006 58.1854C31.2102 61.9197 29.8179 64.7132 28.8886 66.566L32.464 68.3594ZM36.5936 59.9432C36.8051 59.5195 36.976 59.343 37.0548 59.2802C37.0732 59.2656 37.0861 59.2575 37.0932 59.2533C37.1002 59.2493 37.1038 59.248 37.1046 59.2477C37.1054 59.2474 37.1067 59.2469 37.1098 59.2463C37.113 59.2457 37.1212 59.2443 37.1358 59.2438L36.9981 55.2462C35.0486 55.3133 33.7798 56.6236 33.0146 58.157L36.5936 59.9432ZM37.1358 59.2438C36.9946 59.2487 36.7824 59.2177 36.5667 59.0918C36.3591 58.9706 36.2564 58.8246 36.2218 58.7649C36.1925 58.7143 36.2129 58.729 36.2413 58.8609C36.2688 58.9883 36.295 59.184 36.3046 59.4634L40.3023 59.3257C40.273 58.4768 40.1355 57.5412 39.6831 56.7602C39.4411 56.3423 39.0864 55.931 38.5832 55.6372C38.072 55.3388 37.5207 55.2282 36.9981 55.2462L37.1358 59.2438ZM36.3046 59.4634C36.3111 59.6508 36.3008 60.0284 36.2569 60.6506L40.247 60.9321C40.2923 60.2891 40.3164 59.7355 40.3023 59.3257L36.3046 59.4634ZM36.2531 60.8602L36.3022 62.2867L40.2999 62.149L40.2507 60.7225L36.2531 60.8602ZM36.3016 62.2626C36.3659 65.1379 36.7256 68.5418 37.3317 72.4846L41.2852 71.8769C40.6928 68.0224 40.3595 64.8072 40.3005 62.1731L36.3016 62.2626ZM41.0578 73.1501C43.1341 69.4032 45.0013 65.8329 46.5453 62.4231L42.9014 60.7732C41.4204 64.044 39.6106 67.509 37.5591 71.2114L41.0578 73.1501ZM46.567 62.3733C46.9336 61.5012 47.6189 60.0802 48.6501 57.7524L44.993 56.1322C44.0518 58.2566 43.2498 59.9425 42.8796 60.823L46.567 62.3733ZM48.6203 57.8167C48.8115 57.4234 48.9726 57.2567 49.0455 57.1983C49.0782 57.172 49.0917 57.1684 49.0865 57.1704C49.0803 57.1727 49.0777 57.1718 49.088 57.1715L48.9504 53.1738C47.03 53.24 45.7582 54.5551 45.0228 56.0679L48.6203 57.8167ZM49.088 57.1715C48.92 57.1772 48.684 57.1346 48.4596 56.9892C48.2526 56.8551 48.1714 56.7087 48.1607 56.6881C48.1531 56.6734 48.187 56.736 48.2238 56.9269C48.2595 57.1119 48.2895 57.3718 48.3015 57.7217L52.2991 57.584C52.2668 56.6459 52.1327 55.6592 51.7123 54.8478C51.4881 54.4152 51.1473 53.9644 50.6346 53.6322C50.1044 53.2887 49.5165 53.1543 48.9504 53.1738L49.088 57.1715ZM48.3015 57.7217C48.3127 58.046 48.2813 58.7296 48.2202 59.9829L52.2155 60.1777C52.2712 59.0356 52.3177 58.1222 52.2991 57.584L48.3015 57.7217ZM52.2167 60.0115L52.2155 59.9783L48.2179 60.116L48.219 60.1492L52.2167 60.0115ZM48.2172 60.0905L48.3302 65.3013L52.3293 65.2146L52.2162 60.0038L48.2172 60.0905ZM48.3309 65.3268C48.4553 68.9373 48.6911 71.9393 49.1265 74.2681L53.0584 73.5331C52.6794 71.5057 52.451 68.7444 52.3286 65.1891L48.3309 65.3268ZM49.1459 74.3601C49.2452 74.7809 49.3187 75.2124 49.4039 75.7179L53.3482 75.0531C53.2665 74.5679 53.1729 74.0088 53.0389 73.4411L49.1459 74.3601ZM49.4398 75.8863C49.5688 76.3851 49.6216 76.7633 49.63 77.0067L53.6276 76.8691C53.6063 76.25 53.4899 75.5711 53.3123 74.8847L49.4398 75.8863ZM49.63 77.0067C49.6242 76.8378 49.6756 76.8358 49.5735 77.0273C49.4852 77.1931 49.3331 77.4042 49.1275 77.6159C48.9225 77.8271 48.7102 77.9916 48.5354 78.0935C48.3356 78.2099 48.3101 78.1732 48.4494 78.1684L48.587 82.166C49.3566 82.1395 50.0406 81.8459 50.5489 81.5497C51.0824 81.2389 51.577 80.8353 51.9975 80.4021C52.4175 79.9696 52.8094 79.4603 53.1032 78.9091C53.3833 78.3838 53.6551 77.6684 53.6276 76.8691L49.63 77.0067ZM48.4494 78.1684C48.5187 78.166 48.6095 78.1719 48.7129 78.1972C48.8171 78.2228 48.9115 78.2627 48.9914 78.3094C49.1456 78.3996 49.194 78.4839 49.1605 78.4372L45.9106 80.7692C46.4444 81.513 47.318 82.2097 48.587 82.166L48.4494 78.1684ZM49.1941 78.4854C49.3223 78.6758 49.3783 78.8364 49.3906 78.8716C49.4012 78.9019 49.4078 78.9244 49.4112 78.9363C49.413 78.9427 49.4143 78.9475 49.415 78.9504C49.4158 78.9534 49.4162 78.955 49.4162 78.9551C49.4162 78.9552 49.4159 78.954 49.4154 78.9516C49.4149 78.9491 49.4141 78.9456 49.4131 78.9409C49.4112 78.9314 49.4087 78.9182 49.4056 78.901C49.3994 78.8662 49.3918 78.8198 49.3832 78.7603C49.3475 78.513 49.3066 78.1315 49.2617 77.5943C49.1727 76.5275 49.0777 74.9638 48.9728 72.879L44.9778 73.0801C45.0832 75.1732 45.1808 76.7913 45.2756 77.927C45.3227 78.491 45.3714 78.9659 45.4243 79.332C45.4503 79.5124 45.4822 79.7008 45.5235 79.8756C45.5436 79.9605 45.6292 80.3532 45.8771 80.7209L49.1941 78.4854ZM48.9721 72.8665L48.548 65.3747L44.5544 65.6007L44.9785 73.0926L48.9721 72.8665ZM44.7864 64.5466C43.2784 67.3746 41.9584 69.9699 40.859 72.2636L44.4661 73.9926C45.5358 71.7608 46.8289 69.2175 48.316 66.4288L44.7864 64.5466ZM40.8748 72.2314L38.8235 76.321L42.3989 78.1144L44.4502 74.0248L40.8748 72.2314ZM38.8144 76.3393C38.3106 77.37 37.9008 78.1613 37.5824 78.7292C37.2287 79.3599 37.0738 79.5556 37.0841 79.5445L40.0083 82.2739C40.371 81.8853 40.7366 81.2825 41.0713 80.6855C41.4414 80.0257 41.8879 79.16 42.408 78.0961L38.8144 76.3393ZM37.132 79.4949C37.0626 79.5644 37.0067 79.6126 36.9658 79.6445C36.9455 79.6604 36.9298 79.6715 36.9187 79.6789C36.9133 79.6825 36.9091 79.6852 36.9062 79.6869C36.9048 79.6878 36.9037 79.6884 36.903 79.6889C36.9023 79.6893 36.9019 79.6895 36.9019 79.6895C36.9019 79.6895 36.9023 79.6893 36.9031 79.6889C36.9038 79.6885 36.905 79.6879 36.9065 79.6871C36.9096 79.6856 36.9143 79.6833 36.9208 79.6805C36.9334 79.675 36.9535 79.6671 36.9808 79.6586C37.0348 79.6418 37.1228 79.6213 37.2396 79.6173L37.3772 83.6149C38.4564 83.5778 39.3384 82.9453 39.9604 82.3235L37.132 79.4949ZM37.2396 79.6173C37.3193 79.6146 37.4168 79.6239 37.5203 79.6546C37.623 79.6851 37.7019 79.7279 37.7541 79.7638C37.8451 79.8264 37.82 79.8436 37.7111 79.6696L34.3204 81.7917C34.8814 82.688 35.8509 83.6675 37.3772 83.6149L37.2396 79.6173ZM37.846 79.9244C37.7145 79.6257 37.6361 79.3164 37.6257 79.0145L33.6281 79.1521C33.6588 80.0446 33.8846 80.854 34.1855 81.5369L37.846 79.9244ZM37.6257 79.0145C37.6208 78.8719 37.6291 78.8003 37.6335 78.7747C37.6368 78.7555 37.633 78.7907 37.6005 78.8492L34.1018 76.9105C33.6617 77.7046 33.6065 78.5255 33.6281 79.1521L37.6257 79.0145ZM37.8442 77.7137C37.7315 76.3619 37.4393 72.6906 36.9647 66.6273L32.9769 66.9394C33.4512 72.9999 33.7444 76.6821 33.8581 78.046L37.8442 77.7137ZM33.2025 65.8489C31.8672 68.3755 29.6887 72.3891 26.6864 77.9485L30.206 79.8492C33.1985 74.3077 35.3926 70.2656 36.739 67.7178L33.2025 65.8489ZM26.6924 77.9375C26.3963 78.4776 26.1684 78.8887 26.001 79.1826C25.917 79.3299 25.8534 79.4387 25.8071 79.5151C25.7513 79.6072 25.7477 79.607 25.7773 79.5674L28.9849 81.9572C29.1366 81.7536 29.3178 81.4411 29.4762 81.1632C29.6611 80.8387 29.9023 80.4033 30.2 79.8601L26.6924 77.9375ZM25.6798 79.7108C25.5935 79.8504 25.5183 79.954 25.4574 80.028C25.3958 80.1029 25.3571 80.1375 25.346 80.1468C25.3104 80.1763 25.4766 80.0224 25.8273 80.0103L25.965 84.008C26.7802 83.9799 27.4371 83.6098 27.9021 83.2235C28.3707 82.8342 28.7588 82.3373 29.0824 81.8138L25.6798 79.7108ZM25.8273 80.0103C25.8981 80.0079 25.9877 80.0176 26.0836 80.049C26.1779 80.0799 26.2513 80.1231 26.3016 80.1611C26.3917 80.2292 26.3881 80.2643 26.3405 80.1716C26.2963 80.0853 26.246 79.9494 26.2061 79.7735C26.1668 79.6004 26.1479 79.4341 26.1437 79.3103L22.146 79.4479C22.1702 80.1492 22.3349 81.1258 22.7807 81.9957C23.2283 82.8693 24.228 84.0678 25.965 84.008L25.8273 80.0103Z" fill="black" mask="url(#path-3-outside-1_74_287)"/>
<mask id="path-5-outside-2_74_287" maskUnits="userSpaceOnUse" x="48.2415" y="56.9613" width="28.051" height="31.911" fill="black">
<rect fill="white" x="48.2415" y="56.9613" width="28.051" height="31.911"/>
<path d="M51.6355 84.9517C51.3198 84.4643 51.1334 83.8729 51.1448 83.2414C51.1231 82.6111 51.4298 81.8698 52.1322 81.0485C52.4834 80.6378 53.0588 79.9869 53.7601 79.1324C55.6421 76.8754 57.5377 74.0533 59.613 70.6604C60.8063 68.6596 62.5658 65.7426 64.8871 61.7766C65.5449 60.6246 66.4876 60.0275 67.7483 59.9841C68.4449 59.9601 68.9208 60.2759 69.1416 60.8993C69.2148 61.0961 69.2685 61.6921 69.3714 62.7514C70.22 69.0662 71.3592 74.1752 72.821 78.0441C73.0051 78.5692 73.2225 79.0932 73.4066 79.6183C73.6949 80.2726 73.8459 80.7989 73.8264 81.1981C73.8721 82.5251 71.758 83.8269 70.5637 83.868C69.9334 83.8897 69.4861 83.4401 69.1887 82.5203C69.1098 82.1577 68.9188 81.4336 68.7484 80.3433C65.1929 81.2629 60.8766 82.2752 55.699 83.3503C54.6911 84.9461 53.8559 85.772 53.1924 85.7948C52.5953 85.8154 52.0874 85.534 51.6355 84.9517ZM66.1521 66.682C65.047 68.3475 62.625 72.2838 58.8531 78.492C62.0849 77.816 65.1118 76.9811 67.9329 75.9539C67.5246 73.7426 66.9207 70.6744 66.1521 66.682Z"/>
</mask>
<path d="M51.6355 84.9517C51.3198 84.4643 51.1334 83.8729 51.1448 83.2414C51.1231 82.6111 51.4298 81.8698 52.1322 81.0485C52.4834 80.6378 53.0588 79.9869 53.7601 79.1324C55.6421 76.8754 57.5377 74.0533 59.613 70.6604C60.8063 68.6596 62.5658 65.7426 64.8871 61.7766C65.5449 60.6246 66.4876 60.0275 67.7483 59.9841C68.4449 59.9601 68.9208 60.2759 69.1416 60.8993C69.2148 61.0961 69.2685 61.6921 69.3714 62.7514C70.22 69.0662 71.3592 74.1752 72.821 78.0441C73.0051 78.5692 73.2225 79.0932 73.4066 79.6183C73.6949 80.2726 73.8459 80.7989 73.8264 81.1981C73.8721 82.5251 71.758 83.8269 70.5637 83.868C69.9334 83.8897 69.4861 83.4401 69.1887 82.5203C69.1098 82.1577 68.9188 81.4336 68.7484 80.3433C65.1929 81.2629 60.8766 82.2752 55.699 83.3503C54.6911 84.9461 53.8559 85.772 53.1924 85.7948C52.5953 85.8154 52.0874 85.534 51.6355 84.9517ZM66.1521 66.682C65.047 68.3475 62.625 72.2838 58.8531 78.492C62.0849 77.816 65.1118 76.9811 67.9329 75.9539C67.5246 73.7426 66.9207 70.6744 66.1521 66.682Z" fill="white"/>
<path d="M51.6355 84.9517L49.957 86.0391L50.0033 86.1105L50.0554 86.1777L51.6355 84.9517ZM51.1448 83.2414L53.1445 83.2777L53.1455 83.2251L53.1437 83.1726L51.1448 83.2414ZM52.1322 81.0485L53.6521 82.3484L52.1322 81.0485ZM53.7601 79.1324L52.2241 77.8516L52.2191 77.8576L52.2141 77.8636L53.7601 79.1324ZM59.613 70.6604L61.3192 71.704L61.325 71.6944L61.3308 71.6848L59.613 70.6604ZM64.8871 61.7766L66.6132 62.7868L66.6186 62.7776L66.6239 62.7684L64.8871 61.7766ZM69.1416 60.8993L67.2563 61.5669L67.2616 61.5818L67.2671 61.5967L69.1416 60.8993ZM69.3714 62.7514L67.3808 62.9448L67.3844 62.9814L67.3892 63.0178L69.3714 62.7514ZM72.821 78.0441L74.7083 77.3822L74.7004 77.3596L74.6919 77.3372L72.821 78.0441ZM73.4066 79.6183L71.5193 80.2802L71.545 80.3535L71.5763 80.4245L73.4066 79.6183ZM73.8264 81.1981L71.8288 81.1007L71.8247 81.1838L71.8276 81.2669L73.8264 81.1981ZM69.1887 82.5203L67.2344 82.9456L67.2554 83.0419L67.2857 83.1356L69.1887 82.5203ZM68.7484 80.3433L70.7244 80.0345L70.3836 77.8546L68.2476 78.4071L68.7484 80.3433ZM55.699 83.3503L55.2924 81.392L54.4613 81.5646L54.008 82.2823L55.699 83.3503ZM66.1521 66.682L68.1161 66.3039L67.1911 61.4988L64.4856 65.5762L66.1521 66.682ZM58.8531 78.492L57.1439 77.4535L54.75 81.3934L59.2626 80.4496L58.8531 78.492ZM67.9329 75.9539L68.6172 77.8332L70.2068 77.2544L69.8997 75.5908L67.9329 75.9539ZM53.3141 83.8642C53.203 83.6927 53.1407 83.4896 53.1445 83.2777L49.1452 83.2051C49.1261 84.2561 49.4367 85.2359 49.957 86.0391L53.3141 83.8642ZM53.1437 83.1726C53.1461 83.2446 53.1137 82.9779 53.6521 82.3484L50.6122 79.7486C49.7458 80.7617 49.1001 81.9776 49.146 83.3102L53.1437 83.1726ZM53.6521 82.3484C53.9792 81.9659 54.588 81.2763 55.3061 80.4012L52.2141 77.8636C51.5297 78.6975 50.9876 79.3097 50.6122 79.7486L53.6521 82.3484ZM55.2962 80.4132C57.2709 78.0449 59.226 75.1262 61.3192 71.704L57.9069 69.6168C55.8495 72.9804 54.0132 75.7059 52.2241 77.8516L55.2962 80.4132ZM61.3308 71.6848C62.5191 69.6923 64.2864 66.7623 66.6132 62.7868L63.161 60.7663C60.8453 64.7229 59.0935 67.627 57.8953 69.636L61.3308 71.6848ZM66.6239 62.7684C66.9651 62.1708 67.3026 62.0006 67.8171 61.9829L67.6794 57.9853C65.6726 58.0544 64.1248 59.0785 63.1504 60.7848L66.6239 62.7684ZM67.8171 61.9829C67.8466 61.9819 67.7079 61.9907 67.5234 61.8692C67.3319 61.7431 67.2649 61.5913 67.2563 61.5669L71.0269 60.2318C70.7975 59.5839 70.3822 58.9624 69.7234 58.5286C69.0716 58.0993 68.3466 57.9623 67.6794 57.9853L67.8171 61.9829ZM67.2671 61.5967C67.2163 61.4601 67.2088 61.3789 67.2219 61.4565C67.2303 61.5059 67.2424 61.592 67.2587 61.7321C67.2913 62.0143 67.328 62.4014 67.3808 62.9448L71.3621 62.558C71.3119 62.0421 71.2703 61.6016 71.2321 61.2718C71.2051 61.0387 71.1545 60.5741 71.016 60.2019L67.2671 61.5967ZM67.3892 63.0178C68.2476 69.4055 69.4126 74.6817 70.9501 78.751L74.6919 77.3372C73.3058 73.6686 72.1924 68.7268 71.3536 62.4851L67.3892 63.0178ZM70.9337 78.706C71.0367 78.9997 71.1473 79.2884 71.2459 79.5461C71.3481 79.8129 71.4382 80.0487 71.5193 80.2802L75.2939 78.9564C75.1909 78.6627 75.0803 78.374 74.9817 78.1163C74.8796 77.8495 74.7894 77.6137 74.7083 77.3822L70.9337 78.706ZM71.5763 80.4245C71.6956 80.6953 71.7649 80.8917 71.8015 81.027C71.8403 81.17 71.8249 81.1807 71.8288 81.1007L75.824 81.2955C75.8676 80.4017 75.5448 79.511 75.2369 78.812L71.5763 80.4245ZM71.8276 81.2669C71.82 81.0477 71.9044 80.9647 71.8503 81.0443C71.7983 81.1206 71.6784 81.2539 71.4718 81.4065C71.2711 81.5547 71.0427 81.6811 70.8306 81.7673C70.6016 81.8604 70.4844 81.8695 70.4948 81.8692L70.6325 85.8668C71.7638 85.8278 72.9745 85.2695 73.8483 84.624C74.6447 84.0357 75.8838 82.8315 75.8252 81.1293L71.8276 81.2669ZM70.4948 81.8692C70.5891 81.8659 70.7192 81.8803 70.8602 81.936C71.0002 81.9914 71.0985 82.0668 71.1557 82.1233C71.2082 82.175 71.2158 82.2001 71.1951 82.1623C71.1744 82.1246 71.1367 82.0443 71.0917 81.905L67.2857 83.1356C67.4846 83.7508 67.7995 84.4313 68.3469 84.9712C68.9566 85.5724 69.7551 85.897 70.6325 85.8668L70.4948 81.8692ZM71.143 82.095C71.0472 81.6552 70.8826 81.0466 70.7244 80.0345L66.7723 80.6522C66.955 81.8205 67.1723 82.6602 67.2344 82.9456L71.143 82.095ZM68.2476 78.4071C64.727 79.3176 60.4424 80.3227 55.2924 81.392L56.1056 85.3085C61.3108 84.2277 65.6588 83.2083 69.2492 82.2796L68.2476 78.4071ZM54.008 82.2823C53.5415 83.0209 53.1765 83.4797 52.9177 83.733C52.7913 83.8568 52.7315 83.8902 52.7404 83.8853C52.7506 83.8795 52.8867 83.8042 53.1236 83.796L53.2613 87.7936C54.3584 87.7559 55.1937 87.1024 55.7155 86.5918C56.292 86.0275 56.8486 85.2754 57.3899 84.4183L54.008 82.2823ZM53.1236 83.796C53.143 83.7953 53.1767 83.7969 53.2184 83.8067C53.2603 83.8165 53.294 83.8309 53.3161 83.8429C53.358 83.8657 53.3182 83.8577 53.2156 83.7256L50.0554 86.1777C50.7834 87.1159 51.852 87.8422 53.2613 87.7936L53.1236 83.796ZM64.4856 65.5762C63.353 67.2832 60.9061 71.2612 57.1439 77.4535L60.5624 79.5305C64.344 73.3064 66.741 69.4118 67.8186 67.7877L64.4856 65.5762ZM59.2626 80.4496C62.5714 79.7575 65.6921 78.8982 68.6172 77.8332L67.2486 74.0746C64.5315 75.0639 61.5983 75.8745 58.4437 76.5343L59.2626 80.4496ZM69.8997 75.5908C69.4895 73.3697 68.882 70.2825 68.1161 66.3039L64.1882 67.06C64.9594 71.0664 65.5596 74.1155 65.9661 76.317L69.8997 75.5908Z" fill="black" mask="url(#path-5-outside-2_74_287)"/>
<mask id="path-7-outside-3_74_287" maskUnits="userSpaceOnUse" x="72.2415" y="55.7892" width="33.048" height="32.0831" fill="black">
<rect fill="white" x="72.2415" y="55.7892" width="33.048" height="32.0831"/>
<path d="M77.1638 84.9287C76.3013 84.9584 75.8563 84.5751 75.862 83.7778C75.8518 83.4792 75.9342 82.9782 76.1092 82.2746C76.1916 81.7736 76.306 81.2382 76.4216 80.736C77.7718 73.648 78.821 68.4304 79.6013 65.0489C80.0327 63.1076 80.2947 62.0357 82.3642 61.3666C82.76 61.2865 83.1901 61.2385 83.5551 61.2259C84.1854 61.2042 84.6224 61.3552 84.9015 61.7442L93.1867 74.7114C93.4018 74.2058 93.9899 71.9934 95.0208 68.1714C95.2233 67.3009 95.5425 65.9613 95.9144 64.2214C96.7805 60.4383 98.3078 58.4925 100.464 58.4182C101.26 58.3908 101.67 58.7088 101.692 59.3391C101.704 59.7041 101.498 60.4751 101.009 61.6877C98.3142 68.3237 96.6609 74.3261 95.9846 79.7633C95.8828 80.6636 95.7706 81.2653 95.6471 81.5353C95.2455 82.4127 94.2331 82.9126 92.6738 82.9663C91.7781 82.9971 91.3388 82.7798 91.3217 82.2821L82.834 69.2222C81.4988 73.8518 80.7333 77.6646 80.4392 80.6973C80.4438 80.83 80.3694 81.5633 80.2835 82.928C80.0261 84.1326 78.2918 84.8898 77.1638 84.9287Z"/>
</mask>
<path d="M77.1638 84.9287C76.3013 84.9584 75.8563 84.5751 75.862 83.7778C75.8518 83.4792 75.9342 82.9782 76.1092 82.2746C76.1916 81.7736 76.306 81.2382 76.4216 80.736C77.7718 73.648 78.821 68.4304 79.6013 65.0489C80.0327 63.1076 80.2947 62.0357 82.3642 61.3666C82.76 61.2865 83.1901 61.2385 83.5551 61.2259C84.1854 61.2042 84.6224 61.3552 84.9015 61.7442L93.1867 74.7114C93.4018 74.2058 93.9899 71.9934 95.0208 68.1714C95.2233 67.3009 95.5425 65.9613 95.9144 64.2214C96.7805 60.4383 98.3078 58.4925 100.464 58.4182C101.26 58.3908 101.67 58.7088 101.692 59.3391C101.704 59.7041 101.498 60.4751 101.009 61.6877C98.3142 68.3237 96.6609 74.3261 95.9846 79.7633C95.8828 80.6636 95.7706 81.2653 95.6471 81.5353C95.2455 82.4127 94.2331 82.9126 92.6738 82.9663C91.7781 82.9971 91.3388 82.7798 91.3217 82.2821L82.834 69.2222C81.4988 73.8518 80.7333 77.6646 80.4392 80.6973C80.4438 80.83 80.3694 81.5633 80.2835 82.928C80.0261 84.1326 78.2918 84.8898 77.1638 84.9287Z" fill="white"/>
<path d="M75.862 83.7778L77.862 83.7922L77.8623 83.7506L77.8609 83.7089L75.862 83.7778ZM76.1092 82.2746L78.05 82.7575L78.0696 82.679L78.0827 82.5991L76.1092 82.2746ZM76.4216 80.736L78.3706 81.1845L78.3792 81.1475L78.3863 81.1102L76.4216 80.736ZM79.6013 65.0489L81.5501 65.4986L81.552 65.4907L81.5537 65.4827L79.6013 65.0489ZM82.3642 61.3666L81.9677 59.4063L81.8567 59.4287L81.7489 59.4636L82.3642 61.3666ZM84.9015 61.7442L86.5868 60.6674L86.5578 60.622L86.5264 60.5782L84.9015 61.7442ZM93.1867 74.7114L91.5013 75.7883L93.5429 78.9835L95.0271 75.4943L93.1867 74.7114ZM95.0208 68.1714L96.9518 68.6923L96.9608 68.6586L96.9687 68.6246L95.0208 68.1714ZM95.9144 64.2214L93.9648 63.775L93.9616 63.7892L93.9585 63.8034L95.9144 64.2214ZM101.009 61.6877L102.862 62.4401L102.863 62.4366L101.009 61.6877ZM95.9846 79.7633L93.9999 79.5164L93.9986 79.5275L93.9973 79.5385L95.9846 79.7633ZM95.6471 81.5353L93.8285 80.703L95.6471 81.5353ZM91.3217 82.2821L93.3205 82.2133L93.3014 81.6581L92.9987 81.1923L91.3217 82.2821ZM82.834 69.2222L84.511 68.1324L82.1255 64.4618L80.9123 68.668L82.834 69.2222ZM80.4392 80.6973L78.4485 80.5042L78.4359 80.6349L78.4404 80.7661L80.4392 80.6973ZM80.2835 82.928L82.2394 83.346L82.2703 83.2013L82.2796 83.0536L80.2835 82.928ZM77.095 82.9299C76.927 82.9356 77.191 82.883 77.5071 83.1607C77.8642 83.4743 77.8618 83.8258 77.862 83.7922L73.8621 83.7633C73.8566 84.5271 74.0738 85.4689 74.8675 86.1661C75.6204 86.8273 76.5381 86.9514 77.2327 86.9275L77.095 82.9299ZM77.8609 83.7089C77.8623 83.7511 77.8572 83.6998 77.8896 83.5026C77.9193 83.3224 77.9705 83.0771 78.05 82.7575L74.1684 81.7917C73.9942 82.4918 73.8423 83.2382 73.8632 83.8466L77.8609 83.7089ZM78.0827 82.5991C78.1551 82.1588 78.2589 81.6703 78.3706 81.1845L74.4725 80.2875C74.3532 80.8061 74.2281 81.3884 74.1357 81.9501L78.0827 82.5991ZM78.3863 81.1102C79.7364 74.0226 80.7793 68.8387 81.5501 65.4986L77.6526 64.5992C76.8627 68.0221 75.8071 73.2735 74.4569 80.3617L78.3863 81.1102ZM81.5537 65.4827C81.7902 64.4185 81.9036 64.0437 82.0559 63.8043C82.1144 63.7124 82.2461 63.5067 82.9795 63.2696L81.7489 59.4636C80.4128 59.8956 79.3788 60.5604 78.6811 61.6571C78.0772 62.6062 77.8438 63.738 77.649 64.6151L81.5537 65.4827ZM82.7607 63.3269C83.0456 63.2692 83.366 63.2336 83.6239 63.2247L83.4862 59.2271C83.0142 59.2434 82.4744 59.3038 81.9677 59.4063L82.7607 63.3269ZM83.6239 63.2247C83.7787 63.2194 83.7614 63.2426 83.6573 63.2035C83.5996 63.1819 83.5266 63.1453 83.4511 63.0878C83.3752 63.0301 83.3172 62.9669 83.2766 62.9102L86.5264 60.5782C85.7008 59.4276 84.4622 59.1935 83.4862 59.2271L83.6239 63.2247ZM83.2161 62.821L91.5013 75.7883L94.8721 73.6346L86.5868 60.6674L83.2161 62.821ZM95.0271 75.4943C95.2001 75.0877 95.4415 74.244 95.7254 73.2185C96.0304 72.1162 96.4379 70.5974 96.9518 68.6923L93.0898 67.6506C92.5728 69.5674 92.1707 71.0659 91.8703 72.1516C91.72 72.6946 91.5986 73.1216 91.5034 73.4389C91.4558 73.5976 91.4173 73.7201 91.3871 73.8111C91.354 73.9108 91.3413 73.9403 91.3463 73.9285L95.0271 75.4943ZM96.9687 68.6246C97.1693 67.7624 97.4936 66.4013 97.8702 64.6394L93.9585 63.8034C93.5914 65.5213 93.2772 66.8394 93.0728 67.7183L96.9687 68.6246ZM97.8639 64.6677C98.2649 62.9164 98.7757 61.8052 99.2792 61.1632C99.7329 60.5847 100.133 60.4308 100.533 60.417L100.395 56.4194C98.6389 56.4799 97.1972 57.336 96.1317 58.6948C95.1159 59.99 94.43 61.7433 93.9648 63.775L97.8639 64.6677ZM100.533 60.417C100.701 60.4112 100.471 60.4614 100.161 60.2267C99.9949 60.1008 99.8647 59.9345 99.7833 59.7561C99.7068 59.5885 99.6945 59.458 99.6928 59.408L103.69 59.2703C103.664 58.5097 103.372 57.6406 102.575 57.0373C101.856 56.4929 101.024 56.3977 100.395 56.4194L100.533 60.417ZM99.6928 59.408C99.6893 59.3074 99.7016 59.2732 99.6896 59.3415C99.6795 59.3987 99.6576 59.4981 99.615 59.6474C99.5296 59.947 99.3828 60.3724 99.1541 60.9388L102.863 62.4366C103.124 61.7903 103.325 61.224 103.462 60.7437C103.584 60.3151 103.708 59.7805 103.69 59.2703L99.6928 59.408ZM99.1555 60.9353C96.4123 67.6916 94.7028 73.866 93.9999 79.5164L97.9693 80.0102C98.6191 74.7861 100.216 68.9558 102.862 62.4401L99.1555 60.9353ZM93.9973 79.5385C93.9493 79.9625 93.9024 80.2842 93.8589 80.5134C93.8373 80.6274 93.8196 80.7026 93.8077 80.7465C93.7934 80.7988 93.7967 80.7724 93.8285 80.703L97.4657 82.3676C97.6341 81.9997 97.7279 81.5806 97.789 81.2579C97.858 80.8938 97.9181 80.4644 97.972 79.9881L93.9973 79.5385ZM93.8285 80.703C93.849 80.6582 93.8667 80.69 93.7226 80.7598C93.5506 80.8431 93.2038 80.9468 92.605 80.9675L92.7427 84.9651C94.5841 84.9017 96.5906 84.2797 97.4657 82.3676L93.8285 80.703ZM92.605 80.9675C92.4611 80.9724 92.3884 80.9651 92.3688 80.9623C92.3446 80.9589 92.4298 80.9666 92.5674 81.0359C92.7192 81.1123 92.9308 81.2631 93.0982 81.5243C93.2657 81.7857 93.3146 82.0417 93.3205 82.2133L89.3229 82.351C89.3374 82.7714 89.4476 83.2412 89.7303 83.6823C90.0128 84.1233 90.3935 84.4198 90.7692 84.6089C91.4494 84.9512 92.1944 84.984 92.7427 84.9651L92.605 80.9675ZM92.9987 81.1923L84.511 68.1324L81.1571 70.3121L89.6447 83.372L92.9987 81.1923ZM80.9123 68.668C79.5552 73.3735 78.7581 77.3123 78.4485 80.5042L82.4299 80.8903C82.7085 78.0169 83.4424 74.3301 84.7557 69.7765L80.9123 68.668ZM78.4404 80.7661C78.4371 80.6703 78.4444 80.6199 78.4338 80.7691C78.4268 80.8687 78.4161 81.005 78.4013 81.1958C78.3722 81.5702 78.3313 82.1058 78.2875 82.8024L82.2796 83.0536C82.3216 82.3854 82.3608 81.8721 82.3893 81.5054C82.4032 81.3257 82.4156 81.1685 82.4239 81.0507C82.4287 80.9824 82.4436 80.7906 82.438 80.6284L78.4404 80.7661ZM78.3277 82.51C78.3519 82.3967 78.3963 82.3644 78.358 82.407C78.3171 82.4526 78.2242 82.5345 78.0621 82.6266C77.9038 82.7165 77.7177 82.7944 77.5287 82.8497C77.336 82.9062 77.183 82.9268 77.095 82.9299L77.2327 86.9275C78.1449 86.8961 79.1734 86.5957 80.0381 86.1044C80.8611 85.6368 81.9374 84.7587 82.2394 83.346L78.3277 82.51Z" fill="black" mask="url(#path-7-outside-3_74_287)"/>
<mask id="path-9-outside-4_74_287" maskUnits="userSpaceOnUse" x="95.2409" y="56.8925" width="31.0148" height="31.0148" fill="black">
<rect fill="white" x="95.2409" y="56.8925" width="31.0148" height="31.0148"/>
<path d="M101.31 84.6615C99.7828 83.7176 98.9066 81.4228 98.8472 79.6977C98.8118 78.6692 99.0716 76.5678 100.432 76.5209C101.062 76.4992 101.54 76.8813 101.933 77.665C102.468 78.7426 102.925 79.4908 103.336 79.842C104.225 80.5753 105.698 80.9232 107.656 80.8557C111.106 80.7369 114.708 79.2511 116.564 76.2311C117.007 75.5847 117.223 75.1123 117.213 74.8137C117.181 73.8848 110.994 73.6329 110.263 73.6248C108.668 73.6133 106.343 73.5938 103.184 73.5033C101.721 73.454 100.97 72.8488 100.898 71.722C100.878 70.1948 102.141 68.2913 104.619 65.9806C109.157 61.7721 114.065 59.6102 119.373 59.4274C120.634 59.384 121.311 59.7593 121.308 60.623C121.365 62.2817 121.341 63.5115 121.104 64.35C120.873 65.3544 118.856 66.5864 117.861 66.6206C117.098 66.6469 116.717 66.195 116.651 65.2673L116.589 64.4059L116.222 64.3853C114.626 64.3074 112.815 64.7683 110.988 65.728C109.321 66.5162 107.931 67.6269 106.751 69.0625C106.916 69.0236 107.578 68.9676 108.773 68.9265L109.27 68.9093C111.593 68.8294 120.471 69.1215 122.252 69.7244C122.857 69.9361 123.141 70.4577 123.167 71.2208C123.197 72.0833 122.993 72.9207 122.555 73.6997C119.251 79.9914 111.317 84.9479 104.218 85.1924C102.99 85.2347 102.02 85.0356 101.31 84.6615Z"/>
</mask>
<path d="M101.31 84.6615C99.7828 83.7176 98.9066 81.4228 98.8472 79.6977C98.8118 78.6692 99.0716 76.5678 100.432 76.5209C101.062 76.4992 101.54 76.8813 101.933 77.665C102.468 78.7426 102.925 79.4908 103.336 79.842C104.225 80.5753 105.698 80.9232 107.656 80.8557C111.106 80.7369 114.708 79.2511 116.564 76.2311C117.007 75.5847 117.223 75.1123 117.213 74.8137C117.181 73.8848 110.994 73.6329 110.263 73.6248C108.668 73.6133 106.343 73.5938 103.184 73.5033C101.721 73.454 100.97 72.8488 100.898 71.722C100.878 70.1948 102.141 68.2913 104.619 65.9806C109.157 61.7721 114.065 59.6102 119.373 59.4274C120.634 59.384 121.311 59.7593 121.308 60.623C121.365 62.2817 121.341 63.5115 121.104 64.35C120.873 65.3544 118.856 66.5864 117.861 66.6206C117.098 66.6469 116.717 66.195 116.651 65.2673L116.589 64.4059L116.222 64.3853C114.626 64.3074 112.815 64.7683 110.988 65.728C109.321 66.5162 107.931 67.6269 106.751 69.0625C106.916 69.0236 107.578 68.9676 108.773 68.9265L109.27 68.9093C111.593 68.8294 120.471 69.1215 122.252 69.7244C122.857 69.9361 123.141 70.4577 123.167 71.2208C123.197 72.0833 122.993 72.9207 122.555 73.6997C119.251 79.9914 111.317 84.9479 104.218 85.1924C102.99 85.2347 102.02 85.0356 101.31 84.6615Z" fill="white"/>
<path d="M101.31 84.6615L100.259 86.3628L100.317 86.399L100.378 86.4311L101.31 84.6615ZM101.933 77.665L103.724 76.7752L103.721 76.7696L101.933 77.665ZM103.336 79.842L102.036 81.362L102.05 81.3735L102.063 81.3847L103.336 79.842ZM116.564 76.2311L114.914 75.1008L114.886 75.1417L114.86 75.184L116.564 76.2311ZM110.263 73.6248L110.285 71.6249L110.278 71.6249L110.263 73.6248ZM103.184 73.5033L103.117 75.5022L103.127 75.5024L103.184 73.5033ZM100.898 71.722L98.8977 71.7474L98.8984 71.7985L98.9016 71.8496L100.898 71.722ZM104.619 65.9806L103.259 64.5141L103.255 64.5179L104.619 65.9806ZM121.308 60.623L119.308 60.6149L119.307 60.6534L119.309 60.6918L121.308 60.623ZM121.104 64.35L119.179 63.8064L119.166 63.8536L119.155 63.9015L121.104 64.35ZM116.651 65.2673L118.647 65.1271L118.646 65.1217L116.651 65.2673ZM116.589 64.4059L118.583 64.2603L118.455 62.5078L116.701 62.409L116.589 64.4059ZM116.222 64.3853L116.335 62.3884L116.327 62.388L116.32 62.3876L116.222 64.3853ZM110.988 65.728L111.843 67.5361L111.881 67.5182L111.918 67.4986L110.988 65.728ZM106.751 69.0625L105.206 67.7929L101.446 72.37L107.211 71.009L106.751 69.0625ZM122.252 69.7244L122.912 67.8366L122.903 67.8332L122.893 67.83L122.252 69.7244ZM122.555 73.6997L120.812 72.7192L120.798 72.7443L120.784 72.7698L122.555 73.6997ZM102.361 82.9602C102.047 82.7656 101.665 82.3316 101.345 81.6367C101.033 80.9587 100.866 80.2136 100.846 79.6288L96.8484 79.7665C96.8877 80.9069 97.1884 82.1717 97.7112 83.3083C98.2263 84.4281 99.0462 85.6135 100.259 86.3628L102.361 82.9602ZM100.846 79.6288C100.841 79.4706 100.846 79.2483 100.875 79.0097C100.903 78.7673 100.95 78.5567 101.004 78.4009C101.064 78.2311 101.097 78.228 101.034 78.2916C100.996 78.3314 100.924 78.3914 100.817 78.4415C100.706 78.4932 100.594 78.5165 100.501 78.5198L100.363 74.5221C98.4006 74.5897 97.5392 76.1911 97.2281 77.0815C96.8891 78.0517 96.8255 79.1012 96.8484 79.7665L100.846 79.6288ZM100.501 78.5198C100.443 78.5217 100.359 78.5148 100.263 78.4838C100.167 78.4529 100.095 78.4094 100.05 78.3747C100.009 78.3427 100.003 78.3278 100.024 78.3567C100.047 78.3863 100.089 78.4492 100.144 78.5604L103.721 76.7696C103.448 76.2234 103.063 75.6468 102.493 75.2072C101.878 74.7333 101.145 74.4952 100.363 74.5221L100.501 78.5198ZM100.141 78.5548C100.424 79.1241 100.708 79.6501 100.994 80.0995C101.266 80.5274 101.608 80.9961 102.036 81.362L104.636 78.3221C104.653 78.3367 104.562 78.2557 104.369 77.9523C104.189 77.6703 103.976 77.2835 103.724 76.7752L100.141 78.5548ZM102.063 81.3847C103.514 82.5818 105.59 82.9281 107.725 82.8546L107.587 78.8569C105.807 78.9182 104.936 78.5689 104.609 78.2993L102.063 81.3847ZM107.725 82.8546C111.61 82.7207 115.954 81.0442 118.268 77.2781L114.86 75.184C113.463 77.4579 110.602 78.7531 107.587 78.8569L107.725 82.8546ZM118.214 77.3613C118.471 76.9861 118.704 76.6025 118.877 76.2243C119.032 75.8855 119.233 75.3551 119.212 74.7449L115.214 74.8826C115.208 74.7065 115.236 74.5887 115.246 74.5541C115.256 74.5154 115.26 74.5149 115.24 74.5597C115.197 74.6539 115.1 74.8297 114.914 75.1008L118.214 77.3613ZM119.212 74.7449C119.167 73.4666 118.138 72.876 117.901 72.7451C117.509 72.5287 117.072 72.3928 116.718 72.3011C115.979 72.1097 115.065 71.9787 114.218 71.8859C112.504 71.6979 110.709 71.6296 110.285 71.625L110.241 75.6247C110.549 75.6281 112.212 75.6898 113.782 75.862C114.578 75.9493 115.262 76.0559 115.715 76.1733C115.956 76.2359 116.014 76.2722 115.969 76.2474C115.946 76.2346 115.804 76.1563 115.646 75.98C115.476 75.7892 115.232 75.4161 115.214 74.8826L119.212 74.7449ZM110.278 71.6249C108.688 71.6134 106.379 71.594 103.242 71.5041L103.127 75.5024C106.307 75.5936 108.649 75.6132 110.249 75.6248L110.278 71.6249ZM103.252 71.5044C103.013 71.4964 102.864 71.4671 102.782 71.4433C102.704 71.4204 102.71 71.4091 102.755 71.4439C102.806 71.484 102.854 71.5435 102.883 71.6048C102.909 71.6584 102.898 71.6673 102.893 71.5944L98.9016 71.8496C98.9666 72.8665 99.3735 73.8745 100.284 74.5896C101.126 75.2513 102.16 75.4699 103.117 75.5021L103.252 71.5044ZM102.897 71.6966C102.895 71.4861 102.986 71.0223 103.497 70.2375C103.999 69.4686 104.808 68.5395 105.983 67.4433L103.255 64.5179C101.953 65.7324 100.891 66.9104 100.147 68.0528C99.4121 69.1792 98.881 70.4307 98.8977 71.7474L102.897 71.6966ZM105.979 67.4471C110.221 63.513 114.686 61.59 119.442 61.4262L119.304 57.4286C113.444 57.6304 108.093 60.0312 103.259 64.5141L105.979 67.4471ZM119.442 61.4262C119.659 61.4188 119.792 61.4319 119.859 61.4439C119.93 61.4563 119.884 61.4593 119.784 61.3989C119.667 61.329 119.521 61.1991 119.417 61.0026C119.317 60.8145 119.307 60.6625 119.308 60.6149L123.308 60.631C123.312 59.5731 122.84 58.5694 121.845 57.9711C121.025 57.478 120.074 57.4021 119.304 57.4286L119.442 61.4262ZM119.309 60.6918C119.367 62.3924 119.318 63.3141 119.179 63.8064L123.028 64.8936C123.363 63.7089 123.362 62.171 123.306 60.5541L119.309 60.6918ZM119.155 63.9015C119.209 63.6662 119.3 63.6256 119.169 63.7682C119.065 63.8813 118.891 64.0307 118.66 64.1844C118.433 64.3357 118.198 64.4597 117.998 64.5414C117.769 64.6351 117.705 64.6248 117.792 64.6218L117.929 68.6195C118.513 68.5993 119.076 68.4222 119.512 68.2439C119.977 68.0536 120.447 67.8004 120.877 67.5138C121.304 67.2297 121.74 66.8806 122.11 66.4792C122.453 66.1073 122.883 65.536 123.053 64.7985L119.155 63.9015ZM117.792 64.6218C117.8 64.6215 117.901 64.619 118.051 64.6745C118.215 64.7347 118.372 64.8404 118.495 64.9798C118.714 65.2287 118.665 65.3972 118.647 65.1271L114.656 65.4074C114.703 66.0651 114.877 66.9235 115.493 67.6236C116.186 68.4101 117.116 68.6475 117.929 68.6195L117.792 64.6218ZM118.646 65.1217L118.583 64.2603L114.594 64.5515L114.657 65.4129L118.646 65.1217ZM116.701 62.409L116.335 62.3884L116.11 66.3821L116.476 66.4027L116.701 62.409ZM116.32 62.3876C114.28 62.2882 112.115 62.8769 110.058 63.9575L111.918 67.4986C113.515 66.6598 114.971 66.3266 116.125 66.3829L116.32 62.3876ZM110.133 63.92C108.183 64.8417 106.562 66.1425 105.206 67.7929L108.297 70.3322C109.3 69.1113 110.458 68.1907 111.843 67.5361L110.133 63.92ZM107.211 71.009C107.122 71.03 107.087 71.0296 107.186 71.0188C107.257 71.011 107.366 71.0012 107.519 70.9902C107.822 70.9685 108.261 70.9453 108.842 70.9253L108.704 66.9277C108.091 66.9488 107.6 66.9742 107.233 67.0005C106.935 67.0218 106.56 67.0527 106.292 67.116L107.211 71.009ZM108.842 70.9253L109.339 70.9082L109.202 66.9105L108.704 66.9277L108.842 70.9253ZM109.339 70.9082C110.413 70.8712 113.146 70.9206 115.863 71.0582C117.212 71.1266 118.527 71.2151 119.602 71.3217C120.76 71.4365 121.418 71.5536 121.611 71.6188L122.893 67.83C122.196 67.5938 121.076 67.4483 119.996 67.3412C118.833 67.2259 117.449 67.1334 116.065 67.0633C113.318 66.9242 110.45 66.8676 109.202 66.9105L109.339 70.9082ZM121.592 71.6123C121.544 71.5957 121.47 71.5607 121.39 71.4958C121.309 71.4302 121.248 71.3555 121.207 71.2873C121.132 71.1612 121.163 71.1222 121.168 71.2896L125.166 71.1519C125.146 70.5563 125.021 69.8749 124.646 69.2444C124.248 68.5734 123.643 68.092 122.912 67.8366L121.592 71.6123ZM121.168 71.2896C121.185 71.7794 121.073 72.2545 120.812 72.7192L124.298 74.6802C124.913 73.5869 125.209 72.3872 125.166 71.1519L121.168 71.2896ZM120.784 72.7698C119.328 75.5435 116.794 78.1116 113.748 80.0186C110.703 81.9256 107.282 83.0857 104.149 83.1936L104.287 87.1912C108.253 87.0546 112.349 85.6142 115.871 83.4089C119.393 81.2036 122.478 78.1476 124.326 74.6296L120.784 72.7698ZM104.149 83.1936C103.154 83.2278 102.556 83.0572 102.242 82.8918L100.378 86.4311C101.485 87.0139 102.827 87.2415 104.287 87.1912L104.149 83.1936Z" fill="black" mask="url(#path-9-outside-4_74_287)"/>
<mask id="path-11-outside-5_74_287" maskUnits="userSpaceOnUse" x="117.344" y="56.4246" width="34.0474" height="32.1175" fill="black">
<rect fill="white" x="117.344" y="56.4246" width="34.0474" height="32.1175"/>
<path d="M120.754 76.6837C120.444 67.6613 130.091 59.4584 138.616 59.1648C143.657 58.9912 148.179 62.0236 148.296 67.3663C148.604 76.2891 138.859 84.5618 130.434 84.852C125.293 85.029 120.942 82.1236 120.754 76.6837ZM125.818 75.2141C125.947 78.9623 128.324 81.4376 132.138 81.3063C134.991 81.208 137.536 79.8916 139.739 77.325C141.977 74.7904 142.948 72.1334 142.88 69.2133C142.751 65.465 140.375 62.9898 136.56 63.1211C130.589 63.3268 125.686 69.4402 125.818 75.2141Z"/>
</mask>
<path d="M120.754 76.6837C120.444 67.6613 130.091 59.4584 138.616 59.1648C143.657 58.9912 148.179 62.0236 148.296 67.3663C148.604 76.2891 138.859 84.5618 130.434 84.852C125.293 85.029 120.942 82.1236 120.754 76.6837ZM125.818 75.2141C125.947 78.9623 128.324 81.4376 132.138 81.3063C134.991 81.208 137.536 79.8916 139.739 77.325C141.977 74.7904 142.948 72.1334 142.88 69.2133C142.751 65.465 140.375 62.9898 136.56 63.1211C130.589 63.3268 125.686 69.4402 125.818 75.2141Z" fill="white"/>
<path d="M148.296 67.3663L145.969 67.4175L145.97 67.4319L145.97 67.4464L148.296 67.3663ZM125.818 75.2141L123.491 75.2675L123.491 75.2808L123.492 75.2942L125.818 75.2141ZM139.739 77.325L137.994 75.7847L137.984 75.7968L137.973 75.809L139.739 77.325ZM142.88 69.2133L145.207 69.1596L145.207 69.1464L145.206 69.1332L142.88 69.2133ZM123.08 76.6036C122.955 72.957 124.853 69.2576 127.961 66.351C131.071 63.4434 135.099 61.6148 138.696 61.4909L138.535 56.8387C133.608 57.0084 128.549 59.4281 124.782 62.9509C121.013 66.4747 118.243 71.388 118.428 76.7638L123.08 76.6036ZM138.696 61.4909C142.846 61.348 145.888 63.7422 145.969 67.4175L150.623 67.3151C150.469 60.3049 144.469 56.6343 138.535 56.8387L138.696 61.4909ZM145.97 67.4464C146.094 71.0302 144.183 74.7228 141.052 77.6446C137.921 80.5656 133.893 82.404 130.354 82.5258L130.514 87.1781C135.401 87.0098 140.457 84.5667 144.228 81.0482C147.998 77.5303 150.806 72.6252 150.622 67.2862L145.97 67.4464ZM130.354 82.5258C128.225 82.5992 126.421 82.0282 125.178 81.0472C123.98 80.1017 123.151 78.6636 123.08 76.6036L118.428 76.7638C118.545 80.1436 119.985 82.8783 122.294 84.7012C124.559 86.4886 127.502 87.2819 130.514 87.1781L130.354 82.5258ZM123.492 75.2942C123.573 77.6389 124.37 79.8042 125.963 81.3732C127.571 82.9576 129.772 83.7167 132.218 83.6324L132.058 78.9801C130.691 79.0272 129.795 78.6143 129.23 78.0569C128.648 77.484 128.192 76.5375 128.144 75.134L123.492 75.2942ZM132.218 83.6324C135.83 83.508 138.954 81.8127 141.505 78.841L137.973 75.809C136.118 77.9705 134.152 78.908 132.058 78.9801L132.218 83.6324ZM141.484 78.8653C144.076 75.9291 145.289 72.7135 145.207 69.1596L140.553 69.267C140.606 71.5533 139.877 73.6518 137.994 75.7847L141.484 78.8653ZM145.206 69.1332C145.126 66.7885 144.328 64.6232 142.736 63.0542C141.127 61.4698 138.927 60.7107 136.48 60.795L136.64 65.4473C138.008 65.4002 138.903 65.8131 139.469 66.3705C140.05 66.9434 140.506 67.8899 140.554 69.2934L145.206 69.1332ZM136.48 60.795C132.707 60.9249 129.416 62.9079 127.135 65.5625C124.858 68.2121 123.41 71.7285 123.491 75.2675L128.145 75.1607C128.094 72.9257 129.031 70.4985 130.666 68.5965C132.296 66.6995 134.442 65.523 136.64 65.4473L136.48 60.795Z" fill="black" mask="url(#path-11-outside-5_74_287)"/>
<mask id="path-13-outside-6_74_287" maskUnits="userSpaceOnUse" x="140.242" y="51.7706" width="26.1899" height="35.8397" fill="black">
<rect fill="white" x="140.242" y="51.7706" width="26.1899" height="35.8397"/>
<path d="M147.861 74.794C147.809 74.3775 148.051 73.6848 148.513 72.7563C148.618 72.4866 149.956 69.3987 152.416 63.5345L154.107 59.636C154.779 58.168 155.498 56.9646 156.225 55.989C156.843 55.1692 157.969 54.7502 159.64 54.6926C160.551 54.6612 162.763 54.8512 162.805 56.0665C162.814 56.3324 161.731 58.0046 159.557 61.1213C158.726 62.3667 157.421 64.2367 155.645 66.7693C154.196 68.8344 153.162 70.8472 152.507 72.8089C152.227 73.5029 151.985 74.1957 151.703 74.8518C151.382 75.4712 150.747 75.7972 149.836 75.8286C148.506 75.8744 147.887 75.5535 147.861 74.794ZM144.254 83.7775C144.226 82.9799 144.63 81.4451 145.468 79.287C145.784 78.5157 146.721 78.1412 148.241 78.0889C149.722 78.0379 150.455 78.3548 150.479 79.0384C150.497 79.5701 148.724 83.2813 148.325 83.8654C147.892 84.5267 147.144 84.8946 146.005 84.9339C144.865 84.9731 144.281 84.575 144.254 83.7775Z"/>
</mask>
<path d="M147.861 74.794C147.809 74.3775 148.051 73.6848 148.513 72.7563C148.618 72.4866 149.956 69.3987 152.416 63.5345L154.107 59.636C154.779 58.168 155.498 56.9646 156.225 55.989C156.843 55.1692 157.969 54.7502 159.64 54.6926C160.551 54.6612 162.763 54.8512 162.805 56.0665C162.814 56.3324 161.731 58.0046 159.557 61.1213C158.726 62.3667 157.421 64.2367 155.645 66.7693C154.196 68.8344 153.162 70.8472 152.507 72.8089C152.227 73.5029 151.985 74.1957 151.703 74.8518C151.382 75.4712 150.747 75.7972 149.836 75.8286C148.506 75.8744 147.887 75.5535 147.861 74.794ZM144.254 83.7775C144.226 82.9799 144.63 81.4451 145.468 79.287C145.784 78.5157 146.721 78.1412 148.241 78.0889C149.722 78.0379 150.455 78.3548 150.479 79.0384C150.497 79.5701 148.724 83.2813 148.325 83.8654C147.892 84.5267 147.144 84.8946 146.005 84.9339C144.865 84.9731 144.281 84.575 144.254 83.7775Z" fill="white"/>
<path d="M147.861 74.794L150.187 74.7139L150.183 74.6084L150.17 74.5036L147.861 74.794ZM148.513 72.7563L150.597 73.7938L150.644 73.6984L150.683 73.599L148.513 72.7563ZM152.416 63.5345L150.281 62.6084L150.275 62.6213L150.27 62.6343L152.416 63.5345ZM154.107 59.636L151.99 58.6674L151.981 58.6885L151.972 58.7099L154.107 59.636ZM156.225 55.989L154.366 54.5876L154.358 54.5984L156.225 55.989ZM159.557 61.1213L157.648 59.7897L157.635 59.8091L157.622 59.8287L159.557 61.1213ZM155.645 66.7693L157.55 68.1066L157.551 68.1056L155.645 66.7693ZM152.507 72.8089L154.665 73.6804L154.692 73.6139L154.715 73.5459L152.507 72.8089ZM151.703 74.8518L153.77 75.9224L153.809 75.8474L153.842 75.7697L151.703 74.8518ZM145.468 79.287L143.314 78.4055L143.306 78.4248L143.298 78.4443L145.468 79.287ZM148.325 83.8654L146.402 82.5544L146.39 82.5718L146.379 82.5894L148.325 83.8654ZM150.17 74.5036C150.193 74.6868 150.174 74.8007 150.173 74.8062C150.171 74.8183 150.176 74.7839 150.206 74.6918C150.268 74.5021 150.389 74.2098 150.597 73.7938L146.43 71.7189C146.174 72.2313 145.944 72.7496 145.782 73.2425C145.639 73.6807 145.46 74.3564 145.552 75.0844L150.17 74.5036ZM150.683 73.599C150.681 73.6044 150.697 73.5629 150.754 73.4291C150.804 73.3112 150.873 73.1486 150.962 72.939C151.14 72.5224 151.395 71.9248 151.723 71.1551C152.379 69.6134 153.331 67.3715 154.562 64.4348L150.27 62.6343C147.84 68.4262 146.462 71.6084 146.344 71.9136L150.683 73.599ZM154.551 64.4606L156.242 60.5621L151.972 58.7099L150.281 62.6084L154.551 64.4606ZM156.223 60.6046C156.834 59.2695 157.472 58.2101 158.091 57.3795L154.358 54.5984C153.523 55.719 152.723 57.0666 151.99 58.6674L156.223 60.6046ZM158.083 57.3903C158.088 57.3842 158.1 57.3692 158.133 57.3455C158.169 57.3202 158.238 57.2784 158.36 57.2324C158.616 57.1358 159.044 57.0421 159.72 57.0188L159.56 52.3665C157.643 52.4325 155.621 52.923 154.366 54.5876L158.083 57.3903ZM159.72 57.0188C159.847 57.0144 160.054 57.0173 160.29 57.04C160.529 57.063 160.741 57.1013 160.899 57.147C161.081 57.2 161.052 57.2232 160.937 57.128C160.867 57.0699 160.752 56.956 160.651 56.7722C160.546 56.5787 160.486 56.3607 160.479 56.1466L165.131 55.9864C165.093 54.8796 164.529 54.0575 163.905 53.5414C163.335 53.0698 162.688 52.8196 162.199 52.6772C161.212 52.3901 160.166 52.3456 159.56 52.3665L159.72 57.0188ZM160.479 56.1466C160.467 55.803 160.54 55.5508 160.558 55.4881C160.585 55.3928 160.611 55.3312 160.617 55.3182C160.628 55.2918 160.62 55.3134 160.57 55.4043C160.474 55.5788 160.304 55.8588 160.043 56.2649C159.526 57.0681 158.732 58.2364 157.648 59.7897L161.466 62.4529C162.557 60.8895 163.391 59.6634 163.957 58.7848C164.237 58.35 164.472 57.9673 164.644 57.656C164.728 57.5041 164.821 57.3272 164.898 57.1462C164.936 57.056 164.987 56.9281 165.03 56.7776C165.064 56.6597 165.144 56.3632 165.131 55.9864L160.479 56.1466ZM157.622 59.8287C156.808 61.0475 155.52 62.8939 153.74 65.433L157.551 68.1056C159.322 65.5794 160.643 63.6858 161.493 62.4139L157.622 59.8287ZM153.74 65.4319C152.181 67.6527 151.036 69.8655 150.3 72.0719L154.715 73.5459C155.288 71.8289 156.21 70.0162 157.55 68.1066L153.74 65.4319ZM150.349 71.9373C149.995 72.8139 149.852 73.2637 149.564 73.9338L153.842 75.7697C154.118 75.1277 154.459 74.1919 154.665 73.6804L150.349 71.9373ZM149.636 73.7812C149.664 73.7284 149.706 73.6676 149.764 73.6103C149.821 73.5534 149.876 73.5169 149.916 73.4962C149.989 73.4582 149.964 73.4953 149.756 73.5025L149.916 78.1548C151.346 78.1055 152.934 77.536 153.77 75.9224L149.636 73.7812ZM149.756 73.5025C149.515 73.5108 149.372 73.4995 149.303 73.4896C149.229 73.4788 149.299 73.478 149.438 73.5504C149.597 73.6336 149.816 73.799 149.984 74.0763C150.148 74.3463 150.183 74.5904 150.187 74.7139L145.535 74.8741C145.552 75.3774 145.674 75.9464 146.003 76.4887C146.336 77.0384 146.798 77.4235 147.282 77.6762C148.155 78.1326 149.143 78.1814 149.916 78.1548L149.756 73.5025ZM146.58 83.6973C146.58 83.7018 146.579 83.6182 146.612 83.4159C146.643 83.2233 146.698 82.9684 146.784 82.6459C146.958 81.9993 147.238 81.1596 147.638 80.1297L143.298 78.4443C142.86 79.5725 142.519 80.5793 142.288 81.439C142.071 82.2498 141.902 83.104 141.928 83.8576L146.58 83.6973ZM147.622 80.1685C147.568 80.3005 147.486 80.4119 147.402 80.49C147.325 80.5614 147.278 80.5754 147.311 80.5613C147.347 80.5461 147.441 80.5127 147.618 80.4812C147.794 80.45 148.025 80.4252 148.321 80.415L148.16 75.7627C147.262 75.7937 146.328 75.922 145.495 76.2754C144.612 76.6495 143.758 77.3195 143.314 78.4055L147.622 80.1685ZM148.321 80.415C148.608 80.4051 148.807 80.4152 148.935 80.4306C149.07 80.4468 149.071 80.4624 148.993 80.4293C148.91 80.3935 148.684 80.278 148.475 80.0044C148.251 79.7097 148.161 79.3816 148.152 79.1185L152.805 78.9583C152.784 78.3534 152.594 77.7294 152.179 77.1845C151.78 76.6608 151.274 76.3411 150.819 76.147C149.972 75.786 149.005 75.7336 148.16 75.7627L148.321 80.415ZM148.152 79.1185C148.144 78.8647 148.185 78.6894 148.186 78.6874C148.193 78.6524 148.196 78.6481 148.184 78.6863C148.161 78.7613 148.115 78.892 148.04 79.0826C147.892 79.4579 147.68 79.9462 147.443 80.4598C147.209 80.9693 146.963 81.4781 146.756 81.8882C146.52 82.3534 146.402 82.5553 146.402 82.5544L150.249 85.1764C150.579 84.6912 151.204 83.4242 151.673 82.4047C151.927 81.851 152.18 81.2754 152.372 80.7869C152.467 80.5458 152.559 80.2948 152.631 80.0627C152.667 79.9475 152.822 79.4727 152.805 78.9583L148.152 79.1185ZM146.379 82.5894C146.386 82.5782 146.401 82.5596 146.422 82.5416C146.443 82.5238 146.454 82.5199 146.443 82.5249C146.416 82.5376 146.271 82.5958 145.925 82.6077L146.085 87.26C147.701 87.2044 149.291 86.6375 150.272 85.1414L146.379 82.5894ZM145.925 82.6077C145.775 82.6129 145.716 82.6005 145.723 82.602C145.731 82.6037 145.846 82.6281 146.002 82.7321C146.172 82.8451 146.337 83.0172 146.45 83.2372C146.557 83.4466 146.577 83.6199 146.58 83.6973L141.928 83.8576C141.963 84.8814 142.409 85.932 143.423 86.6068C144.296 87.1886 145.297 87.2872 146.085 87.26L145.925 82.6077Z" fill="black" mask="url(#path-13-outside-6_74_287)"/>
</svg>
