<svg width="305" height="109" viewBox="0 0 305 109" fill="none" xmlns="http://www.w3.org/2000/svg">
<path fill-rule="evenodd" clip-rule="evenodd" d="M91.951 1C78.1959 6.57716 70.055 13.4913 70.055 20.9796C70.055 29.6763 81.0355 37.5987 99.0386 43.5517C86.9885 46.608 71.3218 51.0688 54.0455 56.7329C61.4985 59.3836 64.87 61.0645 66.3614 61.808C66.845 62.0491 67.1309 62.1916 67.2941 62.2367C57.6904 63.2314 38.8742 67.5542 29.9756 70.3568C32.4555 72.0176 37.8773 75.7631 39.8224 77.2336C26.6933 79.0501 8.87778 83.4927 1.00034 86.6067C1.00034 91.575 1.00016 91.9233 1.00006 92.107L1 92.4455C11.8104 90.0311 35.2762 84.9601 59.6983 82.6832C53.4256 76.8703 49.9123 74.2061 48.9398 73.6006C55.73 72.5545 67.0051 70.1712 76.7159 68.1186L76.7164 68.1184C82.4652 66.9033 87.6656 65.804 91.0626 65.1667C88.4406 63.6621 85.467 62.0267 82.9453 60.6398L82.9451 60.6396L82.944 60.6391C81.117 59.6342 79.5271 58.7598 78.4802 58.1602L114.657 47.8246C133.149 51.9947 156.094 54.4638 180.95 54.4638C242.195 54.4638 291.844 39.4724 291.844 20.9796C291.844 13.4913 283.703 6.57716 269.948 1H91.951Z" fill="white"/>
<path d="M91.951 1V0C91.8222 0 91.6946 0.024882 91.5753 0.0732784L91.951 1ZM99.0386 43.5517L99.2844 44.521C99.7152 44.4117 100.022 44.0313 100.038 43.5871C100.054 43.143 99.7745 42.7418 99.3525 42.6022L99.0386 43.5517ZM54.0455 56.7329L53.734 55.7827C53.3276 55.9159 53.0509 56.2928 53.0456 56.7205C53.0403 57.1481 53.3075 57.5318 53.7105 57.6751L54.0455 56.7329ZM66.3614 61.808L66.8075 60.913L66.8075 60.913L66.3614 61.808ZM67.2941 62.2367L67.3971 63.2313C67.8754 63.1818 68.2507 62.7988 68.2906 62.3196C68.3305 61.8404 68.0237 61.4007 67.5602 61.2727L67.2941 62.2367ZM29.9756 70.3568L29.6752 69.403C29.3084 69.5185 29.0403 69.8341 28.9857 70.2148C28.9311 70.5954 29.0996 70.9737 29.4191 71.1877L29.9756 70.3568ZM39.8224 77.2336L39.9594 78.2242C40.3602 78.1687 40.688 77.8773 40.7901 77.4858C40.8921 77.0943 40.7482 76.6799 40.4255 76.4359L39.8224 77.2336ZM1.00034 86.6067L0.632716 85.6767C0.251072 85.8276 0.000343084 86.1963 0.000343084 86.6067H1.00034ZM1.00006 92.107L5.91278e-05 92.1065L5.90682e-05 92.1069L1.00006 92.107ZM1 92.4455L0 92.4454C-5.29289e-05 92.7489 0.137764 93.036 0.37462 93.2258C0.611476 93.4157 0.92173 93.4876 1.21797 93.4215L1 92.4455ZM59.6983 82.6832L59.7912 83.6788C60.184 83.6422 60.5185 83.3781 60.6453 83.0046C60.7721 82.631 60.6674 82.2178 60.378 81.9497L59.6983 82.6832ZM48.9398 73.6006L48.7875 72.6123C48.3741 72.6759 48.0441 72.9902 47.9601 73.4C47.8762 73.8097 48.0562 74.2284 48.4113 74.4495L48.9398 73.6006ZM76.7159 68.1186L76.9227 69.0969C76.9276 69.0959 76.9325 69.0948 76.9375 69.0937L76.7159 68.1186ZM76.7164 68.1184L76.5095 67.1401C76.5046 67.1411 76.4997 67.1422 76.4947 67.1433L76.7164 68.1184ZM91.0626 65.1667L91.247 66.1496C91.6587 66.0723 91.9786 65.7467 92.0485 65.3337C92.1185 64.9207 91.9236 64.5079 91.5603 64.2994L91.0626 65.1667ZM82.9453 60.6398L82.4596 61.5139L82.4634 61.516L82.9453 60.6398ZM82.9451 60.6396L83.4307 59.7655L83.4232 59.7614L82.9451 60.6396ZM82.944 60.6391L82.4621 61.5153L82.4659 61.5173L82.944 60.6391ZM78.4802 58.1602L78.2055 57.1987C77.8189 57.3091 77.536 57.6404 77.4875 58.0396C77.439 58.4387 77.6343 58.8281 77.9832 59.028L78.4802 58.1602ZM114.657 47.8246L114.877 46.8491C114.713 46.8122 114.543 46.817 114.382 46.8631L114.657 47.8246ZM269.948 1L270.324 0.0732782C270.205 0.024882 270.077 0 269.948 0V1ZM91.5753 0.0732784C84.6412 2.88478 79.0511 6.06011 75.1778 9.52812C71.3063 12.9945 69.055 16.8446 69.055 20.9796H71.055C71.055 17.6263 72.8742 14.2752 76.5119 11.0181C80.1478 7.7627 85.5057 4.69238 92.3268 1.92672L91.5753 0.0732784ZM69.055 20.9796C69.055 25.782 72.0862 30.1959 77.189 34.0895C82.3078 37.9955 89.6697 41.507 98.7246 44.5011L99.3525 42.6022C90.4043 39.6434 83.2744 36.2173 78.4023 32.4996C73.5141 28.7696 71.055 24.8739 71.055 20.9796H69.055ZM98.7927 42.5824C86.72 45.6444 71.0314 50.1117 53.734 55.7827L54.3571 57.6831C71.6122 52.026 87.257 47.5715 99.2844 44.521L98.7927 42.5824ZM53.7105 57.6751C61.1199 60.3103 64.4543 61.9746 65.9152 62.7029L66.8075 60.913C65.2858 60.1544 61.8771 58.4568 54.3806 55.7907L53.7105 57.6751ZM65.9152 62.7029C66.1527 62.8213 66.3576 62.9236 66.5234 63.0013C66.676 63.0728 66.8564 63.1533 67.028 63.2006L67.5602 61.2727C67.5686 61.275 67.5244 61.2617 67.3723 61.1904C67.2335 61.1253 67.0537 61.0357 66.8075 60.913L65.9152 62.7029ZM67.1911 61.242C57.5031 62.2455 38.6189 66.5861 29.6752 69.403L30.276 71.3106C39.1294 68.5222 57.8778 64.2174 67.3971 63.2313L67.1911 61.242ZM29.4191 71.1877C31.8976 72.8475 37.2988 76.5794 39.2193 78.0313L40.4255 76.4359C38.4558 74.9468 33.0135 71.1877 30.532 69.5259L29.4191 71.1877ZM39.6853 76.243C26.5025 78.0669 8.60481 82.5253 0.632716 85.6767L1.36797 87.5367C9.15076 84.4601 26.884 80.0332 39.9594 78.2242L39.6853 76.243ZM0.000343084 86.6067C0.000343263 91.5752 0.000157177 91.9231 5.91874e-05 92.1065L2.00006 92.1076C2.00016 91.9235 2.00034 91.5749 2.00034 86.6067H0.000343084ZM5.90682e-05 92.1069L0 92.4454L2 92.4457L2.00006 92.1072L5.90682e-05 92.1069ZM1.21797 93.4215C12.0212 91.0087 35.4355 85.9496 59.7912 83.6788L59.6055 81.6875C35.1168 83.9707 11.5996 89.0536 0.782031 91.4696L1.21797 93.4215ZM60.378 81.9497C54.1014 76.1333 50.5284 73.4117 49.4683 72.7517L48.4113 74.4495C49.2963 75.0005 52.7497 77.6074 59.0186 83.4166L60.378 81.9497ZM49.0921 74.5889C55.9166 73.5375 67.2253 71.1467 76.9227 69.0969L76.509 67.1402C66.7849 69.1956 55.5433 71.5714 48.7875 72.6123L49.0921 74.5889ZM76.9375 69.0937L76.938 69.0936L76.4947 67.1433L76.4942 67.1434L76.9375 69.0937ZM76.9232 69.0968C82.6775 67.8805 87.8641 66.7842 91.247 66.1496L90.8782 64.1839C87.4672 64.8238 82.2529 65.9261 76.5095 67.1401L76.9232 69.0968ZM91.5603 64.2994C88.929 62.7895 85.9473 61.1495 83.4272 59.7635L82.4634 61.516C84.9868 62.9039 87.9522 64.5348 90.5649 66.0341L91.5603 64.2994ZM83.4309 59.7656L83.4307 59.7655L82.4594 61.5138L82.4596 61.5139L83.4309 59.7656ZM83.4232 59.7614L83.4222 59.7608L82.4659 61.5173L82.4669 61.5179L83.4232 59.7614ZM83.426 59.7629C81.5952 58.756 80.0147 57.8867 78.9772 57.2924L77.9832 59.028C79.0395 59.6329 80.6387 60.5124 82.4621 61.5153L83.426 59.7629ZM78.7549 59.1217L114.931 48.7861L114.382 46.8631L78.2055 57.1987L78.7549 59.1217ZM114.437 48.8001C133.013 52.9891 156.033 55.4638 180.95 55.4638V53.4638C156.155 53.4638 133.285 51.0004 114.877 46.8491L114.437 48.8001ZM180.95 55.4638C211.642 55.4638 239.468 51.7087 259.653 45.6138C269.739 42.5683 277.975 38.9218 283.711 34.8271C289.422 30.75 292.844 26.0846 292.844 20.9796H290.844C290.844 25.121 288.061 29.2643 282.549 33.1993C277.061 37.1165 269.056 40.6853 259.075 43.6992C239.124 49.7232 211.503 53.4638 180.95 53.4638V55.4638ZM292.844 20.9796C292.844 16.8446 290.593 12.9945 286.721 9.52812C282.848 6.06011 277.258 2.88478 270.324 0.0732782L269.572 1.92672C276.393 4.69238 281.751 7.7627 285.387 11.0181C289.025 14.2752 290.844 17.6263 290.844 20.9796H292.844ZM269.948 0H91.951V2H269.948V0Z" fill="black"/>
<path d="M98.0867 18.2151C97.9966 17.9534 97.988 17.6532 98.0794 17.355C98.2398 16.818 98.5749 16.4245 99.1032 16.2146C100.851 15.5082 102.944 15.1884 105.404 15.2357C106.144 15.2499 106.721 15.321 107.077 15.4279C107.67 15.6193 108.018 15.946 108.099 16.4475C108.114 16.5878 108.13 16.6881 108.106 16.7877C108.061 16.9268 107.997 17.0256 107.914 17.104C107.728 17.2604 107.344 17.353 106.763 17.3819C105.642 17.4003 104.58 17.4399 103.556 17.5202C102.588 20.3616 101.656 23.2838 101.303 26.277C101.189 27.1548 101.131 27.6337 101.109 27.6933C100.971 28.1706 100.04 28.4327 99.6002 28.4243C99.3002 28.4185 99.1641 28.3159 99.1124 28.0949C99.0868 27.7144 99.9572 24.2911 101.744 17.8254C101.217 17.9953 100.69 18.1651 100.164 18.315C99.3743 18.5599 98.9099 18.6709 98.6899 18.6667C98.39 18.6609 98.1953 18.5172 98.0867 18.2151ZM106.629 28.2994C106.559 28.038 107.175 25.5099 108.498 20.7152C108.061 20.6069 107.863 20.043 108 19.5857C108.07 19.327 108.301 19.0314 108.654 18.6982C111.078 16.5248 113.379 15.469 115.559 15.5109C116.799 15.5347 117.765 15.9133 118.498 16.6274C119.268 17.4222 119.47 18.4261 119.124 19.6395C118.202 22.8418 113.904 24.2992 110.982 24.843C112.269 25.7478 113.406 26.3496 114.396 26.6287C114.536 26.6513 114.694 26.6944 114.912 26.7586C115.108 26.8624 115.203 26.9842 115.137 27.1629C115.044 27.5011 114.51 27.8509 114.11 27.8432C112.67 27.8155 110.066 26.8454 108.855 26.0622C108.808 26.2413 108.777 26.5407 108.741 26.96C108.726 27.3397 108.674 27.6587 108.606 27.8774C108.446 28.3943 107.656 28.6391 107.177 28.6299C106.857 28.6238 106.66 28.52 106.629 28.2994ZM109.357 23.3718C112.4 23.3503 114.519 22.871 115.696 21.9136C116.502 21.2491 117.007 20.5788 117.192 19.9224C117.4 19.2063 117.202 18.6025 116.582 18.0906C116.038 17.6601 115.366 17.4272 114.586 17.4122C113.446 17.3903 112.104 17.9645 110.579 19.1152C110.126 20.5265 109.712 21.9386 109.357 23.3718ZM119.533 28.5274C119.461 28.306 119.846 26.6134 120.686 23.4695C120.291 23.3219 120.184 22.9799 120.323 22.4825C120.46 22.0252 120.772 21.7112 121.198 21.5594C121.294 21.1612 122.17 17.578 122.294 17.4604C122.426 17.1629 122.594 16.9462 122.86 16.7913C122.983 16.7136 123.287 16.6195 123.732 16.488C124.46 16.302 125.187 16.116 125.915 15.91C126.743 15.7059 127.447 15.6194 128.067 15.6313L128.727 15.644C129.288 15.6348 129.667 15.6621 129.864 15.7259C130.221 15.8327 130.513 16.0384 130.701 16.342C130.87 16.6452 130.939 16.9266 130.85 17.1848C130.757 17.5231 130.389 17.716 129.727 17.7633C128.142 17.8728 127.138 17.9535 126.695 18.025C125.83 18.1484 124.799 18.4285 123.622 18.8659C123.355 19.5808 123.106 20.336 122.896 21.112C125.543 20.4429 127.836 20.1269 129.816 20.165C130.196 20.1723 130.495 20.198 130.694 20.2419C130.953 20.2668 131.208 20.3918 131.46 20.5966C131.732 20.8218 131.843 21.064 131.774 21.3026C131.704 21.5613 131.317 21.7339 130.594 21.82C127.06 22.132 124.321 22.5794 122.339 23.1413C122.01 24.435 121.762 25.6902 121.616 26.9074C122.575 26.9259 123.7 26.8275 125.029 26.613L128.535 25.9604C128.757 25.9247 128.918 25.9078 129.038 25.9101C129.457 25.9182 129.631 26.1015 129.517 26.4593C128.931 28.7081 122.374 29.082 120.634 29.0486C120.014 29.0367 119.64 28.8695 119.533 28.5274ZM132.597 28.7785C132.525 28.5572 132.91 26.8645 133.75 23.7206C133.355 23.573 133.248 23.231 133.387 22.7337C133.524 22.2763 133.836 21.9623 134.262 21.8105C134.358 21.4123 135.234 17.8291 135.358 17.7115C135.49 17.414 135.658 17.1973 135.924 17.0424C136.047 16.9647 136.351 16.8706 136.796 16.7391C137.524 16.5531 138.251 16.3671 138.979 16.1611C139.807 15.957 140.511 15.8705 141.131 15.8824L141.791 15.8951C142.352 15.8859 142.731 15.9132 142.928 15.977C143.285 16.0838 143.577 16.2895 143.765 16.5931C143.934 16.8963 144.003 17.1777 143.914 17.4359C143.821 17.7742 143.453 17.9671 142.791 18.0144C141.206 18.1239 140.202 18.2046 139.759 18.2761C138.894 18.3995 137.863 18.6797 136.686 19.117C136.419 19.8319 136.17 20.5871 135.96 21.3631C138.607 20.694 140.9 20.378 142.88 20.4161C143.26 20.4234 143.559 20.4492 143.758 20.493C144.017 20.518 144.272 20.6429 144.524 20.8477C144.796 21.0729 144.907 21.3151 144.838 21.5537C144.768 21.8124 144.381 21.985 143.658 22.0711C140.124 22.3831 137.385 22.8305 135.403 23.3924C135.074 24.6861 134.826 25.9413 134.68 27.1585C135.639 27.177 136.764 27.0786 138.093 26.8641L141.599 26.2115C141.821 26.1758 141.982 26.1589 142.102 26.1612C142.521 26.1693 142.695 26.3526 142.581 26.7104C141.995 28.9592 135.438 29.3331 133.698 29.2997C133.078 29.2878 132.704 29.1206 132.597 28.7785ZM147.073 24.5167C146.493 24.5056 146.197 23.8599 146.381 23.2434C146.475 22.8652 146.842 22.6923 147.462 22.7042C147.542 22.7057 147.662 22.708 147.781 22.7303C149.001 22.7538 150.223 22.7173 151.43 22.5405C151.652 22.5047 152.278 22.3568 153.289 22.0762C154.219 21.8141 154.765 21.6845 154.905 21.6872C155.165 21.6922 155.338 21.8756 155.445 22.2176C155.493 22.5186 155.483 22.7984 155.413 23.057C155.365 23.2561 155.24 23.3937 155.056 23.4902C154.264 23.8149 148.133 24.5371 147.073 24.5167Z" fill="black"/>
<path d="M161.156 28.9304C161.197 28.5062 161.391 28.0099 161.786 27.4675C163.677 25.1038 165.187 22.8828 166.713 20.2371C167.515 18.8775 168.719 16.8257 170.274 14.0805C170.782 13.2153 171.373 12.8016 172.073 12.8151C172.648 12.8261 172.927 13.3815 172.885 14.4807C172.877 14.7056 172.838 15.0548 172.77 15.5285L172.73 16.6027C172.626 18.6758 172.706 21.1773 172.944 24.1319C174.698 21.4156 176.271 18.8458 177.59 16.3962C177.915 15.7524 178.558 14.6148 179.421 12.9813C179.903 12.1406 180.494 11.7269 181.169 11.7399C181.769 11.7514 182.045 12.3818 181.996 13.6558C181.984 13.9806 181.911 14.5792 181.802 15.4771L181.803 15.4521L181.604 19.3734C181.502 22.0714 181.519 24.2468 181.707 25.9004C181.767 26.2766 181.803 26.6522 181.839 27.0279C181.922 27.4795 181.957 27.8802 181.944 28.205C181.908 29.1543 180.381 30.5249 179.431 30.5067C179.131 30.5009 178.911 30.3467 178.723 30.0431C178.605 29.8408 178.593 28.1906 178.663 25.0419L178.752 19.3935C177.473 21.444 176.352 23.3224 175.413 24.9794L173.649 27.9705C172.765 29.5035 172.181 30.3923 171.896 30.6618C171.507 31.0044 171.177 31.148 170.927 31.1432C170.552 31.136 170.261 30.9054 170.004 30.4255C169.868 30.0479 169.784 29.6212 169.801 29.1716C169.814 28.8218 169.876 28.523 170.035 28.2761C170.024 27.2508 170.004 24.4754 169.978 19.8999C168.832 21.7529 166.97 24.6921 164.414 28.743C163.909 29.5333 163.617 29.9777 163.512 30.1007C163.09 30.6926 162.678 30.9847 162.328 30.978C161.379 30.9597 161.127 29.6799 161.156 28.9304ZM184.477 30.0537C184.477 29.4037 184.718 28.3333 185.126 26.8161C185.442 25.7222 185.759 24.6283 186.05 23.5588C185.709 23.3023 185.547 22.9742 185.564 22.5245C185.592 21.775 186.202 20.8617 186.888 20.5749C187.177 19.5555 187.637 17.9893 188.268 15.8514C188.499 15.0558 188.642 14.5836 189.384 14.1228C189.615 13.9773 190.045 13.8605 190.651 13.6972C192.547 13.1836 193.658 12.905 194.037 12.8123C195.096 12.5826 196.251 12.4798 197.5 12.5038C198.225 12.5178 198.748 12.5778 199.071 12.634C200.136 12.9295 200.7 13.8653 200.671 14.6398C200.64 15.4642 199.996 15.9518 198.766 16.0532C197.888 16.1363 196.557 16.2607 194.775 16.4265C193.72 16.5562 192.406 16.881 190.758 17.4743C190.506 18.1944 190.226 18.9641 189.972 19.7342C193.279 18.9477 196.343 18.6066 199.193 18.6614C199.693 18.671 200.067 18.6782 200.265 18.757C200.934 18.9199 201.81 19.5617 201.781 20.3112C201.747 21.2105 200.464 21.4109 199.786 21.4728C195.167 21.9091 191.543 22.4894 188.965 23.1899C188.557 24.732 188.25 26.2261 188.02 27.6717C189.419 27.6986 190.926 27.5526 192.488 27.2576C192.589 27.2346 194.076 26.9381 196.924 26.3679C197.251 26.3242 197.528 26.2795 197.703 26.2828C198.378 26.2958 198.668 26.5514 198.675 27.0265C198.587 28.0249 197.653 28.9069 196.81 29.3657C193.956 30.7609 189.409 31.2735 186.259 31.2129C185.06 31.1899 184.424 30.8027 184.477 30.0537ZM202.387 31.7979C201.737 31.7854 201.424 31.4794 201.472 30.8803C201.48 30.6555 201.569 30.2822 201.739 29.7605C201.829 29.3872 201.944 28.9894 202.058 28.6166C203.459 23.3435 204.531 19.464 205.302 16.9538C205.732 15.5121 205.987 14.717 207.579 14.2976C207.881 14.2534 208.207 14.2346 208.482 14.2399C208.957 14.249 209.277 14.3802 209.466 14.6838L214.986 24.765C215.175 24.3937 215.738 22.7545 216.721 19.9233C216.92 19.2772 217.233 18.2832 217.607 16.9903C218.465 14.1818 219.718 12.7809 221.343 12.8121C221.943 12.8236 222.233 13.0792 222.215 13.5539C222.205 13.8287 222.008 14.3999 221.574 15.2916C219.188 20.1708 217.618 24.6156 216.814 28.6752C216.688 29.3478 216.571 29.7955 216.463 29.9935C216.114 30.6368 215.326 30.9716 214.151 30.949C213.476 30.9361 213.158 30.755 213.172 30.3802L207.504 20.2212C206.249 23.6471 205.466 26.4821 205.079 28.7497C205.076 28.8496 204.98 29.3977 204.841 30.4201C204.582 31.3151 203.237 31.8143 202.387 31.7979ZM220.368 30.8185C220.362 30.2934 220.802 28.6019 221.612 25.7174C222.104 23.9518 222.621 22.1868 223.113 20.4212C223.046 20.2199 223.03 19.9946 223.039 19.7448C223.081 18.6456 224.254 17.3931 226.533 16.0119C228.861 14.6316 231.433 13.4311 234.183 13.4839C237.507 13.5478 239.899 15.7688 239.77 19.1664C239.505 26.1613 230.805 29.9691 224.866 30.93C224.438 30.9968 223.633 31.1063 222.5 31.3095C221.517 31.5156 221.064 31.5819 221.114 31.5829C220.589 31.5728 220.349 31.3182 220.368 30.8185ZM223.996 28.1383C229.291 27.69 232.903 26.1094 234.857 23.397C235.568 22.4606 235.956 21.4681 235.993 20.4938C236.08 18.1954 234.457 16.7892 232.233 16.7465C230.508 16.7133 228.604 17.4517 226.472 18.9357C225.3 22.1133 224.484 25.1726 223.996 28.1383ZM240.956 25.7892C241.214 18.9941 248.912 13.217 255.336 13.3405C259.136 13.4135 262.369 15.8757 262.166 19.8968C261.911 26.617 254.136 32.4426 247.787 32.3206C243.913 32.2461 240.801 29.8863 240.956 25.7892ZM244.842 24.8889C244.735 27.7119 246.387 29.6686 249.261 29.7239C251.411 29.7652 253.396 28.8783 255.191 27.0378C257.011 25.2228 257.886 23.2646 257.995 21.0667C258.102 18.2437 256.45 16.2869 253.576 16.2317C249.076 16.1452 245.057 20.543 244.842 24.8889ZM264.483 25.6914C264.468 25.4161 264.66 24.9698 265.008 24.3765C265.09 24.2031 266.115 22.2228 268.009 18.4591L269.305 15.959C269.816 15.0188 270.345 14.254 270.869 13.6391C271.314 13.1226 272.073 12.8872 273.173 12.9083C273.773 12.9199 275.216 13.1226 275.185 13.922C275.179 14.0969 274.388 15.1567 272.812 17.1264C272.207 17.9148 271.262 19.0967 269.975 20.697C268.925 22.0018 268.151 23.2869 267.628 24.5519C267.411 24.9977 267.219 25.444 267.003 25.8649C266.763 26.2602 266.33 26.4519 265.73 26.4404C264.855 26.4236 264.464 26.1911 264.483 25.6914ZM261.687 31.4627C261.707 30.9381 262.045 29.9446 262.698 28.5572C262.942 28.0618 263.576 27.849 264.575 27.8682C265.55 27.887 266.017 28.1209 266 28.5706C265.986 28.9204 264.645 31.2946 264.356 31.664C264.04 32.083 263.532 32.2982 262.782 32.2838C262.032 32.2694 261.668 31.9874 261.687 31.4627Z" fill="black"/>
<path fill-rule="evenodd" clip-rule="evenodd" d="M271.987 48.8882L277.327 35.6372L252.765 41.7196L250.629 30.2065L229.537 39.9818L227.935 30.2065L211.65 39.9818L200.703 33.8994L190.291 41.7196L180.413 35.6372L168.932 45.6297H146.506L155.316 57.7945L132.623 59.7841L146.506 68.8731L132.623 79.7345L155.316 81.9068L148.108 91.4648H172.403V105.802L193.495 95.1577L198.834 102.761L214.052 94.0716L221.795 107.322L236.479 96.6783L252.765 105.802V94.0716L269.852 96.6783L261.842 85.8169L284.043 88.3454L276.213 76.7006C288.494 78.6708 303.225 81.2308 303.225 81.2308C303.225 81.2308 302.768 71.434 303.215 71.4359L303.225 71.4376C303.221 71.4364 303.218 71.4359 303.215 71.4359L276.01 66.8966L290.512 54.2122L271.987 48.8882Z" fill="white"/>
<path d="M277.327 35.6372L278.254 36.011C278.395 35.6626 278.328 35.265 278.082 34.9814C277.835 34.6979 277.451 34.5763 277.086 34.6666L277.327 35.6372ZM271.987 48.8882L271.06 48.5144C270.954 48.777 270.964 49.0722 271.089 49.3267C271.213 49.5811 271.439 49.771 271.711 49.8493L271.987 48.8882ZM252.765 41.7196L251.781 41.902C251.832 42.1729 251.991 42.4111 252.223 42.5603C252.455 42.7095 252.738 42.7565 253.005 42.6903L252.765 41.7196ZM250.629 30.2065L251.612 30.0241C251.556 29.7204 251.362 29.4598 251.088 29.318C250.813 29.1763 250.489 29.1694 250.208 29.2993L250.629 30.2065ZM229.537 39.9818L228.55 40.1435C228.601 40.452 228.793 40.7191 229.069 40.8655C229.345 41.0118 229.674 41.0205 229.958 40.8891L229.537 39.9818ZM227.935 30.2065L228.922 30.0448C228.869 29.7178 228.657 29.4385 228.356 29.2992C228.055 29.1599 227.705 29.1786 227.421 29.3491L227.935 30.2065ZM211.65 39.9818L211.164 40.8559C211.476 41.0295 211.858 41.0232 212.164 40.8392L211.65 39.9818ZM200.703 33.8994L201.189 33.0253C200.844 32.8336 200.418 32.8628 200.103 33.0998L200.703 33.8994ZM190.291 41.7196L189.767 42.5712C190.117 42.7867 190.563 42.7661 190.891 42.5192L190.291 41.7196ZM180.413 35.6372L180.937 34.7857C180.564 34.5563 180.086 34.5957 179.756 34.883L180.413 35.6372ZM168.932 45.6297V46.6297C169.174 46.6297 169.407 46.5425 169.589 46.384L168.932 45.6297ZM146.506 45.6297V44.6297C146.13 44.6297 145.786 44.8404 145.615 45.1751C145.445 45.5098 145.476 45.912 145.696 46.2163L146.506 45.6297ZM155.316 57.7945L155.404 58.7907C155.763 58.7592 156.077 58.5373 156.226 58.2098C156.376 57.8822 156.338 57.4996 156.126 57.2079L155.316 57.7945ZM132.623 59.7841L132.536 58.7879C132.111 58.8251 131.757 59.1272 131.653 59.5405C131.549 59.9537 131.719 60.3874 132.075 60.6208L132.623 59.7841ZM146.506 68.8731L147.122 69.6607C147.376 69.4621 147.519 69.1531 147.505 68.831C147.492 68.5089 147.324 68.2131 147.054 68.0365L146.506 68.8731ZM132.623 79.7345L132.007 78.9469C131.685 79.1991 131.548 79.6221 131.663 80.0149C131.778 80.4077 132.12 80.691 132.528 80.73L132.623 79.7345ZM155.316 81.9068L156.115 82.5089C156.333 82.2198 156.378 81.8354 156.232 81.504C156.086 81.1725 155.772 80.9459 155.412 80.9113L155.316 81.9068ZM148.108 91.4648L147.31 90.8627C147.081 91.1655 147.044 91.5714 147.213 91.9108C147.382 92.2503 147.729 92.4648 148.108 92.4648V91.4648ZM172.403 91.4648H173.403C173.403 90.9125 172.956 90.4648 172.403 90.4648V91.4648ZM172.403 105.802H171.403C171.403 106.149 171.583 106.471 171.879 106.654C172.175 106.836 172.544 106.851 172.854 106.695L172.403 105.802ZM193.495 95.1577L194.313 94.583C194.028 94.1767 193.488 94.0412 193.044 94.2649L193.495 95.1577ZM198.834 102.761L198.016 103.335C198.313 103.758 198.882 103.885 199.33 103.629L198.834 102.761ZM214.052 94.0716L214.916 93.5671C214.639 93.0936 214.033 92.9312 213.557 93.2031L214.052 94.0716ZM221.795 107.322L220.931 107.827C221.074 108.071 221.313 108.243 221.589 108.301C221.865 108.359 222.153 108.298 222.382 108.132L221.795 107.322ZM236.479 96.6783L236.968 95.8059C236.627 95.6153 236.208 95.6398 235.892 95.8686L236.479 96.6783ZM252.765 105.802L252.276 106.674C252.586 106.848 252.964 106.844 253.27 106.665C253.576 106.485 253.765 106.157 253.765 105.802H252.765ZM252.765 94.0716L252.915 93.083C252.627 93.039 252.334 93.123 252.113 93.313C251.892 93.503 251.765 93.78 251.765 94.0716H252.765ZM269.852 96.6783L269.701 97.6669C270.101 97.7279 270.498 97.5418 270.707 97.1953C270.917 96.8489 270.897 96.4105 270.656 96.0848L269.852 96.6783ZM261.842 85.8169L261.955 84.8233C261.56 84.7783 261.176 84.9719 260.976 85.3162C260.777 85.6606 260.801 86.0902 261.037 86.4104L261.842 85.8169ZM284.043 88.3454L283.929 89.339C284.317 89.3831 284.695 89.198 284.897 88.8648C285.1 88.5316 285.09 88.111 284.872 87.7874L284.043 88.3454ZM276.213 76.7006L276.372 75.7132C275.978 75.6502 275.585 75.8264 275.371 76.1619C275.156 76.4973 275.161 76.9281 275.383 77.2586L276.213 76.7006ZM303.225 81.2308L303.054 82.216C303.352 82.268 303.659 82.1814 303.886 81.9808C304.114 81.7802 304.238 81.4872 304.224 81.1842L303.225 81.2308ZM303.225 71.4376L303.06 72.4239C303.576 72.5101 304.072 72.1838 304.196 71.6757C304.321 71.1675 304.032 70.6492 303.535 70.4869L303.225 71.4376ZM276.01 66.8966L275.352 66.144C275.061 66.3985 274.943 66.7979 275.048 67.1698C275.154 67.5417 275.464 67.8194 275.846 67.883L276.01 66.8966ZM290.512 54.2122L291.17 54.9648C291.445 54.7239 291.567 54.3517 291.488 53.9945C291.408 53.6373 291.14 53.3522 290.788 53.2511L290.512 54.2122ZM276.399 35.2635L271.06 48.5144L272.915 49.2619L278.254 36.011L276.399 35.2635ZM253.005 42.6903L277.567 36.6079L277.086 34.6666L252.524 40.7489L253.005 42.6903ZM249.646 30.3889L251.781 41.902L253.748 41.5372L251.612 30.0241L249.646 30.3889ZM229.958 40.8891L251.049 31.1138L250.208 29.2993L229.117 39.0745L229.958 40.8891ZM226.949 30.3683L228.55 40.1435L230.524 39.8201L228.922 30.0448L226.949 30.3683ZM212.164 40.8392L228.45 31.0639L227.421 29.3491L211.135 39.1244L212.164 40.8392ZM200.218 34.7735L211.164 40.8559L212.135 39.1077L201.189 33.0253L200.218 34.7735ZM190.891 42.5192L201.304 34.699L200.103 33.0998L189.69 40.92L190.891 42.5192ZM179.888 36.4888L189.767 42.5712L190.815 40.8681L180.937 34.7857L179.888 36.4888ZM169.589 46.384L181.069 36.3915L179.756 34.883L168.276 44.8754L169.589 46.384ZM146.506 46.6297H168.932V44.6297H146.506V46.6297ZM156.126 57.2079L147.316 45.0432L145.696 46.2163L154.507 58.3811L156.126 57.2079ZM132.71 60.7803L155.404 58.7907L155.229 56.7983L132.536 58.7879L132.71 60.7803ZM147.054 68.0365L133.171 58.9475L132.075 60.6208L145.958 69.7098L147.054 68.0365ZM133.239 80.5221L147.122 69.6607L145.89 68.0855L132.007 78.9469L133.239 80.5221ZM155.412 80.9113L132.718 78.7391L132.528 80.73L155.221 82.9022L155.412 80.9113ZM148.906 92.067L156.115 82.5089L154.518 81.3047L147.31 90.8627L148.906 92.067ZM172.403 90.4648H148.108V92.4648H172.403V90.4648ZM173.403 105.802V91.4648H171.403V105.802H173.403ZM193.044 94.2649L171.953 104.909L172.854 106.695L193.945 96.0505L193.044 94.2649ZM199.653 102.186L194.313 94.583L192.676 95.7324L198.016 103.335L199.653 102.186ZM213.557 93.2031L198.339 101.892L199.33 103.629L214.548 94.94L213.557 93.2031ZM222.658 106.818L214.916 93.5671L213.189 94.576L220.931 107.827L222.658 106.818ZM235.892 95.8686L221.208 106.513L222.382 108.132L237.066 97.4879L235.892 95.8686ZM253.253 104.929L236.968 95.8059L235.99 97.5507L252.276 106.674L253.253 104.929ZM251.765 94.0716V105.802H253.765V94.0716H251.765ZM270.002 95.6897L252.915 93.083L252.614 95.0601L269.701 97.6669L270.002 95.6897ZM261.037 86.4104L269.047 97.2718L270.656 96.0848L262.647 85.2234L261.037 86.4104ZM284.156 87.3518L261.955 84.8233L261.729 86.8105L283.929 89.339L284.156 87.3518ZM275.383 77.2586L283.213 88.9034L284.872 87.7874L277.043 76.1427L275.383 77.2586ZM303.225 81.2308C303.396 80.2456 303.396 80.2455 303.396 80.2455C303.396 80.2455 303.396 80.2455 303.395 80.2454C303.395 80.2454 303.394 80.2452 303.393 80.2451C303.392 80.2448 303.389 80.2443 303.385 80.2437C303.378 80.2424 303.367 80.2406 303.353 80.2381C303.325 80.2332 303.283 80.2259 303.227 80.2163C303.116 80.197 302.952 80.1685 302.738 80.1316C302.311 80.0577 301.688 79.9499 300.901 79.8145C299.328 79.5436 297.102 79.1619 294.492 78.7186C289.273 77.8322 282.517 76.699 276.372 75.7132L276.055 77.688C282.191 78.6724 288.94 79.8043 294.157 80.6904C296.765 81.1334 298.989 81.5148 300.562 81.7855C301.348 81.9208 301.971 82.0285 302.397 82.1023C302.611 82.1392 302.775 82.1676 302.886 82.1868C302.941 82.1965 302.983 82.2038 303.011 82.2086C303.025 82.2111 303.036 82.2129 303.043 82.2142C303.047 82.2148 303.049 82.2152 303.051 82.2156C303.052 82.2157 303.053 82.2158 303.053 82.2159C303.053 82.2159 303.053 82.216 303.053 82.216C303.054 82.216 303.054 82.216 303.225 81.2308ZM303.219 70.4359C302.695 70.4337 302.418 70.7959 302.342 70.9118C302.248 71.0524 302.203 71.1904 302.182 71.262C302.136 71.4197 302.11 71.595 302.093 71.7439C302.058 72.0583 302.038 72.4778 302.028 72.9438C302.008 73.8856 302.023 75.1286 302.053 76.3565C302.082 77.5878 302.125 78.8178 302.161 79.7391C302.179 80.1999 302.195 80.5841 302.207 80.8532C302.213 80.9877 302.218 81.0935 302.221 81.1658C302.222 81.202 302.224 81.2297 302.225 81.2485C302.225 81.2579 302.225 81.2651 302.226 81.2699C302.226 81.2723 302.226 81.2742 302.226 81.2754C302.226 81.276 302.226 81.2765 302.226 81.2768C302.226 81.277 302.226 81.2771 302.226 81.2772C302.226 81.2773 302.226 81.2774 303.225 81.2308C304.224 81.1842 304.224 81.1842 304.224 81.1841C304.224 81.1841 304.224 81.184 304.224 81.1838C304.224 81.1836 304.224 81.1832 304.224 81.1826C304.224 81.1815 304.224 81.1798 304.223 81.1775C304.223 81.1729 304.223 81.166 304.222 81.1568C304.222 81.1385 304.22 81.1113 304.219 81.0757C304.216 81.0045 304.211 80.8998 304.205 80.7665C304.194 80.4998 304.178 80.1186 304.16 79.6611C304.124 78.7455 304.081 77.5264 304.052 76.3088C304.023 75.0877 304.008 73.8818 304.028 72.9873C304.037 72.5351 304.056 72.1895 304.081 71.9685C304.094 71.8497 304.104 71.8147 304.1 71.8292C304.098 71.8367 304.092 71.8562 304.08 71.8836C304.07 71.9091 304.048 71.9576 304.009 72.0158C303.957 72.0947 303.706 72.4379 303.21 72.4359L303.219 70.4359ZM303.389 70.4512L303.379 70.4495L303.05 72.4222L303.06 72.4239L303.389 70.4512ZM303.21 72.4359C303.103 72.4354 303.004 72.4172 302.915 72.3882L303.535 70.4869C303.439 70.4556 303.333 70.4364 303.219 70.4359L303.21 72.4359ZM275.846 67.883L303.05 72.4222L303.379 70.4495L276.175 65.9103L275.846 67.883ZM289.853 53.4595L275.352 66.144L276.669 67.6493L291.17 54.9648L289.853 53.4595ZM271.711 49.8493L290.235 55.1733L290.788 53.2511L272.264 47.9271L271.711 49.8493Z" fill="black"/>
<mask id="path-7-outside-1_74_305" maskUnits="userSpaceOnUse" x="161.923" y="51.3769" width="34.0809" height="32.4289" fill="black">
<rect fill="white" x="161.923" y="51.3769" width="34.0809" height="32.4289"/>
<path d="M165.254 70.5304C165.48 68.2964 166.043 65.1675 168.986 65.3183C169.862 65.3632 170.254 66.0149 170.131 67.2365C170.081 67.7252 169.821 69.2557 169.775 69.7094C169.567 71.418 169.958 72.7713 170.837 73.8339C171.719 74.8615 173.001 75.4184 174.682 75.5046C177.801 75.6644 181.264 73.8068 182.976 71.1578C184.485 68.7791 186.518 63.3045 186.794 60.5819L186.864 59.8838C186.889 59.6395 186.763 59.4927 186.518 59.4801C185.782 59.4424 184.678 59.5613 183.245 59.8036C181.777 60.0441 180.676 60.1281 179.976 60.0922C179.345 60.0599 179.096 59.7314 179.132 59.0315C179.28 57.5654 180.76 56.1676 182.113 55.6756C183.645 55.1576 186.021 54.9987 189.209 55.162C190.505 55.2285 191.406 55.3799 191.836 55.6476C192.576 56.0012 192.922 56.7558 192.774 57.8709C192.367 61.885 188.738 69.2076 186.22 72.517C183.059 76.9513 178.182 80.2451 172.682 79.9633C167.356 79.6903 164.742 75.5916 165.254 70.5304Z"/>
</mask>
<path d="M165.254 70.5304C165.48 68.2964 166.043 65.1675 168.986 65.3183C169.862 65.3632 170.254 66.0149 170.131 67.2365C170.081 67.7252 169.821 69.2557 169.775 69.7094C169.567 71.418 169.958 72.7713 170.837 73.8339C171.719 74.8615 173.001 75.4184 174.682 75.5046C177.801 75.6644 181.264 73.8068 182.976 71.1578C184.485 68.7791 186.518 63.3045 186.794 60.5819L186.864 59.8838C186.889 59.6395 186.763 59.4927 186.518 59.4801C185.782 59.4424 184.678 59.5613 183.245 59.8036C181.777 60.0441 180.676 60.1281 179.976 60.0922C179.345 60.0599 179.096 59.7314 179.132 59.0315C179.28 57.5654 180.76 56.1676 182.113 55.6756C183.645 55.1576 186.021 54.9987 189.209 55.162C190.505 55.2285 191.406 55.3799 191.836 55.6476C192.576 56.0012 192.922 56.7558 192.774 57.8709C192.367 61.885 188.738 69.2076 186.22 72.517C183.059 76.9513 178.182 80.2451 172.682 79.9633C167.356 79.6903 164.742 75.5916 165.254 70.5304Z" fill="white"/>
<path d="M169.775 69.7094L171.881 69.8605L171.884 69.8391L171.886 69.8176L169.775 69.7094ZM170.837 73.8339L169.17 75.2168L169.182 75.2307L169.193 75.2445L170.837 73.8339ZM182.976 71.1578L184.746 72.2321L184.751 72.224L184.756 72.2158L182.976 71.1578ZM183.245 59.8036L183.49 61.881L183.501 61.8791L183.245 59.8036ZM179.132 59.0315L177.021 58.9233L177.016 58.9758L177.013 59.0284L179.132 59.0315ZM182.113 55.6756L181.518 53.6856L181.494 53.6937L181.471 53.7023L182.113 55.6756ZM191.836 55.6476L190.648 57.448L190.741 57.5057L190.84 57.5531L191.836 55.6476ZM192.774 57.8709L190.67 57.6971L190.666 57.7299L190.663 57.7628L192.774 57.8709ZM186.22 72.517L184.55 71.3012L184.528 71.3293L184.508 71.358L186.22 72.517ZM167.365 70.6385C167.478 69.5205 167.653 68.5506 167.981 67.9143C168.127 67.6316 168.245 67.5312 168.298 67.4971C168.325 67.4794 168.438 67.4042 168.774 67.4214L169.199 63.2153C168.063 63.1571 167.002 63.4165 166.089 64.0128C165.201 64.5927 164.613 65.3859 164.222 66.1459C163.476 67.5948 163.256 69.3063 163.143 70.4222L167.365 70.6385ZM168.774 67.4214C168.739 67.4196 168.615 67.4064 168.459 67.3209C168.294 67.2307 168.17 67.1016 168.095 66.9752C168.026 66.8608 168.022 66.7904 168.026 66.8202C168.03 66.8508 168.038 66.9469 168.02 67.1284L172.242 67.3447C172.324 66.5314 172.281 65.5487 171.772 64.6971C171.189 63.7208 170.209 63.267 169.199 63.2153L168.774 67.4214ZM168.02 67.1284C168.002 67.3026 167.937 67.7341 167.854 68.2685C167.783 68.7306 167.694 69.3036 167.664 69.6013L171.886 69.8176C171.902 69.6615 171.966 69.2424 172.048 68.7037C172.12 68.2372 172.21 67.6591 172.242 67.3447L168.02 67.1284ZM167.669 69.5584C167.4 71.7664 167.906 73.6884 169.17 75.2168L172.503 72.4509C172.01 71.8542 171.734 71.0696 171.881 69.8605L167.669 69.5584ZM169.193 75.2445C170.505 76.772 172.355 77.4992 174.47 77.6076L174.895 73.4015C173.647 73.3375 172.933 72.9509 172.48 72.4233L169.193 75.2445ZM174.47 77.6076C178.396 77.8088 182.612 75.5335 184.746 72.2321L181.207 70.0836C179.916 72.0801 177.206 73.5199 174.895 73.4015L174.47 77.6076ZM184.756 72.2158C185.637 70.8277 186.586 68.6925 187.339 66.628C188.087 64.5753 188.74 62.3222 188.905 60.6901L184.683 60.4738C184.572 61.5643 184.071 63.4097 183.356 65.3696C182.646 67.3178 181.825 69.1092 181.196 70.0998L184.756 72.2158ZM188.905 60.6901L188.975 59.992L184.753 59.7756L184.683 60.4738L188.905 60.6901ZM188.975 59.992C189.028 59.4743 188.942 58.7747 188.436 58.1845C187.929 57.5942 187.25 57.4037 186.731 57.3771L186.305 61.5832C186.031 61.5691 185.538 61.4583 185.149 61.0056C184.761 60.553 184.726 60.049 184.753 59.7756L188.975 59.992ZM186.731 57.3771C185.742 57.3264 184.435 57.4837 182.989 57.7281L183.501 61.8791C184.922 61.6388 185.823 61.5585 186.305 61.5832L186.731 57.3771ZM183 57.7263C181.59 57.9573 180.665 58.0136 180.188 57.9891L179.763 62.1953C180.687 62.2426 181.963 62.131 183.49 61.881L183 57.7263ZM180.188 57.9891C180.21 57.9902 180.653 58.0244 181.001 58.467C181.3 58.8477 181.243 59.1826 181.251 59.0345L177.013 59.0284C176.985 59.5802 177.035 60.4294 177.607 61.1574C178.228 61.9473 179.111 62.1618 179.763 62.1953L180.188 57.9891ZM181.243 59.1396C181.254 59.0282 181.348 58.7473 181.69 58.3825C182.024 58.0266 182.437 57.7646 182.756 57.6488L181.471 53.7023C180.436 54.0786 179.433 54.7616 178.652 55.5941C177.879 56.4177 177.158 57.5687 177.021 58.9233L181.243 59.1396ZM182.708 57.6656C183.82 57.2895 185.845 57.1036 188.996 57.2651L189.422 53.059C186.196 52.8937 183.469 53.0258 181.518 53.6856L182.708 57.6656ZM188.996 57.2651C189.598 57.2959 190.049 57.3441 190.369 57.4018C190.733 57.4674 190.76 57.5173 190.648 57.448L193.025 53.8472C192.482 53.5101 191.844 53.3504 191.325 53.2568C190.763 53.1554 190.117 53.0946 189.422 53.059L188.996 57.2651ZM190.84 57.5531C190.827 57.5466 190.792 57.527 190.754 57.4876C190.716 57.4479 190.692 57.4076 190.68 57.3809C190.659 57.332 190.709 57.4048 190.67 57.6971L194.877 58.0447C194.986 57.2219 194.937 56.3598 194.595 55.5664C194.24 54.7428 193.622 54.1197 192.833 53.742L190.84 57.5531ZM190.663 57.7628C190.497 59.3988 189.619 61.9604 188.369 64.6569C187.137 67.3139 185.678 69.8179 184.55 71.3012L187.89 73.7328C189.28 71.9066 190.895 69.0946 192.209 66.2595C193.505 63.4639 194.644 60.3572 194.885 57.9791L190.663 57.7628ZM184.508 71.358C181.637 75.3857 177.419 78.0921 172.894 77.8602L172.469 82.0663C178.946 82.3982 184.481 78.5169 187.932 73.6759L184.508 71.358ZM172.894 77.8602C170.795 77.7526 169.383 76.9193 168.509 75.7406C167.607 74.526 167.15 72.7669 167.365 70.6385L163.143 70.4222C162.846 73.3551 163.439 76.176 165.049 78.3443C166.684 80.5485 169.242 81.901 172.469 82.0663L172.894 77.8602Z" fill="black" mask="url(#path-7-outside-1_74_305)"/>
<mask id="path-9-outside-2_74_305" maskUnits="userSpaceOnUse" x="189.407" y="52.1509" width="33.2473" height="33.3976" fill="black">
<rect fill="white" x="189.407" y="52.1509" width="33.2473" height="33.3976"/>
<path d="M195.846 81.6113C195.477 81.1043 195.237 80.4853 195.203 79.8204C195.135 79.1574 195.406 78.3713 196.09 77.4934C196.432 77.0545 196.994 76.3584 197.675 75.4457C199.504 73.0343 201.307 70.0278 203.259 66.4171C204.378 64.2885 206.03 61.1846 208.201 56.966C208.814 55.7409 209.768 55.0945 211.1 55.0249C211.836 54.9864 212.362 55.3097 212.641 55.9618C212.733 56.1675 212.832 56.7939 213.018 57.9069C214.372 64.5376 215.947 69.8936 217.774 73.9383C218.007 74.4875 218.275 75.0349 218.507 75.5841C218.86 76.2674 219.058 76.8184 219.066 77.239C219.21 78.6349 217.066 80.0453 215.805 80.1112C215.139 80.1461 214.633 79.6813 214.252 78.7188C214.142 78.3386 213.888 77.58 213.629 76.4357C209.931 77.4712 205.435 78.6186 200.032 79.8485C199.08 81.5474 198.256 82.4326 197.555 82.4692C196.925 82.5022 196.367 82.2156 195.846 81.6113ZM209.894 62.1053C208.844 63.8794 206.565 68.0687 203.02 74.6749C206.392 73.902 209.536 72.9657 212.448 71.8309C211.857 69.5111 210.996 66.2931 209.894 62.1053Z"/>
</mask>
<path d="M195.846 81.6113C195.477 81.1043 195.237 80.4853 195.203 79.8204C195.135 79.1574 195.406 78.3713 196.09 77.4934C196.432 77.0545 196.994 76.3584 197.675 75.4457C199.504 73.0343 201.307 70.0278 203.259 66.4171C204.378 64.2885 206.03 61.1846 208.201 56.966C208.814 55.7409 209.768 55.0945 211.1 55.0249C211.836 54.9864 212.362 55.3097 212.641 55.9618C212.733 56.1675 212.832 56.7939 213.018 57.9069C214.372 64.5376 215.947 69.8936 217.774 73.9383C218.007 74.4875 218.275 75.0349 218.507 75.5841C218.86 76.2674 219.058 76.8184 219.066 77.239C219.21 78.6349 217.066 80.0453 215.805 80.1112C215.139 80.1461 214.633 79.6813 214.252 78.7188C214.142 78.3386 213.888 77.58 213.629 76.4357C209.931 77.4712 205.435 78.6186 200.032 79.8485C199.08 81.5474 198.256 82.4326 197.555 82.4692C196.925 82.5022 196.367 82.2156 195.846 81.6113ZM209.894 62.1053C208.844 63.8794 206.565 68.0687 203.02 74.6749C206.392 73.902 209.536 72.9657 212.448 71.8309C211.857 69.5111 210.996 66.2931 209.894 62.1053Z" fill="white"/>
<path d="M195.846 81.6113L194.148 82.7877L194.202 82.8621L194.262 82.9318L195.846 81.6113ZM195.203 79.8204L197.323 79.8207L197.32 79.7653L197.314 79.71L195.203 79.8204ZM196.09 77.4934L197.793 78.8328L196.09 77.4934ZM197.675 75.4457L195.957 74.1267L195.952 74.1331L195.947 74.1395L197.675 75.4457ZM203.259 66.4171L205.14 67.4831L205.146 67.473L205.151 67.4628L203.259 66.4171ZM208.201 56.966L210.101 57.9966L210.106 57.9868L210.111 57.9769L208.201 56.966ZM212.641 55.9618L210.693 56.7002L210.7 56.7159L210.707 56.7315L212.641 55.9618ZM213.018 57.9069L210.925 58.1483L210.931 58.1867L210.939 58.2249L213.018 57.9069ZM217.774 73.9383L219.724 73.2058L219.714 73.1821L219.703 73.1587L217.774 73.9383ZM218.507 75.5841L216.557 76.3166L216.59 76.3933L216.628 76.4675L218.507 75.5841ZM219.066 77.239L216.944 77.1744L216.946 77.262L216.955 77.3494L219.066 77.239ZM214.252 78.7188L212.214 79.2036L212.243 79.3045L212.282 79.4026L214.252 78.7188ZM213.629 76.4357L215.698 76.0731L215.18 73.785L212.959 74.4071L213.629 76.4357ZM200.032 79.8485L199.46 77.7951L198.593 77.9925L198.165 78.7565L200.032 79.8485ZM209.894 62.1053L211.946 61.67L210.619 56.6298L208.05 60.973L209.894 62.1053ZM203.02 74.6749L201.136 73.6142L198.886 77.8068L203.595 76.7277L203.02 74.6749ZM212.448 71.8309L213.309 73.7961L214.95 73.1567L214.504 71.4114L212.448 71.8309ZM197.545 80.4348C197.415 80.2564 197.334 80.0438 197.323 79.8207L193.084 79.8202C193.14 80.9268 193.539 81.9522 194.148 82.7877L197.545 80.4348ZM197.314 79.71C197.322 79.7858 197.269 79.5057 197.793 78.8328L194.387 76.154C193.543 77.2369 192.948 78.5289 193.092 79.9308L197.314 79.71ZM197.793 78.8328C198.112 78.424 198.706 77.6866 199.403 76.7518L195.947 74.1395C195.283 75.0303 194.753 75.6849 194.387 76.154L197.793 78.8328ZM199.394 76.7647C201.313 74.2344 203.172 71.1251 205.14 67.4831L201.378 65.351C199.443 68.9305 197.696 71.8342 195.957 74.1267L199.394 76.7647ZM205.151 67.4628C206.265 65.3429 207.925 62.2253 210.101 57.9966L206.3 55.9353C204.135 60.1439 202.49 63.234 201.367 65.3714L205.151 67.4628ZM210.111 57.9769C210.429 57.3414 210.774 57.1559 211.317 57.1275L210.883 52.9223C208.763 53.0331 207.199 54.1405 206.29 55.955L210.111 57.9769ZM211.317 57.1275C211.348 57.1259 211.202 57.1378 210.998 57.0134C210.786 56.8843 210.704 56.7258 210.693 56.7002L214.588 55.2234C214.299 54.5458 213.814 53.8995 213.086 53.4554C212.365 53.0159 211.587 52.8854 210.883 52.9223L211.317 57.1275ZM210.707 56.7315C210.643 56.5886 210.629 56.5033 210.649 56.5847C210.661 56.6365 210.68 56.727 210.708 56.8741C210.763 57.1705 210.83 57.5773 210.925 58.1483L215.111 57.6656C215.021 57.1234 214.945 56.6606 214.881 56.3141C214.835 56.0694 214.748 55.5812 214.575 55.1921L210.707 56.7315ZM210.939 58.2249C212.309 64.9323 213.923 70.4638 215.844 74.7179L219.703 73.1587C217.971 69.3235 216.436 64.143 215.097 57.5889L210.939 58.2249ZM215.824 74.6708C215.954 74.978 216.092 75.2798 216.215 75.5491C216.342 75.828 216.455 76.0746 216.557 76.3166L220.457 74.8515C220.327 74.5444 220.189 74.2426 220.066 73.9732C219.939 73.6943 219.826 73.4478 219.724 73.2058L215.824 74.6708ZM216.628 76.4675C216.774 76.7502 216.861 76.9556 216.91 77.0973C216.961 77.2472 216.946 77.2587 216.944 77.1744L221.188 77.3036C221.169 76.362 220.763 75.4306 220.387 74.7007L216.628 76.4675ZM216.955 77.3494C216.931 77.1188 217.014 77.0298 216.963 77.1146C216.913 77.1959 216.796 77.3385 216.588 77.5031C216.387 77.6629 216.154 77.8002 215.936 77.895C215.7 77.9973 215.577 78.0092 215.588 78.0086L216.022 82.2138C217.217 82.1514 218.458 81.5406 219.336 80.8446C220.137 80.2103 221.362 78.9192 221.177 77.1286L216.955 77.3494ZM215.588 78.0086C215.687 78.0034 215.826 78.0161 215.979 78.0721C216.131 78.1277 216.241 78.2052 216.306 78.2635C216.365 78.317 216.375 78.3433 216.35 78.3039C216.325 78.2646 216.28 78.1808 216.222 78.035L212.282 79.4026C212.537 80.0463 212.919 80.7566 213.538 81.3145C214.227 81.9358 215.095 82.2623 216.022 82.2138L215.588 78.0086ZM216.29 78.2341C216.157 77.7729 215.939 77.1355 215.698 76.0731L211.559 76.7983C211.837 78.0246 212.128 78.9043 212.214 79.2036L216.29 78.2341ZM212.959 74.4071C209.298 75.4324 204.835 76.5717 199.46 77.7951L200.604 81.902C206.036 80.6655 210.565 79.5099 214.299 78.4643L212.959 74.4071ZM198.165 78.7565C197.724 79.5428 197.371 80.0327 197.116 80.3042C196.991 80.4369 196.93 80.4732 196.939 80.4678C196.949 80.4615 197.088 80.3797 197.338 80.3666L197.772 84.5718C198.931 84.5112 199.768 83.8075 200.284 83.2602C200.853 82.6553 201.388 81.8531 201.899 80.9406L198.165 78.7565ZM197.338 80.3666C197.359 80.3655 197.394 80.3665 197.439 80.3761C197.484 80.3856 197.521 80.4001 197.545 80.4123C197.591 80.4356 197.548 80.4279 197.43 80.2907L194.262 82.9318C195.101 83.9055 196.284 84.6497 197.772 84.5718L197.338 80.3666ZM208.05 60.973C206.974 62.7913 204.671 67.0249 201.136 73.6142L204.905 75.7355C208.458 69.1124 210.714 64.9675 211.738 63.2375L208.05 60.973ZM203.595 76.7277C207.048 75.9364 210.289 74.9726 213.309 73.7961L211.588 69.8658C208.784 70.9587 205.737 71.8677 202.445 72.6221L203.595 76.7277ZM214.504 71.4114C213.91 69.0813 213.044 65.8433 211.946 61.67L207.842 62.5405C208.948 66.7429 209.803 69.941 210.393 72.2505L214.504 71.4114Z" fill="black" mask="url(#path-9-outside-2_74_305)"/>
<mask id="path-11-outside-3_74_305" maskUnits="userSpaceOnUse" x="221.81" y="52.5188" width="30.6795" height="32.3162" fill="black">
<rect fill="white" x="221.81" y="52.5188" width="30.6795" height="32.3162"/>
<path d="M225.955 81.0256C225.628 80.5029 225.439 79.8734 225.46 79.2066C225.445 78.5401 225.78 77.7647 226.534 76.9145C226.911 76.4895 227.528 75.8162 228.281 74.931C230.302 72.5937 232.344 69.6597 234.585 66.1272C235.874 64.0434 237.775 61.0057 240.283 56.8738C240.994 55.6733 241.999 55.066 243.332 55.0517C244.069 55.0437 244.568 55.3892 244.792 56.0534C244.867 56.2631 244.915 56.894 245.009 58.0157C245.819 64.708 246.952 70.1337 248.443 74.2575C248.631 74.8169 248.853 75.3758 249.04 75.9351C249.336 76.6336 249.488 77.1933 249.462 77.6146C249.492 79.0176 247.239 80.34 245.976 80.3536C245.31 80.3608 244.843 79.8747 244.542 78.8956C244.463 78.5105 244.272 77.7407 244.107 76.5847C240.336 77.4674 235.759 78.4289 230.272 79.4353C229.184 81.096 228.29 81.9477 227.588 81.9552C226.957 81.962 226.424 81.652 225.955 81.0256ZM241.552 62.0876C240.361 63.8196 237.746 67.9175 233.673 74.3817C237.098 73.7483 240.31 72.9419 243.306 71.9272C242.905 69.5809 242.309 66.3246 241.552 62.0876Z"/>
</mask>
<path d="M225.955 81.0256C225.628 80.5029 225.439 79.8734 225.46 79.2066C225.445 78.5401 225.78 77.7647 226.534 76.9145C226.911 76.4895 227.528 75.8162 228.281 74.931C230.302 72.5937 232.344 69.6597 234.585 66.1272C235.874 64.0434 237.775 61.0057 240.283 56.8738C240.994 55.6733 241.999 55.066 243.332 55.0517C244.069 55.0437 244.568 55.3892 244.792 56.0534C244.867 56.2631 244.915 56.894 245.009 58.0157C245.819 64.708 246.952 70.1337 248.443 74.2575C248.631 74.8169 248.853 75.3758 249.04 75.9351C249.336 76.6336 249.488 77.1933 249.462 77.6146C249.492 79.0176 247.239 80.34 245.976 80.3536C245.31 80.3608 244.843 79.8747 244.542 78.8956C244.463 78.5105 244.272 77.7407 244.107 76.5847C240.336 77.4674 235.759 78.4289 230.272 79.4353C229.184 81.096 228.29 81.9477 227.588 81.9552C226.957 81.962 226.424 81.652 225.955 81.0256ZM241.552 62.0876C240.361 63.8196 237.746 67.9175 233.673 74.3817C237.098 73.7483 240.31 72.9419 243.306 71.9272C242.905 69.5809 242.309 66.3246 241.552 62.0876Z" fill="white"/>
<path d="M225.955 81.0256L224.165 82.1324L224.213 82.209L224.267 82.2814L225.955 81.0256ZM225.46 79.2066L227.573 79.2949L227.575 79.2394L227.573 79.1838L225.46 79.2066ZM226.534 76.9145L228.122 78.3258L226.534 76.9145ZM228.281 74.931L226.675 73.5395L226.67 73.5458L226.665 73.552L228.281 74.931ZM234.585 66.1272L236.374 67.2723L236.38 67.2623L236.387 67.2523L234.585 66.1272ZM240.283 56.8738L242.094 57.9842L242.099 57.9746L242.105 57.965L240.283 56.8738ZM244.792 56.0534L242.79 56.7115L242.796 56.7274L242.801 56.7433L244.792 56.0534ZM245.009 58.0157L242.903 58.1703L242.906 58.209L242.911 58.2476L245.009 58.0157ZM248.443 74.2575L250.447 73.6054L250.439 73.5814L250.431 73.5575L248.443 74.2575ZM249.04 75.9351L247.036 76.5872L247.063 76.6653L247.095 76.7411L249.04 75.9351ZM249.462 77.6146L247.352 77.4618L247.347 77.5495L247.348 77.6374L249.462 77.6146ZM244.542 78.8956L242.47 79.296L242.491 79.3983L242.522 79.4981L244.542 78.8956ZM244.107 76.5847L246.199 76.3078L245.87 73.9964L243.604 74.5267L244.107 76.5847ZM230.272 79.4353L229.869 77.3565L228.988 77.518L228.499 78.2648L230.272 79.4353ZM241.552 62.0876L243.633 61.7373L242.722 56.6379L239.806 60.8778L241.552 62.0876ZM233.673 74.3817L231.881 73.2419L229.296 77.3444L234.079 76.46L233.673 74.3817ZM243.306 71.9272L244.003 73.9297L245.691 73.3579L245.389 71.5927L243.306 71.9272ZM227.744 79.9187C227.629 79.7348 227.566 79.5186 227.573 79.2949L223.347 79.1182C223.312 80.2281 223.626 81.2709 224.165 82.1324L227.744 79.9187ZM227.573 79.1838C227.575 79.2599 227.544 78.9774 228.122 78.3258L224.945 75.5033C224.015 76.552 223.316 77.8203 223.346 79.2294L227.573 79.1838ZM228.122 78.3258C228.473 77.9299 229.126 77.2166 229.898 76.31L226.665 73.552C225.93 74.4159 225.348 75.049 224.945 75.5033L228.122 78.3258ZM229.887 76.3225C232.007 73.8699 234.114 70.8353 236.374 67.2723L232.796 64.9821C230.575 68.4841 228.596 71.3175 226.675 73.5395L229.887 76.3225ZM236.387 67.2523C237.67 65.177 239.579 62.1259 242.094 57.9842L238.473 55.7634C235.97 59.8854 234.078 62.9097 232.784 65.002L236.387 67.2523ZM242.105 57.965C242.474 57.3422 242.833 57.1709 243.377 57.165L243.287 52.9383C241.165 52.9612 239.515 54.0044 238.461 55.7827L242.105 57.965ZM243.377 57.165C243.408 57.1647 243.262 57.1706 243.068 57.0376C242.868 56.8996 242.799 56.7375 242.79 56.7115L246.794 55.3952C246.561 54.7051 246.13 54.0382 245.44 53.5634C244.757 53.0936 243.993 52.9307 243.287 52.9383L243.377 57.165ZM242.801 56.7433C242.749 56.5976 242.743 56.5117 242.755 56.594C242.764 56.6464 242.775 56.7377 242.79 56.886C242.821 57.185 242.854 57.5949 242.903 58.1703L247.116 57.8611C247.07 57.3148 247.033 56.8484 246.997 56.499C246.971 56.2522 246.924 55.76 246.783 55.3634L242.801 56.7433ZM242.911 58.2476C243.729 65.0172 244.887 70.6202 246.456 74.9576L250.431 73.5575C249.016 69.6472 247.908 64.3987 247.108 57.7838L242.911 58.2476ZM246.439 74.9096C246.544 75.2224 246.657 75.5302 246.758 75.8049C246.862 76.0893 246.954 76.3407 247.036 76.5872L251.044 75.283C250.94 74.9702 250.827 74.6625 250.726 74.3878C250.622 74.1033 250.53 73.8519 250.447 73.6054L246.439 74.9096ZM247.095 76.7411C247.217 77.0302 247.287 77.2394 247.324 77.3832C247.363 77.5353 247.347 77.5462 247.352 77.4618L251.572 77.7674C251.631 76.8243 251.302 75.8752 250.986 75.1291L247.095 76.7411ZM247.348 77.6374C247.344 77.4056 247.434 77.32 247.376 77.4027C247.32 77.482 247.191 77.6199 246.97 77.776C246.756 77.9275 246.513 78.0553 246.288 78.1411C246.044 78.2337 245.92 78.2404 245.931 78.2403L246.021 82.4669C247.218 82.454 248.505 81.8944 249.438 81.2343C250.288 80.6328 251.614 79.3915 251.576 77.5918L247.348 77.6374ZM245.931 78.2403C246.031 78.2392 246.168 78.2576 246.317 78.3201C246.464 78.3821 246.567 78.4642 246.626 78.5252C246.681 78.5812 246.689 78.6079 246.667 78.5675C246.646 78.5271 246.607 78.4414 246.562 78.2931L242.522 79.4981C242.723 80.1529 243.047 80.8796 243.618 81.4637C244.254 82.1141 245.094 82.4769 246.021 82.4669L245.931 78.2403ZM246.613 78.4951C246.518 78.0281 246.353 77.381 246.199 76.3078L242.014 76.8617C242.19 78.1004 242.409 78.9929 242.47 79.296L246.613 78.4951ZM243.604 74.5267C239.87 75.4007 235.328 76.3554 229.869 77.3565L230.674 81.5142C236.191 80.5024 240.801 79.5341 244.609 78.6428L243.604 74.5267ZM228.499 78.2648C227.996 79.0335 227.604 79.5091 227.327 79.7702C227.191 79.8978 227.128 79.9317 227.137 79.9266C227.148 79.9208 227.293 79.8446 227.543 79.8419L227.633 84.0685C228.794 84.056 229.686 83.3866 230.244 82.8602C230.861 82.2784 231.46 81.4979 232.044 80.6059L228.499 78.2648ZM227.543 79.8419C227.564 79.8417 227.6 79.8442 227.644 79.8556C227.688 79.867 227.723 79.883 227.746 79.8963C227.79 79.9214 227.748 79.9119 227.642 79.7698L224.267 82.2814C225.024 83.2906 226.143 84.0846 227.633 84.0685L227.543 79.8419ZM239.806 60.8778C238.585 62.6529 235.944 66.7942 231.881 73.2419L235.465 75.5215C239.549 69.0407 242.137 64.9862 243.298 63.2974L239.806 60.8778ZM234.079 76.46C237.586 75.8116 240.896 74.9817 244.003 73.9297L242.608 69.9248C239.723 70.902 236.611 71.6851 233.268 72.3034L234.079 76.46ZM245.389 71.5927C244.987 69.2361 244.388 65.9596 243.633 61.7373L239.471 62.438C240.231 66.6896 240.823 69.9258 241.222 72.2617L245.389 71.5927Z" fill="black" mask="url(#path-11-outside-3_74_305)"/>
<mask id="path-13-outside-4_74_305" maskUnits="userSpaceOnUse" x="249.182" y="53.5248" width="23.6137" height="33.2112" fill="black">
<rect fill="white" x="249.182" y="53.5248" width="23.6137" height="33.2112"/>
<path d="M255.977 74.7488C255.935 74.3633 256.169 73.7296 256.609 72.8834C256.71 72.6369 257.991 69.8181 260.347 64.4632L261.965 60.9045C262.607 59.5652 263.288 58.4712 263.973 57.5876C264.556 56.8454 265.602 56.4847 267.146 56.4701C267.988 56.4622 270.027 56.6885 270.048 57.811C270.052 58.0566 269.028 59.5748 266.975 62.4009C266.189 63.531 264.958 65.2266 263.281 67.5229C261.913 69.3952 260.929 71.2288 260.296 73.0241C260.027 73.6581 259.793 74.2918 259.524 74.8908C259.219 75.455 258.627 75.7413 257.785 75.7492C256.558 75.7608 255.99 75.4504 255.977 74.7488ZM252.516 82.956C252.502 82.2194 252.897 80.8123 253.703 78.84C254.005 78.1355 254.876 77.8115 256.28 77.7983C257.648 77.7854 258.32 78.0948 258.332 78.7262C258.341 79.2172 256.65 82.6012 256.274 83.131C255.864 83.7313 255.168 84.0536 254.116 84.0636C253.063 84.0735 252.53 83.6926 252.516 82.956Z"/>
</mask>
<path d="M255.977 74.7488C255.935 74.3633 256.169 73.7296 256.609 72.8834C256.71 72.6369 257.991 69.8181 260.347 64.4632L261.965 60.9045C262.607 59.5652 263.288 58.4712 263.973 57.5876C264.556 56.8454 265.602 56.4847 267.146 56.4701C267.988 56.4622 270.027 56.6885 270.048 57.811C270.052 58.0566 269.028 59.5748 266.975 62.4009C266.189 63.531 264.958 65.2266 263.281 67.5229C261.913 69.3952 260.929 71.2288 260.296 73.0241C260.027 73.6581 259.793 74.2918 259.524 74.8908C259.219 75.455 258.627 75.7413 257.785 75.7492C256.558 75.7608 255.99 75.4504 255.977 74.7488ZM252.516 82.956C252.502 82.2194 252.897 80.8123 253.703 78.84C254.005 78.1355 254.876 77.8115 256.28 77.7983C257.648 77.7854 258.32 78.0948 258.332 78.7262C258.341 79.2172 256.65 82.6012 256.274 83.131C255.864 83.7313 255.168 84.0536 254.116 84.0636C253.063 84.0735 252.53 83.6926 252.516 82.956Z" fill="white"/>
<path d="M255.977 74.7488L258.091 74.7289L258.089 74.633L258.079 74.5376L255.977 74.7488ZM256.609 72.8834L258.486 73.8725L258.531 73.787L258.567 73.6976L256.609 72.8834ZM260.347 64.4632L258.421 63.574L258.416 63.5856L258.411 63.5972L260.347 64.4632ZM261.965 60.9045L260.057 59.9771L260.048 59.9961L260.039 60.0153L261.965 60.9045ZM263.973 57.5876L262.306 56.2733L262.298 56.283L263.973 57.5876ZM266.975 62.4009L265.261 61.1488L265.248 61.166L265.236 61.1836L266.975 62.4009ZM263.281 67.5229L264.992 68.7801L264.993 68.7791L263.281 67.5229ZM260.296 73.0241L262.244 73.8642L262.269 73.8044L262.291 73.7432L260.296 73.0241ZM259.524 74.8908L261.385 75.9096L261.422 75.8424L261.453 75.7726L259.524 74.8908ZM253.703 78.84L251.759 77.9909L251.751 78.0083L251.744 78.0258L253.703 78.84ZM256.274 83.131L254.546 81.8973L254.535 81.9128L254.524 81.9286L256.274 83.131ZM258.079 74.5376C258.097 74.7029 258.077 74.804 258.077 74.8069C258.075 74.8158 258.081 74.7823 258.111 74.6969C258.171 74.521 258.289 74.2524 258.486 73.8725L254.732 71.8944C254.489 72.3607 254.269 72.832 254.114 73.2809C253.975 73.6804 253.803 74.294 253.876 74.96L258.079 74.5376ZM258.567 73.6976C258.566 73.702 258.582 73.6636 258.636 73.5416C258.684 73.4338 258.75 73.2853 258.836 73.094C259.006 72.7135 259.25 72.168 259.564 71.4653C260.193 70.0577 261.103 68.0108 262.283 65.3291L258.411 63.5972C256.083 68.8873 254.765 71.7908 254.651 72.0692L258.567 73.6976ZM262.273 65.3523L263.891 61.7936L260.039 60.0153L258.421 63.574L262.273 65.3523ZM263.873 61.8318C264.458 60.6117 265.063 59.6467 265.649 58.8923L262.298 56.283C261.513 57.2957 260.756 58.5187 260.057 59.9771L263.873 61.8318ZM265.641 58.9019C265.644 58.8983 265.692 58.8292 265.915 58.7512C266.157 58.6664 266.558 58.5895 267.185 58.5836L267.106 54.3567C265.34 54.3733 263.479 54.7786 262.306 56.2734L265.641 58.9019ZM267.185 58.5836C267.303 58.5824 267.497 58.5899 267.715 58.6165C267.937 58.6435 268.135 58.684 268.282 58.7307C268.452 58.7846 268.43 58.8072 268.331 58.7211C268.269 58.6681 268.168 58.5638 268.08 58.3965C267.988 58.2203 267.938 58.0231 267.934 57.8309L272.162 57.7911C272.143 56.7809 271.64 56.0181 271.077 55.5326C270.563 55.0886 269.975 54.8446 269.527 54.7026C268.625 54.4164 267.664 54.3514 267.106 54.3567L267.185 58.5836ZM267.934 57.8309C267.928 57.519 267.998 57.292 268.015 57.2359C268.041 57.1505 268.065 57.0956 268.07 57.0846C268.081 57.0619 268.072 57.0829 268.024 57.1661C267.932 57.3259 267.771 57.5812 267.524 57.9501C267.034 58.6799 266.284 59.7402 265.261 61.1488L268.69 63.653C269.72 62.2355 270.508 61.1236 271.042 60.3264C271.307 59.9318 271.529 59.5848 271.692 59.3026C271.772 59.1648 271.859 59.0048 271.932 58.841C271.969 58.7595 272.017 58.6441 272.058 58.508C272.091 58.4014 272.168 58.1337 272.162 57.7911L267.934 57.8309ZM265.236 61.1836C264.467 62.2899 263.251 63.9645 261.57 66.2666L264.993 68.7791C266.665 66.4887 267.912 64.772 268.715 63.6182L265.236 61.1836ZM261.57 66.2656C260.1 68.2767 259.013 70.2894 258.302 72.3049L262.291 73.7432C262.846 72.1683 263.725 70.5137 264.992 68.7801L261.57 66.2656ZM258.349 72.1839C258.01 72.982 257.87 73.3974 257.595 74.0089L261.453 75.7726C261.717 75.1863 262.044 74.3342 262.244 73.8642L258.349 72.1839ZM257.662 73.872C257.687 73.827 257.724 73.7749 257.775 73.7259C257.827 73.6773 257.875 73.6468 257.909 73.6301C257.971 73.5996 257.943 73.6339 257.746 73.6358L257.825 77.8626C259.138 77.8503 260.598 77.3646 261.385 75.9096L257.662 73.872ZM257.746 73.6358C257.522 73.6379 257.389 73.6242 257.322 73.6129C257.252 73.6009 257.312 73.6007 257.434 73.6683C257.575 73.7461 257.77 73.8995 257.918 74.1529C258.061 74.3996 258.089 74.6195 258.091 74.7289L253.864 74.7688C253.872 75.2289 253.976 75.7507 254.267 76.2525C254.563 76.7611 254.979 77.123 255.417 77.3646C256.209 77.8015 257.113 77.8694 257.825 77.8626L257.746 73.6358ZM254.63 82.9361C254.63 82.9371 254.63 82.8575 254.664 82.6703C254.695 82.4917 254.75 82.2566 254.835 81.9602C255.005 81.3659 255.276 80.5962 255.661 79.6542L251.744 78.0258C251.324 79.0561 250.994 79.9761 250.769 80.7625C250.557 81.505 250.389 82.2853 250.402 82.9759L254.63 82.9361ZM255.646 79.6891C255.597 79.8048 255.522 79.9016 255.447 79.9685C255.378 80.0294 255.338 80.0393 255.373 80.0258C255.409 80.0115 255.499 79.9823 255.665 79.957C255.829 79.932 256.044 79.9143 256.319 79.9117L256.24 75.6848C255.412 75.6926 254.553 75.7893 253.784 76.094C252.97 76.4164 252.181 77.0094 251.759 77.9909L255.646 79.6891ZM256.319 79.9117C256.585 79.9092 256.771 79.9232 256.891 79.9406C257.018 79.959 257.022 79.9741 256.955 79.9436C256.882 79.9104 256.681 79.8021 256.497 79.5509C256.299 79.2802 256.223 78.9826 256.218 78.7461L260.446 78.7062C260.435 78.1541 260.271 77.581 259.901 77.0751C259.545 76.5887 259.088 76.2854 258.674 76.0976C257.904 75.7481 257.019 75.6775 256.24 75.6848L256.319 79.9117ZM256.218 78.7461C256.214 78.516 256.254 78.3585 256.254 78.3576C256.262 78.3268 256.264 78.324 256.252 78.3595C256.229 78.4293 256.185 78.5498 256.112 78.7244C255.97 79.0681 255.767 79.5145 255.541 79.9833C255.317 80.4485 255.082 80.9128 254.885 81.2868C254.785 81.4742 254.7 81.6312 254.632 81.7504C254.553 81.8884 254.529 81.9217 254.546 81.8973L258.002 84.3648C258.312 83.9275 258.906 82.7756 259.354 81.8448C259.597 81.34 259.838 80.8153 260.022 80.3698C260.113 80.1498 260.202 79.9212 260.271 79.7099C260.306 79.6038 260.455 79.1746 260.446 78.7062L256.218 78.7461ZM254.524 81.9286C254.529 81.9211 254.541 81.9067 254.558 81.8926C254.575 81.8789 254.582 81.8772 254.57 81.8827C254.539 81.8962 254.4 81.9471 254.076 81.9501L254.155 86.177C255.641 86.163 257.104 85.6792 258.023 84.3335L254.524 81.9286ZM254.076 81.9501C253.936 81.9515 253.878 81.9385 253.882 81.9393C253.886 81.9403 253.987 81.9639 254.126 82.0603C254.276 82.1653 254.421 82.3233 254.52 82.5233C254.613 82.7135 254.629 82.8687 254.63 82.9361L250.402 82.9759C250.42 83.9122 250.812 84.8805 251.727 85.5192C252.517 86.0701 253.43 86.1838 254.155 86.177L254.076 81.9501Z" fill="black" mask="url(#path-13-outside-4_74_305)"/>
</svg>
