<svg width="173" height="106" viewBox="0 0 173 106" fill="none" xmlns="http://www.w3.org/2000/svg">
<path d="M52.572 12.4548C51.8464 23.9173 38.5116 16.3934 34.3562 13.6785C38.1428 18.4251 41.636 27.5951 23.321 24.5382C28.2018 30.5996 25.0037 34.3897 15.9445 32.7009C20.2806 36.5688 20.3837 44.2852 7.12951 40.4449C14.309 44.4513 12.8212 51.5979 3.04383 50.9789C7.45928 53.2417 14.8286 59.2522 8.9821 65.1916C18.0133 68.1156 14.0237 74.7814 10.313 79.3893C19.9936 77.0965 27.0594 73.1531 26.2853 85.3817C30.1582 83.6898 38.385 78.9478 37.4598 93.561C46.6291 83.6256 53.5363 89.3208 54.6853 94.6515C59.0054 92.1577 68.2722 91.3607 71.5025 99.037C79.2233 91.6665 87.0576 96.7471 90.0097 100.209C98.5021 92.8594 106.087 97.4906 108.865 100.572C112.428 93.6026 120.583 93.9344 125.187 96.3475C128.253 92.529 135.752 91.4817 141.325 97.3692C139.766 88.1936 148.009 88.8446 152.326 90.317C145.99 73.8653 160.3 74.7251 166.367 75.1553C159.374 72.9138 158.975 60.4355 169.636 54.0537C159.442 51.6373 161.278 41.9076 163.469 37.3449C157.143 37.5829 149.041 35.5375 151.783 26.8996C143.59 26.3809 140.959 24.0859 144.338 13.7884C133.074 21.8337 122.901 18.6317 121.426 14.4885C118.614 16.9981 111.836 19.9015 107.213 11.4381C100.724 18.5895 93.7992 14.5224 92.7147 10.5202C89.1847 14.2527 83.2878 14.3994 80.8465 5.41365C81.3732 11.9528 77.9238 15.0798 69.4413 11.1974C70.7523 17.323 61.0117 19.3222 52.572 12.4548Z" fill="white" stroke="black" stroke-width="2" stroke-linecap="round" stroke-linejoin="round"/>
<path d="M46.6185 37.1176C46.4942 36.8787 46.468 36.6405 46.5115 36.4308C46.5403 36.319 46.6958 36.1102 46.9781 35.8042C47.1476 35.5954 47.3451 35.3869 47.5426 35.1783C48.291 34.3017 49.0829 33.2154 49.9184 31.9195L52.057 28.5329C52.3118 28.1568 52.6352 27.9631 53.0552 27.9662C53.2512 27.9676 53.3765 28.0665 53.445 28.263C53.4997 28.4454 53.526 28.6836 53.5518 28.9778C53.5905 29.4401 53.5886 29.6921 53.6024 29.7202C53.8538 31.7381 54.2032 33.7427 54.9455 35.6381C55.0411 35.9608 55.0816 36.1711 55.0529 36.2689C54.9662 36.6463 54.3613 37.0339 53.9833 37.0311C53.8013 37.0298 53.6488 36.8327 53.5537 36.426C53.4998 36.1456 53.4598 35.8653 53.4199 35.571C51.9756 35.8825 50.167 36.2334 48.0223 36.5958C47.612 37.1949 47.3159 37.4867 47.1199 37.4853C46.9099 37.4838 46.7428 37.3565 46.6185 37.1176ZM49.041 35.1332C50.5267 34.906 51.901 34.5939 53.1781 34.1692C53.0309 33.2301 52.8032 31.8144 52.4668 29.9359C51.9577 30.6463 50.8251 32.3741 49.041 35.1332ZM56.2844 36.8239C56.2435 36.6696 56.4617 35.5511 56.9246 33.4964C57.2726 31.8469 57.5614 30.631 57.7631 29.8484C57.8929 29.3313 58.0073 28.9962 58.1204 28.843C58.3048 28.5223 58.614 28.3566 59.034 28.3596C59.314 28.3616 59.4393 28.4606 59.3817 28.6701C59.396 28.6282 59.2532 29.0192 58.9953 29.8294C58.3795 31.7289 57.8891 33.6994 57.7067 35.6862C58.4627 35.6917 59.1911 35.6409 59.892 35.52C60.0181 35.5069 60.537 35.3847 61.4485 35.1813C62.2058 35.0048 62.6965 34.9104 62.8785 34.9117C63.1725 34.9139 63.2975 35.0408 63.2256 35.3062C63.139 35.6696 62.8848 35.9618 62.4632 36.1827C61.2267 36.8038 58.7175 37.2335 57.3315 37.2235C56.7015 37.2189 56.3665 37.0905 56.2844 36.8239ZM65.0072 36.4952C64.6893 35.9189 64.6529 35.1486 64.8977 34.2124C65.7767 30.7747 69.5476 28.198 73.0335 28.2233C73.3555 28.2257 73.5371 28.283 73.6062 28.3955C73.6197 28.4656 73.6043 28.6615 73.5178 29.0109C73.4746 29.1645 73.4591 29.3744 73.4712 29.6405C73.4832 29.9206 73.4816 30.1306 73.4385 30.2843C73.3523 30.5917 72.5933 30.9922 72.2854 30.99C72.1454 30.9889 72.0626 30.8203 72.037 30.4841C72.0375 30.4141 72.0533 30.1762 72.0561 29.7843C70.5144 30.0111 69.2087 30.5196 68.1528 31.3239C67.2941 31.9757 66.2359 33.0881 65.9482 34.15C65.8043 34.695 65.8991 35.1297 66.2187 35.468C66.5382 35.8063 66.971 35.9775 67.517 35.9814C68.8889 35.9914 71.3733 35.1274 72.4156 34.253C72.641 34.0726 72.7681 33.9195 72.7968 33.8217C72.8687 33.5563 72.5757 33.4141 71.9458 33.4096C70.7838 33.4011 69.2276 33.6978 68.0636 33.9694C67.7271 34.0369 67.4889 34.0632 67.3209 34.062C67.1109 34.0604 67.0277 33.9478 67.0852 33.7382C67.1862 33.333 67.7918 32.8334 68.1571 32.668C68.7894 32.3506 71.0025 32.1987 71.7865 32.2044C73.5785 32.2174 74.3878 32.5873 74.2005 33.3139C74.0565 33.8729 73.3936 34.5401 72.2258 35.3296C70.0734 36.756 68.3043 37.4572 66.8903 37.4469C65.9803 37.4403 65.3526 37.1277 65.0072 36.4952ZM75.3772 37.2566C74.9712 37.2536 74.8328 37.0426 74.9479 36.6094C75.2647 35.3937 75.5115 34.1915 75.7723 32.9753C76.0334 31.7312 76.2646 30.7389 76.4519 30.0122C76.5959 29.4532 76.7247 29.0762 76.8661 28.8812C77.0923 28.5748 77.4574 28.4235 77.9614 28.4271C78.2554 28.4293 78.3667 28.5281 78.3232 28.7378C78.3234 28.7098 78.1805 29.1007 77.8948 29.8967C77.5664 30.7763 77.1934 32.0056 76.7897 33.6128C76.4729 34.8285 76.3561 35.4857 76.4533 35.5984C76.4951 35.6267 76.551 35.6411 76.649 35.6418C77.489 35.6479 80.1849 34.5614 81.0699 34.1619C81.418 32.4843 81.7361 31.1006 82.01 30.0106C82.2399 29.2002 82.4414 28.4457 83.4494 28.453C83.7994 28.4555 83.9386 28.5686 83.895 28.7782C83.809 29.0576 83.4515 30.0911 83.3382 30.2722C82.7516 32.004 82.2768 33.7646 82.0116 35.5827C81.9225 36.2821 81.8637 36.6597 81.8492 36.7296C81.7627 37.079 81.201 37.3129 80.823 37.3102C80.599 37.3085 80.4876 37.2237 80.4607 37.0695C80.4611 37.0135 80.5486 36.5381 80.7512 35.6296C79.585 36.1951 76.6092 37.2655 75.3772 37.2566ZM83.3894 37.4828C83.2082 37.3695 83.1677 37.1592 83.2539 36.8518C83.3407 36.4744 83.6361 36.2806 84.1261 36.2841C84.2801 36.2852 84.6159 36.3157 84.7419 36.3166C85.0219 36.3186 85.288 36.3066 85.4981 36.2941C85.7601 34.91 86.2232 32.8413 86.9012 30.0881C86.0027 30.4316 85.4974 30.6099 85.3714 30.609C85.1894 30.6077 85.0782 30.4949 85.0378 30.2706C84.9971 30.0883 85.0125 29.9064 85.056 29.6967C85.1567 29.3194 85.3547 29.0409 85.6639 28.8891C86.7036 28.3786 87.9094 28.1354 89.2534 28.1452C89.7573 28.1488 90.121 28.1935 90.3445 28.2651C90.7217 28.3798 90.916 28.6193 90.9554 28.9696C90.9688 29.0536 90.9542 29.1375 90.9396 29.2214C90.9109 29.3192 90.8824 29.389 90.8401 29.4307C90.7413 29.542 90.5167 29.6104 90.1666 29.6358C89.4103 29.6723 88.7519 29.7236 88.1915 29.7755C87.5045 31.8426 86.9992 33.9389 86.7594 36.1073C86.8155 36.0937 87.1661 36.0122 87.8395 35.8351C88.3024 35.7125 88.6668 35.6591 88.9327 35.661C89.1427 35.6626 89.2261 35.7472 89.1828 35.9289C89.1109 36.1943 88.7439 36.5977 88.4628 36.7496C87.4087 37.316 85.3205 37.6088 84.1165 37.6001C83.7805 37.5976 83.5288 37.5538 83.3894 37.4828ZM90.905 37.3834C90.8501 37.229 91.0828 36.0407 91.6028 33.8324C91.3235 33.7324 91.2413 33.4937 91.3278 33.1444C91.4141 32.823 91.6258 32.6005 91.9206 32.4907C91.9786 32.2111 92.5149 29.6949 92.5995 29.6115C92.685 29.4021 92.7982 29.2489 92.981 29.1383C93.0654 29.0829 93.2759 29.0144 93.5846 28.9187C94.0896 28.7823 94.5946 28.646 95.0997 28.4956C95.6748 28.3458 96.1653 28.2794 96.5993 28.2825L97.0613 28.2859C97.4534 28.2747 97.7192 28.2907 97.8589 28.3337C98.1104 28.4055 98.3194 28.547 98.4579 28.7581C98.5823 28.969 98.6369 29.1654 98.5796 29.347C98.5219 29.5845 98.2689 29.7227 97.8066 29.7613C96.6999 29.8513 95.9994 29.9162 95.691 29.97C95.0883 30.0636 94.3728 30.2684 93.5585 30.5845C93.3868 31.0873 93.229 31.6181 93.099 32.1632C94.9366 31.6725 96.5344 31.4321 97.9204 31.4422C98.1863 31.4442 98.3962 31.4597 98.536 31.4887C98.7179 31.504 98.8993 31.5893 99.0803 31.7307C99.2752 31.8861 99.3579 32.0547 99.3147 32.2224C99.2714 32.4041 99.0045 32.5281 98.5 32.5945C96.0341 32.8426 94.1276 33.1787 92.7526 33.5887C92.55 34.4973 92.4036 35.3782 92.3274 36.2317C92.9994 36.2366 93.784 36.1583 94.7092 35.997L97.1488 35.5107C97.303 35.4838 97.4151 35.4707 97.4991 35.4713C97.7931 35.4734 97.9181 35.6003 97.8463 35.8518C97.4848 37.4312 92.9044 37.7479 91.6864 37.7391C91.2524 37.7359 90.9873 37.622 90.905 37.3834ZM99.5595 37.6843C99.5321 37.6001 99.7923 36.482 100.284 34.3435C100.732 32.3587 100.993 31.1705 101.094 30.7793C101.266 30.1365 101.395 29.7454 101.48 29.606C101.693 29.2576 102.072 29.0923 102.604 29.0962C102.8 29.0976 102.926 29.1545 102.995 29.253L106.329 34.8074C106.4 34.5699 106.701 33.5921 107.204 31.8877C107.361 31.3988 107.505 30.8958 107.649 30.3929C107.835 29.8202 108.006 29.3314 108.163 28.9266C108.335 28.4938 108.7 28.2725 109.274 28.2766C109.54 28.2786 109.623 28.4192 109.551 28.6987C109.537 28.7545 109.465 28.964 109.295 29.3128C108.612 30.8339 108.054 32.4539 107.607 34.2007C107.434 34.8574 107.304 35.4165 107.231 35.864C107.23 35.934 107.201 36.0878 107.186 36.2977C107.156 36.4795 107.141 36.6334 107.113 36.7451C106.997 37.2063 106.617 37.4416 105.987 37.437C105.722 37.4351 105.556 37.0838 105.418 36.7888L102.207 31.6554C101.692 33.2197 101.26 34.8546 101.038 36.491C101.052 36.5331 101.037 36.673 101.021 36.9249C101.006 37.1068 100.977 37.2466 100.948 37.3584C100.847 37.7217 100.272 37.9415 99.9357 37.939C99.6977 37.9373 99.5863 37.8525 99.5595 37.6843ZM113.896 37.5365C113.814 37.2698 113.787 37.0457 113.831 36.864C113.859 36.7662 113.959 36.5709 114.157 36.2923C114.312 36.1114 114.44 35.9164 114.581 35.7214C115.175 34.8437 115.813 33.7843 116.466 32.571C117.034 31.4971 117.588 30.4371 118.155 29.3632C118.368 28.9867 118.608 28.7925 118.902 28.7946C119.056 28.7957 119.152 28.9784 119.178 29.3286C119.162 29.5805 119.16 29.8325 119.158 30.0845C119.149 31.3865 119.263 33.0393 119.528 35.0153C120.265 33.8306 121.031 32.4222 121.855 30.7901C122.068 30.3296 122.424 29.6322 122.892 28.7256C123.091 28.349 123.33 28.1547 123.61 28.1568C123.792 28.1581 123.902 28.4109 123.899 28.9149L123.849 29.9226C123.791 32.1482 123.876 33.9689 124.09 35.3845C124.196 36.2252 124.249 36.6596 124.234 36.7015C124.148 37.0649 123.542 37.6065 123.164 37.6038C123.08 37.6032 123.024 37.5608 122.968 37.4904C122.913 37.378 122.864 36.4256 122.793 34.633C122.759 33.5407 122.725 32.4485 122.691 31.3702C122.081 32.5138 121.442 33.6572 120.804 34.8146C119.796 36.6973 119.229 37.7012 119.116 37.7984C118.989 37.9235 118.877 37.9927 118.779 37.9919C118.597 37.9906 118.458 37.8496 118.376 37.569C118.322 37.3026 118.309 37.0645 118.367 36.8409L118.41 36.7152C118.372 36.1969 118.272 34.5302 118.138 31.6871C117.585 32.6631 116.593 34.392 115.147 36.8735C115.047 37.0828 114.863 37.3755 114.608 37.7656C114.495 37.9048 114.383 37.974 114.285 37.9733C114.117 37.9721 113.992 37.8312 113.896 37.5365ZM125.713 37.6363C125.658 37.4819 125.89 36.2936 126.41 34.0853C126.131 33.9853 126.049 33.7466 126.135 33.3973C126.222 33.0759 126.433 32.8534 126.728 32.7436C126.786 32.464 127.323 29.9478 127.407 29.8644C127.493 29.655 127.606 29.5018 127.789 29.3912C127.873 29.3358 128.084 29.2673 128.392 29.1716C128.897 29.0352 129.402 28.8989 129.907 28.7486C130.482 28.5987 130.973 28.5323 131.407 28.5354L131.869 28.5388C132.261 28.5276 132.527 28.5436 132.667 28.5866C132.918 28.6584 133.127 28.7999 133.266 29.011C133.39 29.2219 133.445 29.4183 133.387 29.5999C133.33 29.8374 133.077 29.9756 132.614 30.0143C131.508 30.1042 130.807 30.1691 130.499 30.2229C129.896 30.3165 129.18 30.5213 128.366 30.8374C128.194 31.3402 128.037 31.871 127.907 32.4161C129.744 31.9254 131.342 31.6851 132.728 31.6951C132.994 31.6971 133.204 31.7126 133.344 31.7416C133.526 31.7569 133.707 31.8422 133.888 31.9836C134.083 32.139 134.166 32.3076 134.122 32.4753C134.079 32.657 133.812 32.781 133.308 32.8474C130.842 33.0955 128.935 33.4316 127.56 33.8416C127.358 34.7502 127.211 35.6311 127.135 36.4846C127.807 36.4895 128.592 36.4112 129.517 36.2499L131.956 35.7636C132.111 35.7367 132.223 35.7236 132.307 35.7242C132.601 35.7263 132.726 35.8532 132.654 36.1047C132.293 37.6841 127.712 38.0008 126.494 37.992C126.06 37.9888 125.795 37.8749 125.713 37.6363ZM63.6141 51.4295C63.2963 50.8532 63.2456 50.1248 63.4761 49.2304C64.3413 45.7646 68.1265 43.1321 71.6404 43.1576C71.9904 43.1601 72.186 43.2176 72.2271 43.3439C72.2546 43.4141 72.211 43.6377 72.1103 44.001C72.0814 44.1268 72.066 44.3227 72.0921 44.5749C72.1043 44.827 72.103 45.009 72.0741 45.1348C71.9873 45.5122 71.2563 45.9269 70.8923 45.9242C70.7383 45.9231 70.6555 45.7545 70.6299 45.4323C70.6596 45.1945 70.6612 44.9705 70.663 44.7325C68.9251 44.9859 67.5066 45.5916 66.3654 46.5774C65.3791 47.4522 64.771 48.2878 64.5692 49.0844C64.4251 49.6433 64.5338 50.1061 64.9092 50.4589C65.2429 50.7833 65.7177 50.9408 66.3057 50.945C67.5097 50.9538 69.1532 50.1957 70.249 49.6857C70.8671 49.3961 71.2182 49.2447 71.2882 49.2452C71.4702 49.2465 71.4969 49.4287 71.4102 49.7921C71.3671 49.9458 71.212 50.0987 70.9587 50.2788C70.7479 50.3893 70.5511 50.4999 70.3541 50.6244C68.3576 51.8 66.7153 52.3761 65.4414 52.3668C64.5594 52.3604 63.9596 52.048 63.6141 51.4295ZM73.7201 51.3209C73.0682 50.4762 72.8938 49.4389 73.2248 48.1952C73.9315 45.3443 77.141 42.9596 80.0669 42.9808C81.3128 42.9899 82.2758 43.4169 82.9416 44.2617C83.6074 45.1206 83.7679 46.1578 83.4508 47.4015C82.73 50.2664 79.5067 52.637 76.5808 52.6157C75.3208 52.6066 74.3719 52.1797 73.7201 51.3209ZM74.8374 47.8429C74.5782 48.8351 74.684 49.6899 75.1546 50.4353C75.625 51.2088 76.3642 51.5921 77.3442 51.5993C79.3321 51.6137 81.2357 49.7515 81.6972 47.8928C81.9564 46.9006 81.8507 46.0459 81.3801 45.3004C80.8957 44.5269 80.1704 44.1436 79.1905 44.1365C77.1885 44.1219 75.3129 45.9843 74.8374 47.8429ZM83.9804 52.4175C83.9113 52.291 84.3027 50.4598 85.1824 46.9241C85.0855 46.7694 85.087 46.5594 85.1449 46.3078C85.2456 45.9305 85.7253 45.416 86.5841 44.7642C87.9354 43.766 89.185 43.2711 90.347 43.2795C91.173 43.2855 91.815 43.5562 92.3011 44.0917C92.8012 44.6414 92.9502 45.3285 92.7484 46.125C92.0425 48.864 88.017 49.8708 85.5788 50.175C85.564 50.2869 85.5337 50.5947 85.4881 51.0984C85.4713 51.4763 85.4271 51.784 85.3693 52.0216C85.2827 52.385 84.6651 52.6045 84.3291 52.602C84.1471 52.6007 84.0355 52.5439 83.9804 52.4175ZM85.7978 48.9306C87.9823 48.8765 89.469 48.5093 90.2719 47.8291C90.8354 47.3572 91.1607 46.8975 91.276 46.4503C91.4057 45.9333 91.2408 45.5121 90.7532 45.1725C90.3495 44.8616 89.8886 44.7042 89.3426 44.7002C88.5447 44.6945 87.6036 45.1076 86.5617 45.9261C86.2604 46.9179 86.0152 47.9102 85.7978 48.9306ZM92.8231 52.5517C92.6419 52.4384 92.6014 52.2281 92.6877 51.9207C92.7744 51.5434 93.0698 51.3495 93.5598 51.3531C93.7138 51.3542 94.0496 51.3846 94.1756 51.3855C94.4556 51.3876 94.7217 51.3755 94.9318 51.363C95.1939 49.9789 95.6569 47.9102 96.3349 45.1571C95.4364 45.5005 94.9311 45.6789 94.8051 45.678C94.6231 45.6766 94.5119 45.5638 94.4715 45.3395C94.4309 45.1572 94.4462 44.9753 94.4897 44.7656C94.5905 44.3884 94.7885 44.1098 95.0976 43.958C96.1373 43.4476 97.3431 43.2043 98.6871 43.2141C99.1911 43.2178 99.5548 43.2624 99.7783 43.334C100.155 43.4488 100.35 43.6882 100.389 44.0385C100.403 44.1226 100.388 44.2065 100.373 44.2904C100.345 44.3882 100.316 44.458 100.274 44.4997C100.175 44.6109 99.9505 44.6793 99.6003 44.7048C98.844 44.7413 98.1856 44.7925 97.6252 44.8444C96.9382 46.9115 96.4329 49.0079 96.1932 51.1762C96.2493 51.1626 96.5999 51.0811 97.2732 50.904C97.7361 50.7814 98.1005 50.728 98.3665 50.73C98.5765 50.7315 98.6599 50.8161 98.6165 50.9978C98.5446 51.2633 98.1777 51.6666 97.8966 51.8186C96.8424 52.3849 94.7542 52.6778 93.5503 52.669C93.2143 52.6666 92.9626 52.6228 92.8231 52.5517ZM99.5823 52.5029C99.4581 52.2639 99.4318 52.0257 99.4753 51.8161C99.5041 51.7043 99.6597 51.4954 99.9419 51.1894C100.111 50.9807 100.309 50.7721 100.506 50.5635C101.255 49.6869 102.047 48.6007 102.882 47.3047L105.021 43.9181C105.276 43.542 105.599 43.3483 106.019 43.3514C106.215 43.3528 106.34 43.4517 106.409 43.6482C106.464 43.8306 106.49 44.0688 106.516 44.363C106.554 44.8253 106.552 45.0773 106.566 45.1054C106.818 47.1233 107.167 49.1279 107.909 51.0233C108.005 51.346 108.045 51.5563 108.017 51.6541C107.93 52.0315 107.325 52.4191 106.947 52.4164C106.765 52.415 106.613 52.2179 106.518 51.8112C106.464 51.5308 106.424 51.2505 106.384 50.9562C104.939 51.2677 103.131 51.6186 100.986 51.981C100.576 52.5801 100.28 52.8719 100.084 52.8705C99.8737 52.869 99.7066 52.7418 99.5823 52.5029ZM102.005 50.5184C103.491 50.2912 104.865 49.9792 106.142 49.5544C105.995 48.6153 105.767 47.1996 105.431 45.3212C104.922 46.0315 103.789 47.7593 102.005 50.5184ZM110.82 49.8124C110.456 49.8098 110.288 49.7246 110.346 49.543C110.605 48.5228 110.819 47.9784 110.974 47.8955C111.016 47.8678 111.422 47.8567 112.178 47.8622C113.746 47.8736 114.854 47.6437 115.501 47.1864C116.008 46.826 116.304 46.4642 116.405 46.1009C116.535 45.5838 116.314 45.1342 115.742 44.7941C115.268 44.4966 114.723 44.3666 114.135 44.3624C113.281 44.3562 112.213 44.8944 111.482 45.3091C111.103 45.5164 110.878 45.6407 110.808 45.6402C110.682 45.6393 110.641 45.513 110.713 45.2755C110.785 44.954 110.955 44.6893 111.222 44.4952C112.236 43.7186 113.99 43.1573 115.264 43.1665C116.146 43.1729 116.914 43.4165 117.527 43.897C118.223 44.4481 118.47 45.1359 118.254 45.9743C118.124 46.4914 117.799 46.9371 117.25 47.3671C116.067 48.2825 114.229 48.8292 111.75 48.9652C111.593 49.314 111.494 49.5093 111.437 49.5789C111.296 49.7319 111.086 49.8144 110.82 49.8124ZM109.566 52.8554C109.23 52.853 109.09 52.7399 109.148 52.5304C109.249 52.1531 109.363 51.8179 109.491 51.5388C109.591 51.3295 109.857 51.2335 110.319 51.2368C110.711 51.2397 110.893 51.297 110.864 51.4228C110.835 51.5346 110.296 52.5387 110.211 52.6501C110.098 52.7893 109.874 52.8576 109.566 52.8554Z" fill="black"/>
<path d="M22.7963 67.0947C22.7416 66.9123 23.1185 65.137 23.941 61.7689C23.6335 61.6967 23.4824 61.3036 23.5687 60.9822C23.612 60.8005 23.7676 60.5916 24.0073 60.3554C25.6565 58.8133 27.2441 58.0548 28.77 58.0659C29.638 58.0722 30.3222 58.3292 30.8506 58.823C31.4066 59.3731 31.5695 60.0743 31.3533 60.9267C30.777 63.1766 27.8012 64.233 25.7682 64.6383C26.6877 65.261 27.4967 65.6728 28.1954 65.8599C28.2933 65.8746 28.4051 65.9035 28.5588 65.9466C28.6983 66.0176 28.7677 66.1021 28.7247 66.2278C28.667 66.4654 28.3012 66.7147 28.0212 66.7127C27.0132 66.7054 25.1699 66.048 24.3058 65.5097C24.2769 65.6355 24.2614 65.8453 24.2453 66.1392C24.2433 66.4052 24.2137 66.629 24.1706 66.7827C24.0699 67.146 23.5226 67.324 23.1866 67.3216C22.9626 67.3199 22.8232 67.2489 22.7963 67.0947ZM24.5996 63.6217C26.7279 63.5812 28.2005 63.2279 29.0035 62.5477C29.5529 62.0757 29.8924 61.6021 30.0077 61.141C30.1374 60.6379 29.9864 60.2168 29.541 59.8635C29.1511 59.5667 28.6763 59.4093 28.1303 59.4053C27.3323 59.3995 26.4053 59.8128 25.3633 60.6312C25.0761 61.6232 24.8169 62.6153 24.5996 63.6217ZM31.8303 67.1464C31.7754 66.992 32.0081 65.8036 32.5281 63.5953C32.2488 63.4953 32.1666 63.2567 32.2531 62.9073C32.3394 62.586 32.5511 62.3635 32.8459 62.2536C32.9039 61.974 33.4402 59.4579 33.5248 59.3745C33.6103 59.1651 33.7235 59.0119 33.9063 58.9012C33.9907 58.8458 34.2012 58.7774 34.5099 58.6816C35.0149 58.5453 35.5199 58.4089 36.025 58.2586C36.6001 58.1088 37.0906 58.0424 37.5246 58.0455L37.9866 58.0489C38.3787 58.0377 38.6445 58.0536 38.7842 58.0967C39.0357 58.1685 39.2447 58.31 39.3832 58.521C39.5076 58.7319 39.5622 58.9283 39.5049 59.1099C39.4472 59.3475 39.1942 59.4857 38.7319 59.5243C37.6252 59.6143 36.9247 59.6792 36.6163 59.7329C36.0136 59.8266 35.2981 60.0314 34.4838 60.3475C34.3121 60.8502 34.1543 61.3811 34.0243 61.9262C35.8619 61.4355 37.4597 61.1951 38.8457 61.2052C39.1116 61.2071 39.3215 61.2226 39.4613 61.2517C39.6432 61.267 39.8246 61.3523 40.0056 61.4936C40.2005 61.649 40.2832 61.8176 40.24 61.9853C40.1967 62.167 39.9298 62.2911 39.4253 62.3574C36.9594 62.6055 35.0529 62.9417 33.6779 63.3517C33.4753 64.2602 33.3289 65.1412 33.2527 65.9947C33.9247 65.9996 34.7093 65.9213 35.6345 65.76L38.0741 65.2737C38.2283 65.2468 38.3404 65.2336 38.4244 65.2342C38.7184 65.2364 38.8434 65.3633 38.7716 65.6148C38.4101 67.1942 33.8297 67.5109 32.6117 67.5021C32.1777 67.4989 31.9126 67.385 31.8303 67.1464ZM40.6959 67.2948C40.6269 67.1683 41.0182 65.3371 41.8979 61.8014C41.801 61.6467 41.8025 61.4367 41.8604 61.1851C41.9611 60.8078 42.4409 60.2933 43.2996 59.6415C44.6509 58.6433 45.9005 58.1484 47.0625 58.1568C47.8885 58.1628 48.5305 58.4335 49.0167 58.969C49.5167 59.5187 49.6657 60.2058 49.4639 61.0023C48.758 63.7413 44.7326 64.7481 42.2943 65.0523C42.2795 65.1642 42.2492 65.472 42.2036 65.9757C42.1868 66.3536 42.1426 66.6613 42.0849 66.8989C41.9982 67.2623 41.3806 67.4818 41.0446 67.4793C40.8626 67.478 40.751 67.4212 40.6959 67.2948ZM42.5133 63.8079C44.6978 63.7538 46.1845 63.3866 46.9874 62.7064C47.5509 62.2345 47.8762 61.7748 47.9915 61.3276C48.1212 60.8106 47.9563 60.3894 47.4688 60.0498C47.065 59.7389 46.6041 59.5815 46.0582 59.5775C45.2602 59.5717 44.3191 59.9849 43.2772 60.8034C42.976 61.7952 42.7307 62.7875 42.5133 63.8079ZM49.5386 67.429C49.3574 67.3157 49.317 67.1054 49.4032 66.798C49.4899 66.4207 49.7853 66.2268 50.2753 66.2304C50.4293 66.2315 50.7651 66.2619 50.8911 66.2628C51.1711 66.2649 51.4372 66.2528 51.6473 66.2403C51.9094 64.8562 52.3724 62.7875 53.0504 60.0344C52.1519 60.3778 51.6466 60.5562 51.5206 60.5553C51.3386 60.5539 51.2274 60.4411 51.187 60.2168C51.1464 60.0345 51.1617 59.8526 51.2052 59.6429C51.306 59.2657 51.504 58.9871 51.8131 58.8353C52.8528 58.3249 54.0586 58.0816 55.4026 58.0914C55.9066 58.0951 56.2703 58.1397 56.4938 58.2113C56.8709 58.3261 57.0652 58.5655 57.1047 58.9158C57.118 58.9999 57.1034 59.0838 57.0888 59.1677C57.0601 59.2655 57.0316 59.3353 56.9893 59.377C56.8905 59.4882 56.666 59.5566 56.3158 59.5821C55.5595 59.6186 54.9011 59.6698 54.3407 59.7217C53.6537 61.7888 53.1484 63.8852 52.9087 66.0535C52.9648 66.0399 53.3154 65.9584 53.9887 65.7813C54.4516 65.6587 54.816 65.6053 55.082 65.6073C55.292 65.6088 55.3754 65.6934 55.332 65.8751C55.2601 66.1406 54.8932 66.5439 54.6121 66.6959C53.5579 67.2622 51.4697 67.5551 50.2658 67.5463C49.9298 67.5439 49.6781 67.5001 49.5386 67.429ZM57.9866 60.4062C57.9179 60.2237 57.9054 60.0136 57.9629 59.804C58.0637 59.4268 58.2897 59.1484 58.6548 58.9971C59.8626 58.4878 61.3204 58.2464 63.0423 58.2589C63.5603 58.2627 63.966 58.3076 64.2175 58.3795C64.6365 58.5085 64.8869 58.7343 64.9544 59.0848C64.9676 59.1829 64.9811 59.253 64.9666 59.3229C64.9379 59.4207 64.8954 59.4904 64.839 59.546C64.7122 59.6571 64.4457 59.7251 64.0395 59.7502C63.2553 59.7725 62.513 59.8091 61.7985 59.8739C61.182 61.8715 60.5931 63.9253 60.4098 66.024C60.3493 66.6396 60.3189 66.9754 60.3046 67.0172C60.2182 67.3526 59.5728 67.5439 59.2648 67.5417C59.0548 67.5402 58.9573 67.4695 58.9164 67.3152C58.8903 67.049 59.4258 64.6448 60.5368 60.1028C60.1719 60.2261 59.807 60.3495 59.4422 60.4588C58.8949 60.6368 58.5723 60.7185 58.4183 60.7174C58.2083 60.7159 58.069 60.6168 57.9866 60.4062ZM64.6007 66.4464C63.9489 65.6017 63.7744 64.5644 64.1054 63.3208C64.8122 60.4698 68.0216 58.0851 70.9475 58.1063C72.1935 58.1154 73.1564 58.5424 73.8223 59.3873C74.488 60.2461 74.6485 61.2833 74.3315 62.527C73.6106 65.3919 70.3873 67.7625 67.4614 67.7413C66.2014 67.7321 65.2525 67.3052 64.6007 66.4464ZM65.718 62.9685C65.4588 63.9606 65.5646 64.8154 66.0352 65.5608C66.5056 66.3343 67.2448 66.7177 68.2248 66.7248C70.2128 66.7392 72.1163 64.877 72.5779 63.0183C72.8371 62.0262 72.7313 61.1714 72.2607 60.4259C71.7763 59.6524 71.0511 59.2691 70.0711 59.262C68.0691 59.2475 66.1936 61.1099 65.718 62.9685ZM73.366 69.3102C73.072 69.3081 72.7934 69.124 72.8654 68.8446C72.8943 68.7188 72.9935 68.5515 73.1632 68.3287C73.3329 68.0919 73.6018 67.6879 73.9702 67.0885C74.31 66.559 74.579 66.1549 74.805 65.8766C74.9886 65.6539 75.2135 65.5435 75.4794 65.5455C75.6474 65.5467 75.8011 65.5898 75.9405 65.6748C76.0937 65.7879 76.1487 65.9283 76.1196 66.0821C76.0479 66.3056 74.1826 68.6861 73.8722 69.0199C73.7027 69.2147 73.52 69.3113 73.366 69.3102ZM83.5259 68.25C83.4014 68.0391 83.3332 67.7866 83.3492 67.5207C83.3511 67.2547 83.4933 66.9477 83.8038 66.614C83.959 66.4471 84.2129 66.1829 84.5234 65.8352C85.3561 64.9172 86.2045 63.7613 87.1387 62.3681C87.6767 61.546 88.4694 60.3477 89.5173 58.7173C89.8147 58.2434 90.2225 58.0084 90.7544 58.0122C91.0484 58.0144 91.2434 58.1558 91.3255 58.4224C91.3529 58.5066 91.365 58.7587 91.3898 59.2069C91.6363 61.8828 92.0266 64.0556 92.5745 65.7117C92.6429 65.9362 92.7253 66.1608 92.7937 66.3853C92.9036 66.6661 92.958 66.8905 92.9428 67.0584C92.9387 67.6184 92.025 68.1297 91.521 68.1261C91.255 68.1241 91.0744 67.9268 90.9653 67.534C90.9384 67.3798 90.8706 67.0713 90.818 66.6089C89.3036 66.9339 87.467 67.2846 85.2663 67.6466C84.8135 68.3014 84.4471 68.6347 84.1671 68.6327C83.9151 68.6308 83.706 68.5033 83.5259 68.25ZM89.9641 60.8066C89.4691 61.489 88.3794 63.1051 86.6808 65.6548C88.0545 65.4268 89.3447 65.1282 90.5515 64.7449C90.4183 63.806 90.2178 62.5025 89.9641 60.8066ZM94.0799 67.6687C94.0688 67.2766 94.3447 65.9065 94.936 63.5308C95.4993 61.1548 95.8734 59.7575 96.0446 59.3247C96.3011 58.7106 96.7512 58.4198 97.3952 58.4245C97.7592 58.4271 97.9541 58.5686 97.924 58.8624C97.9371 58.9885 97.8652 59.2539 97.7364 59.631C96.8235 61.9484 96.2614 64.1704 96.0079 66.2966C97.1981 66.2773 98.3753 66.1178 99.5394 65.8323L100.956 65.5066C101.138 65.4799 101.278 65.4529 101.39 65.4537C101.768 65.4565 101.963 65.5979 101.975 65.878C101.848 67.9351 96.5814 68.3029 95.1114 68.2922C94.4114 68.2871 94.077 68.0747 94.0799 67.6687ZM105.596 68.5644C104 68.5528 103.111 67.6923 103.108 66.1382C103.125 65.7183 103.184 65.2847 103.313 64.8517C104.391 61.0514 108.443 58.2528 112.349 58.2811C112.881 58.285 113.146 58.4409 113.144 58.7489C113.143 58.8329 113.114 59.0427 113.041 59.3642C113.012 59.546 112.982 59.8538 112.979 60.3018C112.989 60.7359 112.749 61.0981 112.313 61.347C111.976 61.5405 111.709 61.6366 111.513 61.6352C111.289 61.6335 111.136 61.4644 111.082 61.142C111.069 61.0019 111.057 60.7498 111.074 60.3579C108.902 60.7062 107.116 61.6872 105.747 63.2733C105.083 64.0385 104.756 64.7222 104.752 65.3241C104.745 66.2761 105.541 66.5899 106.367 66.5959C107.207 66.602 108.259 66.3436 109.522 65.8348C109.93 65.6558 111.798 64.8153 111.801 64.4233C111.802 64.2973 111.676 64.2264 111.41 64.2245C110.276 64.2162 108.664 64.4285 106.589 64.8615C106.365 64.9018 106.197 64.9286 106.113 64.928C105.805 64.9258 105.666 64.7848 105.64 64.5186C105.672 63.9028 106.433 63.2783 106.966 63.0582C107.795 62.7002 109.966 62.5479 110.918 62.5549C112.808 62.5686 113.743 62.9534 113.738 63.7234C113.733 64.4234 112.971 65.2578 111.451 66.2548C109.088 67.8057 107.136 68.5755 105.596 68.5644ZM114.967 68.3804C114.491 68.377 114.254 68.2073 114.256 67.8573C114.271 67.7874 114.3 67.5916 114.373 67.2981C114.72 65.7466 115.225 63.6222 115.889 60.9109C116.004 60.4918 116.162 59.9889 116.376 59.3744C116.632 58.7883 117.125 58.4979 117.853 58.5031C118.259 58.5061 118.467 58.6476 118.479 58.9277C118.464 59.0676 118.393 59.3331 118.222 59.7099C117.78 60.7847 117.365 61.9857 116.991 63.327C116.531 65.0317 116.286 66.024 116.312 66.3042C117.11 66.282 120.087 65.0995 120.957 64.7139C121.334 63.0506 121.637 61.7927 121.867 60.9684C121.968 60.5631 122.069 60.1578 122.198 59.7387C122.483 58.9988 122.99 58.5405 123.802 58.5464C124.236 58.5495 124.459 58.7051 124.443 59.013C124.442 59.181 124.356 59.4604 124.199 59.8653C124.099 60.0606 123.971 60.3536 123.814 60.7445C123.058 62.7131 122.54 64.5994 122.289 66.4036C122.26 66.6414 122.215 66.9911 122.156 67.4666C121.997 68.1095 121.393 68.4271 120.763 68.4225C120.399 68.4199 120.218 68.2646 120.22 67.9566C120.221 67.8726 120.307 67.4672 120.481 66.7685C119.287 67.3058 116.185 68.3893 114.967 68.3804ZM123.59 68.0651C123.595 67.3931 123.99 66.934 124.704 66.9391C124.83 66.9401 125.306 66.9855 125.446 66.9865C125.684 66.9883 125.88 66.9757 126.076 66.9631C126.38 65.5513 126.885 63.4969 127.605 60.8001C126.832 61.1025 126.383 61.2392 126.229 61.2381C125.837 61.2352 125.629 60.9817 125.633 60.4637C125.651 59.8618 125.964 59.2761 126.498 59.028C127.608 58.462 128.912 58.1915 130.424 58.2025C131.208 58.2082 132.453 58.2872 132.445 59.3512C132.428 59.8691 132.09 60.1326 131.389 60.1835C130.955 60.2084 130.283 60.2455 129.4 60.3231C128.614 62.5854 128.08 64.7236 127.828 66.7098L128.866 66.4374C129.287 66.3284 129.637 66.275 129.931 66.2771C130.253 66.2794 130.406 66.3926 130.419 66.6027C130.415 67.0506 129.865 67.6347 129.486 67.8139C128.347 68.4217 126.077 68.7412 124.775 68.7317C124.397 68.729 124.131 68.713 123.992 68.656C123.712 68.556 123.602 68.3592 123.59 68.0651ZM132.229 68.2538C132.217 67.8898 132.334 67.2886 132.536 66.436C132.694 65.8212 132.853 65.2063 132.997 64.6053C132.802 64.4639 132.706 64.2812 132.707 64.0292C132.711 63.6092 133.036 63.0936 133.415 62.9283C133.56 62.3554 133.79 61.475 134.107 60.2733C134.222 59.8261 134.294 59.5606 134.702 59.2976C134.828 59.2145 135.067 59.1462 135.404 59.0507C136.456 58.7503 137.073 58.5868 137.284 58.5323C137.873 58.3966 138.517 58.3313 139.217 58.3364C139.623 58.3393 139.917 58.3694 140.099 58.3988C140.699 58.5571 141.032 59.0776 141.028 59.5116C141.025 59.9735 140.673 60.251 139.987 60.316C139.496 60.3684 138.754 60.447 137.759 60.5518C137.17 60.6315 136.441 60.8223 135.528 61.1656C135.399 61.5707 135.256 62.0037 135.127 62.4368C136.964 61.9741 138.674 61.7625 140.27 61.7741C140.55 61.7761 140.76 61.7777 140.872 61.8205C141.249 61.9072 141.751 62.2609 141.747 62.6809C141.647 63.0581 141.281 63.2795 140.651 63.3449C138.073 63.6202 136.054 63.9695 134.623 64.3791C134.421 65.2457 134.275 66.0847 134.171 66.8959C134.955 66.9016 135.795 66.8097 136.665 66.634C136.721 66.6204 137.548 66.4444 139.133 66.106C139.315 66.0793 139.469 66.0524 139.567 66.0531C139.945 66.0559 140.112 66.1971 140.124 66.4632C140.092 67.0229 139.584 67.5233 139.12 67.7859C137.546 68.5865 135.01 68.9041 133.246 68.8913C132.574 68.8864 132.212 68.6737 132.229 68.2538ZM142.27 69.1108C141.906 69.1082 141.726 68.9389 141.742 68.603C141.743 68.477 141.786 68.2673 141.873 67.9739C141.916 67.7642 141.974 67.5406 142.031 67.331C142.725 64.368 143.259 62.1878 143.647 60.7766C143.863 59.9662 143.992 59.5191 144.876 59.2735C145.044 59.2467 145.226 59.234 145.38 59.2352C145.646 59.2371 145.828 59.3084 145.938 59.4772L149.202 65.0871C149.301 64.8778 149.588 63.9559 150.09 62.3635C150.19 62.0002 150.348 61.4413 150.536 60.7147C150.967 59.1357 151.645 58.3427 152.555 58.3493C152.891 58.3517 153.058 58.4929 153.056 58.7589C153.055 58.9129 152.954 59.2342 152.727 59.7366C151.475 62.4855 150.672 64.9858 150.292 67.2651C150.233 67.6426 150.175 67.8942 150.119 68.0058C149.934 68.3685 149.498 68.5613 148.841 68.5565C148.463 68.5538 148.281 68.4545 148.283 68.2445L144.936 62.592C144.292 64.5194 143.902 66.1126 143.725 67.3854C143.724 67.4413 143.68 67.749 143.62 68.3226C143.49 68.8257 142.746 69.1143 142.27 69.1108ZM43.0436 82.2142C42.9615 81.9476 42.9351 81.7234 42.9785 81.5417C43.0072 81.444 43.1066 81.2487 43.3046 80.9701C43.4599 80.7892 43.5874 80.5941 43.7288 80.3992C44.3232 79.5215 44.9609 78.4621 45.6137 77.2488C46.1815 76.1749 46.7352 75.1149 47.3031 74.041C47.5158 73.6645 47.7552 73.4702 48.0492 73.4724C48.2032 73.4735 48.2999 73.6562 48.3253 74.0064C48.3095 74.2583 48.3077 74.5103 48.3058 74.7623C48.2964 76.0642 48.4104 77.7171 48.676 79.6931C49.4127 78.5084 50.1789 77.0999 51.0028 75.4679C51.2161 75.0074 51.5712 74.31 52.0398 73.4034C52.2386 73.0268 52.478 72.8325 52.758 72.8346C52.94 72.8359 53.0501 73.0887 53.0465 73.5927L52.9971 74.6004C52.939 76.826 53.0238 78.6467 53.2375 80.0622C53.3434 80.903 53.3962 81.3374 53.3819 81.3793C53.2953 81.7427 52.6893 82.2843 52.3113 82.2816C52.2273 82.281 52.1716 82.2386 52.1161 82.1682C52.061 82.0558 52.0119 81.1034 51.9409 79.3108C51.9068 78.2185 51.8728 77.1263 51.8386 76.048C51.2283 77.1916 50.59 78.335 49.9515 79.4924C48.9438 81.3751 48.3765 82.379 48.2638 82.4762C48.1369 82.6013 48.0244 82.6704 47.9264 82.6697C47.7444 82.6684 47.6054 82.5274 47.5234 82.2468C47.4694 81.9804 47.4571 81.7423 47.5147 81.5187L47.5577 81.393C47.5194 80.8747 47.4195 79.208 47.2862 76.3649C46.7331 77.3409 45.7405 79.0698 44.2944 81.5513C44.1949 81.7606 44.0108 82.0533 43.7559 82.4434C43.6429 82.5826 43.5304 82.6518 43.4324 82.6511C43.2644 82.6499 43.1394 82.5089 43.0436 82.2142ZM54.8604 82.3141C54.8055 82.1597 55.0381 80.9714 55.5582 78.7631C55.2789 78.663 55.1966 78.4244 55.2832 78.0751C55.3695 77.7537 55.5811 77.5312 55.8759 77.4213C55.934 77.1418 56.4703 74.6256 56.5549 74.5422C56.6404 74.3328 56.7535 74.1796 56.9363 74.069C57.0207 74.0136 57.2312 73.9451 57.5399 73.8493C58.0449 73.713 58.5499 73.5767 59.055 73.4263C59.6301 73.2765 60.1206 73.2101 60.5546 73.2132L61.0166 73.2166C61.4087 73.2054 61.6746 73.2214 61.8143 73.2644C62.0658 73.3362 62.2748 73.4777 62.4132 73.6887C62.5377 73.8997 62.5923 74.0961 62.5349 74.2776C62.4772 74.5152 62.2242 74.6534 61.7619 74.692C60.6552 74.782 59.9547 74.8469 59.6463 74.9007C59.0436 74.9943 58.3281 75.1991 57.5138 75.5152C57.3422 76.018 57.1843 76.5488 57.0543 77.0939C58.892 76.6032 60.4897 76.3628 61.8757 76.3729C62.1417 76.3748 62.3516 76.3904 62.4914 76.4194C62.6733 76.4347 62.8547 76.52 63.0356 76.6613C63.2305 76.8168 63.3133 76.9854 63.2701 77.1531C63.2268 77.3348 62.9598 77.4588 62.4554 77.5252C59.9895 77.7732 58.083 78.1094 56.708 78.5194C56.5054 79.428 56.359 80.3089 56.2828 81.1624C56.9547 81.1673 57.7393 81.089 58.6645 80.9277L61.1041 80.4414C61.2583 80.4145 61.3704 80.4013 61.4544 80.402C61.7484 80.4041 61.8735 80.531 61.8017 80.7825C61.4402 82.3619 56.8598 82.6786 55.6418 82.6698C55.2078 82.6666 54.9426 82.5527 54.8604 82.3141ZM69.5543 81.6648C69.2365 81.0885 69.1858 80.3601 69.4163 79.4658C70.2815 76 74.0667 73.3674 77.5806 73.3929C77.9306 73.3955 78.1262 73.4529 78.1673 73.5792C78.1948 73.6494 78.1511 73.8731 78.0505 74.2364C78.0216 74.3622 78.0062 74.5581 78.0323 74.8103C78.0445 75.0624 78.0432 75.2443 78.0143 75.3701C77.9275 75.7475 77.1965 76.1622 76.8325 76.1596C76.6785 76.1585 76.5957 75.9898 76.5701 75.6677C76.5998 75.4299 76.6014 75.2059 76.6031 74.9679C74.8653 75.2213 73.4468 75.827 72.3056 76.8127C71.3192 77.6876 70.7112 78.5232 70.5094 79.3197C70.3653 79.8787 70.4739 80.3415 70.8494 80.6942C71.183 81.0187 71.6579 81.1761 72.2459 81.1804C73.4499 81.1891 75.0934 80.4311 76.1892 79.921C76.8073 79.6315 77.1584 79.48 77.2284 79.4805C77.4104 79.4819 77.437 79.6641 77.3504 80.0274C77.3073 80.1811 77.1522 80.334 76.8989 80.5142C76.6881 80.6246 76.4912 80.7352 76.2943 80.8598C74.2977 82.0353 72.6555 82.6114 71.3815 82.6021C70.4996 82.5957 69.8998 82.2834 69.5543 81.6648ZM79.6603 81.5563C79.0084 80.7115 78.8339 79.6742 79.165 78.4306C79.8717 75.5796 83.0811 73.1949 86.0071 73.2162C87.253 73.2252 88.216 73.6522 88.8818 74.4971C89.5476 75.3559 89.7081 76.3931 89.391 77.6369C88.6702 80.5017 85.4469 82.8723 82.521 82.8511C81.261 82.8419 80.3121 82.415 79.6603 81.5563ZM80.7776 78.0783C80.5184 79.0704 80.6242 79.9252 81.0948 80.6707C81.5652 81.4441 82.3044 81.8275 83.2844 81.8346C85.2723 81.849 87.1759 79.9868 87.6374 78.1281C87.8966 77.136 87.7908 76.2812 87.3202 75.5358C86.8358 74.7622 86.1106 74.3789 85.1306 74.3718C83.1287 74.3573 81.2531 76.2197 80.7776 78.0783ZM89.9206 82.6528C89.8515 82.5263 90.2428 80.6951 91.1226 77.1594C91.0257 77.0047 91.0272 76.7947 91.085 76.5431C91.1858 76.1659 91.6655 75.6513 92.5243 74.9996C93.8756 74.0013 95.1252 73.5064 96.2872 73.5149C97.1132 73.5209 97.7552 73.7915 98.2413 74.3271C98.7413 74.8767 98.8904 75.5638 98.6886 76.3604C97.9826 79.0993 93.9572 80.1061 91.519 80.4104C91.5041 80.5223 91.4739 80.8301 91.4282 81.3338C91.4115 81.7116 91.3673 82.0193 91.3095 82.2569C91.2229 82.6203 90.6053 82.8398 90.2693 82.8374C90.0873 82.8361 89.9757 82.7792 89.9206 82.6528ZM91.738 79.1659C93.9224 79.1118 95.4092 78.7446 96.2121 78.0644C96.7756 77.5925 97.1009 77.1329 97.2162 76.6857C97.3459 76.1686 97.181 75.7474 96.6934 75.4079C96.2897 75.0969 95.8288 74.9396 95.2828 74.9356C94.4848 74.9298 93.5438 75.343 92.5018 76.1614C92.2006 77.1533 91.9554 78.1455 91.738 79.1659ZM98.7633 82.7871C98.5821 82.6738 98.5416 82.4635 98.6279 82.1561C98.7146 81.7787 99.01 81.5848 99.5 81.5884C99.654 81.5895 99.9898 81.62 100.116 81.6209C100.396 81.6229 100.662 81.6109 100.872 81.5984C101.134 80.2142 101.597 78.1456 102.275 75.3924C101.377 75.7359 100.871 75.9142 100.745 75.9133C100.563 75.912 100.452 75.7992 100.412 75.5749C100.371 75.3926 100.386 75.2107 100.43 75.001C100.531 74.6237 100.729 74.3451 101.038 74.1934C102.078 73.6829 103.283 73.4397 104.627 73.4494C105.131 73.4531 105.495 73.4978 105.718 73.5694C106.096 73.6841 106.29 73.9235 106.329 74.2738C106.343 74.3579 106.328 74.4418 106.314 74.5257C106.285 74.6235 106.256 74.6933 106.214 74.735C106.115 74.8463 105.891 74.9147 105.54 74.9401C104.784 74.9766 104.126 75.0278 103.565 75.0798C102.878 77.1468 102.373 79.2432 102.133 81.4115C102.189 81.3979 102.54 81.3165 103.213 81.1394C103.676 81.0167 104.041 80.9634 104.307 80.9653C104.517 80.9668 104.6 81.0514 104.557 81.2331C104.485 81.4986 104.118 81.902 103.837 82.0539C102.783 82.6203 100.694 82.9131 99.4904 82.9044C99.1545 82.9019 98.9028 82.8581 98.7633 82.7871ZM105.523 82.7382C105.398 82.4993 105.372 82.2611 105.416 82.0514C105.444 81.9396 105.6 81.7307 105.882 81.4248C106.052 81.216 106.249 81.0074 106.447 80.7989C107.195 79.9223 107.987 78.836 108.822 77.54L110.961 74.1535C111.216 73.7773 111.539 73.5837 111.959 73.5867C112.155 73.5881 112.28 73.6871 112.349 73.8836C112.404 74.066 112.43 74.3042 112.456 74.5984C112.494 75.0606 112.493 75.3126 112.506 75.3407C112.758 77.3586 113.107 79.3632 113.85 81.2587C113.945 81.5814 113.986 81.7917 113.957 81.8895C113.87 82.2668 113.265 82.6544 112.887 82.6517C112.705 82.6504 112.553 82.4533 112.458 82.0466C112.404 81.7662 112.364 81.4859 112.324 81.1916C110.88 81.5031 109.071 81.854 106.926 82.2164C106.516 82.8154 106.22 83.1073 106.024 83.1058C105.814 83.1043 105.647 82.9771 105.523 82.7382ZM107.945 80.7537C109.431 80.5265 110.805 80.2145 112.082 79.7898C111.935 78.8507 111.707 77.435 111.371 75.5565C110.862 76.2668 109.729 77.9946 107.945 80.7537ZM115.255 82.8649C114.933 82.8626 114.794 82.7496 114.852 82.512C115.01 81.8971 115.154 81.4221 115.296 81.0732C115.396 80.8779 115.663 80.7818 116.111 80.7851C116.516 80.788 116.698 80.8733 116.655 81.027C116.625 81.2368 116.057 82.3387 115.915 82.5897C115.788 82.7708 115.577 82.8673 115.255 82.8649ZM118.072 82.8854C117.75 82.883 117.611 82.77 117.668 82.5324C117.827 81.9176 117.97 81.4426 118.113 81.0936C118.212 80.8983 118.479 80.8023 118.927 80.8055C119.333 80.8085 119.514 80.8938 119.471 81.0475C119.442 81.2573 118.874 82.3592 118.732 82.6102C118.604 82.7912 118.394 82.8877 118.072 82.8854ZM122.393 80.0887C122.029 80.0861 121.861 80.0008 121.918 79.8192C122.178 78.7991 122.392 78.2546 122.546 78.1718C122.589 78.1441 122.995 78.133 123.751 78.1385C125.319 78.1499 126.426 77.9199 127.074 77.4626C127.58 77.1023 127.877 76.7405 127.978 76.3772C128.107 75.8601 127.887 75.4105 127.315 75.0703C126.841 74.7729 126.296 74.6429 125.708 74.6386C124.854 74.6324 123.786 75.1707 123.055 75.5854C122.676 75.7926 122.451 75.917 122.381 75.9165C122.255 75.9156 122.214 75.7893 122.286 75.5518C122.358 75.2303 122.528 74.9655 122.795 74.7715C123.809 73.9948 125.563 73.4336 126.837 73.4428C127.719 73.4492 128.487 73.6928 129.1 74.1733C129.796 74.7243 130.043 75.4122 129.827 76.2506C129.697 76.7677 129.372 77.2133 128.822 77.6433C127.64 78.5588 125.802 79.1054 123.323 79.2414C123.166 79.5903 123.067 79.7856 123.01 79.8552C122.869 80.0082 122.659 80.0906 122.393 80.0887ZM121.138 83.1317C120.802 83.1292 120.663 83.0162 120.721 82.8066C120.821 82.4293 120.936 82.0942 121.064 81.8151C121.163 81.6058 121.43 81.5097 121.892 81.5131C122.284 81.5159 122.466 81.5733 122.437 81.6991C122.408 81.8109 121.869 82.815 121.784 82.9263C121.671 83.0655 121.446 83.1339 121.138 83.1317Z" fill="black"/>
</svg>
