<svg width="175" height="124" viewBox="0 0 175 124" fill="none" xmlns="http://www.w3.org/2000/svg">
<path fill-rule="evenodd" clip-rule="evenodd" d="M65.2795 10.9451C62.7961 10.2216 60.4497 9.53807 59.8991 9.81186C59.309 10.1053 59.2985 11.8696 59.2879 13.6421C59.2773 15.4144 59.2667 17.195 58.6767 17.5225C58.2646 17.7511 56.0301 17.6763 53.229 17.5824C48.0077 17.4074 40.818 17.1664 39.7939 18.7026C38.8109 20.1771 41.2051 24.8751 43.1408 28.6735C44.3038 30.9558 45.3014 32.9133 45.3014 33.6515C45.3014 34.635 43.0886 36.8478 40.8757 39.0607C38.6629 41.2735 36.4501 43.4863 36.4501 44.4698C36.4501 45.7595 38.9023 47.9793 41.0346 49.9096C42.1544 50.9232 43.1859 51.8571 43.7278 52.5343C44.6239 53.6544 42.1393 58.1552 39.8338 62.3316C38.0908 65.4891 36.4501 68.4613 36.4501 69.6469C36.4501 71.6347 39.9349 73.8275 42.6873 75.5594C43.7478 76.2267 44.6996 76.8256 45.3014 77.318C46.4316 78.2428 46.22 80.9389 46.0123 83.5838C45.8225 86.0018 45.636 88.377 46.4815 89.3165C48.2518 91.2834 58.8734 86.9561 61.037 85.5792C61.5163 85.2743 63.5518 86.1864 65.7824 87.1859C66.368 87.4483 66.9672 87.7168 67.5551 87.9708C66.9193 94.1161 65.8771 103.033 65.1315 103.6C64.5834 104.017 62.1768 104.03 59.736 104.043C57.0808 104.057 54.3851 104.071 53.9975 104.606C53.7108 105.002 53.2967 105.929 52.8268 106.981C52.0773 108.658 51.1859 110.653 50.4435 111.317C49.2357 112.397 43.4397 116.337 41.7303 115.798C40.6198 115.448 39.6681 112.658 38.918 110.458C38.5135 109.272 38.1676 108.258 37.887 107.891C37.0862 106.844 31.1613 101.903 27.5402 101.556C23.9191 101.209 1.89844 114.304 1.89844 114.304V121.524C1.89844 121.524 14.4246 115.058 15.5061 114.304C15.5533 114.271 15.6127 114.229 15.6835 114.18C17.2377 113.088 24.2613 108.155 26.3199 109.208C27.51 109.817 30.4368 113.031 33.0833 115.938C35.2229 118.288 37.1794 120.436 37.887 120.845C39.4699 121.758 43.4626 123.09 45.8316 122.843C47.1279 122.708 50.2599 119.5 53.1922 116.496C55.6188 114.01 57.9086 111.665 58.9078 111.317C60.0784 110.91 62.4982 111.107 64.7518 111.29C66.7461 111.452 68.6103 111.604 69.3636 111.317C70.6896 110.812 71.9057 107.912 72.6751 106.077C72.8368 105.692 72.9788 105.353 73.0979 105.094C73.543 104.124 74.5636 94.7683 75.2253 88.3185C76.8916 87.6795 78.8612 86.8308 80.6269 86.07C83.0364 85.0318 85.0661 84.1572 85.4273 84.2024C86.097 84.2861 86.9091 85.2247 87.8182 86.2755C89.0454 87.6938 90.4494 89.3165 91.9183 89.3165C94.4753 89.3165 101.95 82.6288 101.95 82.6288C101.95 82.6288 110.211 89.3165 111.981 89.3165C112.855 89.3165 114.887 88.7185 116.906 88.1242C118.976 87.5149 121.033 86.9094 121.816 86.9561C122.483 86.9959 123.891 87.8842 125.419 88.8481C127.435 90.12 129.66 91.5236 130.667 91.2834C131.552 91.0723 131.552 87.74 131.552 84.3809C131.552 81.0218 131.552 77.636 132.438 77.318C133.265 77.0208 136.286 77.8908 139.47 78.8075C143.097 79.8519 146.934 80.9569 147.977 80.4651C149.32 79.8316 149.105 73.552 148.959 69.3143C148.893 67.3753 148.841 65.8637 148.96 65.5163C149.143 64.9806 152.374 65.4528 155.734 65.9438C159.317 66.4673 163.046 67.0123 163.383 66.3796C163.718 65.7498 162.116 61.3496 160.542 57.0247C159.052 52.9304 157.586 48.9035 157.811 48.207C157.999 47.6269 160.51 46.4837 163.448 45.1458C167.764 43.1806 173.003 40.7955 173.154 39.159C173.305 37.5144 168.563 32.7654 164.683 28.8807C162.074 26.2685 159.856 24.0471 159.778 23.4233C159.682 22.6469 161.254 20.9662 162.801 19.3114C164.346 17.6596 165.866 16.0337 165.679 15.3588C165.435 14.4779 160.892 13.6648 157.39 13.038C155.521 12.7035 153.949 12.422 153.484 12.2117C152.821 11.9115 152.816 10.2677 152.811 8.54066C152.806 6.78827 152.801 4.95031 152.107 4.34383C151.208 3.55737 144.762 4.80505 139.802 5.76528C137.167 6.27527 134.951 6.70418 134.208 6.70418C133.18 6.70418 130.508 5.39264 127.726 4.02734C124.706 2.54534 121.557 1 120.242 1C118.876 1 116.064 2.67026 113.484 4.20315C111.296 5.50306 109.274 6.70418 108.441 6.70418C107.629 6.70418 105.074 5.56513 102.248 4.30503C98.749 2.74525 94.8342 1 93.2951 1C91.7836 1 89.5925 2.68337 87.5908 4.22116C85.9078 5.51413 84.3588 6.70418 83.4603 6.70418C82.6182 6.70418 81.0969 6.14277 79.5064 5.5558C77.382 4.77182 75.134 3.94224 74.2156 4.34383C73.3724 4.71257 73.1347 6.63572 72.9045 8.49872C72.6962 10.1838 72.4941 11.8198 71.8553 12.2117C71.1379 12.6519 68.1191 11.7724 65.2795 10.9451Z" fill="white"/>
<path d="M59.8991 9.81186L59.4539 8.91646L59.4539 8.91646L59.8991 9.81186ZM65.2795 10.9451L64.9998 11.9052L65.2795 10.9451ZM59.2879 13.6421L60.2879 13.6481V13.6481L59.2879 13.6421ZM58.6767 17.5225L59.1619 18.3968L58.6767 17.5225ZM53.229 17.5824L53.2625 16.5829L53.229 17.5824ZM39.7939 18.7026L40.6259 19.2573L39.7939 18.7026ZM43.1408 28.6735L42.2498 29.1275L43.1408 28.6735ZM40.8757 39.0607L40.1686 38.3535L40.8757 39.0607ZM41.0346 49.9096L40.3635 50.6509L41.0346 49.9096ZM43.7278 52.5343L44.5086 51.9096L44.5086 51.9096L43.7278 52.5343ZM39.8338 62.3316L38.9584 61.8483L39.8338 62.3316ZM42.6873 75.5594L43.2199 74.713H43.2199L42.6873 75.5594ZM45.3014 77.318L45.9346 76.5441H45.9346L45.3014 77.318ZM46.0123 83.5838L47.0093 83.662L46.0123 83.5838ZM46.4815 89.3165L47.2248 88.6475L46.4815 89.3165ZM61.037 85.5792L60.5001 84.7356V84.7356L61.037 85.5792ZM65.7824 87.1859L66.1913 86.2733L65.7824 87.1859ZM67.5551 87.9708L68.5498 88.0737C68.5947 87.6393 68.3526 87.226 67.9517 87.0528L67.5551 87.9708ZM65.1315 103.6L65.7369 104.396L65.7369 104.396L65.1315 103.6ZM59.736 104.043L59.7307 103.043L59.736 104.043ZM53.9975 104.606L54.8074 105.193L54.8074 105.193L53.9975 104.606ZM52.8268 106.981L51.9137 106.573L52.8268 106.981ZM50.4435 111.317L49.7769 110.572L50.4435 111.317ZM41.7303 115.798L42.0309 114.845H42.0309L41.7303 115.798ZM38.918 110.458L39.8645 110.135L39.8645 110.135L38.918 110.458ZM37.887 107.891L37.0927 108.498V108.498L37.887 107.891ZM27.5402 101.556L27.4449 102.552H27.4449L27.5402 101.556ZM1.89844 114.304L1.38733 113.444C1.08421 113.625 0.898438 113.951 0.898438 114.304H1.89844ZM1.89844 121.524H0.898438C0.898438 121.873 1.08025 122.197 1.3782 122.378C1.67614 122.56 2.04713 122.573 2.35714 122.413L1.89844 121.524ZM15.5061 114.304L14.9342 113.484L14.9341 113.484L15.5061 114.304ZM15.6835 114.18L15.1087 113.361L15.1087 113.361L15.6835 114.18ZM26.3199 109.208L26.7754 108.318L26.3199 109.208ZM33.0833 115.938L33.8227 115.265L33.0833 115.938ZM37.887 120.845L37.3873 121.711L37.3873 121.711L37.887 120.845ZM45.8316 122.843L45.728 121.848H45.728L45.8316 122.843ZM53.1922 116.496L52.4766 115.797L53.1922 116.496ZM58.9078 111.317L59.2362 112.262H59.2362L58.9078 111.317ZM64.7518 111.29L64.6707 112.287L64.7518 111.29ZM69.3636 111.317L69.0078 110.383L69.3636 111.317ZM72.6751 106.077L71.7529 105.691H71.7529L72.6751 106.077ZM73.0979 105.094L74.0067 105.511V105.511L73.0979 105.094ZM75.2253 88.3185L74.8673 87.3848C74.5152 87.5198 74.269 87.8413 74.2305 88.2164L75.2253 88.3185ZM80.6269 86.07L80.2312 85.1516L80.6269 86.07ZM85.4273 84.2024L85.3033 85.1946L85.4273 84.2024ZM87.8182 86.2755L88.5745 85.6211L87.8182 86.2755ZM101.95 82.6288L102.579 81.8516C102.198 81.5428 101.649 81.5564 101.283 81.8836L101.95 82.6288ZM116.906 88.1242L116.623 87.1649H116.623L116.906 88.1242ZM121.816 86.9561L121.876 85.9579L121.816 86.9561ZM125.419 88.8481L125.953 88.0023L125.419 88.8481ZM130.667 91.2834L130.435 90.3107L130.667 91.2834ZM132.438 77.318L132.776 78.2591L132.438 77.318ZM139.47 78.8075L139.747 77.8465L139.47 78.8075ZM147.977 80.4651L147.55 79.5607V79.5607L147.977 80.4651ZM148.959 69.3143L147.96 69.3485L148.959 69.3143ZM148.96 65.5163L148.014 65.1926L148.96 65.5163ZM155.734 65.9438L155.589 66.9333L155.734 65.9438ZM163.383 66.3796L164.265 66.8496V66.8496L163.383 66.3796ZM160.542 57.0247L159.602 57.3667L160.542 57.0247ZM157.811 48.207L156.86 47.899V47.899L157.811 48.207ZM163.448 45.1458L163.034 44.2357L163.448 45.1458ZM173.154 39.159L172.158 39.0671V39.0671L173.154 39.159ZM164.683 28.8807L165.391 28.1741L164.683 28.8807ZM159.778 23.4233L158.786 23.5465V23.5465L159.778 23.4233ZM162.801 19.3114L162.071 18.6284V18.6284L162.801 19.3114ZM165.679 15.3588L166.643 15.0919V15.0919L165.679 15.3588ZM157.39 13.038L157.566 12.0536L157.39 13.038ZM153.484 12.2117L153.897 11.3007L153.484 12.2117ZM152.811 8.54066L151.811 8.54359V8.5436L152.811 8.54066ZM152.107 4.34383L151.449 5.09657L151.449 5.09657L152.107 4.34383ZM139.802 5.76528L139.992 6.74706L139.802 5.76528ZM127.726 4.02734L128.166 3.12962V3.12962L127.726 4.02734ZM113.484 4.20315L113.995 5.06289V5.06289L113.484 4.20315ZM102.248 4.30503L102.655 3.39168V3.39168L102.248 4.30503ZM87.5908 4.22116L86.9816 3.42816V3.42816L87.5908 4.22116ZM79.5064 5.5558L79.1601 6.49396L79.5064 5.5558ZM74.2156 4.34383L74.6163 5.26006V5.26006L74.2156 4.34383ZM72.9045 8.49872L73.8969 8.62138V8.62137L72.9045 8.49872ZM71.8553 12.2117L71.3324 11.3593V11.3593L71.8553 12.2117ZM60.3444 10.7073C60.2332 10.7625 60.1705 10.7543 60.2366 10.751C60.2862 10.7485 60.3755 10.7505 60.5138 10.7657C60.7902 10.796 61.1669 10.8677 61.6356 10.978C62.5703 11.1977 63.7494 11.5409 64.9998 11.9052L65.5592 9.98504C64.3262 9.62584 63.0905 9.2655 62.0934 9.03106C61.5963 8.91418 61.128 8.8211 60.7319 8.77765C60.5341 8.75595 60.3303 8.74382 60.1365 8.75353C59.9592 8.76241 59.7027 8.79274 59.4539 8.91646L60.3444 10.7073ZM60.2879 13.6481C60.2933 12.7443 60.2994 11.9187 60.37 11.2828C60.4055 10.9635 60.4519 10.7494 60.4973 10.6228C60.5539 10.4651 60.5484 10.6058 60.3444 10.7073L59.4539 8.91646C58.9548 9.16463 58.7266 9.63592 58.615 9.94697C58.4921 10.2891 58.4245 10.6819 58.3823 11.0619C58.2975 11.8245 58.2931 12.7674 58.2879 13.6362L60.2879 13.6481ZM59.1619 18.3968C59.6348 18.1344 59.8534 17.6723 59.9636 17.3572C60.0841 17.0123 60.1514 16.6175 60.1936 16.2333C60.2782 15.4632 60.2827 14.5172 60.2879 13.6481L58.2879 13.6362C58.2825 14.5393 58.2764 15.3698 58.2055 16.0149C58.17 16.3383 58.1233 16.5608 58.0756 16.6972C58.0175 16.8635 58.0135 16.7468 58.1914 16.6481L59.1619 18.3968ZM53.1955 18.5818C54.5899 18.6286 55.8671 18.6715 56.8467 18.6734C57.3354 18.6743 57.7713 18.6652 58.1214 18.6386C58.2959 18.6253 58.4668 18.6065 58.6215 18.5778C58.7544 18.5531 58.9647 18.5063 59.1619 18.3968L58.1914 16.6481C58.2856 16.5958 58.336 16.5966 58.2569 16.6113C58.1995 16.6219 58.1064 16.634 57.9697 16.6444C57.6973 16.6651 57.3222 16.6743 56.8506 16.6734C55.9098 16.6716 54.6691 16.6301 53.2625 16.5829L53.1955 18.5818ZM40.6259 19.2573C40.6078 19.2845 40.643 19.2186 40.8687 19.1149C41.0815 19.0171 41.3884 18.9201 41.7983 18.8332C42.6173 18.6595 43.7108 18.554 44.9801 18.4999C47.5127 18.3919 50.5748 18.494 53.1955 18.5818L53.2625 16.5829C50.6619 16.4958 47.5185 16.3899 44.8949 16.5017C43.5862 16.5575 42.3638 16.6688 41.3836 16.8766C40.8939 16.9804 40.4302 17.1153 40.0335 17.2976C39.6495 17.4741 39.236 17.7367 38.9618 18.1479L40.6259 19.2573ZM44.0317 28.2194C43.0576 26.3079 42.0001 24.2307 41.304 22.4521C40.9553 21.561 40.7164 20.7919 40.6166 20.1859C40.5083 19.5283 40.6031 19.2916 40.6259 19.2573L38.9618 18.1479C38.4932 18.8508 38.5186 19.7544 38.6432 20.511C38.7763 21.3192 39.0727 22.2386 39.4416 23.181C40.1808 25.0697 41.2882 27.2407 42.2498 29.1275L44.0317 28.2194ZM46.3014 33.6515C46.3014 33.2897 46.1897 32.8954 46.0724 32.5564C45.9459 32.1906 45.7704 31.773 45.5673 31.3271C45.1614 30.4357 44.6098 29.3538 44.0317 28.2194L42.2498 29.1275C42.8348 30.2754 43.3635 31.3134 43.7471 32.1559C43.9389 32.577 44.0854 32.9298 44.1823 33.21C44.2305 33.3495 44.2625 33.4597 44.2816 33.5431C44.302 33.6317 44.3014 33.6625 44.3014 33.6515H46.3014ZM41.5828 39.7678C42.6814 38.6692 43.8152 37.5361 44.6725 36.5519C45.1006 36.0603 45.4836 35.5791 45.7647 35.1373C46.0177 34.7397 46.3014 34.2059 46.3014 33.6515H44.3014C44.3014 33.5889 44.3084 33.7005 44.0774 34.0636C43.8745 34.3824 43.566 34.7771 43.1643 35.2383C42.3619 36.1595 41.2829 37.2393 40.1686 38.3535L41.5828 39.7678ZM37.4501 44.4698C37.4501 44.5324 37.443 44.4208 37.6741 44.0578C37.877 43.7389 38.1855 43.3442 38.5872 42.883C39.3895 41.9618 40.4686 40.882 41.5828 39.7678L40.1686 38.3535C39.0701 39.4521 37.9363 40.5852 37.079 41.5695C36.6509 42.061 36.2679 42.5422 35.9867 42.984C35.7337 43.3816 35.4501 43.9154 35.4501 44.4698H37.4501ZM41.7057 49.1682C40.6301 48.1945 39.5213 47.1897 38.6791 46.2729C38.2583 45.8148 37.9307 45.407 37.7137 45.061C37.4812 44.6904 37.4501 44.5066 37.4501 44.4698H35.4501C35.4501 45.0778 35.7255 45.6552 36.0194 46.1238C36.3288 46.617 36.7476 47.1267 37.2063 47.626C38.1233 48.6242 39.3068 49.6944 40.3635 50.6509L41.7057 49.1682ZM44.5086 51.9096C43.9036 51.1534 42.7948 50.1541 41.7057 49.1682L40.3635 50.6509C41.514 51.6924 42.4682 52.5607 42.9469 53.159L44.5086 51.9096ZM40.7093 62.8149C41.8553 60.7389 43.0764 58.5286 43.8947 56.6943C44.3022 55.7808 44.6331 54.9102 44.7979 54.1668C44.8803 53.795 44.931 53.4129 44.9107 53.0498C44.8906 52.6897 44.7956 52.2683 44.5086 51.9096L42.9469 53.159C42.884 53.0804 42.9073 53.0447 42.9139 53.1614C42.9202 53.2751 42.9058 53.461 42.8453 53.7339C42.7242 54.28 42.458 55.0057 42.0682 55.8794C41.2919 57.6196 40.1179 59.7479 38.9584 61.8483L40.7093 62.8149ZM37.4501 69.6469C37.4501 69.5355 37.4991 69.2658 37.6728 68.7914C37.8368 68.343 38.0797 67.7966 38.3869 67.1676C39.0016 65.9089 39.8339 64.4007 40.7093 62.8149L38.9584 61.8483C38.0907 63.42 37.2311 64.9766 36.5898 66.2898C36.2689 66.9468 35.9926 67.563 35.7946 68.104C35.6061 68.619 35.4501 69.1655 35.4501 69.6469H37.4501ZM43.2199 74.713C41.8294 73.8381 40.331 72.8932 39.1769 71.931C38.6012 71.4511 38.1495 70.9976 37.8484 70.5805C37.5428 70.1571 37.4501 69.8515 37.4501 69.6469H35.4501C35.4501 70.4361 35.793 71.1501 36.2268 71.7511C36.6651 72.3583 37.2566 72.934 37.8962 73.4672C39.1726 74.5313 40.7927 75.5488 42.1547 76.4058L43.2199 74.713ZM45.9346 76.5441C45.273 76.0027 44.2565 75.3653 43.2199 74.713L42.1547 76.4058C43.2391 77.0881 44.1262 77.6486 44.6681 78.092L45.9346 76.5441ZM47.0093 83.662C47.1115 82.3594 47.2239 80.9513 47.157 79.7502C47.1234 79.1459 47.0426 78.5464 46.8708 78.0102C46.6993 77.4746 46.4161 76.938 45.9346 76.5441L44.6681 78.092C44.7518 78.1604 44.866 78.3076 44.9662 78.6203C45.0661 78.9324 45.1314 79.3456 45.1601 79.8615C45.218 80.9009 45.1208 82.1633 45.0154 83.5055L47.0093 83.662ZM47.2248 88.6475C47.1622 88.5779 47.071 88.425 46.9948 88.1212C46.9199 87.8226 46.8744 87.4389 46.8581 86.9698C46.8251 86.0245 46.913 84.8877 47.0093 83.662L45.0154 83.5055C44.9218 84.6979 44.8216 85.9577 44.8593 87.0395C44.8783 87.5838 44.9328 88.1212 45.0549 88.6077C45.1756 89.089 45.3781 89.5853 45.7382 89.9854L47.2248 88.6475ZM60.5001 84.7356C59.5239 85.3568 56.4211 86.7519 53.3067 87.7495C51.7583 88.2454 50.2671 88.6232 49.0814 88.7628C48.4864 88.8329 48.0138 88.8372 47.6698 88.7874C47.3086 88.7351 47.2206 88.6429 47.2248 88.6475L45.7382 89.9854C46.185 90.4818 46.8162 90.6846 47.3831 90.7668C47.9673 90.8514 48.6318 90.8296 49.3154 90.7491C50.6867 90.5876 52.3181 90.1662 53.9168 89.6541C57.0967 88.6356 60.3865 87.1785 61.5739 86.4229L60.5001 84.7356ZM66.1913 86.2733C65.0869 85.7784 63.9864 85.2848 63.1011 84.956C62.6611 84.7925 62.2333 84.6541 61.8619 84.5802C61.6765 84.5434 61.4708 84.5155 61.2654 84.52C61.0739 84.5241 60.7797 84.5577 60.5001 84.7356L61.5739 86.4229C61.4893 86.4767 61.4155 86.4996 61.3738 86.5095C61.3521 86.5146 61.3354 86.517 61.3252 86.5182C61.3149 86.5193 61.3091 86.5195 61.3087 86.5195C61.3082 86.5195 61.3116 86.5194 61.3193 86.5198C61.3269 86.5202 61.3379 86.521 61.3523 86.5226C61.3818 86.5258 61.4213 86.5318 61.4721 86.5419C61.6868 86.5845 61.9972 86.6794 62.4048 86.8308C63.2147 87.1317 64.2473 87.5938 65.3735 88.0984L66.1913 86.2733ZM67.9517 87.0528C67.371 86.8019 66.7781 86.5362 66.1913 86.2733L65.3735 88.0984C65.958 88.3604 66.5633 88.6316 67.1585 88.8888L67.9517 87.0528ZM66.5604 87.8679C66.2429 90.9372 65.8249 94.6879 65.3943 97.7373C65.1787 99.2646 64.9623 100.598 64.7567 101.577C64.6533 102.069 64.5576 102.448 64.4729 102.708C64.4302 102.839 64.3978 102.916 64.3793 102.953C64.346 103.02 64.3819 102.914 64.5261 102.804L65.7369 104.396C65.9743 104.215 66.1057 103.973 66.1699 103.844C66.2489 103.685 66.316 103.506 66.3744 103.327C66.4919 102.967 66.6049 102.508 66.714 101.988C66.9334 100.944 67.1571 99.5578 67.3747 98.0169C67.8106 94.9299 68.2316 91.1496 68.5498 88.0737L66.5604 87.8679ZM64.5261 102.804C64.5998 102.748 64.5659 102.799 64.227 102.858C63.9418 102.909 63.5575 102.947 63.0852 102.974C62.1421 103.03 60.9597 103.036 59.7307 103.043L59.7413 105.043C60.9531 105.036 62.1944 105.03 63.2018 104.971C63.7048 104.942 64.1774 104.898 64.5739 104.828C64.9167 104.768 65.3891 104.66 65.7369 104.396L64.5261 102.804ZM59.7307 103.043C58.4137 103.05 57.0406 103.057 55.9481 103.131C55.4043 103.169 54.8902 103.225 54.4692 103.318C54.2592 103.364 54.0403 103.426 53.8398 103.515C53.6555 103.597 53.3859 103.746 53.1877 104.02L54.8074 105.193C54.706 105.333 54.6055 105.364 54.6531 105.343C54.6846 105.329 54.7607 105.302 54.8994 105.271C55.1758 105.21 55.5743 105.162 56.0848 105.127C57.1007 105.057 58.4031 105.05 59.7413 105.043L59.7307 103.043ZM53.1877 104.02C52.9853 104.299 52.7758 104.705 52.5794 105.115C52.3741 105.542 52.147 106.051 51.9137 106.573L53.7398 107.389C53.9764 106.859 54.1914 106.378 54.3824 105.98C54.5821 105.564 54.7231 105.309 54.8074 105.193L53.1877 104.02ZM51.9137 106.573C51.5363 107.418 51.138 108.308 50.7442 109.07C50.3284 109.874 49.9931 110.379 49.7769 110.572L51.1101 112.063C51.6363 111.592 52.1179 110.767 52.5207 109.989C52.9456 109.167 53.3678 108.221 53.7398 107.389L51.9137 106.573ZM49.7769 110.572C49.243 111.049 47.5557 112.265 45.773 113.3C44.8873 113.814 44.0156 114.261 43.2823 114.545C42.9151 114.687 42.6087 114.778 42.3692 114.821C42.1125 114.867 42.021 114.842 42.0309 114.845L41.4296 116.752C41.8669 116.89 42.3304 116.86 42.7227 116.789C43.1321 116.716 43.5683 116.579 44.0038 116.41C44.8757 116.073 45.849 115.568 46.7769 115.03C48.6216 113.959 50.4362 112.665 51.1101 112.063L49.7769 110.572ZM42.0309 114.845C42.0554 114.852 41.9453 114.818 41.7299 114.528C41.5316 114.262 41.3186 113.882 41.0965 113.402C40.6523 112.442 40.2439 111.248 39.8645 110.135L37.9715 110.781C38.3422 111.868 38.7847 113.169 39.2815 114.242C39.5299 114.779 39.81 115.299 40.1259 115.723C40.4247 116.124 40.8499 116.569 41.4296 116.752L42.0309 114.845ZM39.8645 110.135C39.6642 109.548 39.4699 108.978 39.2894 108.508C39.1236 108.077 38.922 107.598 38.6813 107.283L37.0927 108.498C37.0924 108.498 37.1039 108.513 37.1263 108.553C37.1479 108.591 37.1744 108.642 37.2057 108.708C37.269 108.842 37.3411 109.014 37.4226 109.226C37.5864 109.652 37.7673 110.182 37.9715 110.781L39.8645 110.135ZM38.6813 107.283C38.4085 106.927 37.8112 106.36 37.0893 105.746C36.3411 105.11 35.3862 104.364 34.3408 103.639C33.2972 102.916 32.1478 102.204 31.0123 101.647C29.8907 101.097 28.7155 100.664 27.6355 100.561L27.4449 102.552C28.1754 102.622 29.0987 102.936 30.1316 103.443C31.1504 103.943 32.2113 104.597 33.2016 105.283C34.1902 105.968 35.093 106.674 35.7941 107.27C36.5215 107.888 36.9652 108.332 37.0927 108.498L38.6813 107.283ZM27.6355 100.561C27.2598 100.525 26.8454 100.579 26.4468 100.664C26.0343 100.752 25.5714 100.888 25.0748 101.058C24.0812 101.399 22.89 101.897 21.5896 102.493C18.9856 103.685 15.8706 105.302 12.8848 106.921C9.89576 108.542 7.02201 110.172 4.89648 111.397C3.83342 112.009 2.95683 112.521 2.34572 112.879C2.04016 113.059 1.80093 113.2 1.63791 113.296C1.55641 113.344 1.49395 113.381 1.45177 113.406C1.43069 113.419 1.41467 113.428 1.40388 113.435C1.39848 113.438 1.39439 113.44 1.39163 113.442C1.39025 113.443 1.3892 113.443 1.38848 113.444C1.38812 113.444 1.38783 113.444 1.38765 113.444C1.38745 113.444 1.38733 113.444 1.89844 114.304C2.40954 115.163 2.40959 115.163 2.40972 115.163C2.40988 115.163 2.4101 115.163 2.41041 115.163C2.41103 115.163 2.41198 115.162 2.41327 115.161C2.41585 115.16 2.41974 115.157 2.42494 115.154C2.43535 115.148 2.45097 115.139 2.47166 115.127C2.51304 115.102 2.57467 115.066 2.65533 115.018C2.81665 114.923 3.05406 114.783 3.3577 114.604C3.965 114.248 4.83706 113.739 5.89502 113.13C8.01152 111.91 10.8693 110.289 13.838 108.679C16.8101 107.068 19.8792 105.476 22.4225 104.311C23.6957 103.728 24.819 103.26 25.7227 102.951C26.1747 102.796 26.5562 102.686 26.8642 102.62C27.1859 102.552 27.368 102.544 27.4449 102.552L27.6355 100.561ZM0.898438 114.304V121.524H2.89844V114.304H0.898438ZM1.89844 121.524C2.35714 122.413 2.35719 122.413 2.35729 122.413C2.35739 122.413 2.35754 122.413 2.35773 122.412C2.35812 122.412 2.3587 122.412 2.35946 122.412C2.36099 122.411 2.36328 122.41 2.36631 122.408C2.37236 122.405 2.38138 122.4 2.39328 122.394C2.41707 122.382 2.45237 122.364 2.49844 122.34C2.59058 122.292 2.7258 122.222 2.89826 122.133C3.24317 121.955 3.73705 121.699 4.33305 121.39C5.52495 120.771 7.12574 119.939 8.76064 119.083C10.395 118.227 12.0657 117.346 13.3967 116.631C14.6906 115.936 15.7467 115.355 16.0781 115.124L14.9341 113.484C14.7248 113.63 13.8095 114.139 12.4506 114.869C11.1287 115.579 9.46514 116.456 7.83277 117.311C6.20093 118.166 4.60259 118.997 3.41205 119.614C2.81682 119.923 2.32364 120.179 1.9793 120.357C1.80714 120.446 1.67219 120.516 1.58031 120.563C1.53437 120.587 1.4992 120.605 1.47553 120.617C1.46369 120.623 1.45473 120.628 1.44873 120.631C1.44574 120.633 1.44348 120.634 1.44198 120.634C1.44123 120.635 1.44066 120.635 1.44029 120.635C1.4401 120.635 1.43996 120.636 1.43987 120.636C1.43978 120.636 1.43974 120.636 1.89844 121.524ZM16.0781 115.124C16.1269 115.09 16.188 115.047 16.2583 114.998L15.1087 113.361C15.0374 113.411 14.9796 113.452 14.9342 113.484L16.0781 115.124ZM16.2582 114.998C17.0358 114.452 19.1432 112.972 21.3017 111.762C22.3848 111.154 23.443 110.636 24.3307 110.334C24.7748 110.182 25.1422 110.097 25.4275 110.07C25.724 110.043 25.8433 110.088 25.8644 110.098L26.7754 108.318C26.2818 108.065 25.7313 108.034 25.2436 108.079C24.7447 108.125 24.2135 108.261 23.6854 108.441C22.6286 108.801 21.4478 109.387 20.3234 110.017C18.0669 111.283 15.8854 112.816 15.1087 113.361L16.2582 114.998ZM25.8644 110.098C26.0372 110.187 26.3607 110.424 26.8397 110.853C27.2984 111.264 27.8407 111.795 28.4392 112.409C29.6363 113.638 31.0174 115.154 32.3439 116.611L33.8227 115.265C32.5027 113.815 31.0971 112.271 29.8716 111.014C29.2589 110.385 28.6809 109.817 28.1735 109.363C27.6863 108.927 27.1976 108.534 26.7754 108.318L25.8644 110.098ZM32.3439 116.611C33.4108 117.783 34.4444 118.918 35.3001 119.811C35.7279 120.258 36.1202 120.653 36.4561 120.967C36.7719 121.262 37.1007 121.546 37.3873 121.711L38.3867 119.978C38.3195 119.94 38.1384 119.802 37.8215 119.506C37.5247 119.228 37.1615 118.863 36.7442 118.428C35.9099 117.557 34.8954 116.443 33.8227 115.265L32.3439 116.611ZM37.3873 121.711C38.2755 122.223 39.755 122.812 41.2958 123.242C42.8224 123.668 44.5599 123.981 45.9352 123.837L45.728 121.848C44.7343 121.952 43.2909 121.722 41.8332 121.316C40.3896 120.913 39.0814 120.379 38.3867 119.978L37.3873 121.711ZM45.9352 123.837C46.5402 123.774 47.1657 123.404 47.6912 123.035C48.2631 122.633 48.9034 122.093 49.5717 121.484C50.9096 120.266 52.4479 118.69 53.9077 117.194L52.4766 115.797C51.0042 117.306 49.5104 118.835 48.2251 120.006C47.5818 120.592 47.0128 121.067 46.5412 121.398C46.3057 121.564 46.111 121.682 45.9566 121.758C45.7928 121.839 45.7234 121.849 45.728 121.848L45.9352 123.837ZM53.9077 117.194C55.1259 115.947 56.2885 114.756 57.2701 113.833C57.7609 113.372 58.1918 112.992 58.5507 112.711C58.9339 112.411 59.1539 112.29 59.2362 112.262L58.5793 110.373C58.1621 110.518 57.7212 110.821 57.3182 111.136C56.8909 111.47 56.4103 111.897 55.9004 112.376C54.8807 113.335 53.6851 114.56 52.4766 115.797L53.9077 117.194ZM59.2362 112.262C59.635 112.123 60.3699 112.061 61.4031 112.082C62.3999 112.103 63.5363 112.195 64.6707 112.287L64.8329 110.294C63.7136 110.203 62.5133 110.105 61.4442 110.083C60.4115 110.061 59.3511 110.104 58.5793 110.373L59.2362 112.262ZM64.6707 112.287C65.6597 112.367 66.6536 112.449 67.4955 112.472C67.9177 112.483 68.3214 112.481 68.6811 112.454C69.0269 112.428 69.3972 112.375 69.7194 112.252L69.0078 110.383C68.9534 110.403 68.8082 110.439 68.5303 110.46C68.2662 110.48 67.938 110.483 67.5506 110.473C66.7735 110.451 65.8382 110.375 64.8329 110.294L64.6707 112.287ZM69.7194 112.252C70.2823 112.038 70.7394 111.613 71.0976 111.187C71.4671 110.748 71.8028 110.22 72.102 109.682C72.6995 108.608 73.2165 107.372 73.5973 106.464L71.7529 105.691C71.3643 106.617 70.8886 107.749 70.3542 108.71C70.0874 109.19 69.8224 109.596 69.5669 109.9C69.3001 110.217 69.108 110.345 69.0078 110.383L69.7194 112.252ZM73.5973 106.464C73.7615 106.072 73.8961 105.752 74.0067 105.511L72.1891 104.676C72.0614 104.954 71.9121 105.311 71.7529 105.691L73.5973 106.464ZM74.0067 105.511C74.1196 105.265 74.203 104.895 74.2707 104.554C74.3469 104.171 74.4285 103.684 74.5137 103.12C74.6846 101.991 74.876 100.517 75.0732 98.8808C75.4677 95.6055 75.889 91.6471 76.2201 88.4205L74.2305 88.2164C73.8998 91.4397 73.48 95.3841 73.0875 98.6416C72.8912 100.271 72.7026 101.722 72.5363 102.821C72.4529 103.372 72.3766 103.825 72.3091 104.164C72.2333 104.545 72.1874 104.68 72.1891 104.676L74.0067 105.511ZM80.2312 85.1516C78.4603 85.9147 76.5108 86.7545 74.8673 87.3848L75.5834 89.2522C77.2725 88.6045 79.2621 87.747 81.0226 86.9884L80.2312 85.1516ZM85.5513 83.2101C85.317 83.1808 85.0953 83.229 84.9937 83.2521C84.8557 83.2836 84.7042 83.3288 84.5507 83.3794C84.2415 83.4813 83.8554 83.6282 83.4226 83.8019C82.5546 84.1505 81.4315 84.6344 80.2312 85.1516L81.0226 86.9884C82.2317 86.4674 83.3283 85.995 84.1678 85.6579C84.5888 85.4889 84.9284 85.3607 85.1767 85.2789C85.3019 85.2376 85.3871 85.2138 85.4386 85.202C85.5266 85.182 85.4473 85.2127 85.3033 85.1946L85.5513 83.2101ZM88.5745 85.6211C88.1304 85.1079 87.6638 84.5669 87.218 84.1477C86.8116 83.7656 86.2344 83.2955 85.5513 83.2101L85.3033 85.1946C85.2898 85.193 85.4536 85.234 85.8479 85.6048C86.2029 85.9386 86.5969 86.3922 87.062 86.9298L88.5745 85.6211ZM91.9183 88.3165C91.5454 88.3165 91.0575 88.1016 90.4241 87.5649C89.8062 87.0414 89.1999 86.344 88.5745 85.6211L87.062 86.9298C87.6638 87.6253 88.373 88.4484 89.1312 89.0908C89.8737 89.72 90.8223 90.3165 91.9183 90.3165V88.3165ZM101.95 82.6288C101.283 81.8836 101.283 81.8835 101.283 81.8835C101.283 81.8836 101.283 81.8836 101.283 81.8837C101.283 81.8838 101.282 81.884 101.282 81.8843C101.281 81.885 101.28 81.8861 101.279 81.8875C101.275 81.8904 101.27 81.8949 101.263 81.9009C101.25 81.913 101.23 81.9311 101.203 81.9549C101.149 82.0026 101.069 82.073 100.966 82.163C100.76 82.3429 100.462 82.6008 100.096 82.9105C99.3632 83.5307 98.3625 84.3553 97.2858 85.178C96.2051 86.0037 95.0667 86.8128 94.0555 87.4107C93.5495 87.7099 93.0939 87.9451 92.7063 88.1029C92.3021 88.2675 92.0469 88.3165 91.9183 88.3165V90.3165C92.4289 90.3165 92.9666 90.1564 93.4606 89.9553C93.9712 89.7474 94.5191 89.4601 95.0734 89.1323C96.1828 88.4763 97.3924 87.6135 98.5 86.7673C99.6115 85.918 100.639 85.0708 101.388 84.437C101.763 84.1198 102.069 83.8551 102.281 83.6693C102.388 83.5764 102.471 83.5032 102.528 83.4529C102.556 83.4277 102.578 83.4083 102.593 83.3951C102.6 83.3884 102.606 83.3833 102.61 83.3798C102.612 83.378 102.614 83.3767 102.615 83.3757C102.615 83.3752 102.616 83.3749 102.616 83.3746C102.616 83.3744 102.616 83.3743 102.616 83.3742C102.616 83.3741 102.617 83.374 101.95 82.6288ZM111.981 88.3165C111.998 88.3165 111.85 88.3011 111.462 88.1215C111.116 87.9617 110.685 87.7226 110.189 87.4188C109.2 86.8129 108.027 85.9955 106.892 85.1654C105.76 84.3378 104.681 83.5088 103.884 82.8859C103.486 82.5746 103.159 82.3154 102.932 82.1343C102.818 82.0437 102.729 81.9727 102.669 81.9245C102.639 81.9004 102.617 81.882 102.601 81.8697C102.594 81.8635 102.588 81.8589 102.584 81.8559C102.582 81.8544 102.581 81.8532 102.58 81.8525C102.58 81.8522 102.579 81.8519 102.579 81.8517C102.579 81.8517 102.579 81.8516 102.579 81.8516C102.579 81.8516 102.579 81.8516 101.95 82.6288C101.321 83.4061 101.321 83.4061 101.321 83.4062C101.321 83.4063 101.321 83.4064 101.321 83.4065C101.321 83.4067 101.322 83.4071 101.322 83.4075C101.323 83.4084 101.325 83.4097 101.327 83.4114C101.331 83.4148 101.338 83.4198 101.346 83.4263C101.362 83.4393 101.386 83.4585 101.416 83.4833C101.478 83.5331 101.569 83.6058 101.685 83.6981C101.916 83.8826 102.248 84.1459 102.652 84.4616C103.46 85.0926 104.557 85.9355 105.711 86.7799C106.863 87.6217 108.087 88.4762 109.145 89.1242C109.672 89.4474 110.177 89.7308 110.622 89.9367C111.024 90.1228 111.522 90.3165 111.981 90.3165V88.3165ZM116.623 87.1649C115.609 87.4634 114.614 87.7561 113.765 87.9748C112.878 88.2031 112.272 88.3165 111.981 88.3165V90.3165C112.565 90.3165 113.412 90.1309 114.263 89.9116C115.153 89.6827 116.183 89.3793 117.188 89.0835L116.623 87.1649ZM121.876 85.9579C121.557 85.9389 121.186 85.9861 120.834 86.0487C120.465 86.1145 120.043 86.2113 119.597 86.3251C118.704 86.5523 117.653 86.8618 116.623 87.1649L117.188 89.0835C118.228 88.7773 119.241 88.4794 120.09 88.2633C120.514 88.1553 120.883 88.0714 121.185 88.0178C121.504 87.961 121.683 87.95 121.757 87.9543L121.876 85.9579ZM125.953 88.0023C125.196 87.5251 124.436 87.0452 123.78 86.6811C123.451 86.4986 123.128 86.3339 122.83 86.2097C122.549 86.0928 122.212 85.9779 121.876 85.9579L121.757 87.9543C121.754 87.9542 121.843 87.9652 122.061 88.0562C122.262 88.1399 122.512 88.265 122.81 88.43C123.406 88.761 124.114 89.2071 124.886 89.6939L125.953 88.0023ZM130.435 90.3107C130.447 90.3079 130.329 90.3288 130.001 90.2275C129.699 90.1343 129.322 89.9708 128.879 89.7433C127.992 89.2877 126.972 88.645 125.953 88.0023L124.886 89.6939C125.883 90.3231 126.983 91.0181 127.965 91.5223C128.456 91.7746 128.95 91.9965 129.411 92.1387C129.846 92.2728 130.384 92.3791 130.899 92.2561L130.435 90.3107ZM130.552 84.3809C130.552 86.0759 130.552 87.6997 130.446 88.9265C130.392 89.5457 130.316 89.9994 130.225 90.2874C130.18 90.4319 130.146 90.482 130.147 90.4804C130.152 90.4743 130.239 90.3575 130.435 90.3107L130.899 92.2561C131.317 92.1565 131.598 91.8895 131.772 91.6476C131.942 91.4103 132.054 91.1392 132.133 90.8891C132.291 90.3879 132.381 89.7589 132.438 89.0988C132.553 87.7669 132.552 86.0449 132.552 84.3809H130.552ZM132.1 76.3769C131.715 76.5149 131.465 76.7886 131.308 77.0278C131.152 77.2675 131.045 77.5384 130.968 77.7958C130.814 78.3105 130.724 78.9504 130.667 79.6246C130.552 80.9821 130.552 82.7161 130.552 84.3809H132.552C132.552 82.6866 132.553 81.0481 132.66 79.7934C132.713 79.1616 132.789 78.6854 132.884 78.3709C132.931 78.2137 132.97 78.1417 132.982 78.1222C132.995 78.1023 132.939 78.2006 132.776 78.2591L132.1 76.3769ZM139.747 77.8465C138.163 77.3905 136.585 76.9359 135.299 76.634C134.656 76.4832 134.06 76.3642 133.557 76.3036C133.109 76.2497 132.551 76.2147 132.1 76.3769L132.776 78.2591C132.738 78.2727 132.868 78.235 133.318 78.2893C133.714 78.3369 134.227 78.4369 134.842 78.5811C136.069 78.8691 137.593 79.3078 139.193 79.7685L139.747 77.8465ZM147.55 79.5607C147.556 79.5577 147.366 79.6149 146.807 79.5645C146.308 79.5195 145.665 79.4054 144.911 79.2365C143.403 78.8992 141.569 78.3714 139.747 77.8465L139.193 79.7685C140.998 80.2881 142.895 80.835 144.474 81.1883C145.262 81.3647 146.002 81.5 146.628 81.5564C147.195 81.6076 147.875 81.6185 148.403 81.3696L147.55 79.5607ZM147.96 69.3485C148.033 71.4774 148.121 74.0652 148.027 76.1973C147.98 77.2678 147.889 78.1754 147.741 78.8332C147.667 79.1636 147.589 79.3878 147.519 79.5246C147.442 79.6757 147.43 79.6174 147.55 79.5607L148.403 81.3696C148.859 81.1545 149.134 80.7614 149.302 80.4313C149.477 80.0869 149.601 79.6834 149.693 79.2698C149.879 78.4396 149.976 77.3936 150.025 76.2853C150.123 74.0598 150.031 71.3889 149.959 69.2801L147.96 69.3485ZM148.014 65.1926C147.932 65.4315 147.912 65.7267 147.902 65.9347C147.889 66.1845 147.887 66.4892 147.89 66.8281C147.897 67.5069 147.927 68.3838 147.96 69.3485L149.959 69.2801C149.925 68.3058 149.896 67.4574 149.89 66.8088C149.887 66.484 149.89 66.2245 149.899 66.0326C149.911 65.7988 149.929 65.7747 149.906 65.8399L148.014 65.1926ZM155.879 64.9543C154.209 64.7103 152.53 64.4645 151.245 64.349C150.609 64.2918 150.022 64.2617 149.562 64.2899C149.338 64.3036 149.084 64.3341 148.85 64.4118C148.664 64.4736 148.195 64.6627 148.014 65.1926L149.906 65.8399C149.838 66.0406 149.713 66.1646 149.628 66.2281C149.549 66.2873 149.488 66.3074 149.482 66.3096C149.473 66.3125 149.527 66.2958 149.685 66.2861C149.987 66.2676 150.452 66.2857 151.066 66.341C152.283 66.4504 153.899 66.6862 155.589 66.9333L155.879 64.9543ZM162.5 65.9096C162.647 65.634 162.871 65.589 162.803 65.6105C162.772 65.6203 162.675 65.6417 162.484 65.6542C162.108 65.6788 161.559 65.6592 160.861 65.599C159.475 65.4795 157.68 65.2176 155.879 64.9543L155.589 66.9333C157.371 67.1935 159.231 67.4659 160.69 67.5916C161.414 67.654 162.084 67.6847 162.615 67.6499C162.876 67.6328 163.154 67.597 163.406 67.5175C163.62 67.4498 164.034 67.2834 164.265 66.8496L162.5 65.9096ZM159.602 57.3667C160.392 59.5352 161.178 61.6971 161.727 63.3951C162.002 64.2466 162.209 64.9561 162.326 65.4793C162.385 65.7433 162.415 65.9313 162.425 66.0521C162.429 66.1124 162.427 66.1333 162.428 66.1258C162.428 66.1208 162.43 66.0993 162.439 66.0663C162.447 66.0341 162.464 65.9776 162.5 65.9096L164.265 66.8496C164.374 66.6451 164.407 66.4428 164.419 66.3108C164.432 66.1675 164.429 66.0251 164.418 65.8963C164.398 65.6391 164.346 65.3462 164.277 65.0415C164.14 64.4273 163.91 63.6484 163.63 62.7805C163.068 61.0398 162.267 58.8391 161.482 56.6826L159.602 57.3667ZM156.86 47.899C156.76 48.2072 156.786 48.5344 156.809 48.733C156.837 48.9737 156.892 49.2472 156.961 49.5354C157.099 50.1146 157.318 50.8415 157.583 51.6522C158.114 53.2771 158.859 55.325 159.602 57.3667L161.482 56.6826C160.735 54.63 160.002 52.6174 159.484 51.0311C159.224 50.2363 159.025 49.57 158.906 49.0703C158.846 48.8191 158.811 48.6317 158.796 48.5028C158.776 48.332 158.806 48.3809 158.763 48.5151L156.86 47.899ZM163.034 44.2357C161.573 44.9008 160.185 45.5325 159.14 46.0719C158.619 46.3406 158.153 46.6016 157.795 46.8457C157.617 46.9673 157.441 47.1009 157.292 47.2452C157.16 47.3721 156.959 47.592 156.86 47.899L158.763 48.5151C158.71 48.677 158.629 48.7343 158.682 48.6824C158.718 48.648 158.792 48.5866 158.921 48.4985C159.178 48.3233 159.559 48.1061 160.057 47.8492C161.049 47.3375 162.385 46.7287 163.863 46.0559L163.034 44.2357ZM172.158 39.0671C172.162 39.0241 172.171 39.0685 172.065 39.2127C171.963 39.3512 171.794 39.5285 171.539 39.7411C171.03 40.1667 170.289 40.6443 169.374 41.1567C167.55 42.1786 165.203 43.248 163.034 44.2357L163.863 46.0559C166.01 45.0783 168.44 43.9726 170.352 42.9015C171.305 42.3674 172.172 41.8191 172.822 41.2758C173.147 41.004 173.445 40.7111 173.676 40.3983C173.902 40.0911 174.108 39.703 174.149 39.2509L172.158 39.0671ZM163.975 29.5873C165.922 31.5362 168.053 33.6705 169.679 35.5202C170.494 36.4468 171.158 37.2751 171.604 37.9543C171.827 38.2942 171.979 38.5725 172.069 38.7888C172.166 39.0222 172.155 39.0984 172.158 39.0671L174.149 39.2509C174.19 38.8085 174.064 38.3765 173.916 38.0202C173.76 37.6469 173.536 37.2539 173.276 36.8567C172.754 36.0615 172.018 35.1514 171.181 34.1996C169.504 32.2924 167.324 30.1099 165.391 28.1741L163.975 29.5873ZM158.786 23.5465C158.822 23.8335 158.952 24.0812 159.04 24.2333C159.144 24.4106 159.275 24.5966 159.419 24.7824C159.706 25.1554 160.097 25.5994 160.548 26.0865C161.454 27.0629 162.676 28.2862 163.975 29.5873L165.391 28.1741C164.081 26.863 162.89 25.6695 162.015 24.7263C161.576 24.2534 161.234 23.8619 161.002 23.5613C160.886 23.4103 160.811 23.3 160.768 23.2263C160.711 23.1272 160.754 23.1691 160.771 23.3002L158.786 23.5465ZM162.071 18.6284C161.306 19.4463 160.495 20.3126 159.89 21.0754C159.588 21.4562 159.311 21.8434 159.112 22.2109C158.936 22.5383 158.721 23.0258 158.786 23.5465L160.771 23.3002C160.787 23.4327 160.733 23.4189 160.872 23.1611C160.99 22.9434 161.185 22.6614 161.457 22.3182C162 21.6328 162.749 20.8313 163.531 19.9944L162.071 18.6284ZM164.715 15.6257C164.654 15.4021 164.762 15.3274 164.636 15.5717C164.539 15.7602 164.364 16.0195 164.104 16.3496C163.586 17.0067 162.853 17.7921 162.071 18.6284L163.531 19.9944C164.294 19.179 165.093 18.3255 165.675 17.5879C165.964 17.2207 166.231 16.8438 166.415 16.486C166.57 16.184 166.798 15.6529 166.643 15.0919L164.715 15.6257ZM157.214 14.0223C158.974 14.3373 160.952 14.6917 162.519 15.0745C163.307 15.2669 163.95 15.457 164.396 15.6387C164.622 15.7306 164.756 15.8044 164.824 15.8519C164.922 15.9201 164.78 15.8586 164.715 15.6257L166.643 15.0919C166.517 14.6387 166.18 14.3592 165.969 14.2118C165.728 14.0438 165.441 13.9047 165.151 13.7867C164.567 13.5486 163.81 13.331 162.994 13.1316C161.353 12.731 159.308 12.3654 157.566 12.0536L157.214 14.0223ZM153.072 13.1227C153.429 13.2844 154.063 13.4271 154.712 13.5584C155.411 13.6996 156.283 13.8558 157.214 14.0223L157.566 12.0536C156.628 11.8857 155.78 11.7339 155.109 11.5981C154.773 11.5303 154.492 11.4685 154.273 11.413C154.163 11.3853 154.075 11.3607 154.007 11.3394C153.973 11.3288 153.947 11.3199 153.927 11.3127C153.917 11.3091 153.91 11.3062 153.905 11.304C153.902 11.303 153.9 11.3021 153.899 11.3016C153.897 11.301 153.896 11.3007 153.897 11.3007L153.072 13.1227ZM151.811 8.5436C151.814 9.38596 151.815 10.2984 151.909 11.0377C151.956 11.4077 152.034 11.7974 152.178 12.1415C152.32 12.4786 152.581 12.9004 153.072 13.1227L153.897 11.3007C154.056 11.3729 154.068 11.4767 154.022 11.3672C153.979 11.2646 153.93 11.0792 153.893 10.7848C153.818 10.1953 153.814 9.42236 153.811 8.53772L151.811 8.5436ZM151.449 5.09657C151.44 5.08865 151.495 5.13575 151.564 5.33453C151.629 5.52558 151.684 5.78898 151.724 6.12929C151.805 6.81542 151.809 7.65114 151.811 8.54359L153.811 8.53772C153.809 7.67779 153.807 6.71834 153.711 5.89578C153.662 5.48173 153.585 5.0624 153.455 4.6835C153.327 4.31233 153.121 3.90226 152.766 3.59109L151.449 5.09657ZM139.992 6.74706C142.479 6.2656 145.304 5.71899 147.618 5.38957C148.778 5.22444 149.779 5.11861 150.529 5.09876C150.906 5.08878 151.188 5.10165 151.381 5.12946C151.619 5.16382 151.567 5.20009 151.449 5.09657L152.766 3.5911C152.422 3.29096 151.973 3.19418 151.667 3.14999C151.315 3.09925 150.907 3.08806 150.476 3.09946C149.61 3.12237 148.52 3.24101 147.337 3.40953C144.963 3.74739 142.085 4.30474 139.612 4.7835L139.992 6.74706ZM134.208 7.70418C134.684 7.70418 135.517 7.57752 136.468 7.41098C137.455 7.23813 138.677 7.00147 139.992 6.74706L139.612 4.7835C138.291 5.03909 137.089 5.27187 136.123 5.44097C135.122 5.61639 134.475 5.70418 134.208 5.70418V7.70418ZM127.285 4.92506C128.67 5.60457 130.056 6.285 131.225 6.79452C131.81 7.0494 132.36 7.26969 132.84 7.42782C133.296 7.5778 133.783 7.70418 134.208 7.70418V5.70418C134.119 5.70418 133.887 5.66662 133.465 5.52802C133.069 5.39757 132.583 5.20464 132.024 4.96097C130.905 4.4734 129.564 3.81541 128.166 3.12962L127.285 4.92506ZM120.242 2C120.411 2 120.734 2.0568 121.238 2.2174C121.721 2.37147 122.299 2.59694 122.949 2.87656C124.251 3.43624 125.769 4.18089 127.285 4.92507L128.166 3.12962C126.663 2.39179 125.096 1.62277 123.74 1.03928C123.061 0.747314 122.416 0.493822 121.845 0.311835C121.295 0.136364 120.731 0 120.242 0V2ZM113.995 5.06289C115.293 4.29195 116.611 3.50933 117.772 2.91785C118.352 2.62259 118.872 2.38575 119.315 2.22463C119.775 2.05731 120.076 2 120.242 2V0C119.726 0 119.163 0.151468 118.631 0.345229C118.081 0.545182 117.481 0.821719 116.865 1.13563C115.634 1.76251 114.256 2.58147 112.973 3.34342L113.995 5.06289ZM108.441 7.70418C108.844 7.70418 109.272 7.56982 109.636 7.42789C110.026 7.27576 110.462 7.06599 110.918 6.8269C111.83 6.34908 112.908 5.7084 113.995 5.06289L112.973 3.34341C111.872 3.99781 110.845 4.60765 109.99 5.05537C109.563 5.27904 109.201 5.4508 108.909 5.5645C108.764 5.62106 108.649 5.65842 108.561 5.68081C108.468 5.70433 108.433 5.70418 108.441 5.70418V7.70418ZM101.841 5.21838C103.248 5.84601 104.612 6.45392 105.725 6.90419C106.281 7.12925 106.792 7.3218 107.225 7.45951C107.625 7.5866 108.068 7.70418 108.441 7.70418V5.70418C108.442 5.70418 108.393 5.70267 108.272 5.67605C108.158 5.65111 108.012 5.61107 107.831 5.55352C107.469 5.43828 107.012 5.26731 106.475 5.0501C105.401 4.61582 104.074 4.02416 102.655 3.39168L101.841 5.21838ZM93.2951 2C93.5297 2 93.9487 2.07367 94.5686 2.25631C95.1672 2.43264 95.8799 2.68791 96.6712 2.99847C98.2543 3.61982 100.086 4.43599 101.841 5.21838L102.655 3.39168C100.911 2.6143 99.0356 1.77795 97.4019 1.13673C96.5847 0.815998 95.8115 0.53747 95.1338 0.337828C94.4776 0.14449 93.8301 0 93.2951 0V2ZM88.2 5.01416C89.2108 4.23765 90.2178 3.46517 91.1544 2.88336C92.1319 2.27621 92.8459 2 93.2951 2V0C92.2329 0 91.0956 0.565478 90.0991 1.18446C89.0618 1.82879 87.9725 2.66689 86.9816 3.42816L88.2 5.01416ZM83.4603 7.70418C83.8865 7.70418 84.3003 7.56843 84.6526 7.41254C85.0176 7.25109 85.3971 7.03122 85.7744 6.78723C86.5256 6.30145 87.3686 5.65291 88.2 5.01416L86.9816 3.42816C86.13 4.08239 85.357 4.67535 84.6883 5.10784C84.3556 5.32299 84.0743 5.48143 83.8435 5.58353C83.6002 5.69118 83.4834 5.70418 83.4603 5.70418V7.70418ZM79.1601 6.49396C79.9488 6.78498 80.7523 7.08181 81.4659 7.30465C82.1516 7.51878 82.872 7.70418 83.4603 7.70418V5.70418C83.2066 5.70418 82.7452 5.60888 82.0621 5.39556C81.4068 5.19095 80.6545 4.91359 79.8526 4.61764L79.1601 6.49396ZM74.6163 5.26006C74.6076 5.26388 74.6327 5.25152 74.7117 5.24419C74.7893 5.23701 74.8976 5.23658 75.0414 5.24952C75.3325 5.27569 75.7031 5.35017 76.1473 5.47046C77.0379 5.71162 78.0858 6.09749 79.1601 6.49396L79.8526 4.61764C78.8025 4.23013 77.6643 3.80922 76.6701 3.53999C76.172 3.40509 75.6757 3.29848 75.2206 3.25755C74.7871 3.21857 74.2738 3.22695 73.815 3.42761L74.6163 5.26006ZM73.8969 8.62137C74.0145 7.67052 74.1245 6.79338 74.2992 6.10786C74.3861 5.76689 74.4766 5.52587 74.5625 5.3705C74.6516 5.20946 74.6857 5.22971 74.6163 5.26006L73.815 3.42761C73.324 3.64233 73.0122 4.04125 72.8123 4.40273C72.6093 4.76987 72.4679 5.19521 72.3612 5.614C72.1487 6.44799 72.0248 7.46392 71.9121 8.37607L73.8969 8.62137ZM72.3783 13.064C72.7737 12.8214 73.0121 12.448 73.162 12.1338C73.3178 11.8072 73.4291 11.4355 73.5151 11.0679C73.6862 10.3363 73.7949 9.44719 73.8969 8.62138L71.9121 8.37607C71.8059 9.23537 71.7093 10.0068 71.5676 10.6124C71.4972 10.9134 71.4252 11.1295 71.3569 11.2725C71.2828 11.4279 71.2563 11.406 71.3324 11.3593L72.3783 13.064ZM64.9998 11.9052C66.4099 12.316 67.9081 12.753 69.145 13.0296C69.7617 13.1676 70.3486 13.2739 70.8466 13.3128C71.0957 13.3322 71.3492 13.3372 71.5877 13.3121C71.8129 13.2884 72.1072 13.2304 72.3783 13.064L71.3324 11.3593C71.4241 11.303 71.4672 11.3138 71.3788 11.323C71.3039 11.3309 71.1816 11.3329 71.0024 11.3189C70.6439 11.2908 70.1641 11.2081 69.5815 11.0778C68.4197 10.818 66.9887 10.4015 65.5592 9.98504L64.9998 11.9052Z" fill="black"/>
<path d="M65.2489 45.5646C65.0298 45.2484 64.9496 44.9156 64.9735 44.6106C64.9942 44.447 65.177 44.123 65.5218 43.6385C65.7244 43.3121 65.9667 42.9809 66.2091 42.6497C67.1117 41.2726 68.0382 39.5905 68.9886 37.6034L71.4092 32.4187C71.7024 31.8397 72.1258 31.507 72.7216 31.4356C72.9996 31.4023 73.195 31.5199 73.3275 31.786C73.4379 32.0347 73.5181 32.3675 73.6077 32.7798C73.7458 33.4279 73.7886 33.7854 73.8132 33.8227C74.533 36.6371 75.3895 39.4149 76.783 41.9673C76.9767 42.4074 77.0719 42.6981 77.0489 42.8419C76.9939 43.3923 76.2066 44.0507 75.6705 44.1149C75.4123 44.1458 75.1606 43.894 74.9526 43.3347C74.8256 42.9471 74.7184 42.5571 74.6089 42.1472C72.6182 42.8489 70.1184 43.6721 67.1443 44.5722C66.6707 45.495 66.3037 45.962 66.0257 45.9953C65.7278 46.031 65.4681 45.8808 65.2489 45.5646ZM68.3244 42.3158C70.3889 41.7261 72.2803 41.0362 74.0136 40.2042C73.6358 38.8999 73.058 36.9346 72.2428 34.3331C71.6492 35.4315 70.3555 38.0842 68.3244 42.3158ZM79.5247 43.7942C79.4143 43.5456 79.6286 40.9618 80.1872 36.0404C79.7384 35.9934 79.4534 35.4636 79.5178 34.9926C79.5465 34.7273 79.7292 34.4032 80.0264 34.0252C82.0858 31.5427 84.1989 30.1817 86.3634 29.9224C87.5946 29.7749 88.6105 30.0158 89.4483 30.6205C90.3354 31.2998 90.6927 32.2641 90.5399 33.5112C90.1285 36.8035 86.1018 38.8368 83.2937 39.7774C84.709 40.4942 85.9298 40.9321 86.9536 41.0714C87.095 41.0746 87.2586 41.0952 87.4842 41.1287C87.6946 41.2042 87.8082 41.3114 87.77 41.4973C87.731 41.8444 87.2575 42.2637 86.8604 42.3112C85.4306 42.4825 82.6999 41.883 81.3783 41.2759C81.36 41.4594 81.3758 41.7596 81.4059 42.179C81.4511 42.5563 81.4495 42.8788 81.4161 43.1044C81.3389 43.6373 80.5954 43.9883 80.1188 44.0453C79.801 44.0834 79.5906 44.0079 79.5247 43.7942ZM81.4544 38.5475C84.4633 38.1065 86.4865 37.3404 87.5019 36.2318C88.1955 35.4639 88.5912 34.7316 88.6716 34.0572C88.7647 33.3209 88.4749 32.7514 87.7799 32.331C87.174 31.9806 86.4726 31.8431 85.6982 31.9358C84.5663 32.0714 83.327 32.8241 81.9978 34.1718C81.7695 35.6293 81.581 37.082 81.4544 38.5475ZM91.9792 42.2822C91.8958 42.0908 92.1228 39.445 92.6577 34.3251C92.51 34.101 92.4568 33.8254 92.4982 33.4982C92.5419 33.1908 92.6651 32.8739 92.9273 32.5403C93.0497 32.3847 93.319 32.1107 93.6956 31.7232C95.7127 29.7291 97.6955 28.6255 99.6813 28.3876C101.131 28.2139 102.325 28.5947 103.205 29.5568C104.066 30.5212 104.435 31.7461 104.251 33.2386C103.985 35.2243 102.832 37.0342 100.77 38.651C98.3785 40.5489 96.0772 41.3482 93.2596 42.2094C92.6408 42.4246 92.3326 42.5421 92.3326 42.5421C92.1539 42.5635 92.0427 42.4761 91.9792 42.2822ZM94.4316 32.8234C93.9998 35.2722 93.7538 37.7591 93.8105 40.25C97.0117 39.5644 101.648 37.7401 102.128 34.0165C102.275 32.891 101.987 31.999 101.301 31.3157C100.578 30.6571 99.6984 30.3797 98.6062 30.5105C97.236 30.6747 95.8379 31.4464 94.4316 32.8234ZM106.222 40.5762C106.116 40.3673 106.232 38.6413 106.571 35.4181C106.157 35.3267 105.997 35.0034 106.057 34.4926C106.121 34.0216 106.381 33.6682 106.779 33.4594C106.811 33.0527 107.118 29.3903 107.223 29.2569C107.306 28.9447 107.439 28.7072 107.678 28.5175C107.788 28.4238 108.074 28.2888 108.494 28.0974C109.185 27.8132 109.876 27.529 110.565 27.225C111.353 26.909 112.036 26.7264 112.651 26.6527L113.307 26.5742C113.86 26.4878 114.24 26.4624 114.446 26.4982C114.815 26.5547 115.137 26.7176 115.371 26.9917C115.585 27.2681 115.698 27.5366 115.65 27.8043C115.611 28.1514 115.277 28.3928 114.629 28.5309C113.077 28.8578 112.096 29.076 111.668 29.2078C110.831 29.4491 109.854 29.8682 108.757 30.4629C108.604 31.2064 108.476 31.9871 108.39 32.783C110.906 31.7565 113.127 31.1279 115.093 30.8924C115.47 30.8472 115.771 30.8314 115.974 30.8473C116.234 30.8363 116.507 30.9245 116.789 31.0922C117.093 31.2773 117.241 31.5013 117.21 31.7467C117.181 32.012 116.825 32.236 116.122 32.4209C112.672 33.2168 110.031 34.0368 108.156 34.8656C108.033 36.1897 107.984 37.4645 108.03 38.6878C108.983 38.5736 110.081 38.3212 111.363 37.926L114.733 36.7972C114.946 36.7313 115.103 36.6924 115.222 36.6781C115.639 36.6282 115.839 36.7855 115.783 37.1548C115.555 39.4583 109.121 40.7325 107.393 40.9395C106.778 41.0132 106.381 40.8995 106.222 40.5762Z" fill="black"/>
<path d="M122.107 41.0712C122.022 40.8599 122.129 39.2356 122.415 36.2403C122.611 33.84 122.801 32.0648 122.946 30.9194C123.037 30.1633 123.138 29.6676 123.271 29.4302C123.475 28.9425 123.883 28.6519 124.479 28.5805C124.876 28.533 125.071 28.6506 125.027 28.9579C125.04 28.896 124.908 29.4758 124.689 30.6704C124.158 33.4734 123.819 36.3542 123.918 39.2026C124.99 39.0742 126.013 38.871 126.985 38.5734C127.161 38.5321 127.875 38.2654 129.13 37.8129C130.171 37.4263 130.849 37.204 131.108 37.1731C131.525 37.1232 131.725 37.2805 131.671 37.6697C131.613 38.2003 131.306 38.6601 130.748 39.0492C129.108 40.1521 125.629 41.2133 123.663 41.4488C122.77 41.5559 122.272 41.4342 122.107 41.0712ZM133.188 40.2677C132.969 39.9515 132.888 39.6187 132.912 39.3137C132.933 39.15 133.116 38.826 133.461 38.3416C133.663 38.0151 133.906 37.684 134.148 37.3528C135.051 35.9757 135.977 34.2935 136.927 32.3064L139.348 27.1217C139.641 26.5427 140.065 26.21 140.66 26.1387C140.938 26.1054 141.134 26.223 141.266 26.4891C141.377 26.7377 141.457 27.0705 141.547 27.4828C141.685 28.131 141.727 28.4884 141.752 28.5258C142.472 31.3401 143.328 34.118 144.722 36.6704C144.916 37.1105 145.011 37.4012 144.988 37.545C144.933 38.0954 144.146 38.7537 143.609 38.8179C143.351 38.8489 143.099 38.597 142.891 38.0378C142.764 37.6501 142.657 37.2601 142.548 36.8502C140.557 37.552 138.057 38.3751 135.083 39.2752C134.61 40.1981 134.243 40.6651 133.965 40.6984C133.667 40.734 133.407 40.5839 133.188 40.2677ZM136.263 37.0189C138.328 36.4291 140.219 35.7393 141.952 34.9072C141.575 33.6029 140.997 31.6377 140.182 29.0362C139.588 30.1346 138.294 32.7873 136.263 37.0189Z" fill="black"/>
<path d="M60.7461 71.0806C60.1919 70.3211 59.9888 69.298 60.1543 67.989C60.7558 62.9215 65.6457 58.5086 70.6301 57.9116C71.1265 57.8521 71.4141 57.8983 71.495 58.0698C71.5466 58.1644 71.5251 58.4892 71.448 59.0222C71.4297 59.2057 71.4431 59.4861 71.5256 59.8388C71.5883 60.1938 71.6192 60.452 71.6009 60.6355C71.546 61.1859 70.5847 61.9053 70.0684 61.9672C69.85 61.9933 69.7023 61.7693 69.6079 61.3173C69.6072 60.975 69.5691 60.6573 69.5287 60.3197C67.1115 60.9919 65.2105 62.1059 63.7708 63.7085C62.5306 65.1261 61.8195 66.4199 61.677 67.5851C61.5736 68.4032 61.8109 69.0395 62.4066 69.4717C62.9379 69.8713 63.6392 70.0089 64.4733 69.909C66.181 69.7044 68.3736 68.3339 69.8345 67.4137C70.6583 66.892 71.1286 66.6141 71.2279 66.6022C71.4861 66.5713 71.5567 66.8247 71.4994 67.3552C71.466 67.5808 71.2737 67.8254 70.9472 68.1264C70.6684 68.3209 70.4094 68.5131 70.1528 68.7251C67.5351 70.7508 65.3116 71.8632 63.5045 72.0796C62.2535 72.2295 61.3473 71.8949 60.7461 71.0806ZM73.4666 70.8662C73.1894 70.7383 73.0941 70.4475 73.1609 69.9964C73.2159 69.4459 73.5996 69.118 74.2946 69.0347C74.513 69.0085 74.9944 68.9912 75.1731 68.9698C75.5703 68.9222 75.9452 68.8571 76.2407 68.8016C76.3627 66.7928 76.6461 63.7777 77.1108 59.7539C75.8994 60.4026 75.2154 60.7464 75.0367 60.7678C74.7785 60.7987 74.6006 60.6589 74.503 60.3483C74.4125 60.0973 74.4014 59.8367 74.4253 59.5317C74.5001 58.9789 74.7305 58.5484 75.1413 58.2777C76.5227 57.3669 78.1877 56.8049 80.0941 56.5765C80.809 56.4909 81.3324 56.4886 81.6621 56.5499C82.2172 56.6445 82.5357 56.9488 82.6547 57.4381C82.6889 57.5549 82.6833 57.6764 82.6777 57.7979C82.6546 57.9417 82.6268 58.0458 82.5744 58.1125C82.4544 58.288 82.1486 58.4253 81.6569 58.5245C80.5917 58.7125 79.6678 58.9038 78.883 59.0783C78.2819 62.1315 77.9437 65.1935 77.9946 68.3095C78.0717 68.2801 78.5539 68.1015 79.4761 67.7292C80.11 67.472 80.6168 67.3307 80.9941 67.2855C81.292 67.2498 81.4254 67.3547 81.3968 67.62C81.3427 68.0092 80.8953 68.6469 80.5243 68.9129C79.1325 69.9055 76.226 70.6968 74.5182 70.9014C74.0416 70.9585 73.677 70.9417 73.4666 70.8662ZM84.2758 69.3297C83.7 69.3987 83.4657 69.1246 83.5508 68.49C83.7808 66.71 83.9138 64.9618 84.0643 63.1913C84.21 61.3811 84.3589 59.9331 84.4933 58.8696C84.5968 58.0515 84.7113 57.4939 84.8766 57.1921C85.142 56.7172 85.6321 56.4369 86.347 56.3513C86.764 56.3013 86.9395 56.4213 86.9156 56.7263C86.9109 56.6866 86.7789 57.2664 86.5173 58.4459C86.2104 59.7517 85.9035 61.561 85.621 63.9113C85.391 65.6913 85.344 66.6436 85.502 66.7858C85.5663 66.8184 85.6481 66.8288 85.7872 66.8121C86.9786 66.6694 90.6035 64.6439 91.7855 63.9182C91.9767 61.4781 92.1781 59.4598 92.3699 57.8657C92.5496 56.6759 92.6992 55.5703 94.129 55.399C94.6254 55.3395 94.843 55.4746 94.8191 55.7796C94.7476 56.191 94.4271 57.72 94.2992 57.9972C93.78 60.5571 93.4244 63.1377 93.3761 65.7621C93.3759 66.7693 93.3607 67.3149 93.3527 67.4166C93.2931 67.9273 92.5392 68.3601 92.003 68.4243C91.6853 68.4623 91.5121 68.3622 91.4463 68.1485C91.4367 68.0691 91.475 67.3797 91.5984 66.0556C90.0477 67.0672 86.0234 69.1204 84.2758 69.3297ZM95.8237 67.9666C95.7403 67.7752 95.9672 65.1294 96.5021 60.0095C96.3544 59.7854 96.3013 59.5098 96.3426 59.1826C96.3864 58.8752 96.5096 58.5583 96.7718 58.2247C96.8941 58.0691 97.1635 57.7951 97.54 57.4076C99.5572 55.4135 101.54 54.3098 103.526 54.072C104.975 53.8983 106.169 54.2791 107.05 55.2412C107.911 56.2056 108.279 57.4305 108.095 58.923C107.829 60.9087 106.677 62.7186 104.614 64.3354C102.223 66.2333 99.9217 67.0326 97.1041 67.8938C96.4853 68.109 96.1771 68.2264 96.1771 68.2264C95.9984 68.2479 95.8872 68.1605 95.8237 67.9666ZM98.2761 58.5078C97.8443 60.9566 97.5983 63.4435 97.655 65.9344C100.856 65.2488 105.492 63.4245 105.973 59.7009C106.12 58.5754 105.832 57.6834 105.146 57.0001C104.422 56.3415 103.543 56.0641 102.451 56.1949C101.08 56.359 99.6823 57.1308 98.2761 58.5078ZM107.665 66.6288C107.446 66.3126 107.366 65.9798 107.39 65.6748C107.411 65.5111 107.593 65.1871 107.938 64.7027C108.141 64.3762 108.383 64.0451 108.625 63.7139C109.528 62.3368 110.455 60.6546 111.405 58.6675L113.826 53.4828C114.119 52.9038 114.542 52.5711 115.138 52.4998C115.416 52.4665 115.611 52.5841 115.744 52.8502C115.854 53.0988 115.934 53.4317 116.024 53.8439C116.162 54.4921 116.205 54.8495 116.23 54.8869C116.949 57.7012 117.806 60.4791 119.199 63.0315C119.393 63.4716 119.488 63.7623 119.465 63.9061C119.41 64.4565 118.623 65.1148 118.087 65.179C117.829 65.21 117.577 64.9581 117.369 64.3989C117.242 64.0112 117.135 63.6212 117.025 63.2113C115.035 63.9131 112.535 64.7362 109.561 65.6363C109.087 66.5592 108.72 67.0262 108.442 67.0595C108.144 67.0951 107.884 66.945 107.665 66.6288ZM110.741 63.38C112.805 62.7902 114.697 62.1004 116.43 61.2683C116.052 59.964 115.474 57.9988 114.659 55.3973C114.066 56.4957 112.772 59.1484 110.741 63.38ZM121.403 64.9027C121.319 64.7113 121.546 62.0655 122.081 56.9456C121.933 56.7215 121.88 56.4459 121.922 56.1187C121.965 55.8113 122.088 55.4944 122.351 55.1608C122.473 55.0052 122.742 54.7312 123.119 54.3437C125.136 52.3496 127.119 51.2459 129.105 51.0081C130.554 50.8344 131.748 51.2152 132.629 52.1773C133.49 53.1417 133.858 54.3666 133.674 55.8591C133.408 57.8448 132.255 59.6547 130.193 61.2715C127.802 63.1694 125.501 63.9687 122.683 64.8299C122.064 65.0451 121.756 65.1625 121.756 65.1625C121.577 65.184 121.466 65.0966 121.403 64.9027ZM123.855 55.4439C123.423 57.8927 123.177 60.3796 123.234 62.8705C126.435 62.1849 131.071 60.3606 131.552 56.637C131.699 55.5115 131.411 54.6195 130.724 53.9362C130.001 53.2776 129.122 53.0002 128.03 53.131C126.659 53.2951 125.261 54.0669 123.855 55.4439ZM144.921 62.2065C144.445 62.2635 144.227 62.1285 144.266 61.7814C144.382 60.9013 144.5 60.2023 144.659 59.6797C144.762 59.3652 145.123 59.181 145.758 59.1049C146.334 59.0359 146.587 59.1265 146.573 59.3497C146.514 59.6992 145.972 61.3957 145.807 61.6975C145.659 61.9771 145.358 62.1541 144.921 62.2065ZM134.203 63.5306C133.746 63.5854 133.528 63.4503 133.587 63.1008C133.701 62.2009 133.819 61.5019 133.958 60.9817C134.064 60.687 134.404 60.5052 135.04 60.4291C135.616 60.3601 135.908 60.4459 135.875 60.6715C135.808 61.1227 135.301 62.6135 135.088 63.0217C134.961 63.2989 134.659 63.4759 134.203 63.5306ZM139.443 62.8828C138.986 62.9375 138.768 62.8025 138.807 62.4554C138.924 61.5753 139.041 60.8763 139.18 60.3561C139.284 60.0416 139.644 59.8574 140.28 59.7813C140.856 59.7123 141.108 59.8029 141.075 60.0285C141.076 60.3708 140.502 61.9704 140.329 62.3739C140.161 62.6558 139.88 62.8305 139.443 62.8828Z" fill="black"/>
<ellipse cx="153.782" cy="33.6463" rx="2.38038" ry="1.70797" transform="rotate(10.1216 153.782 33.6463)" stroke="white" stroke-width="5" stroke-linecap="round" stroke-linejoin="round"/>
<path d="M156.126 34.3985L158.751 26.2998M162.776 25.2207L160.28 21.5819L158.751 26.2998M161.148 28.0709L158.751 26.2998" stroke="white" stroke-width="5" stroke-linecap="round" stroke-linejoin="round"/>
<ellipse cx="153.782" cy="33.6463" rx="2.38038" ry="1.70797" transform="rotate(10.1216 153.782 33.6463)" fill="black" stroke="black" stroke-width="2" stroke-linejoin="round"/>
<path d="M156.126 34.3985L158.751 26.2998M162.776 25.2207L160.28 21.5819L158.751 26.2998M161.148 28.0709L158.751 26.2998" stroke="black" stroke-width="2" stroke-linecap="round" stroke-linejoin="round"/>
<ellipse cx="49.6983" cy="42.1921" rx="2.38038" ry="1.70797" transform="rotate(-16.5085 49.6983 42.1921)" stroke="white" stroke-width="5" stroke-linecap="round" stroke-linejoin="round"/>
<path d="M52.1316 41.8136L50.8479 33.3974M53.9623 30.6287L50.1001 28.4946L50.8479 33.3974M53.7842 33.9064L50.8479 33.3974" stroke="white" stroke-width="5" stroke-linecap="round" stroke-linejoin="round"/>
<ellipse cx="49.6983" cy="42.1921" rx="2.38038" ry="1.70797" transform="rotate(-16.5085 49.6983 42.1921)" fill="black" stroke="black" stroke-width="2" stroke-linejoin="round"/>
<path d="M52.1316 41.8136L50.8479 33.3974M53.9623 30.6287L50.1001 28.4946L50.8479 33.3974M53.7842 33.9064L50.8479 33.3974" stroke="black" stroke-width="2" stroke-linecap="round" stroke-linejoin="round"/>
<ellipse cx="121.279" cy="79.0279" rx="2.38038" ry="1.70797" transform="rotate(-0.554689 121.279 79.0279)" fill="black" stroke="white" stroke-width="5" stroke-linejoin="round"/>
<ellipse cx="130.938" cy="81.0874" rx="2.38038" ry="1.70797" transform="rotate(-0.554689 130.938 81.0874)" fill="black" stroke="white" stroke-width="5" stroke-linejoin="round"/>
<path d="M123.589 79.397L124.924 70.9498L125.476 67.7529L134.869 71.5071L133.175 81.3216" stroke="white" stroke-width="5" stroke-linecap="round" stroke-linejoin="round"/>
<ellipse cx="121.264" cy="79.0738" rx="2.38038" ry="1.70797" transform="rotate(-0.554689 121.264 79.0738)" fill="black" stroke="black" stroke-width="2" stroke-linejoin="round"/>
<ellipse cx="130.923" cy="81.1331" rx="2.38038" ry="1.70797" transform="rotate(-0.554689 130.923 81.1331)" fill="black" stroke="black" stroke-width="2" stroke-linejoin="round"/>
<path d="M123.574 79.4429L124.91 70.9957L125.461 67.7988L134.854 71.553L133.161 81.3675" stroke="black" stroke-width="2" stroke-linecap="round" stroke-linejoin="round"/>
</svg>
