<svg width="48" height="48" viewBox="0 0 48 48" fill="none" xmlns="http://www.w3.org/2000/svg">
<path fill-rule="evenodd" clip-rule="evenodd" d="M26 13C24.4087 13 22.8826 13.6321 21.7574 14.7574C20.6321 15.8826 20 17.4087 20 19V21H18C17.4477 21 17 21.4477 17 22V26C17 26.5523 17.4477 27 18 27H20V34C20 34.5523 20.4477 35 21 35H25C25.5523 35 26 34.5523 26 34V27H28C28.4589 27 28.8589 26.6877 28.9701 26.2425L29.9701 22.2425C30.0448 21.9438 29.9777 21.6273 29.7882 21.3846C29.5987 21.1419 29.3079 21 29 21H26V19H29C29.5523 19 30 18.5523 30 18V14C30 13.4477 29.5523 13 29 13H26ZM23.1716 16.1716C23.9217 15.4214 24.9391 15 26 15H28V17H26C25.4696 17 24.9609 17.2107 24.5858 17.5858C24.2107 17.9609 24 18.4696 24 19V22C24 22.5523 24.4477 23 25 23H27.7192L27.2192 25H25C24.4477 25 24 25.4477 24 26V33H22V26C22 25.4477 21.5523 25 21 25H19V23H21C21.5523 23 22 22.5523 22 22V19C22 17.9391 22.4214 16.9217 23.1716 16.1716Z" fill="black"/>
</svg>
