<svg width="48" height="48" viewBox="0 0 48 48" fill="none" xmlns="http://www.w3.org/2000/svg">
<path fill-rule="evenodd" clip-rule="evenodd" d="M21.7404 19.5186C22.6739 19.0342 23.7363 18.8565 24.7766 19.0108C25.8378 19.1682 26.8202 19.6626 27.5788 20.4212C28.3373 21.1798 28.8318 22.1622 28.9891 23.2233C29.1434 24.2636 28.9657 25.3261 28.4813 26.2596C27.997 27.1931 27.2306 27.9501 26.2912 28.4229C25.3518 28.8957 24.2872 29.0603 23.2489 28.8932C22.2105 28.7261 21.2513 28.2359 20.5077 27.4923C19.764 26.7486 19.2738 25.7894 19.1067 24.7511C18.9396 23.7128 19.1042 22.6482 19.577 21.7088C20.0499 20.7694 20.8069 20.003 21.7404 19.5186ZM24.4833 20.9892C23.8591 20.8966 23.2216 21.0032 22.6615 21.2939C22.1014 21.5845 21.6472 22.0443 21.3635 22.608C21.0798 23.1716 20.9811 23.8103 21.0813 24.4333C21.1816 25.0563 21.4757 25.6319 21.9219 26.0781C22.3681 26.5242 22.9436 26.8184 23.5666 26.9186C24.1896 27.0189 24.8283 26.9201 25.392 26.6364C25.9556 26.3527 26.4155 25.8985 26.7061 25.3384C26.9967 24.7783 27.1033 24.1409 27.0108 23.5167C26.9164 22.88 26.6197 22.2905 26.1645 21.8354C25.7094 21.3803 25.12 21.0836 24.4833 20.9892Z" fill="white"/>
<path d="M29.5 17.5C28.9477 17.5 28.5 17.9477 28.5 18.5C28.5 19.0523 28.9477 19.5 29.5 19.5H29.51C30.0623 19.5 30.51 19.0523 30.51 18.5C30.51 17.9477 30.0623 17.5 29.51 17.5H29.5Z" fill="white"/>
<path fill-rule="evenodd" clip-rule="evenodd" d="M13 19C13 15.6863 15.6863 13 19 13H29C32.3137 13 35 15.6863 35 19V29C35 32.3137 32.3137 35 29 35H19C15.6863 35 13 32.3137 13 29V19ZM19 15C16.7909 15 15 16.7909 15 19V29C15 31.2091 16.7909 33 19 33H29C31.2091 33 33 31.2091 33 29V19C33 16.7909 31.2091 15 29 15H19Z" fill="white"/>
</svg>
