<svg width="48" height="48" viewBox="0 0 48 48" fill="none" xmlns="http://www.w3.org/2000/svg">
<path fill-rule="evenodd" clip-rule="evenodd" d="M16 13C14.3431 13 13 14.3431 13 16C13 17.6569 14.3431 19 16 19C17.6569 19 19 17.6569 19 16C19 14.3431 17.6569 13 16 13ZM15 16C15 15.4477 15.4477 15 16 15C16.5523 15 17 15.4477 17 16C17 16.5523 16.5523 17 16 17C15.4477 17 15 16.5523 15 16Z" fill="white"/>
<path fill-rule="evenodd" clip-rule="evenodd" d="M28 19C26.1435 19 24.363 19.7375 23.0503 21.0503C21.7375 22.363 21 24.1435 21 26V33C21 33.5523 21.4477 34 22 34H26C26.5523 34 27 33.5523 27 33V26C27 25.7348 27.1054 25.4804 27.2929 25.2929C27.4804 25.1054 27.7348 25 28 25C28.2652 25 28.5196 25.1054 28.7071 25.2929C28.8946 25.4804 29 25.7348 29 26V33C29 33.5523 29.4477 34 30 34H34C34.5523 34 35 33.5523 35 33V26C35 24.1435 34.2625 22.363 32.9497 21.0503C31.637 19.7375 29.8565 19 28 19ZM28 21C26.6739 21 25.4021 21.5268 24.4645 22.4645C23.5268 23.4021 23 24.6739 23 26V32H25V26C25 25.2043 25.3161 24.4413 25.8787 23.8787C26.4413 23.3161 27.2043 23 28 23C28.7957 23 29.5587 23.3161 30.1213 23.8787C30.6839 24.4413 31 25.2043 31 26V32H33V26C33 24.6739 32.4732 23.4021 31.5355 22.4645C30.5979 21.5268 29.3261 21 28 21Z" fill="white"/>
<path fill-rule="evenodd" clip-rule="evenodd" d="M13 21C13 20.4477 13.4477 20 14 20H18C18.5523 20 19 20.4477 19 21V33C19 33.5523 18.5523 34 18 34H14C13.4477 34 13 33.5523 13 33V21ZM15 22V32H17V22H15Z" fill="white"/>
</svg>
