<svg width="225" height="51" viewBox="0 0 225 51" fill="none" xmlns="http://www.w3.org/2000/svg">
<path d="M14.1918 34.2645C14.2734 34.6402 14.3224 35.0322 14.3388 35.4405C14.3551 35.8325 14.3388 36.2653 14.2898 36.739C14.2571 37.1963 14.1999 37.6945 14.1183 38.2335C14.0366 38.7562 13.9468 39.3442 13.8488 39.9975C13.7181 40.6345 13.6364 41.2225 13.6038 41.7615C13.5711 42.3005 13.5548 42.7905 13.5548 43.2315C13.5548 43.6562 13.5629 44.0237 13.5793 44.334C13.5956 44.6443 13.5956 44.8893 13.5793 45.069C13.5629 45.2487 13.4159 45.4038 13.1383 45.5345C12.8606 45.6488 12.5339 45.7387 12.1583 45.804C11.7989 45.853 11.4396 45.8693 11.0803 45.853C10.7209 45.8367 10.4514 45.7795 10.2718 45.6815C10.1084 45.5672 9.98592 45.4365 9.90425 45.2895C9.83892 45.1262 9.82258 44.8893 9.85525 44.579C9.88792 44.2687 9.98592 43.8685 10.1493 43.3785C10.3126 42.8722 10.5576 42.227 10.8843 41.443C10.8843 41.394 10.9006 41.3532 10.9333 41.3205L10.9823 41.2715C10.5086 41.3205 9.93692 41.3858 9.26725 41.4675C8.61392 41.5328 8.00142 41.6063 7.42975 41.688C6.82542 41.7697 6.32725 41.8513 5.93525 41.933C5.54325 41.9983 5.21658 42.031 4.95525 42.031C4.92258 42.766 4.87358 43.4357 4.80825 44.04C4.75925 44.628 4.69392 45.0282 4.61225 45.2405C4.48158 45.5835 4.23658 45.8367 3.87725 46C3.53425 46.147 3.10958 46.1797 2.60325 46.098C2.34192 46.049 2.15408 45.9183 2.03975 45.706C1.94175 45.4773 1.89275 45.1915 1.89275 44.8485C1.90908 44.4892 1.96625 44.0972 2.06425 43.6725C2.16225 43.2315 2.28475 42.7742 2.43175 42.3005C2.52975 41.9902 2.61958 41.59 2.70125 41.1C2.79925 40.5937 2.89725 40.0547 2.99525 39.483C3.09325 38.9113 3.18308 38.3397 3.26475 37.768C3.36275 37.18 3.45258 36.641 3.53425 36.151C3.63225 35.661 3.73025 35.2445 3.82825 34.9015C3.92625 34.5585 4.02425 34.3462 4.12225 34.2645C4.26925 34.1338 4.43258 34.0685 4.61225 34.0685C4.79192 34.0685 4.97158 34.093 5.15125 34.142C5.33092 34.2073 5.52692 34.3053 5.73925 34.436C5.85358 34.7137 5.93525 35.0322 5.98425 35.3915C6.03325 35.7508 6.04142 36.1265 6.00875 36.5185C5.99242 36.9105 5.94342 37.3025 5.86175 37.6945C5.78008 38.0702 5.67392 38.4132 5.54325 38.7235C5.51058 38.7725 5.48608 38.8297 5.46975 38.895C5.45342 38.9603 5.42075 39.0257 5.37175 39.091C5.51875 39.1563 5.72292 39.2217 5.98425 39.287C6.24558 39.3523 6.53958 39.4013 6.86625 39.434C7.20925 39.4667 7.57675 39.483 7.96875 39.483C8.36075 39.4667 8.76908 39.4177 9.19375 39.336C9.73275 39.2053 10.1983 39.0992 10.5903 39.0175C10.9823 38.9195 11.3089 38.8542 11.5703 38.8215C11.6846 37.8415 11.7091 37.0003 11.6438 36.298C11.5948 35.5957 11.5703 35.1383 11.5703 34.926C11.5703 34.779 11.6193 34.632 11.7173 34.485C11.8153 34.338 11.9378 34.2155 12.0848 34.1175C12.2318 34.0032 12.3869 33.9133 12.5503 33.848C12.7136 33.7663 12.8606 33.7255 12.9913 33.7255C13.1219 33.7255 13.2526 33.7582 13.3833 33.8235C13.5139 33.8725 13.6446 33.9297 13.7753 33.995C13.9223 34.0767 14.0611 34.1665 14.1918 34.2645ZM51.0147 33.799C52.109 33.75 53.0155 33.8888 53.7342 34.2155C54.4529 34.5258 55.0245 34.975 55.4492 35.563C55.8739 36.151 56.176 36.8533 56.3557 37.67C56.5354 38.4867 56.6252 39.3687 56.6252 40.316C56.6252 40.9367 56.5435 41.5737 56.3802 42.227C56.2169 42.864 55.9392 43.452 55.5472 43.991C55.1552 44.5137 54.6325 44.9547 53.9792 45.314C53.3259 45.6733 52.501 45.8857 51.5047 45.951C50.7697 46 50.0592 45.8857 49.3732 45.608C48.6872 45.3303 48.0747 44.9383 47.5357 44.432C46.9967 43.9257 46.5639 43.3213 46.2372 42.619C45.9105 41.9003 45.739 41.1327 45.7227 40.316C45.69 39.4993 45.7962 38.7072 46.0412 37.9395C46.2862 37.1718 46.6374 36.494 47.0947 35.906C47.552 35.3017 48.1074 34.8117 48.7607 34.436C49.4304 34.044 50.1817 33.8317 51.0147 33.799ZM54.2732 39.826C54.2895 39.1727 54.216 38.6255 54.0527 38.1845C53.9057 37.7272 53.7015 37.3597 53.4402 37.082C53.1789 36.788 52.8849 36.5757 52.5582 36.445C52.2479 36.298 51.9457 36.2163 51.6517 36.2C51.3414 36.1837 50.982 36.2245 50.5737 36.3225C50.1817 36.4042 49.806 36.5757 49.4467 36.837C49.0874 37.0983 48.777 37.4658 48.5157 37.9395C48.2707 38.3968 48.14 38.993 48.1237 39.728C48.1237 40.4467 48.2217 41.051 48.4177 41.541C48.63 42.031 48.8995 42.4312 49.2262 42.7415C49.5529 43.0355 49.9204 43.256 50.3287 43.403C50.7534 43.5337 51.178 43.599 51.6027 43.599C52.5174 43.599 53.1789 43.2968 53.5872 42.6925C54.0119 42.0718 54.2405 41.1163 54.2732 39.826ZM92.8125 33.652C93.3352 33.6847 93.7762 33.8317 94.1355 34.093C94.5112 34.3543 94.7888 34.6647 94.9685 35.024C95.1645 35.367 95.2543 35.7182 95.238 36.0775C95.238 36.4368 95.1318 36.7227 94.9195 36.935C94.7235 37.131 94.5275 37.2372 94.3315 37.2535C94.1518 37.2698 93.9803 37.2453 93.817 37.18C93.67 37.1147 93.5393 37.0248 93.425 36.9105C93.3107 36.7962 93.2208 36.6982 93.1555 36.6165C93.1065 36.5348 93.0085 36.4368 92.8615 36.3225C92.7308 36.1918 92.5675 36.0938 92.3715 36.0285C92.1918 35.9632 92.004 35.955 91.808 36.004C91.612 36.0367 91.4405 36.1837 91.2935 36.445C91.1302 36.6737 91.1138 36.9105 91.2445 37.1555C91.3752 37.4005 91.5793 37.6455 91.857 37.8905C92.1347 38.1192 92.4532 38.3478 92.8125 38.5765C93.1718 38.7888 93.5067 38.9767 93.817 39.14C94.111 39.336 94.3968 39.5238 94.6745 39.7035C94.9685 39.8668 95.238 40.0465 95.483 40.2425C95.728 40.4385 95.9485 40.6672 96.1445 40.9285C96.3568 41.1735 96.5365 41.4757 96.6835 41.835C96.8305 42.1943 96.904 42.5945 96.904 43.0355C96.904 43.4602 96.806 43.8767 96.61 44.285C96.4303 44.6933 96.1363 45.0527 95.728 45.363C95.3197 45.657 94.7807 45.853 94.111 45.951C93.425 46.0327 92.788 46.0408 92.2 45.9755C91.612 45.9102 91.0648 45.804 90.5585 45.657C90.0522 45.51 89.5948 45.3467 89.1865 45.167C88.7782 44.971 88.4188 44.7832 88.1085 44.6035C87.7982 44.4402 87.594 44.2523 87.496 44.04C87.3817 43.8277 87.3408 43.6153 87.3735 43.403C87.3898 43.1907 87.4552 42.9865 87.5695 42.7905C87.6838 42.5782 87.8063 42.3985 87.937 42.2515C88.2473 41.9575 88.6148 41.8922 89.0395 42.0555C89.4642 42.2025 89.9052 42.4638 90.3625 42.8395C90.5748 43.0192 90.828 43.1743 91.122 43.305C91.416 43.4193 91.71 43.501 92.004 43.55C92.3143 43.599 92.6165 43.6153 92.9105 43.599C93.2045 43.5827 93.4577 43.5255 93.67 43.4275C94.062 43.2152 94.1927 42.9293 94.062 42.57C93.9313 42.1943 93.572 41.6962 92.984 41.0755C92.69 40.7325 92.347 40.463 91.955 40.267C91.5793 40.071 91.1955 39.8587 90.8035 39.63C90.4115 39.385 90.044 39.091 89.701 38.748C89.358 38.405 89.0885 37.915 88.8925 37.278C88.6965 36.6247 88.721 36.0693 88.966 35.612C89.2273 35.1383 89.5785 34.7627 90.0195 34.485C90.4768 34.191 90.9668 33.9787 91.4895 33.848C92.0122 33.7173 92.4532 33.652 92.8125 33.652ZM137.856 34.0685C138.183 34.2972 138.379 34.6075 138.444 34.9995C138.51 35.3752 138.42 35.71 138.175 36.004C138.044 36.1347 137.922 36.2245 137.807 36.2735C137.709 36.3062 137.603 36.3307 137.489 36.347C137.374 36.347 137.244 36.347 137.097 36.347C136.95 36.3307 136.778 36.3307 136.582 36.347C136.288 36.347 136.051 36.3633 135.872 36.396C135.692 36.4287 135.431 36.4695 135.088 36.5185C135.055 36.7798 134.998 37.18 134.916 37.719C134.851 38.2417 134.794 38.8133 134.745 39.434C134.728 39.826 134.737 40.2752 134.769 40.7815C134.802 41.2715 134.843 41.7533 134.892 42.227C134.957 42.7007 135.022 43.1335 135.088 43.5255C135.153 43.9012 135.21 44.187 135.259 44.383C135.292 44.726 135.316 45.0282 135.333 45.2895C135.349 45.5345 135.21 45.6978 134.916 45.7795C134.769 45.8122 134.557 45.8612 134.279 45.9265C134.002 45.9755 133.716 45.9918 133.422 45.9755C133.144 45.9592 132.883 45.8938 132.638 45.7795C132.393 45.6652 132.229 45.4528 132.148 45.1425C132.05 44.8485 131.993 44.3422 131.976 43.6235C131.976 42.9048 132.001 42.129 132.05 41.296C132.099 40.463 132.156 39.6545 132.221 38.8705C132.303 38.0865 132.36 37.474 132.393 37.033C131.854 37.1637 131.282 37.278 130.678 37.376C130.073 37.4577 129.502 37.4985 128.963 37.4985C128.587 37.5148 128.269 37.474 128.007 37.376C127.762 37.2617 127.566 37.1065 127.419 36.9105C127.272 36.7145 127.174 36.494 127.125 36.249C127.076 36.004 127.076 35.7508 127.125 35.4895C127.158 35.2445 127.256 35.0485 127.419 34.9015C127.583 34.7382 127.77 34.6157 127.983 34.534C128.195 34.436 128.407 34.3788 128.62 34.3625C128.848 34.3298 129.053 34.3217 129.232 34.338C129.396 34.338 129.624 34.338 129.918 34.338C130.229 34.3217 130.572 34.3053 130.947 34.289C131.323 34.2563 131.715 34.2237 132.123 34.191C132.548 34.1583 132.973 34.1175 133.397 34.0685C134.214 33.9378 134.884 33.848 135.406 33.799C135.929 33.75 136.321 33.701 136.582 33.652C136.844 33.652 137.04 33.6683 137.17 33.701C137.317 33.7337 137.546 33.8562 137.856 34.0685ZM178.267 34.24C178.316 34.436 178.341 34.6238 178.341 34.8035C178.341 34.9668 178.308 35.1465 178.243 35.3425C178.194 35.5385 178.088 35.7182 177.924 35.8815C177.728 36.0285 177.394 36.0938 176.92 36.0775C176.446 36.0612 175.932 36.0448 175.376 36.0285C174.821 35.9958 174.282 35.9958 173.759 36.0285C173.253 36.0448 172.869 36.1673 172.608 36.396C172.347 36.6573 172.2 36.935 172.167 37.229C172.134 37.523 172.151 37.8007 172.216 38.062C172.281 38.356 172.412 38.6582 172.608 38.9685C173.082 38.9032 173.531 38.8787 173.955 38.895C174.315 38.9113 174.666 38.9603 175.009 39.042C175.368 39.1237 175.621 39.2707 175.768 39.483C175.899 39.6953 175.964 39.8995 175.964 40.0955C175.964 40.2752 175.924 40.4385 175.842 40.5855C175.76 40.7652 175.646 40.9285 175.499 41.0755L172.191 41.492C172.077 41.6227 172.012 41.7778 171.995 41.9575C171.963 42.1045 171.979 42.276 172.044 42.472C172.126 42.6517 172.281 42.8477 172.51 43.06C172.788 43.3213 173.106 43.4928 173.465 43.5745C173.841 43.6562 174.233 43.6807 174.641 43.648C175.066 43.599 175.491 43.5092 175.915 43.3785C176.356 43.2315 176.789 43.0682 177.214 42.8885C178.194 42.4638 179.207 41.884 180.252 41.149C180.432 41.2307 180.562 41.3695 180.644 41.5655C180.726 41.7452 180.775 41.9248 180.791 42.1045C180.807 42.3168 180.791 42.5537 180.742 42.815C180.17 43.599 179.452 44.2605 178.586 44.7995C177.72 45.3222 176.797 45.6733 175.817 45.853C174.854 46.0163 173.89 45.9837 172.926 45.755C171.963 45.5263 171.105 45.0445 170.354 44.3095C169.978 43.9502 169.701 43.55 169.521 43.109C169.341 42.6517 169.219 42.1862 169.153 41.7125C169.104 41.2225 169.104 40.7325 169.153 40.2425C169.202 39.7362 169.276 39.2543 169.374 38.797C169.619 37.719 170.027 36.6165 170.599 35.4895C170.289 35.3752 170.076 35.2363 169.962 35.073C169.864 34.9423 169.848 34.779 169.913 34.583C169.995 34.387 170.28 34.1583 170.77 33.897C171.015 33.7827 171.309 33.701 171.652 33.652C172.012 33.5867 172.387 33.554 172.779 33.554C173.188 33.5377 173.604 33.5458 174.029 33.5785C174.454 33.6112 174.87 33.652 175.278 33.701C176.226 33.8317 177.222 34.0113 178.267 34.24ZM211.262 44.0645C211.654 42.9702 211.997 41.933 212.291 40.953C212.405 40.5447 212.52 40.1282 212.634 39.7035C212.748 39.2625 212.846 38.8542 212.928 38.4785C213.026 38.1028 213.091 37.7598 213.124 37.4495C213.173 37.1228 213.189 36.8615 213.173 36.6655C213.108 36.2735 213.026 35.9387 212.928 35.661C212.83 35.367 212.756 35.122 212.707 34.926C212.658 34.7137 212.65 34.5422 212.683 34.4115C212.716 34.2645 212.846 34.1338 213.075 34.0195C213.304 33.9052 213.532 33.8235 213.761 33.7745C214.006 33.7092 214.226 33.6928 214.422 33.7255C214.635 33.7418 214.814 33.8072 214.961 33.9215C215.108 34.0358 215.206 34.1992 215.255 34.4115C215.321 34.6238 215.353 34.926 215.353 35.318C215.37 35.71 215.353 36.1592 215.304 36.6655C215.272 37.1555 215.215 37.6782 215.133 38.2335C215.051 38.7725 214.945 39.2952 214.814 39.8015C214.684 40.2752 214.578 40.7407 214.496 41.198C214.414 41.639 214.357 42.031 214.324 42.374C214.275 42.7823 214.243 43.1662 214.226 43.5255C214.7 43.5418 215.174 43.5418 215.647 43.5255C216.056 43.5092 216.48 43.4847 216.921 43.452C217.362 43.403 217.763 43.3377 218.122 43.256C218.824 43.0763 219.412 43.0192 219.886 43.0845C220.376 43.1498 220.694 43.354 220.841 43.697C220.89 43.8767 220.923 44.0727 220.939 44.285C220.956 44.481 220.923 44.677 220.841 44.873C220.776 45.0527 220.645 45.216 220.449 45.363C220.253 45.51 219.976 45.6162 219.616 45.6815C219.371 45.7142 219.045 45.755 218.636 45.804C218.228 45.8367 217.771 45.8693 217.264 45.902C216.774 45.9347 216.26 45.9673 215.721 46C215.198 46.0163 214.7 46.0327 214.226 46.049C213.753 46.0653 213.328 46.0653 212.952 46.049C212.577 46.049 212.307 46.0245 212.144 45.9755C211.654 45.8285 211.335 45.5672 211.188 45.1915C211.058 44.8158 211.082 44.4402 211.262 44.0645Z" fill="white"/>
<path d="M1.31825 22.208C2.08625 20.064 2.75825 18.032 3.33425 16.112C3.55825 15.312 3.78225 14.496 4.00625 13.664C4.23025 12.8 4.42225 12 4.58225 11.264C4.77425 10.528 4.90225 9.856 4.96625 9.248C5.06225 8.608 5.09425 8.096 5.06225 7.712C4.93425 6.944 4.77425 6.288 4.58225 5.744C4.39025 5.168 4.24625 4.688 4.15025 4.304C4.05425 3.888 4.03825 3.552 4.10225 3.296C4.16625 3.008 4.42225 2.752 4.87025 2.528C5.31825 2.304 5.76625 2.144 6.21425 2.048C6.69425 1.92 7.12625 1.888 7.51025 1.952C7.92625 1.984 8.27825 2.112 8.56625 2.336C8.85425 2.56 9.04625 2.88 9.14225 3.296C9.27025 3.712 9.33425 4.304 9.33425 5.072C9.36625 5.84 9.33425 6.72 9.23825 7.712C9.17425 8.672 9.06225 9.696 8.90225 10.784C8.74225 11.84 8.53425 12.864 8.27825 13.856C8.02225 14.784 7.81425 15.696 7.65425 16.592C7.49425 17.456 7.38225 18.224 7.31825 18.896C7.22225 19.696 7.15825 20.448 7.12625 21.152C8.05425 21.184 8.98225 21.184 9.91025 21.152C10.7103 21.12 11.5423 21.072 12.4062 21.008C13.2703 20.912 14.0543 20.784 14.7583 20.624C16.1343 20.272 17.2863 20.16 18.2143 20.288C19.1743 20.416 19.7983 20.816 20.0863 21.488C20.1823 21.84 20.2463 22.224 20.2783 22.64C20.3103 23.024 20.2463 23.408 20.0863 23.792C19.9583 24.144 19.7023 24.464 19.3183 24.752C18.9343 25.04 18.3903 25.248 17.6863 25.376C17.2063 25.44 16.5663 25.52 15.7663 25.616C14.9663 25.68 14.0703 25.744 13.0782 25.808C12.1183 25.872 11.1103 25.936 10.0543 26C9.03025 26.032 8.05425 26.064 7.12625 26.096C6.19825 26.128 5.36625 26.128 4.63025 26.096C3.89425 26.096 3.36625 26.048 3.04625 25.952C2.08625 25.664 1.46225 25.152 1.17425 24.416C0.91825 23.68 0.96625 22.944 1.31825 22.208ZM38.8951 2.96C38.9911 3.344 39.0391 3.712 39.0391 4.064C39.0391 4.384 38.9751 4.736 38.8471 5.12C38.7511 5.504 38.5431 5.856 38.2231 6.176C37.8391 6.464 37.1831 6.592 36.2551 6.56C35.3271 6.528 34.3191 6.496 33.2311 6.464C32.1431 6.4 31.0871 6.4 30.0631 6.464C29.0711 6.496 28.3191 6.736 27.8071 7.184C27.2951 7.696 27.0071 8.24 26.9431 8.816C26.8791 9.392 26.9111 9.936 27.0391 10.448C27.1671 11.024 27.4231 11.616 27.8071 12.224C28.7351 12.096 29.6151 12.048 30.4471 12.08C31.1511 12.112 31.8391 12.208 32.5111 12.368C33.2151 12.528 33.7111 12.816 33.9991 13.232C34.2551 13.648 34.3831 14.048 34.3831 14.432C34.3831 14.784 34.3031 15.104 34.1431 15.392C33.9831 15.744 33.7591 16.064 33.4711 16.352L26.9911 17.168C26.7671 17.424 26.6391 17.728 26.6071 18.08C26.5431 18.368 26.5751 18.704 26.7031 19.088C26.8631 19.44 27.1671 19.824 27.6151 20.24C28.1591 20.752 28.7831 21.088 29.4871 21.248C30.2231 21.408 30.9911 21.456 31.7911 21.392C32.6231 21.296 33.4551 21.12 34.2871 20.864C35.1511 20.576 35.9991 20.256 36.8311 19.904C38.7511 19.072 40.7351 17.936 42.7831 16.496C43.1351 16.656 43.3911 16.928 43.5511 17.312C43.7111 17.664 43.8071 18.016 43.8391 18.368C43.8711 18.784 43.8391 19.248 43.7431 19.76C42.6231 21.296 41.2151 22.592 39.5191 23.648C37.8231 24.672 36.0151 25.36 34.0951 25.712C32.2071 26.032 30.3191 25.968 28.4311 25.52C26.5431 25.072 24.8631 24.128 23.3911 22.688C22.6551 21.984 22.1111 21.2 21.7591 20.336C21.4071 19.44 21.1671 18.528 21.0391 17.6C20.9431 16.64 20.9431 15.68 21.0391 14.72C21.1351 13.728 21.2791 12.784 21.4711 11.888C21.9511 9.776 22.7511 7.616 23.8711 5.408C23.2631 5.184 22.8471 4.912 22.6231 4.592C22.4311 4.336 22.3991 4.016 22.5271 3.632C22.6871 3.248 23.2471 2.8 24.2071 2.288C24.6871 2.064 25.2631 1.904 25.9351 1.808C26.6391 1.68 27.3751 1.616 28.1431 1.616C28.9431 1.584 29.7591 1.6 30.5911 1.664C31.4231 1.728 32.2391 1.808 33.0391 1.904C34.8951 2.16 36.8471 2.512 38.8951 2.96ZM50.0026 24.848C49.8746 25.072 49.6986 25.264 49.4746 25.424C49.2826 25.584 49.0426 25.712 48.7546 25.808C48.4666 25.904 48.1146 25.92 47.6986 25.856C46.8666 25.696 46.2266 25.488 45.7786 25.232C45.3306 24.944 45.1066 24.384 45.1066 23.552C45.1066 23.104 45.0746 22.304 45.0106 21.152C44.9786 19.968 44.9146 18.672 44.8186 17.264C44.7226 15.824 44.5946 14.4 44.4346 12.992C44.2746 11.552 44.0986 10.368 43.9066 9.44C43.5226 7.616 43.2346 6.176 43.0426 5.12C42.8826 4.064 43.0106 3.312 43.4266 2.864C43.6826 2.704 43.9706 2.544 44.2906 2.384C44.6106 2.224 44.9626 2.144 45.3466 2.144C45.7626 2.112 46.1946 2.224 46.6426 2.48C47.0906 2.704 47.5546 3.12 48.0346 3.728C48.4826 4.336 49.0906 5.104 49.8586 6.032C50.6266 6.928 51.4106 7.808 52.2106 8.672C53.0106 9.504 53.7626 10.224 54.4666 10.832C55.1706 11.44 55.6986 11.744 56.0506 11.744C56.6906 11.648 57.5066 11.216 58.4986 10.448C59.4906 9.648 60.4826 8.768 61.4746 7.808C61.9546 7.264 62.4346 6.832 62.9146 6.512C63.3946 6.16 63.8106 5.888 64.1626 5.696C64.5786 5.472 64.9946 5.296 65.4106 5.168C65.9546 4.976 66.4826 4.848 66.9946 4.784C67.4426 4.72 67.8746 4.768 68.2906 4.928C68.7066 5.056 69.0426 5.36 69.2986 5.84C69.5546 6.384 69.7466 7.04 69.8746 7.808C70.0026 8.576 70.0986 9.424 70.1626 10.352C70.2266 11.248 70.2906 12.192 70.3546 13.184C70.4186 14.144 70.5146 15.072 70.6426 15.968C70.7386 16.896 70.8346 17.808 70.9306 18.704C71.0586 19.568 71.1546 20.384 71.2186 21.152C71.3146 21.92 71.3786 22.608 71.4106 23.216C71.4426 23.824 71.4106 24.32 71.3146 24.704C71.2506 25.056 71.1386 25.328 70.9786 25.52C70.8506 25.68 70.6746 25.792 70.4506 25.856C70.2266 25.92 69.9866 25.952 69.7306 25.952C69.4746 25.92 69.2346 25.888 69.0106 25.856C68.8186 25.856 68.5786 25.824 68.2906 25.76C68.0026 25.664 67.7146 25.504 67.4266 25.28C67.1706 25.056 66.9306 24.752 66.7066 24.368C66.5146 23.952 66.4026 23.408 66.3706 22.736C66.3706 22.096 66.3226 21.184 66.2266 20C66.1306 18.816 66.0186 17.664 65.8906 16.544C65.7626 15.232 65.6026 13.84 65.4106 12.368C65.4106 12.272 65.3626 12.176 65.2666 12.08C65.2026 12.016 65.1066 11.952 64.9786 11.888C64.8506 11.792 64.6586 11.744 64.4026 11.744C64.1466 11.744 63.8106 11.968 63.3946 12.416C62.9786 12.832 62.4986 13.328 61.9546 13.904C61.4426 14.48 60.8986 15.056 60.3226 15.632C59.7466 16.176 59.2026 16.576 58.6906 16.832C57.6026 17.312 56.6586 17.456 55.8586 17.264C55.0586 17.072 54.1946 16.64 53.2666 15.968C52.8506 15.648 52.4346 15.264 52.0186 14.816C51.6346 14.368 51.2506 13.952 50.8666 13.568C50.4826 13.152 50.1146 12.8 49.7626 12.512C49.4426 12.224 49.1386 12.08 48.8506 12.08C48.5626 12.08 48.3866 12.432 48.3226 13.136C48.2906 13.84 48.3226 14.672 48.4186 15.632C48.5146 16.56 48.6426 17.472 48.8026 18.368C48.9946 19.264 49.1706 19.904 49.3306 20.288C49.4586 20.704 49.6186 21.152 49.8106 21.632C50.0026 22.08 50.1466 22.512 50.2426 22.928C50.3706 23.344 50.4346 23.728 50.4346 24.08C50.4346 24.432 50.2906 24.688 50.0026 24.848ZM83.5846 2.096C85.7286 2 87.5046 2.272 88.9126 2.912C90.3206 3.52 91.4406 4.4 92.2726 5.552C93.1046 6.704 93.6966 8.08 94.0486 9.68C94.4006 11.28 94.5766 13.008 94.5766 14.864C94.5766 16.08 94.4166 17.328 94.0966 18.608C93.7766 19.856 93.2326 21.008 92.4646 22.064C91.6966 23.088 90.6726 23.952 89.3926 24.656C88.1126 25.36 86.4966 25.776 84.5446 25.904C83.1046 26 81.7126 25.776 80.3686 25.232C79.0246 24.688 77.8246 23.92 76.7686 22.928C75.7126 21.936 74.8646 20.752 74.2246 19.376C73.5846 17.968 73.2486 16.464 73.2166 14.864C73.1526 13.264 73.3606 11.712 73.8406 10.208C74.3206 8.704 75.0086 7.376 75.9046 6.224C76.8006 5.04 77.8886 4.08 79.1686 3.344C80.4806 2.576 81.9526 2.16 83.5846 2.096ZM89.9686 13.904C90.0006 12.624 89.8566 11.552 89.5366 10.688C89.2486 9.792 88.8486 9.072 88.3366 8.528C87.8246 7.952 87.2486 7.536 86.6086 7.28C86.0006 6.992 85.4086 6.832 84.8326 6.8C84.2246 6.768 83.5206 6.848 82.7206 7.04C81.9526 7.2 81.2166 7.536 80.5126 8.048C79.8086 8.56 79.2006 9.28 78.6886 10.208C78.2086 11.104 77.9526 12.272 77.9206 13.712C77.9206 15.12 78.1126 16.304 78.4966 17.264C78.9126 18.224 79.4406 19.008 80.0806 19.616C80.7206 20.192 81.4406 20.624 82.2406 20.912C83.0726 21.168 83.9046 21.296 84.7366 21.296C86.5286 21.296 87.8246 20.704 88.6246 19.52C89.4566 18.304 89.9046 16.432 89.9686 13.904ZM98.2115 24.032C98.2115 22.816 98.1795 21.6 98.1155 20.384C98.0515 19.36 97.9715 18.272 97.8755 17.12C97.8115 15.968 97.6995 14.928 97.5395 14C97.4115 13.424 97.2195 12.736 96.9635 11.936C96.7395 11.136 96.4995 10.304 96.2435 9.44C96.0195 8.576 95.8115 7.728 95.6195 6.896C95.4595 6.032 95.3795 5.248 95.3795 4.544C95.3795 3.84 95.4915 3.248 95.7155 2.768C95.9395 2.288 96.3235 1.984 96.8675 1.856C97.6995 1.696 98.5795 1.952 99.5075 2.624C100.436 3.296 101.348 4.128 102.243 5.12C103.172 6.08 104.052 7.072 104.884 8.096C105.716 9.12 106.452 9.904 107.092 10.448C107.7 10.992 108.388 11.664 109.156 12.464C109.956 13.232 110.708 13.936 111.412 14.576C112.148 15.184 112.788 15.616 113.332 15.872C113.908 16.096 114.292 15.92 114.484 15.344C114.612 14.96 114.692 14.4 114.724 13.664C114.788 12.928 114.804 12.144 114.772 11.312C114.772 10.448 114.772 9.568 114.772 8.672C114.772 7.744 114.788 6.912 114.82 6.176C114.884 5.408 114.98 4.752 115.108 4.208C115.268 3.664 115.508 3.344 115.828 3.248C116.276 3.12 116.724 2.992 117.172 2.864C117.652 2.736 118.084 2.736 118.468 2.864C118.884 2.96 119.22 3.232 119.476 3.68C119.764 4.096 119.94 4.784 120.004 5.744C120.068 6.384 120.116 7.344 120.148 8.624C120.18 9.872 120.164 11.264 120.1 12.8C120.068 14.304 119.988 15.856 119.859 17.456C119.764 19.024 119.604 20.448 119.38 21.728C119.156 23.008 118.852 24.048 118.468 24.848C118.116 25.648 117.684 26 117.172 25.904C116.372 25.776 115.7 25.568 115.156 25.28C114.644 24.96 114.196 24.608 113.812 24.224C113.428 23.808 113.076 23.36 112.756 22.88C112.436 22.368 112.068 21.872 111.652 21.392C111.364 21.04 110.916 20.56 110.308 19.952C109.732 19.312 109.076 18.64 108.34 17.936C107.604 17.2 106.836 16.48 106.036 15.776C105.268 15.04 104.548 14.4 103.876 13.856C103.236 13.28 102.692 12.848 102.243 12.56C101.828 12.272 101.604 12.192 101.572 12.32C101.476 12.48 101.476 12.784 101.572 13.232C101.7 13.648 101.844 14.144 102.004 14.72C102.196 15.296 102.388 15.936 102.58 16.64C102.804 17.312 102.98 17.984 103.108 18.656C103.204 19.328 103.268 20.08 103.3 20.912C103.364 21.712 103.332 22.464 103.204 23.168C103.076 23.872 102.852 24.48 102.532 24.992C102.244 25.472 101.812 25.728 101.236 25.76C100.692 25.856 100.228 25.824 99.8435 25.664C99.4595 25.504 99.1395 25.296 98.8835 25.04C98.5955 24.752 98.3715 24.416 98.2115 24.032ZM157.238 2.624C157.878 3.072 158.262 3.68 158.39 4.448C158.518 5.184 158.342 5.84 157.862 6.416C157.606 6.672 157.366 6.848 157.142 6.944C156.95 7.008 156.742 7.056 156.518 7.088C156.294 7.088 156.038 7.088 155.75 7.088C155.462 7.056 155.126 7.056 154.742 7.088C154.166 7.088 153.702 7.12 153.35 7.184C152.998 7.248 152.486 7.328 151.814 7.424C151.75 7.936 151.638 8.72 151.478 9.776C151.35 10.8 151.238 11.92 151.142 13.136C151.11 13.904 151.126 14.784 151.19 15.776C151.254 16.736 151.334 17.68 151.43 18.608C151.558 19.536 151.686 20.384 151.814 21.152C151.942 21.888 152.054 22.448 152.15 22.832C152.214 23.504 152.262 24.096 152.294 24.608C152.326 25.088 152.054 25.408 151.478 25.568C151.19 25.632 150.774 25.728 150.23 25.856C149.686 25.952 149.126 25.984 148.55 25.952C148.006 25.92 147.494 25.792 147.014 25.568C146.534 25.344 146.214 24.928 146.054 24.32C145.862 23.744 145.75 22.752 145.718 21.344C145.718 19.936 145.766 18.416 145.862 16.784C145.958 15.152 146.07 13.568 146.198 12.032C146.358 10.496 146.47 9.296 146.534 8.432C145.478 8.688 144.358 8.912 143.174 9.104C141.99 9.264 140.87 9.344 139.814 9.344C139.078 9.376 138.454 9.296 137.942 9.104C137.462 8.88 137.078 8.576 136.79 8.192C136.502 7.808 136.31 7.376 136.214 6.896C136.118 6.416 136.118 5.92 136.214 5.408C136.278 4.928 136.47 4.544 136.79 4.256C137.11 3.936 137.478 3.696 137.894 3.536C138.31 3.344 138.726 3.232 139.142 3.2C139.59 3.136 139.99 3.12 140.342 3.152C140.662 3.152 141.11 3.152 141.686 3.152C142.294 3.12 142.966 3.088 143.702 3.056C144.438 2.992 145.206 2.928 146.006 2.864C146.838 2.8 147.67 2.72 148.502 2.624C150.102 2.368 151.414 2.192 152.438 2.096C153.462 2 154.23 1.904 154.742 1.808C155.254 1.808 155.638 1.84 155.894 1.904C156.182 1.968 156.63 2.208 157.238 2.624ZM178.892 20C178.924 20.416 178.892 20.864 178.796 21.344C178.732 21.792 178.588 22.208 178.364 22.592C178.14 22.944 177.82 23.2 177.404 23.36C176.988 23.52 176.46 23.504 175.82 23.312C175.148 23.056 174.284 22.72 173.228 22.304C172.204 21.888 171.148 21.488 170.06 21.104C169.004 20.688 168.012 20.32 167.084 20C166.188 19.68 165.548 19.472 165.164 19.376C164.748 19.248 164.412 19.168 164.156 19.136C163.9 19.104 163.692 19.088 163.532 19.088C163.34 19.088 163.196 19.12 163.1 19.184C163.1 20.24 163.084 21.184 163.052 22.016C163.02 22.752 162.972 23.44 162.908 24.08C162.876 24.72 162.828 25.104 162.764 25.232C162.508 25.488 162.156 25.68 161.708 25.808C161.26 25.936 160.668 25.968 159.932 25.904C159.58 25.872 159.308 25.712 159.116 25.424C158.924 25.104 158.78 24.752 158.684 24.368C158.62 23.952 158.588 23.536 158.588 23.12C158.588 22.672 158.604 22.272 158.636 21.92C158.924 19.04 159.18 16.448 159.404 14.144C159.5 13.152 159.596 12.176 159.692 11.216C159.788 10.256 159.884 9.392 159.98 8.624C160.076 7.824 160.156 7.168 160.22 6.656C160.284 6.112 160.348 5.776 160.412 5.648C160.54 5.424 160.892 5.072 161.468 4.592C162.076 4.08 162.812 3.6 163.676 3.152C164.54 2.704 165.484 2.352 166.508 2.096C167.532 1.808 168.508 1.76 169.436 1.952C170.332 2.144 171.148 2.48 171.884 2.96C172.62 3.44 173.228 4.032 173.708 4.736C174.188 5.408 174.508 6.192 174.668 7.088C174.86 7.952 174.844 8.896 174.62 9.92C174.364 10.944 173.964 11.792 173.42 12.464C172.908 13.136 172.38 13.664 171.836 14.048C171.196 14.528 170.508 14.88 169.772 15.104L173.516 16.448C173.996 16.608 174.46 16.784 174.908 16.976C175.356 17.136 175.756 17.28 176.108 17.408C176.46 17.536 176.732 17.648 176.924 17.744C177.148 17.84 177.26 17.888 177.26 17.888C177.26 17.92 177.34 17.984 177.5 18.08C177.692 18.176 177.884 18.304 178.076 18.464C178.268 18.624 178.444 18.832 178.604 19.088C178.796 19.344 178.892 19.648 178.892 20ZM165.98 13.328C166.172 13.328 166.492 13.248 166.94 13.088C167.388 12.896 167.852 12.656 168.332 12.368C168.844 12.08 169.324 11.776 169.772 11.456C170.22 11.136 170.54 10.832 170.732 10.544C171.212 10 171.308 9.328 171.02 8.528C170.732 7.696 170.156 7.008 169.292 6.464C168.876 6.176 168.396 6.096 167.852 6.224C167.308 6.32 166.796 6.496 166.316 6.752C165.836 7.008 165.404 7.296 165.02 7.616C164.668 7.904 164.444 8.112 164.348 8.24C164.252 8.336 164.172 8.624 164.108 9.104C164.076 9.552 164.028 10.048 163.964 10.592C163.9 11.2 163.868 11.888 163.868 12.656C164.156 12.752 164.428 12.848 164.684 12.944C164.908 13.008 165.132 13.088 165.356 13.184C165.612 13.248 165.82 13.296 165.98 13.328ZM198.411 2.96C198.507 3.344 198.555 3.712 198.555 4.064C198.555 4.384 198.491 4.736 198.363 5.12C198.267 5.504 198.059 5.856 197.739 6.176C197.355 6.464 196.699 6.592 195.771 6.56C194.843 6.528 193.835 6.496 192.747 6.464C191.659 6.4 190.603 6.4 189.579 6.464C188.587 6.496 187.835 6.736 187.323 7.184C186.811 7.696 186.523 8.24 186.459 8.816C186.395 9.392 186.427 9.936 186.555 10.448C186.683 11.024 186.939 11.616 187.323 12.224C188.251 12.096 189.131 12.048 189.963 12.08C190.667 12.112 191.355 12.208 192.027 12.368C192.731 12.528 193.227 12.816 193.515 13.232C193.771 13.648 193.899 14.048 193.899 14.432C193.899 14.784 193.819 15.104 193.659 15.392C193.499 15.744 193.275 16.064 192.987 16.352L186.507 17.168C186.283 17.424 186.155 17.728 186.123 18.08C186.059 18.368 186.091 18.704 186.219 19.088C186.379 19.44 186.683 19.824 187.131 20.24C187.675 20.752 188.299 21.088 189.003 21.248C189.739 21.408 190.507 21.456 191.307 21.392C192.139 21.296 192.971 21.12 193.803 20.864C194.667 20.576 195.515 20.256 196.347 19.904C198.267 19.072 200.251 17.936 202.299 16.496C202.651 16.656 202.907 16.928 203.067 17.312C203.227 17.664 203.323 18.016 203.355 18.368C203.387 18.784 203.355 19.248 203.259 19.76C202.139 21.296 200.731 22.592 199.035 23.648C197.339 24.672 195.531 25.36 193.611 25.712C191.723 26.032 189.835 25.968 187.947 25.52C186.059 25.072 184.379 24.128 182.907 22.688C182.171 21.984 181.627 21.2 181.275 20.336C180.923 19.44 180.683 18.528 180.555 17.6C180.459 16.64 180.459 15.68 180.555 14.72C180.651 13.728 180.795 12.784 180.987 11.888C181.467 9.776 182.267 7.616 183.387 5.408C182.779 5.184 182.363 4.912 182.139 4.592C181.947 4.336 181.915 4.016 182.043 3.632C182.203 3.248 182.763 2.8 183.723 2.288C184.203 2.064 184.779 1.904 185.451 1.808C186.155 1.68 186.891 1.616 187.659 1.616C188.459 1.584 189.275 1.6 190.107 1.664C190.939 1.728 191.755 1.808 192.555 1.904C194.411 2.16 196.363 2.512 198.411 2.96ZM219.598 2.96C219.694 3.344 219.742 3.712 219.742 4.064C219.742 4.384 219.678 4.736 219.55 5.12C219.454 5.504 219.246 5.856 218.926 6.176C218.542 6.464 217.886 6.592 216.958 6.56C216.03 6.528 215.022 6.496 213.934 6.464C212.846 6.4 211.79 6.4 210.766 6.464C209.774 6.496 209.022 6.736 208.51 7.184C207.998 7.696 207.71 8.24 207.646 8.816C207.582 9.392 207.614 9.936 207.742 10.448C207.87 11.024 208.126 11.616 208.51 12.224C209.438 12.096 210.318 12.048 211.15 12.08C211.854 12.112 212.542 12.208 213.214 12.368C213.918 12.528 214.414 12.816 214.702 13.232C214.958 13.648 215.086 14.048 215.086 14.432C215.086 14.784 215.006 15.104 214.846 15.392C214.686 15.744 214.462 16.064 214.174 16.352L207.694 17.168C207.47 17.424 207.342 17.728 207.31 18.08C207.246 18.368 207.278 18.704 207.406 19.088C207.566 19.44 207.87 19.824 208.318 20.24C208.862 20.752 209.486 21.088 210.19 21.248C210.926 21.408 211.694 21.456 212.494 21.392C213.326 21.296 214.158 21.12 214.99 20.864C215.854 20.576 216.702 20.256 217.534 19.904C219.454 19.072 221.438 17.936 223.486 16.496C223.838 16.656 224.094 16.928 224.254 17.312C224.414 17.664 224.51 18.016 224.542 18.368C224.574 18.784 224.542 19.248 224.446 19.76C223.326 21.296 221.918 22.592 220.222 23.648C218.526 24.672 216.718 25.36 214.798 25.712C212.91 26.032 211.022 25.968 209.134 25.52C207.246 25.072 205.566 24.128 204.094 22.688C203.358 21.984 202.814 21.2 202.462 20.336C202.11 19.44 201.87 18.528 201.742 17.6C201.646 16.64 201.646 15.68 201.742 14.72C201.838 13.728 201.982 12.784 202.174 11.888C202.654 9.776 203.454 7.616 204.574 5.408C203.966 5.184 203.55 4.912 203.326 4.592C203.134 4.336 203.102 4.016 203.23 3.632C203.39 3.248 203.95 2.8 204.91 2.288C205.39 2.064 205.966 1.904 206.638 1.808C207.342 1.68 208.078 1.616 208.846 1.616C209.646 1.584 210.462 1.6 211.294 1.664C212.126 1.728 212.942 1.808 213.742 1.904C215.598 2.16 217.55 2.512 219.598 2.96Z" fill="white"/>
</svg>
