<svg width="220" height="220" viewBox="0 0 220 220" fill="none" xmlns="http://www.w3.org/2000/svg">
<rect width="220" height="220" rx="22" fill="#D9D9D9"/>
<path d="M64.2003 117.28H72.7603V124H55.3203V95.68H64.2003V117.28ZM89.3547 124.28C86.688 124.28 84.2347 123.653 81.9947 122.4C79.7814 121.147 78.0214 119.413 76.7147 117.2C75.408 114.987 74.7547 112.493 74.7547 109.72C74.7547 106.947 75.408 104.453 76.7147 102.24C78.0214 100.027 79.7814 98.3067 81.9947 97.08C84.2347 95.8267 86.688 95.2 89.3547 95.2C92.0214 95.2 94.4614 95.8267 96.6747 97.08C98.888 98.3067 100.635 100.027 101.915 102.24C103.221 104.453 103.875 106.947 103.875 109.72C103.875 112.493 103.221 114.987 101.915 117.2C100.635 119.413 98.8747 121.147 96.6347 122.4C94.4214 123.653 91.9947 124.28 89.3547 124.28ZM89.3547 116C91.1147 116 92.4747 115.44 93.4347 114.32C94.3947 113.173 94.8747 111.64 94.8747 109.72C94.8747 107.773 94.3947 106.24 93.4347 105.12C92.4747 103.973 91.1147 103.4 89.3547 103.4C87.568 103.4 86.1947 103.973 85.2347 105.12C84.2747 106.24 83.7947 107.773 83.7947 109.72C83.7947 111.64 84.2747 113.173 85.2347 114.32C86.1947 115.44 87.568 116 89.3547 116ZM124.438 105.36C124.091 104.8 123.598 104.373 122.958 104.08C122.318 103.76 121.545 103.6 120.638 103.6C118.931 103.6 117.611 104.16 116.678 105.28C115.745 106.373 115.278 107.88 115.278 109.8C115.278 112.013 115.798 113.667 116.838 114.76C117.878 115.853 119.478 116.4 121.638 116.4C123.691 116.4 125.345 115.573 126.598 113.92H119.518V107.64H133.958V116.52C132.731 118.627 131.038 120.44 128.878 121.96C126.718 123.453 123.985 124.2 120.678 124.2C117.745 124.2 115.185 123.6 112.998 122.4C110.838 121.173 109.171 119.467 107.998 117.28C106.851 115.093 106.278 112.6 106.278 109.8C106.278 107 106.851 104.507 107.998 102.32C109.171 100.133 110.838 98.44 112.998 97.24C115.158 96.0133 117.691 95.4 120.598 95.4C124.305 95.4 127.318 96.2933 129.638 98.08C131.985 99.8667 133.371 102.293 133.798 105.36H124.438ZM150.956 124.28C148.29 124.28 145.836 123.653 143.596 122.4C141.383 121.147 139.623 119.413 138.316 117.2C137.01 114.987 136.356 112.493 136.356 109.72C136.356 106.947 137.01 104.453 138.316 102.24C139.623 100.027 141.383 98.3067 143.596 97.08C145.836 95.8267 148.29 95.2 150.956 95.2C153.623 95.2 156.063 95.8267 158.276 97.08C160.49 98.3067 162.236 100.027 163.516 102.24C164.823 104.453 165.476 106.947 165.476 109.72C165.476 112.493 164.823 114.987 163.516 117.2C162.236 119.413 160.476 121.147 158.236 122.4C156.023 123.653 153.596 124.28 150.956 124.28ZM150.956 116C152.716 116 154.076 115.44 155.036 114.32C155.996 113.173 156.476 111.64 156.476 109.72C156.476 107.773 155.996 106.24 155.036 105.12C154.076 103.973 152.716 103.4 150.956 103.4C149.17 103.4 147.796 103.973 146.836 105.12C145.876 106.24 145.396 107.773 145.396 109.72C145.396 111.64 145.876 113.173 146.836 114.32C147.796 115.44 149.17 116 150.956 116Z" fill="black"/>
</svg>
