<svg width="225" height="51" viewBox="0 0 225 51" fill="none" xmlns="http://www.w3.org/2000/svg">
<path d="M10.6706 34.312C10.9906 34.536 11.1826 34.84 11.2466 35.224C11.3106 35.592 11.2226 35.92 10.9826 36.208C10.8546 36.336 10.7346 36.424 10.6226 36.472C10.5266 36.504 10.4226 36.528 10.3106 36.544C10.1986 36.544 10.0706 36.544 9.92656 36.544C9.78256 36.528 9.61456 36.528 9.42256 36.544C9.13456 36.544 8.90256 36.56 8.72656 36.592C8.55056 36.624 8.29456 36.664 7.95856 36.712C7.92656 36.968 7.87056 37.36 7.79056 37.888C7.72656 38.4 7.67056 38.96 7.62256 39.568C7.60656 39.952 7.61456 40.392 7.64656 40.888C7.67856 41.368 7.71856 41.84 7.76656 42.304C7.83056 42.768 7.89456 43.192 7.95856 43.576C8.02256 43.944 8.07856 44.224 8.12656 44.416C8.15856 44.752 8.18256 45.048 8.19856 45.304C8.21456 45.544 8.07856 45.704 7.79056 45.784C7.64656 45.816 7.43856 45.864 7.16656 45.928C6.89456 45.976 6.61456 45.992 6.32656 45.976C6.05456 45.96 5.79856 45.896 5.55856 45.784C5.31856 45.672 5.15856 45.464 5.07856 45.16C4.98256 44.872 4.92656 44.376 4.91056 43.672C4.91056 42.968 4.93456 42.208 4.98256 41.392C5.03056 40.576 5.08656 39.784 5.15056 39.016C5.23056 38.248 5.28656 37.648 5.31856 37.216C4.79056 37.344 4.23056 37.456 3.63856 37.552C3.04656 37.632 2.48656 37.672 1.95856 37.672C1.59056 37.688 1.27856 37.648 1.02256 37.552C0.782559 37.44 0.590559 37.288 0.446559 37.096C0.302559 36.904 0.206559 36.688 0.158559 36.448C0.110559 36.208 0.110559 35.96 0.158559 35.704C0.190559 35.464 0.286559 35.272 0.446559 35.128C0.606559 34.968 0.790559 34.848 0.998559 34.768C1.20656 34.672 1.41456 34.616 1.62256 34.6C1.84656 34.568 2.04656 34.56 2.22256 34.576C2.38256 34.576 2.60656 34.576 2.89456 34.576C3.19856 34.56 3.53456 34.544 3.90256 34.528C4.27056 34.496 4.65456 34.464 5.05456 34.432C5.47056 34.4 5.88656 34.36 6.30256 34.312C7.10256 34.184 7.75856 34.096 8.27056 34.048C8.78256 34 9.16656 33.952 9.42256 33.904C9.67856 33.904 9.87056 33.92 9.99856 33.952C10.1426 33.984 10.3666 34.104 10.6706 34.312ZM25.2457 45.976C25.1657 45.512 25.0777 45.048 24.9817 44.584C24.9017 44.104 24.8377 43.64 24.7897 43.192C24.6617 43.096 24.4137 42.968 24.0457 42.808C23.6777 42.632 23.2457 42.52 22.7497 42.472C22.3337 42.472 21.9257 42.504 21.5257 42.568C21.1417 42.632 20.8377 42.696 20.6137 42.76C20.4377 43.224 20.2777 43.656 20.1337 44.056C20.0057 44.44 19.8937 44.784 19.7977 45.088C19.6857 45.44 19.5897 45.76 19.5097 46.048L16.8457 45.976C17.0217 45.032 17.2617 44.136 17.5657 43.288C17.8697 42.44 18.2137 41.648 18.5977 40.912C18.9817 40.16 19.3897 39.472 19.8217 38.848C20.2537 38.208 20.6777 37.632 21.0937 37.12C22.0857 35.92 23.1417 34.872 24.2617 33.976C24.7737 34.008 25.1737 34.08 25.4617 34.192C25.7497 34.304 25.9657 34.424 26.1097 34.552C26.2697 34.712 26.3657 34.88 26.3977 35.056C26.4137 35.616 26.4537 36.2 26.5177 36.808C26.5977 37.416 26.6777 38.032 26.7577 38.656C26.8537 39.28 26.9577 39.896 27.0697 40.504C27.1817 41.112 27.2937 41.688 27.4057 42.232C27.6777 43.512 27.9737 44.784 28.2937 46.048L25.2457 45.976ZM21.7417 40.336C21.8857 40.288 22.0617 40.24 22.2697 40.192C22.4777 40.144 22.7017 40.12 22.9417 40.12C23.1817 40.12 23.4297 40.152 23.6857 40.216C23.9577 40.264 24.2137 40.368 24.4537 40.528C24.4057 40.016 24.3657 39.536 24.3337 39.088C24.3017 38.624 24.2697 38.224 24.2377 37.888C24.2057 37.488 24.1817 37.136 24.1657 36.832C23.6697 37.328 23.2217 37.88 22.8217 38.488C22.4217 39.096 22.0617 39.712 21.7417 40.336ZM45.5909 34.312C45.9109 34.536 46.1029 34.84 46.1669 35.224C46.2309 35.592 46.1429 35.92 45.9029 36.208C45.7749 36.336 45.6549 36.424 45.5429 36.472C45.4469 36.504 45.3429 36.528 45.2309 36.544C45.1189 36.544 44.9909 36.544 44.8469 36.544C44.7029 36.528 44.5349 36.528 44.3429 36.544C44.0549 36.544 43.8229 36.56 43.6469 36.592C43.4709 36.624 43.2149 36.664 42.8789 36.712C42.8469 36.968 42.7909 37.36 42.7109 37.888C42.6469 38.4 42.5909 38.96 42.5429 39.568C42.5269 39.952 42.5349 40.392 42.5669 40.888C42.5989 41.368 42.6389 41.84 42.6869 42.304C42.7509 42.768 42.8149 43.192 42.8789 43.576C42.9429 43.944 42.9989 44.224 43.0469 44.416C43.0789 44.752 43.1029 45.048 43.1189 45.304C43.1349 45.544 42.9989 45.704 42.7109 45.784C42.5669 45.816 42.3589 45.864 42.0869 45.928C41.8149 45.976 41.5349 45.992 41.2469 45.976C40.9749 45.96 40.7189 45.896 40.4789 45.784C40.2389 45.672 40.0789 45.464 39.9989 45.16C39.9029 44.872 39.8469 44.376 39.8309 43.672C39.8309 42.968 39.8549 42.208 39.9029 41.392C39.9509 40.576 40.0069 39.784 40.0709 39.016C40.1509 38.248 40.2069 37.648 40.2389 37.216C39.7109 37.344 39.1509 37.456 38.5589 37.552C37.9669 37.632 37.4069 37.672 36.8789 37.672C36.5109 37.688 36.1989 37.648 35.9429 37.552C35.7029 37.44 35.5109 37.288 35.3669 37.096C35.2229 36.904 35.1269 36.688 35.0789 36.448C35.0309 36.208 35.0309 35.96 35.0789 35.704C35.1109 35.464 35.2069 35.272 35.3669 35.128C35.5269 34.968 35.7109 34.848 35.9189 34.768C36.1269 34.672 36.3349 34.616 36.5429 34.6C36.7669 34.568 36.9669 34.56 37.1429 34.576C37.3029 34.576 37.5269 34.576 37.8149 34.576C38.1189 34.56 38.4549 34.544 38.8229 34.528C39.1909 34.496 39.5749 34.464 39.9749 34.432C40.3909 34.4 40.8069 34.36 41.2229 34.312C42.0229 34.184 42.6789 34.096 43.1909 34.048C43.7029 34 44.0869 33.952 44.3429 33.904C44.5989 33.904 44.7909 33.92 44.9189 33.952C45.0629 33.984 45.2869 34.104 45.5909 34.312ZM62.7581 34.312C63.0781 34.536 63.2701 34.84 63.3341 35.224C63.3981 35.592 63.3101 35.92 63.0701 36.208C62.9421 36.336 62.8221 36.424 62.7101 36.472C62.6141 36.504 62.5101 36.528 62.3981 36.544C62.2861 36.544 62.1581 36.544 62.0141 36.544C61.8701 36.528 61.7021 36.528 61.5101 36.544C61.2221 36.544 60.9901 36.56 60.8141 36.592C60.6381 36.624 60.3821 36.664 60.0461 36.712C60.0141 36.968 59.9581 37.36 59.8781 37.888C59.8141 38.4 59.7581 38.96 59.7101 39.568C59.6941 39.952 59.7021 40.392 59.7341 40.888C59.7661 41.368 59.8061 41.84 59.8541 42.304C59.9181 42.768 59.9821 43.192 60.0461 43.576C60.1101 43.944 60.1661 44.224 60.2141 44.416C60.2461 44.752 60.2701 45.048 60.2861 45.304C60.3021 45.544 60.1661 45.704 59.8781 45.784C59.7341 45.816 59.5261 45.864 59.2541 45.928C58.9821 45.976 58.7021 45.992 58.4141 45.976C58.1421 45.96 57.8861 45.896 57.6461 45.784C57.4061 45.672 57.2461 45.464 57.1661 45.16C57.0701 44.872 57.0141 44.376 56.9981 43.672C56.9981 42.968 57.0221 42.208 57.0701 41.392C57.1181 40.576 57.1741 39.784 57.2381 39.016C57.3181 38.248 57.3741 37.648 57.4061 37.216C56.8781 37.344 56.3181 37.456 55.7261 37.552C55.1341 37.632 54.5741 37.672 54.0461 37.672C53.6781 37.688 53.3661 37.648 53.1101 37.552C52.8701 37.44 52.6781 37.288 52.5341 37.096C52.3901 36.904 52.2941 36.688 52.2461 36.448C52.1981 36.208 52.1981 35.96 52.2461 35.704C52.2781 35.464 52.3741 35.272 52.5341 35.128C52.6941 34.968 52.8781 34.848 53.0861 34.768C53.2941 34.672 53.5021 34.616 53.7101 34.6C53.9341 34.568 54.1341 34.56 54.3101 34.576C54.4701 34.576 54.6941 34.576 54.9821 34.576C55.2861 34.56 55.6221 34.544 55.9901 34.528C56.3581 34.496 56.7421 34.464 57.1421 34.432C57.5581 34.4 57.9741 34.36 58.3901 34.312C59.1901 34.184 59.8461 34.096 60.3581 34.048C60.8701 34 61.2541 33.952 61.5101 33.904C61.7661 33.904 61.9581 33.92 62.0861 33.952C62.2301 33.984 62.4541 34.104 62.7581 34.312ZM75.6532 34.048C76.7252 34 77.6132 34.136 78.3172 34.456C79.0212 34.76 79.5812 35.2 79.9972 35.776C80.4132 36.352 80.7092 37.04 80.8852 37.84C81.0612 38.64 81.1492 39.504 81.1492 40.432C81.1492 41.04 81.0692 41.664 80.9092 42.304C80.7492 42.928 80.4772 43.504 80.0932 44.032C79.7092 44.544 79.1972 44.976 78.5572 45.328C77.9172 45.68 77.1092 45.888 76.1332 45.952C75.4132 46 74.7172 45.888 74.0452 45.616C73.3732 45.344 72.7732 44.96 72.2452 44.464C71.7172 43.968 71.2932 43.376 70.9732 42.688C70.6532 41.984 70.4852 41.232 70.4692 40.432C70.4372 39.632 70.5412 38.856 70.7812 38.104C71.0212 37.352 71.3652 36.688 71.8132 36.112C72.2612 35.52 72.8052 35.04 73.4452 34.672C74.1012 34.288 74.8372 34.08 75.6532 34.048ZM78.8452 39.952C78.8612 39.312 78.7892 38.776 78.6292 38.344C78.4852 37.896 78.2852 37.536 78.0292 37.264C77.7732 36.976 77.4852 36.768 77.1652 36.64C76.8612 36.496 76.5652 36.416 76.2772 36.4C75.9732 36.384 75.6212 36.424 75.2212 36.52C74.8372 36.6 74.4692 36.768 74.1172 37.024C73.7652 37.28 73.4612 37.64 73.2052 38.104C72.9652 38.552 72.8372 39.136 72.8212 39.856C72.8212 40.56 72.9172 41.152 73.1092 41.632C73.3172 42.112 73.5812 42.504 73.9012 42.808C74.2212 43.096 74.5812 43.312 74.9812 43.456C75.3972 43.584 75.8132 43.648 76.2292 43.648C77.1252 43.648 77.7732 43.352 78.1732 42.76C78.5892 42.152 78.8132 41.216 78.8452 39.952ZM94.2267 34.048C95.2987 34 96.1867 34.136 96.8907 34.456C97.5947 34.76 98.1547 35.2 98.5707 35.776C98.9867 36.352 99.2827 37.04 99.4587 37.84C99.6347 38.64 99.7227 39.504 99.7227 40.432C99.7227 41.04 99.6427 41.664 99.4827 42.304C99.3227 42.928 99.0507 43.504 98.6667 44.032C98.2827 44.544 97.7707 44.976 97.1307 45.328C96.4907 45.68 95.6827 45.888 94.7067 45.952C93.9867 46 93.2907 45.888 92.6187 45.616C91.9467 45.344 91.3467 44.96 90.8187 44.464C90.2907 43.968 89.8667 43.376 89.5467 42.688C89.2267 41.984 89.0587 41.232 89.0427 40.432C89.0107 39.632 89.1147 38.856 89.3547 38.104C89.5947 37.352 89.9387 36.688 90.3867 36.112C90.8347 35.52 91.3787 35.04 92.0187 34.672C92.6747 34.288 93.4107 34.08 94.2267 34.048ZM97.4187 39.952C97.4347 39.312 97.3627 38.776 97.2027 38.344C97.0587 37.896 96.8587 37.536 96.6027 37.264C96.3467 36.976 96.0587 36.768 95.7387 36.64C95.4347 36.496 95.1387 36.416 94.8507 36.4C94.5467 36.384 94.1947 36.424 93.7947 36.52C93.4107 36.6 93.0427 36.768 92.6907 37.024C92.3387 37.28 92.0347 37.64 91.7787 38.104C91.5387 38.552 91.4107 39.136 91.3947 39.856C91.3947 40.56 91.4907 41.152 91.6827 41.632C91.8907 42.112 92.1547 42.504 92.4747 42.808C92.7947 43.096 93.1547 43.312 93.5547 43.456C93.9707 43.584 94.3867 43.648 94.8027 43.648C95.6987 43.648 96.3467 43.352 96.7467 42.76C97.1627 42.152 97.3867 41.216 97.4187 39.952ZM127.982 33.904C128.494 33.936 128.926 34.08 129.278 34.336C129.646 34.592 129.918 34.896 130.094 35.248C130.286 35.584 130.374 35.928 130.358 36.28C130.358 36.632 130.254 36.912 130.046 37.12C129.854 37.312 129.662 37.416 129.47 37.432C129.294 37.448 129.126 37.424 128.966 37.36C128.822 37.296 128.694 37.208 128.582 37.096C128.47 36.984 128.382 36.888 128.318 36.808C128.27 36.728 128.174 36.632 128.03 36.52C127.902 36.392 127.742 36.296 127.55 36.232C127.374 36.168 127.19 36.16 126.998 36.208C126.806 36.24 126.638 36.384 126.494 36.64C126.334 36.864 126.318 37.096 126.446 37.336C126.574 37.576 126.774 37.816 127.046 38.056C127.318 38.28 127.63 38.504 127.982 38.728C128.334 38.936 128.662 39.12 128.966 39.28C129.254 39.472 129.534 39.656 129.806 39.832C130.094 39.992 130.358 40.168 130.598 40.36C130.838 40.552 131.054 40.776 131.246 41.032C131.454 41.272 131.63 41.568 131.774 41.92C131.918 42.272 131.99 42.664 131.99 43.096C131.99 43.512 131.894 43.92 131.702 44.32C131.526 44.72 131.238 45.072 130.838 45.376C130.438 45.664 129.91 45.856 129.254 45.952C128.582 46.032 127.958 46.04 127.382 45.976C126.806 45.912 126.27 45.808 125.774 45.664C125.278 45.52 124.83 45.36 124.43 45.184C124.03 44.992 123.678 44.808 123.374 44.632C123.07 44.472 122.87 44.288 122.774 44.08C122.662 43.872 122.622 43.664 122.654 43.456C122.67 43.248 122.734 43.048 122.846 42.856C122.958 42.648 123.078 42.472 123.206 42.328C123.51 42.04 123.87 41.976 124.286 42.136C124.702 42.28 125.134 42.536 125.582 42.904C125.79 43.08 126.038 43.232 126.326 43.36C126.614 43.472 126.902 43.552 127.19 43.6C127.494 43.648 127.79 43.664 128.078 43.648C128.366 43.632 128.614 43.576 128.822 43.48C129.206 43.272 129.334 42.992 129.206 42.64C129.078 42.272 128.726 41.784 128.15 41.176C127.862 40.84 127.526 40.576 127.142 40.384C126.774 40.192 126.398 39.984 126.014 39.76C125.63 39.52 125.27 39.232 124.934 38.896C124.598 38.56 124.334 38.08 124.142 37.456C123.95 36.816 123.974 36.272 124.214 35.824C124.47 35.36 124.814 34.992 125.246 34.72C125.694 34.432 126.174 34.224 126.686 34.096C127.198 33.968 127.63 33.904 127.982 33.904ZM149.039 34.312C149.359 34.536 149.551 34.84 149.615 35.224C149.679 35.592 149.591 35.92 149.351 36.208C149.223 36.336 149.103 36.424 148.991 36.472C148.895 36.504 148.791 36.528 148.679 36.544C148.567 36.544 148.439 36.544 148.295 36.544C148.151 36.528 147.983 36.528 147.791 36.544C147.503 36.544 147.271 36.56 147.095 36.592C146.919 36.624 146.663 36.664 146.327 36.712C146.295 36.968 146.239 37.36 146.159 37.888C146.095 38.4 146.039 38.96 145.991 39.568C145.975 39.952 145.983 40.392 146.015 40.888C146.047 41.368 146.087 41.84 146.135 42.304C146.199 42.768 146.263 43.192 146.327 43.576C146.391 43.944 146.447 44.224 146.495 44.416C146.527 44.752 146.551 45.048 146.567 45.304C146.583 45.544 146.447 45.704 146.159 45.784C146.015 45.816 145.807 45.864 145.535 45.928C145.263 45.976 144.983 45.992 144.695 45.976C144.423 45.96 144.167 45.896 143.927 45.784C143.687 45.672 143.527 45.464 143.447 45.16C143.351 44.872 143.295 44.376 143.279 43.672C143.279 42.968 143.303 42.208 143.351 41.392C143.399 40.576 143.455 39.784 143.519 39.016C143.599 38.248 143.655 37.648 143.687 37.216C143.159 37.344 142.599 37.456 142.007 37.552C141.415 37.632 140.855 37.672 140.327 37.672C139.959 37.688 139.647 37.648 139.391 37.552C139.151 37.44 138.959 37.288 138.815 37.096C138.671 36.904 138.575 36.688 138.527 36.448C138.479 36.208 138.479 35.96 138.527 35.704C138.559 35.464 138.655 35.272 138.815 35.128C138.975 34.968 139.159 34.848 139.367 34.768C139.575 34.672 139.783 34.616 139.991 34.6C140.215 34.568 140.415 34.56 140.591 34.576C140.751 34.576 140.975 34.576 141.263 34.576C141.567 34.56 141.903 34.544 142.271 34.528C142.639 34.496 143.023 34.464 143.423 34.432C143.839 34.4 144.255 34.36 144.671 34.312C145.471 34.184 146.127 34.096 146.639 34.048C147.151 34 147.535 33.952 147.791 33.904C148.047 33.904 148.239 33.92 148.367 33.952C148.511 33.984 148.735 34.104 149.039 34.312ZM166.926 41.2C166.958 41.488 167.006 41.8 167.07 42.136C167.134 42.472 167.206 42.8 167.286 43.12C167.382 43.44 167.47 43.736 167.55 44.008C167.646 44.28 167.734 44.496 167.814 44.656C167.974 44.976 167.942 45.272 167.718 45.544C167.494 45.8 167.038 45.944 166.35 45.976C165.982 46.008 165.694 45.976 165.486 45.88C165.278 45.768 165.11 45.632 164.982 45.472C164.838 45.296 164.742 45.088 164.694 44.848C164.086 45.008 163.462 45.16 162.822 45.304C162.262 45.432 161.646 45.56 160.974 45.688C160.302 45.816 159.63 45.912 158.958 45.976C158.27 46.04 157.782 45.952 157.494 45.712C157.206 45.472 157.03 45.176 156.966 44.824C156.918 44.456 156.934 44.072 157.014 43.672C157.11 43.272 157.198 42.936 157.278 42.664C157.374 42.424 157.478 42.096 157.59 41.68C157.702 41.264 157.814 40.816 157.926 40.336C158.038 39.856 158.134 39.384 158.214 38.92C158.31 38.44 158.39 38.016 158.454 37.648C158.534 37.312 158.59 36.984 158.622 36.664C158.67 36.344 158.734 36.056 158.814 35.8C158.894 35.544 159.014 35.336 159.174 35.176C159.334 35 159.582 34.896 159.918 34.864C160.254 34.832 160.494 34.984 160.638 35.32C160.782 35.64 160.862 36.048 160.878 36.544C160.91 37.04 160.894 37.576 160.83 38.152C160.782 38.712 160.726 39.208 160.662 39.64C160.614 40.056 160.502 40.464 160.326 40.864C160.15 41.264 159.998 41.632 159.87 41.968C159.742 42.304 159.67 42.608 159.654 42.88C159.654 43.152 159.79 43.368 160.062 43.528C160.35 43.672 160.726 43.704 161.19 43.624C161.67 43.544 162.142 43.432 162.606 43.288C163.134 43.112 163.694 42.888 164.286 42.616C164.19 41.672 164.11 40.768 164.046 39.904C164.014 39.536 163.99 39.16 163.974 38.776C163.958 38.392 163.942 38.024 163.926 37.672C163.926 37.304 163.926 36.96 163.926 36.64C163.926 36.32 163.942 36.04 163.974 35.8C163.99 35.304 164.07 34.928 164.214 34.672C164.374 34.416 164.566 34.24 164.79 34.144C165.03 34.032 165.286 33.984 165.558 34C165.83 34 166.094 34.024 166.35 34.072C166.574 34.088 166.718 34.176 166.782 34.336C166.862 34.48 166.894 34.68 166.878 34.936C166.862 35.176 166.822 35.456 166.758 35.776C166.71 36.08 166.678 36.384 166.662 36.688C166.662 37.008 166.67 37.416 166.686 37.912C166.718 38.408 166.75 38.904 166.782 39.4C166.83 39.976 166.878 40.576 166.926 41.2ZM178.672 34.216C178.928 34.36 179.296 34.552 179.776 34.792C180.256 35.016 180.776 35.288 181.336 35.608C181.912 35.912 182.488 36.264 183.064 36.664C183.656 37.048 184.176 37.488 184.624 37.984C185.088 38.464 185.448 38.992 185.704 39.568C185.976 40.144 186.08 40.76 186.016 41.416C185.952 42.088 185.68 42.672 185.2 43.168C184.72 43.648 184.128 44.064 183.424 44.416C182.736 44.752 181.992 45.032 181.192 45.256C180.392 45.464 179.64 45.624 178.936 45.736C178.248 45.848 177.664 45.92 177.184 45.952C176.704 45.984 176.432 45.984 176.368 45.952C176.272 45.92 176.168 45.824 176.056 45.664C175.96 45.504 175.872 45.336 175.792 45.16C175.712 44.984 175.648 44.832 175.6 44.704C175.552 44.576 175.544 44.52 175.576 44.536C175.592 44.568 175.688 44.528 175.864 44.416C176.04 44.288 176.232 44.152 176.44 44.008C176.68 43.832 176.944 43.632 177.232 43.408C177.168 42.192 177.104 41.096 177.04 40.12C177.008 39.704 176.984 39.296 176.968 38.896C176.952 38.496 176.936 38.136 176.92 37.816C176.904 37.496 176.896 37.24 176.896 37.048C176.896 36.84 176.904 36.72 176.92 36.688C176.904 36.672 176.848 36.632 176.752 36.568C176.672 36.488 176.584 36.4 176.488 36.304C176.408 36.192 176.336 36.08 176.272 35.968C176.224 35.856 176.224 35.76 176.272 35.68C176.32 35.6 176.392 35.448 176.488 35.224C176.6 34.984 176.744 34.76 176.92 34.552C177.112 34.328 177.352 34.168 177.64 34.072C177.928 33.976 178.272 34.024 178.672 34.216ZM180.736 42.544C180.96 42.464 181.256 42.336 181.624 42.16C182.008 41.984 182.384 41.8 182.752 41.608C183.12 41.4 183.432 41.2 183.688 41.008C183.944 40.816 184.064 40.656 184.048 40.528C184.016 40.416 183.912 40.192 183.736 39.856C183.56 39.504 183.28 39.136 182.896 38.752C182.512 38.352 182.008 37.984 181.384 37.648C180.76 37.312 179.984 37.08 179.056 36.952C179.056 36.952 179.056 37.032 179.056 37.192C179.056 37.352 179.064 37.568 179.08 37.84C179.096 38.096 179.112 38.392 179.128 38.728C179.144 39.064 179.168 39.408 179.2 39.76L179.392 42.544C179.472 42.608 179.576 42.656 179.704 42.688C179.816 42.72 179.952 42.736 180.112 42.736C180.288 42.72 180.496 42.656 180.736 42.544ZM202.086 42.832C202.454 42.816 202.726 42.92 202.902 43.144C203.078 43.368 203.198 43.624 203.262 43.912C203.326 44.2 203.342 44.488 203.31 44.776C203.294 45.064 203.278 45.256 203.262 45.352C203.214 45.576 203.022 45.712 202.686 45.76C202.35 45.808 201.774 45.848 200.958 45.88C200.59 45.896 200.102 45.92 199.494 45.952C198.886 45.984 198.262 46.016 197.622 46.048C196.982 46.08 196.374 46.112 195.798 46.144C195.238 46.192 194.83 46.24 194.574 46.288C194.302 46.304 194.086 46.248 193.926 46.12C193.782 45.992 193.686 45.832 193.638 45.64C193.59 45.432 193.574 45.208 193.59 44.968C193.606 44.712 193.646 44.48 193.71 44.272C193.774 44.064 193.894 43.896 194.07 43.768C194.262 43.624 194.486 43.512 194.742 43.432C195.014 43.352 195.302 43.288 195.606 43.24C195.926 43.176 196.246 43.12 196.566 43.072C196.694 43.072 196.854 43.072 197.046 43.072C197.238 43.056 197.43 43.032 197.622 43V40.528V37.096C197.35 37.096 197.054 37.104 196.734 37.12C196.414 37.136 196.102 37.184 195.798 37.264C195.494 37.312 195.27 37.28 195.126 37.168C194.982 37.056 194.894 36.912 194.862 36.736C194.83 36.544 194.83 36.336 194.862 36.112C194.894 35.872 194.926 35.648 194.958 35.44C194.974 35.28 195.102 35.136 195.342 35.008C195.598 34.88 195.918 34.768 196.302 34.672C196.686 34.576 197.11 34.488 197.574 34.408C198.054 34.328 198.526 34.264 198.99 34.216C199.454 34.168 199.894 34.128 200.31 34.096C200.726 34.064 201.07 34.04 201.342 34.024C201.758 34.008 202.094 34.072 202.35 34.216C202.622 34.344 202.83 34.528 202.974 34.768C203.118 34.992 203.214 35.248 203.262 35.536C203.31 35.808 203.334 36.072 203.334 36.328C203.334 36.584 203.27 36.768 203.142 36.88C203.014 36.992 202.862 37.064 202.686 37.096C202.526 37.128 202.366 37.136 202.206 37.12C202.062 37.104 201.966 37.096 201.918 37.096C201.902 37.096 201.822 37.088 201.678 37.072C201.534 37.056 201.358 37.048 201.15 37.048C200.942 37.032 200.718 37.016 200.478 37C200.238 36.984 200.014 36.976 199.806 36.976C199.806 37.328 199.79 37.752 199.758 38.248C199.742 38.728 199.734 39.208 199.734 39.688C199.734 39.976 199.734 40.28 199.734 40.6C199.75 40.92 199.758 41.232 199.758 41.536C199.774 41.824 199.782 42.096 199.782 42.352C199.798 42.592 199.806 42.784 199.806 42.928C200.126 42.896 200.422 42.88 200.694 42.88C200.982 42.88 201.23 42.872 201.438 42.856C201.678 42.856 201.894 42.848 202.086 42.832ZM216.272 34.048C217.344 34 218.232 34.136 218.936 34.456C219.64 34.76 220.2 35.2 220.616 35.776C221.032 36.352 221.328 37.04 221.504 37.84C221.68 38.64 221.768 39.504 221.768 40.432C221.768 41.04 221.688 41.664 221.528 42.304C221.368 42.928 221.096 43.504 220.712 44.032C220.328 44.544 219.816 44.976 219.176 45.328C218.536 45.68 217.728 45.888 216.752 45.952C216.032 46 215.336 45.888 214.664 45.616C213.992 45.344 213.392 44.96 212.864 44.464C212.336 43.968 211.912 43.376 211.592 42.688C211.272 41.984 211.104 41.232 211.088 40.432C211.056 39.632 211.16 38.856 211.4 38.104C211.64 37.352 211.984 36.688 212.432 36.112C212.88 35.52 213.424 35.04 214.064 34.672C214.72 34.288 215.456 34.08 216.272 34.048ZM219.464 39.952C219.48 39.312 219.408 38.776 219.248 38.344C219.104 37.896 218.904 37.536 218.648 37.264C218.392 36.976 218.104 36.768 217.784 36.64C217.48 36.496 217.184 36.416 216.896 36.4C216.592 36.384 216.24 36.424 215.84 36.52C215.456 36.6 215.088 36.768 214.736 37.024C214.384 37.28 214.08 37.64 213.824 38.104C213.584 38.552 213.456 39.136 213.44 39.856C213.44 40.56 213.536 41.152 213.728 41.632C213.936 42.112 214.2 42.504 214.52 42.808C214.84 43.096 215.2 43.312 215.6 43.456C216.016 43.584 216.432 43.648 216.848 43.648C217.744 43.648 218.392 43.352 218.792 42.76C219.208 42.152 219.432 41.216 219.464 39.952Z" fill="white"/>
<path d="M1.31825 22.208C2.08625 20.064 2.75825 18.032 3.33425 16.112C3.55825 15.312 3.78225 14.496 4.00625 13.664C4.23025 12.8 4.42225 12 4.58225 11.264C4.77425 10.528 4.90225 9.856 4.96625 9.248C5.06225 8.608 5.09425 8.096 5.06225 7.712C4.93425 6.944 4.77425 6.288 4.58225 5.744C4.39025 5.168 4.24625 4.688 4.15025 4.304C4.05425 3.888 4.03825 3.552 4.10225 3.296C4.16625 3.008 4.42225 2.752 4.87025 2.528C5.31825 2.304 5.76625 2.144 6.21425 2.048C6.69425 1.92 7.12625 1.888 7.51025 1.952C7.92625 1.984 8.27825 2.112 8.56625 2.336C8.85425 2.56 9.04625 2.88 9.14225 3.296C9.27025 3.712 9.33425 4.304 9.33425 5.072C9.36625 5.84 9.33425 6.72 9.23825 7.712C9.17425 8.672 9.06225 9.696 8.90225 10.784C8.74225 11.84 8.53425 12.864 8.27825 13.856C8.02225 14.784 7.81425 15.696 7.65425 16.592C7.49425 17.456 7.38225 18.224 7.31825 18.896C7.22225 19.696 7.15825 20.448 7.12625 21.152C8.05425 21.184 8.98225 21.184 9.91025 21.152C10.7103 21.12 11.5423 21.072 12.4062 21.008C13.2703 20.912 14.0543 20.784 14.7583 20.624C16.1343 20.272 17.2863 20.16 18.2143 20.288C19.1743 20.416 19.7983 20.816 20.0863 21.488C20.1823 21.84 20.2463 22.224 20.2783 22.64C20.3103 23.024 20.2463 23.408 20.0863 23.792C19.9583 24.144 19.7023 24.464 19.3183 24.752C18.9343 25.04 18.3903 25.248 17.6863 25.376C17.2063 25.44 16.5663 25.52 15.7663 25.616C14.9663 25.68 14.0703 25.744 13.0782 25.808C12.1183 25.872 11.1103 25.936 10.0543 26C9.03025 26.032 8.05425 26.064 7.12625 26.096C6.19825 26.128 5.36625 26.128 4.63025 26.096C3.89425 26.096 3.36625 26.048 3.04625 25.952C2.08625 25.664 1.46225 25.152 1.17425 24.416C0.91825 23.68 0.96625 22.944 1.31825 22.208ZM38.8951 2.96C38.9911 3.344 39.0391 3.712 39.0391 4.064C39.0391 4.384 38.9751 4.736 38.8471 5.12C38.7511 5.504 38.5431 5.856 38.2231 6.176C37.8391 6.464 37.1831 6.592 36.2551 6.56C35.3271 6.528 34.3191 6.496 33.2311 6.464C32.1431 6.4 31.0871 6.4 30.0631 6.464C29.0711 6.496 28.3191 6.736 27.8071 7.184C27.2951 7.696 27.0071 8.24 26.9431 8.816C26.8791 9.392 26.9111 9.936 27.0391 10.448C27.1671 11.024 27.4231 11.616 27.8071 12.224C28.7351 12.096 29.6151 12.048 30.4471 12.08C31.1511 12.112 31.8391 12.208 32.5111 12.368C33.2151 12.528 33.7111 12.816 33.9991 13.232C34.2551 13.648 34.3831 14.048 34.3831 14.432C34.3831 14.784 34.3031 15.104 34.1431 15.392C33.9831 15.744 33.7591 16.064 33.4711 16.352L26.9911 17.168C26.7671 17.424 26.6391 17.728 26.6071 18.08C26.5431 18.368 26.5751 18.704 26.7031 19.088C26.8631 19.44 27.1671 19.824 27.6151 20.24C28.1591 20.752 28.7831 21.088 29.4871 21.248C30.2231 21.408 30.9911 21.456 31.7911 21.392C32.6231 21.296 33.4551 21.12 34.2871 20.864C35.1511 20.576 35.9991 20.256 36.8311 19.904C38.7511 19.072 40.7351 17.936 42.7831 16.496C43.1351 16.656 43.3911 16.928 43.5511 17.312C43.7111 17.664 43.8071 18.016 43.8391 18.368C43.8711 18.784 43.8391 19.248 43.7431 19.76C42.6231 21.296 41.2151 22.592 39.5191 23.648C37.8231 24.672 36.0151 25.36 34.0951 25.712C32.2071 26.032 30.3191 25.968 28.4311 25.52C26.5431 25.072 24.8631 24.128 23.3911 22.688C22.6551 21.984 22.1111 21.2 21.7591 20.336C21.4071 19.44 21.1671 18.528 21.0391 17.6C20.9431 16.64 20.9431 15.68 21.0391 14.72C21.1351 13.728 21.2791 12.784 21.4711 11.888C21.9511 9.776 22.7511 7.616 23.8711 5.408C23.2631 5.184 22.8471 4.912 22.6231 4.592C22.4311 4.336 22.3991 4.016 22.5271 3.632C22.6871 3.248 23.2471 2.8 24.2071 2.288C24.6871 2.064 25.2631 1.904 25.9351 1.808C26.6391 1.68 27.3751 1.616 28.1431 1.616C28.9431 1.584 29.7591 1.6 30.5911 1.664C31.4231 1.728 32.2391 1.808 33.0391 1.904C34.8951 2.16 36.8471 2.512 38.8951 2.96ZM50.0026 24.848C49.8746 25.072 49.6986 25.264 49.4746 25.424C49.2826 25.584 49.0426 25.712 48.7546 25.808C48.4666 25.904 48.1146 25.92 47.6986 25.856C46.8666 25.696 46.2266 25.488 45.7786 25.232C45.3306 24.944 45.1066 24.384 45.1066 23.552C45.1066 23.104 45.0746 22.304 45.0106 21.152C44.9786 19.968 44.9146 18.672 44.8186 17.264C44.7226 15.824 44.5946 14.4 44.4346 12.992C44.2746 11.552 44.0986 10.368 43.9066 9.44C43.5226 7.616 43.2346 6.176 43.0426 5.12C42.8826 4.064 43.0106 3.312 43.4266 2.864C43.6826 2.704 43.9706 2.544 44.2906 2.384C44.6106 2.224 44.9626 2.144 45.3466 2.144C45.7626 2.112 46.1946 2.224 46.6426 2.48C47.0906 2.704 47.5546 3.12 48.0346 3.728C48.4826 4.336 49.0906 5.104 49.8586 6.032C50.6266 6.928 51.4106 7.808 52.2106 8.672C53.0106 9.504 53.7626 10.224 54.4666 10.832C55.1706 11.44 55.6986 11.744 56.0506 11.744C56.6906 11.648 57.5066 11.216 58.4986 10.448C59.4906 9.648 60.4826 8.768 61.4746 7.808C61.9546 7.264 62.4346 6.832 62.9146 6.512C63.3946 6.16 63.8106 5.888 64.1626 5.696C64.5786 5.472 64.9946 5.296 65.4106 5.168C65.9546 4.976 66.4826 4.848 66.9946 4.784C67.4426 4.72 67.8746 4.768 68.2906 4.928C68.7066 5.056 69.0426 5.36 69.2986 5.84C69.5546 6.384 69.7466 7.04 69.8746 7.808C70.0026 8.576 70.0986 9.424 70.1626 10.352C70.2266 11.248 70.2906 12.192 70.3546 13.184C70.4186 14.144 70.5146 15.072 70.6426 15.968C70.7386 16.896 70.8346 17.808 70.9306 18.704C71.0586 19.568 71.1546 20.384 71.2186 21.152C71.3146 21.92 71.3786 22.608 71.4106 23.216C71.4426 23.824 71.4106 24.32 71.3146 24.704C71.2506 25.056 71.1386 25.328 70.9786 25.52C70.8506 25.68 70.6746 25.792 70.4506 25.856C70.2266 25.92 69.9866 25.952 69.7306 25.952C69.4746 25.92 69.2346 25.888 69.0106 25.856C68.8186 25.856 68.5786 25.824 68.2906 25.76C68.0026 25.664 67.7146 25.504 67.4266 25.28C67.1706 25.056 66.9306 24.752 66.7066 24.368C66.5146 23.952 66.4026 23.408 66.3706 22.736C66.3706 22.096 66.3226 21.184 66.2266 20C66.1306 18.816 66.0186 17.664 65.8906 16.544C65.7626 15.232 65.6026 13.84 65.4106 12.368C65.4106 12.272 65.3626 12.176 65.2666 12.08C65.2026 12.016 65.1066 11.952 64.9786 11.888C64.8506 11.792 64.6586 11.744 64.4026 11.744C64.1466 11.744 63.8106 11.968 63.3946 12.416C62.9786 12.832 62.4986 13.328 61.9546 13.904C61.4426 14.48 60.8986 15.056 60.3226 15.632C59.7466 16.176 59.2026 16.576 58.6906 16.832C57.6026 17.312 56.6586 17.456 55.8586 17.264C55.0586 17.072 54.1946 16.64 53.2666 15.968C52.8506 15.648 52.4346 15.264 52.0186 14.816C51.6346 14.368 51.2506 13.952 50.8666 13.568C50.4826 13.152 50.1146 12.8 49.7626 12.512C49.4426 12.224 49.1386 12.08 48.8506 12.08C48.5626 12.08 48.3866 12.432 48.3226 13.136C48.2906 13.84 48.3226 14.672 48.4186 15.632C48.5146 16.56 48.6426 17.472 48.8026 18.368C48.9946 19.264 49.1706 19.904 49.3306 20.288C49.4586 20.704 49.6186 21.152 49.8106 21.632C50.0026 22.08 50.1466 22.512 50.2426 22.928C50.3706 23.344 50.4346 23.728 50.4346 24.08C50.4346 24.432 50.2906 24.688 50.0026 24.848ZM83.5846 2.096C85.7286 2 87.5046 2.272 88.9126 2.912C90.3206 3.52 91.4406 4.4 92.2726 5.552C93.1046 6.704 93.6966 8.08 94.0486 9.68C94.4006 11.28 94.5766 13.008 94.5766 14.864C94.5766 16.08 94.4166 17.328 94.0966 18.608C93.7766 19.856 93.2326 21.008 92.4646 22.064C91.6966 23.088 90.6726 23.952 89.3926 24.656C88.1126 25.36 86.4966 25.776 84.5446 25.904C83.1046 26 81.7126 25.776 80.3686 25.232C79.0246 24.688 77.8246 23.92 76.7686 22.928C75.7126 21.936 74.8646 20.752 74.2246 19.376C73.5846 17.968 73.2486 16.464 73.2166 14.864C73.1526 13.264 73.3606 11.712 73.8406 10.208C74.3206 8.704 75.0086 7.376 75.9046 6.224C76.8006 5.04 77.8886 4.08 79.1686 3.344C80.4806 2.576 81.9526 2.16 83.5846 2.096ZM89.9686 13.904C90.0006 12.624 89.8566 11.552 89.5366 10.688C89.2486 9.792 88.8486 9.072 88.3366 8.528C87.8246 7.952 87.2486 7.536 86.6086 7.28C86.0006 6.992 85.4086 6.832 84.8326 6.8C84.2246 6.768 83.5206 6.848 82.7206 7.04C81.9526 7.2 81.2166 7.536 80.5126 8.048C79.8086 8.56 79.2006 9.28 78.6886 10.208C78.2086 11.104 77.9526 12.272 77.9206 13.712C77.9206 15.12 78.1126 16.304 78.4966 17.264C78.9126 18.224 79.4406 19.008 80.0806 19.616C80.7206 20.192 81.4406 20.624 82.2406 20.912C83.0726 21.168 83.9046 21.296 84.7366 21.296C86.5286 21.296 87.8246 20.704 88.6246 19.52C89.4566 18.304 89.9046 16.432 89.9686 13.904ZM98.2115 24.032C98.2115 22.816 98.1795 21.6 98.1155 20.384C98.0515 19.36 97.9715 18.272 97.8755 17.12C97.8115 15.968 97.6995 14.928 97.5395 14C97.4115 13.424 97.2195 12.736 96.9635 11.936C96.7395 11.136 96.4995 10.304 96.2435 9.44C96.0195 8.576 95.8115 7.728 95.6195 6.896C95.4595 6.032 95.3795 5.248 95.3795 4.544C95.3795 3.84 95.4915 3.248 95.7155 2.768C95.9395 2.288 96.3235 1.984 96.8675 1.856C97.6995 1.696 98.5795 1.952 99.5075 2.624C100.436 3.296 101.348 4.128 102.243 5.12C103.172 6.08 104.052 7.072 104.884 8.096C105.716 9.12 106.452 9.904 107.092 10.448C107.7 10.992 108.388 11.664 109.156 12.464C109.956 13.232 110.708 13.936 111.412 14.576C112.148 15.184 112.788 15.616 113.332 15.872C113.908 16.096 114.292 15.92 114.484 15.344C114.612 14.96 114.692 14.4 114.724 13.664C114.788 12.928 114.804 12.144 114.772 11.312C114.772 10.448 114.772 9.568 114.772 8.672C114.772 7.744 114.788 6.912 114.82 6.176C114.884 5.408 114.98 4.752 115.108 4.208C115.268 3.664 115.508 3.344 115.828 3.248C116.276 3.12 116.724 2.992 117.172 2.864C117.652 2.736 118.084 2.736 118.468 2.864C118.884 2.96 119.22 3.232 119.476 3.68C119.764 4.096 119.94 4.784 120.004 5.744C120.068 6.384 120.116 7.344 120.148 8.624C120.18 9.872 120.164 11.264 120.1 12.8C120.068 14.304 119.988 15.856 119.859 17.456C119.764 19.024 119.604 20.448 119.38 21.728C119.156 23.008 118.852 24.048 118.468 24.848C118.116 25.648 117.684 26 117.172 25.904C116.372 25.776 115.7 25.568 115.156 25.28C114.644 24.96 114.196 24.608 113.812 24.224C113.428 23.808 113.076 23.36 112.756 22.88C112.436 22.368 112.068 21.872 111.652 21.392C111.364 21.04 110.916 20.56 110.308 19.952C109.732 19.312 109.076 18.64 108.34 17.936C107.604 17.2 106.836 16.48 106.036 15.776C105.268 15.04 104.548 14.4 103.876 13.856C103.236 13.28 102.692 12.848 102.243 12.56C101.828 12.272 101.604 12.192 101.572 12.32C101.476 12.48 101.476 12.784 101.572 13.232C101.7 13.648 101.844 14.144 102.004 14.72C102.196 15.296 102.388 15.936 102.58 16.64C102.804 17.312 102.98 17.984 103.108 18.656C103.204 19.328 103.268 20.08 103.3 20.912C103.364 21.712 103.332 22.464 103.204 23.168C103.076 23.872 102.852 24.48 102.532 24.992C102.244 25.472 101.812 25.728 101.236 25.76C100.692 25.856 100.228 25.824 99.8435 25.664C99.4595 25.504 99.1395 25.296 98.8835 25.04C98.5955 24.752 98.3715 24.416 98.2115 24.032ZM157.238 2.624C157.878 3.072 158.262 3.68 158.39 4.448C158.518 5.184 158.342 5.84 157.862 6.416C157.606 6.672 157.366 6.848 157.142 6.944C156.95 7.008 156.742 7.056 156.518 7.088C156.294 7.088 156.038 7.088 155.75 7.088C155.462 7.056 155.126 7.056 154.742 7.088C154.166 7.088 153.702 7.12 153.35 7.184C152.998 7.248 152.486 7.328 151.814 7.424C151.75 7.936 151.638 8.72 151.478 9.776C151.35 10.8 151.238 11.92 151.142 13.136C151.11 13.904 151.126 14.784 151.19 15.776C151.254 16.736 151.334 17.68 151.43 18.608C151.558 19.536 151.686 20.384 151.814 21.152C151.942 21.888 152.054 22.448 152.15 22.832C152.214 23.504 152.262 24.096 152.294 24.608C152.326 25.088 152.054 25.408 151.478 25.568C151.19 25.632 150.774 25.728 150.23 25.856C149.686 25.952 149.126 25.984 148.55 25.952C148.006 25.92 147.494 25.792 147.014 25.568C146.534 25.344 146.214 24.928 146.054 24.32C145.862 23.744 145.75 22.752 145.718 21.344C145.718 19.936 145.766 18.416 145.862 16.784C145.958 15.152 146.07 13.568 146.198 12.032C146.358 10.496 146.47 9.296 146.534 8.432C145.478 8.688 144.358 8.912 143.174 9.104C141.99 9.264 140.87 9.344 139.814 9.344C139.078 9.376 138.454 9.296 137.942 9.104C137.462 8.88 137.078 8.576 136.79 8.192C136.502 7.808 136.31 7.376 136.214 6.896C136.118 6.416 136.118 5.92 136.214 5.408C136.278 4.928 136.47 4.544 136.79 4.256C137.11 3.936 137.478 3.696 137.894 3.536C138.31 3.344 138.726 3.232 139.142 3.2C139.59 3.136 139.99 3.12 140.342 3.152C140.662 3.152 141.11 3.152 141.686 3.152C142.294 3.12 142.966 3.088 143.702 3.056C144.438 2.992 145.206 2.928 146.006 2.864C146.838 2.8 147.67 2.72 148.502 2.624C150.102 2.368 151.414 2.192 152.438 2.096C153.462 2 154.23 1.904 154.742 1.808C155.254 1.808 155.638 1.84 155.894 1.904C156.182 1.968 156.63 2.208 157.238 2.624ZM178.892 20C178.924 20.416 178.892 20.864 178.796 21.344C178.732 21.792 178.588 22.208 178.364 22.592C178.14 22.944 177.82 23.2 177.404 23.36C176.988 23.52 176.46 23.504 175.82 23.312C175.148 23.056 174.284 22.72 173.228 22.304C172.204 21.888 171.148 21.488 170.06 21.104C169.004 20.688 168.012 20.32 167.084 20C166.188 19.68 165.548 19.472 165.164 19.376C164.748 19.248 164.412 19.168 164.156 19.136C163.9 19.104 163.692 19.088 163.532 19.088C163.34 19.088 163.196 19.12 163.1 19.184C163.1 20.24 163.084 21.184 163.052 22.016C163.02 22.752 162.972 23.44 162.908 24.08C162.876 24.72 162.828 25.104 162.764 25.232C162.508 25.488 162.156 25.68 161.708 25.808C161.26 25.936 160.668 25.968 159.932 25.904C159.58 25.872 159.308 25.712 159.116 25.424C158.924 25.104 158.78 24.752 158.684 24.368C158.62 23.952 158.588 23.536 158.588 23.12C158.588 22.672 158.604 22.272 158.636 21.92C158.924 19.04 159.18 16.448 159.404 14.144C159.5 13.152 159.596 12.176 159.692 11.216C159.788 10.256 159.884 9.392 159.98 8.624C160.076 7.824 160.156 7.168 160.22 6.656C160.284 6.112 160.348 5.776 160.412 5.648C160.54 5.424 160.892 5.072 161.468 4.592C162.076 4.08 162.812 3.6 163.676 3.152C164.54 2.704 165.484 2.352 166.508 2.096C167.532 1.808 168.508 1.76 169.436 1.952C170.332 2.144 171.148 2.48 171.884 2.96C172.62 3.44 173.228 4.032 173.708 4.736C174.188 5.408 174.508 6.192 174.668 7.088C174.86 7.952 174.844 8.896 174.62 9.92C174.364 10.944 173.964 11.792 173.42 12.464C172.908 13.136 172.38 13.664 171.836 14.048C171.196 14.528 170.508 14.88 169.772 15.104L173.516 16.448C173.996 16.608 174.46 16.784 174.908 16.976C175.356 17.136 175.756 17.28 176.108 17.408C176.46 17.536 176.732 17.648 176.924 17.744C177.148 17.84 177.26 17.888 177.26 17.888C177.26 17.92 177.34 17.984 177.5 18.08C177.692 18.176 177.884 18.304 178.076 18.464C178.268 18.624 178.444 18.832 178.604 19.088C178.796 19.344 178.892 19.648 178.892 20ZM165.98 13.328C166.172 13.328 166.492 13.248 166.94 13.088C167.388 12.896 167.852 12.656 168.332 12.368C168.844 12.08 169.324 11.776 169.772 11.456C170.22 11.136 170.54 10.832 170.732 10.544C171.212 10 171.308 9.328 171.02 8.528C170.732 7.696 170.156 7.008 169.292 6.464C168.876 6.176 168.396 6.096 167.852 6.224C167.308 6.32 166.796 6.496 166.316 6.752C165.836 7.008 165.404 7.296 165.02 7.616C164.668 7.904 164.444 8.112 164.348 8.24C164.252 8.336 164.172 8.624 164.108 9.104C164.076 9.552 164.028 10.048 163.964 10.592C163.9 11.2 163.868 11.888 163.868 12.656C164.156 12.752 164.428 12.848 164.684 12.944C164.908 13.008 165.132 13.088 165.356 13.184C165.612 13.248 165.82 13.296 165.98 13.328ZM198.411 2.96C198.507 3.344 198.555 3.712 198.555 4.064C198.555 4.384 198.491 4.736 198.363 5.12C198.267 5.504 198.059 5.856 197.739 6.176C197.355 6.464 196.699 6.592 195.771 6.56C194.843 6.528 193.835 6.496 192.747 6.464C191.659 6.4 190.603 6.4 189.579 6.464C188.587 6.496 187.835 6.736 187.323 7.184C186.811 7.696 186.523 8.24 186.459 8.816C186.395 9.392 186.427 9.936 186.555 10.448C186.683 11.024 186.939 11.616 187.323 12.224C188.251 12.096 189.131 12.048 189.963 12.08C190.667 12.112 191.355 12.208 192.027 12.368C192.731 12.528 193.227 12.816 193.515 13.232C193.771 13.648 193.899 14.048 193.899 14.432C193.899 14.784 193.819 15.104 193.659 15.392C193.499 15.744 193.275 16.064 192.987 16.352L186.507 17.168C186.283 17.424 186.155 17.728 186.123 18.08C186.059 18.368 186.091 18.704 186.219 19.088C186.379 19.44 186.683 19.824 187.131 20.24C187.675 20.752 188.299 21.088 189.003 21.248C189.739 21.408 190.507 21.456 191.307 21.392C192.139 21.296 192.971 21.12 193.803 20.864C194.667 20.576 195.515 20.256 196.347 19.904C198.267 19.072 200.251 17.936 202.299 16.496C202.651 16.656 202.907 16.928 203.067 17.312C203.227 17.664 203.323 18.016 203.355 18.368C203.387 18.784 203.355 19.248 203.259 19.76C202.139 21.296 200.731 22.592 199.035 23.648C197.339 24.672 195.531 25.36 193.611 25.712C191.723 26.032 189.835 25.968 187.947 25.52C186.059 25.072 184.379 24.128 182.907 22.688C182.171 21.984 181.627 21.2 181.275 20.336C180.923 19.44 180.683 18.528 180.555 17.6C180.459 16.64 180.459 15.68 180.555 14.72C180.651 13.728 180.795 12.784 180.987 11.888C181.467 9.776 182.267 7.616 183.387 5.408C182.779 5.184 182.363 4.912 182.139 4.592C181.947 4.336 181.915 4.016 182.043 3.632C182.203 3.248 182.763 2.8 183.723 2.288C184.203 2.064 184.779 1.904 185.451 1.808C186.155 1.68 186.891 1.616 187.659 1.616C188.459 1.584 189.275 1.6 190.107 1.664C190.939 1.728 191.755 1.808 192.555 1.904C194.411 2.16 196.363 2.512 198.411 2.96ZM219.598 2.96C219.694 3.344 219.742 3.712 219.742 4.064C219.742 4.384 219.678 4.736 219.55 5.12C219.454 5.504 219.246 5.856 218.926 6.176C218.542 6.464 217.886 6.592 216.958 6.56C216.03 6.528 215.022 6.496 213.934 6.464C212.846 6.4 211.79 6.4 210.766 6.464C209.774 6.496 209.022 6.736 208.51 7.184C207.998 7.696 207.71 8.24 207.646 8.816C207.582 9.392 207.614 9.936 207.742 10.448C207.87 11.024 208.126 11.616 208.51 12.224C209.438 12.096 210.318 12.048 211.15 12.08C211.854 12.112 212.542 12.208 213.214 12.368C213.918 12.528 214.414 12.816 214.702 13.232C214.958 13.648 215.086 14.048 215.086 14.432C215.086 14.784 215.006 15.104 214.846 15.392C214.686 15.744 214.462 16.064 214.174 16.352L207.694 17.168C207.47 17.424 207.342 17.728 207.31 18.08C207.246 18.368 207.278 18.704 207.406 19.088C207.566 19.44 207.87 19.824 208.318 20.24C208.862 20.752 209.486 21.088 210.19 21.248C210.926 21.408 211.694 21.456 212.494 21.392C213.326 21.296 214.158 21.12 214.99 20.864C215.854 20.576 216.702 20.256 217.534 19.904C219.454 19.072 221.438 17.936 223.486 16.496C223.838 16.656 224.094 16.928 224.254 17.312C224.414 17.664 224.51 18.016 224.542 18.368C224.574 18.784 224.542 19.248 224.446 19.76C223.326 21.296 221.918 22.592 220.222 23.648C218.526 24.672 216.718 25.36 214.798 25.712C212.91 26.032 211.022 25.968 209.134 25.52C207.246 25.072 205.566 24.128 204.094 22.688C203.358 21.984 202.814 21.2 202.462 20.336C202.11 19.44 201.87 18.528 201.742 17.6C201.646 16.64 201.646 15.68 201.742 14.72C201.838 13.728 201.982 12.784 202.174 11.888C202.654 9.776 203.454 7.616 204.574 5.408C203.966 5.184 203.55 4.912 203.326 4.592C203.134 4.336 203.102 4.016 203.23 3.632C203.39 3.248 203.95 2.8 204.91 2.288C205.39 2.064 205.966 1.904 206.638 1.808C207.342 1.68 208.078 1.616 208.846 1.616C209.646 1.584 210.462 1.6 211.294 1.664C212.126 1.728 212.942 1.808 213.742 1.904C215.598 2.16 217.55 2.512 219.598 2.96Z" fill="white"/>
</svg>
