<svg width="139" height="91" viewBox="0 0 139 91" fill="none" xmlns="http://www.w3.org/2000/svg">
<path d="M10.4008 64.8774C-1.05583 58.2197 3.32007 45.138 11.1618 41.4922C3.48558 33.2416 14.1799 25.8425 20.0099 26.4486C19.2128 16.5699 36.9208 13.1662 43.5381 18.2243C42.6323 6.99819 62.582 2.36663 69.7981 12.0155C84.2566 1.83058 106.726 12.5353 100.693 22.7341C105.662 17.9898 112.041 20.2281 115.258 25.5922C122.814 21.4008 137.331 26.2382 131.492 38.8334C138.439 39.9635 136.619 53.294 132.687 53.648C138.665 60.7904 125.508 72.808 119.961 68.5584C120.775 78.6401 106.467 81.7586 97.9387 76.8732C91.2052 86.2988 75.595 83.8598 73.3694 77.5023C67.2225 84.4213 63.173 83.7085 55.5158 79.1097C42.846 88.509 17.7179 80.8964 22.4484 72.5888C13.891 75.3159 7.57077 68.4239 10.4008 64.8774Z" fill="black"/>
<path d="M100.693 22.7341C106.726 12.5353 84.2566 1.83058 69.7981 12.0155C62.582 2.36663 42.6323 6.99819 43.5381 18.2243C40.1075 15.6021 33.6961 15.2541 28.4276 16.9035M122.407 24.1496C129.198 24.6003 135.745 29.6586 131.492 38.8334C138.439 39.9635 136.619 53.294 132.687 53.648C136.786 58.545 131.889 65.7336 126.618 68.4M10.3073 30.9027C8.03735 33.6877 7.43799 37.4898 11.1618 41.4922C3.32007 45.138 -1.05583 58.2197 10.4008 64.8774C8.71436 66.9908 9.57892 70.0176 12.9282 71.7636M26.6408 80.3572C33.7823 84.1414 47.2807 85.2191 55.5158 79.1097C63.173 83.7085 67.2225 84.4213 73.3694 77.5023C75.595 83.8598 91.2052 86.2988 97.9387 76.8732C102.915 79.7239 109.859 79.8494 114.619 77.4564" stroke="white" stroke-width="2.89507" stroke-linecap="round" stroke-linejoin="round"/>
<path d="M106.872 17.5598L113.964 3.97448M113.977 17.2999L124.004 5.6563M115.875 23.7746L127.866 15.0243" stroke="white" stroke-width="2.89507" stroke-linecap="round" stroke-linejoin="round"/>
<path d="M29.5505 72.9248L22.4591 86.5102M22.4461 73.1848L12.4186 84.8284M20.5476 66.71L8.55711 75.4604" stroke="white" stroke-width="2.89507" stroke-linecap="round" stroke-linejoin="round"/>
<path d="M29.6056 24.5165L20.4399 12.3949M22.562 25.5304L10.8137 15.8473M21.7283 32.2511L8.50879 25.7705" stroke="white" stroke-width="2.89507" stroke-linecap="round" stroke-linejoin="round"/>
<path d="M111.327 72.7754L120.493 84.8971M118.371 71.7615L130.119 81.4446M119.204 65.0408L132.424 71.5214" stroke="white" stroke-width="2.89507" stroke-linecap="round" stroke-linejoin="round"/>
</svg>
