<svg width="179" height="89" viewBox="0 0 179 89" fill="none" xmlns="http://www.w3.org/2000/svg">
<g filter="url(#filter0_d_179_822)">
<path d="M109.431 6.29567C100.737 9.3406 91.7827 6.95759 92.4621 1.92488C90.0995 8.0396 71.5409 11.809 65.5703 6.74176C59.2899 16.6535 34.4775 16.0463 27.8424 8.80794C33.0165 18.1926 22.0046 29.4782 7.90567 27.0577C19.581 30.183 21.5002 49.1263 4.1272 56.1566C23.64 55.9582 29.37 63.8768 29.0485 73.066C40.7534 65.4399 58.1337 69.4683 61.9193 75.3032C66.8521 67.413 94.669 70.0557 99.8706 73.8623C101.88 64.2586 129.298 61.7412 134.54 69.4137C134.03 60.1056 149.433 52.862 162.403 58.3256C156.082 52.2558 153.839 40.2252 170.41 36.4255C153.967 36.5927 153.346 25.3902 157.723 22.4584C147.333 25.3839 131.106 18.582 137.134 10.3268C138.192 9.64339 138.998 8.85043 139.459 7.95723C138.47 8.75539 137.703 9.54756 137.134 10.3268C129.98 14.9452 111.282 14.5598 109.431 6.29567Z" fill="#FF0000"/>
<path d="M109.431 6.29567C100.737 9.3406 91.7827 6.95759 92.4621 1.92488C90.0995 8.0396 71.5409 11.809 65.5703 6.74176C59.2899 16.6535 34.4775 16.0463 27.8424 8.80794C33.0165 18.1926 22.0046 29.4782 7.90567 27.0577C19.581 30.183 21.5002 49.1263 4.1272 56.1566C23.64 55.9582 29.37 63.8768 29.0485 73.066C40.7534 65.4399 58.1337 69.4683 61.9193 75.3032C66.8521 67.413 94.669 70.0557 99.8706 73.8623C101.88 64.2586 129.298 61.7412 134.54 69.4137C134.03 60.1056 149.433 52.862 162.403 58.3256C156.082 52.2558 153.839 40.2252 170.41 36.4255C153.967 36.5927 153.346 25.3902 157.723 22.4584C147.333 25.3839 131.106 18.582 137.134 10.3268C138.192 9.64339 138.998 8.85043 139.459 7.95723C138.47 8.75539 137.703 9.54756 137.134 10.3268C129.98 14.9452 111.282 14.5598 109.431 6.29567Z" stroke="black" stroke-width="2" stroke-linecap="round" stroke-linejoin="round"/>
</g>
<defs>
<filter id="filter0_d_179_822" x="0.326953" y="0.924805" width="177.883" height="87.1784" filterUnits="userSpaceOnUse" color-interpolation-filters="sRGB">
<feFlood flood-opacity="0" result="BackgroundImageFix"/>
<feColorMatrix in="SourceAlpha" type="matrix" values="0 0 0 0 0 0 0 0 0 0 0 0 0 0 0 0 0 0 127 0" result="hardAlpha"/>
<feOffset dx="2" dy="7"/>
<feGaussianBlur stdDeviation="2.4"/>
<feComposite in2="hardAlpha" operator="out"/>
<feColorMatrix type="matrix" values="0 0 0 0 0 0 0 0 0 0 0 0 0 0 0 0 0 0 0.3 0"/>
<feBlend mode="normal" in2="BackgroundImageFix" result="effect1_dropShadow_179_822"/>
<feBlend mode="normal" in="SourceGraphic" in2="effect1_dropShadow_179_822" result="shape"/>
</filter>
</defs>
</svg>
