<svg width="40" height="40" viewBox="0 0 40 40" fill="none" xmlns="http://www.w3.org/2000/svg">
<path d="M20 9.09091C22.8933 9.09091 25.668 10.2403 27.7139 12.2861C29.7597 14.332 30.9091 17.1067 30.9091 20C30.9091 24.0364 28.7091 27.5636 25.4545 29.4545V32.7273C25.4545 33.2095 25.263 33.6719 24.922 34.0129C24.581 34.3539 24.1186 34.5455 23.6364 34.5455H16.3636C15.8814 34.5455 15.419 34.3539 15.078 34.0129C14.737 33.6719 14.5455 33.2095 14.5455 32.7273V29.4545C11.2909 27.5636 9.09091 24.0364 9.09091 20C9.09091 17.1067 10.2403 14.332 12.2861 12.2861C14.332 10.2403 17.1067 9.09091 20 9.09091ZM23.6364 36.3636V38.1818C23.6364 38.664 23.4448 39.1265 23.1038 39.4675C22.7629 39.8084 22.3004 40 21.8182 40H18.1818C17.6996 40 17.2371 39.8084 16.8962 39.4675C16.5552 39.1265 16.3636 38.664 16.3636 38.1818V36.3636H23.6364ZM34.5455 18.1818H40V21.8182H34.5455V18.1818ZM0 18.1818H5.45455V21.8182H0V18.1818ZM21.8182 0V5.45455H18.1818V0H21.8182ZM7.12727 4.54545L11 8.43636L8.41818 11L4.54545 7.14545L7.12727 4.54545ZM29 8.41818L32.8545 4.54545L35.4545 7.14545L31.5818 11L29 8.41818Z" fill="#1C1C1C" fill-opacity="0.8"/>
</svg>
