<svg xmlns="http://www.w3.org/2000/svg" width="260" height="69" viewBox="0 0 260 69" fill="none">
  <mask id="path-1-inside-1_282_3" fill="white">
    <path fill-rule="evenodd" clip-rule="evenodd" d="M77.3223 43.9923C56.7064 40.7123 22.178 33.6971 2.5707 29.546L76.3567 29.5207C78.77 12.8263 93.1371 0 110.5 0H225.5C244.554 0 260 15.4462 260 34.5C260 53.5538 244.554 69 225.5 69H110.5C94.7383 69 81.4453 58.4303 77.3223 43.9923Z"/>
  </mask>
  <path fill-rule="evenodd" clip-rule="evenodd" d="M77.3223 43.9923C56.7064 40.7123 22.178 33.6971 2.5707 29.546L76.3567 29.5207C78.77 12.8263 93.1371 0 110.5 0H225.5C244.554 0 260 15.4462 260 34.5C260 53.5538 244.554 69 225.5 69H110.5C94.7383 69 81.4453 58.4303 77.3223 43.9923Z" fill="white"/>
  <path d="M-0.208443 29.978C0.616489 30.1538 1.47472 30.3361 2.36357 30.5243L2.77782 28.5677C1.88982 28.3797 1.03246 28.1976 0.208443 28.0219L-0.208443 29.978ZM77.3223 43.9923L79.2454 43.4431L78.8954 42.2174L77.6365 42.0171L77.3223 43.9923ZM2.5707 29.546L2.57001 27.546L2.15645 31.5026L2.5707 29.546ZM76.3567 29.5207L76.3574 31.5207L78.0884 31.5201L78.3361 29.8069L76.3567 29.5207ZM77.6365 42.0171C57.0764 38.7461 22.593 31.7406 2.98494 27.5894L2.15645 31.5026C21.7631 35.6536 56.3364 42.6786 77.0081 45.9674L77.6365 42.0171ZM2.57138 31.546L76.3574 31.5207L76.356 27.5207L2.57001 27.546L2.57138 31.546ZM78.3361 29.8069C80.6092 14.0821 94.1454 2 110.5 2V-2C92.1288 -2 76.9307 11.5705 74.3772 29.2346L78.3361 29.8069ZM110.5 2H225.5V-2H110.5V2ZM225.5 2C243.449 2 258 16.5507 258 34.5H262C262 14.3416 245.658 -2 225.5 -2V2ZM258 34.5C258 52.4493 243.449 67 225.5 67V71C245.658 71 262 54.6584 262 34.5H258ZM225.5 67H110.5V71H225.5V67ZM110.5 67C95.6549 67 83.1297 57.0453 79.2454 43.4431L75.3992 44.5415C79.7609 59.8154 93.8217 71 110.5 71V67Z" fill="black" mask="url(#path-1-inside-1_282_3)"/>
</svg>