<svg width="111" height="80" viewBox="0 0 111 80" fill="none" xmlns="http://www.w3.org/2000/svg">
<path fill-rule="evenodd" clip-rule="evenodd" d="M64.1129 21.5983C64.0355 22.3537 63.9958 23.1204 63.9958 23.8966V48.5484C63.9958 64.458 76.6838 77.4647 92.5885 77.8592L106.355 78.2007C107.68 78.2336 108.932 77.5944 109.683 76.5016C109.887 76.2051 109.996 75.8537 109.996 75.4938V40.7304L108.496 2.75393C108.496 2.4754 108.274 2.24757 107.996 2.23973L86.8833 1.64488C79.8354 1.44631 73.4773 4.54143 69.2615 9.5182L2.66298 9.54079C18.4815 12.8577 44.0115 18.0209 64.1129 21.5983Z" fill="white"/>
<path d="M64.1129 21.5983L65.1077 21.7002C65.161 21.1794 64.8036 20.7055 64.2881 20.6138L64.1129 21.5983ZM92.5885 77.8592L92.6133 76.8595L92.5885 77.8592ZM106.355 78.2007L106.379 77.201L106.379 77.201L106.355 78.2007ZM109.683 76.5016L108.859 75.9353L108.859 75.9353L109.683 76.5016ZM109.996 40.7304H110.996C110.996 40.7172 110.996 40.7041 110.995 40.6909L109.996 40.7304ZM108.496 2.75393L107.496 2.75492C107.496 2.76775 107.497 2.78057 107.497 2.79339L108.496 2.75393ZM107.996 2.23973L108.024 1.24012L108.024 1.24012L107.996 2.23973ZM86.8833 1.64488L86.9115 0.645279L86.8833 1.64488ZM69.2615 9.5182L69.2619 10.5182C69.5557 10.5181 69.8346 10.3888 70.0246 10.1646L69.2615 9.5182ZM2.66298 9.54079L2.66264 8.54079C2.15036 8.54097 1.72106 8.92825 1.6683 9.4378C1.61554 9.94736 1.95638 10.4144 2.45776 10.5195L2.66298 9.54079ZM64.9958 23.8966C64.9958 23.1545 65.0337 22.4218 65.1077 21.7002L63.1181 21.4964C63.0372 22.2856 62.9958 23.0863 62.9958 23.8966H64.9958ZM64.9958 48.5484V23.8966H62.9958V48.5484H64.9958ZM92.6133 76.8595C77.2511 76.4784 64.9958 63.9154 64.9958 48.5484H62.9958C62.9958 65.0006 76.1165 78.4509 92.5637 78.8589L92.6133 76.8595ZM106.379 77.201L92.6133 76.8595L92.5637 78.8589L106.33 79.2004L106.379 77.201ZM108.859 75.9353C108.299 76.7493 107.367 77.2255 106.379 77.201L106.33 79.2004C107.993 79.2417 109.565 78.4394 110.507 77.0679L108.859 75.9353ZM108.996 75.4938C108.996 75.6515 108.948 75.8054 108.859 75.9353L110.507 77.0679C110.825 76.6047 110.996 76.0559 110.996 75.4938H108.996ZM108.996 40.7304V75.4938H110.996V40.7304H108.996ZM107.497 2.79339L108.997 40.7699L110.995 40.6909L109.496 2.71448L107.497 2.79339ZM107.968 3.23933C107.705 3.23194 107.497 3.01731 107.496 2.75492L109.496 2.75295C109.495 1.93348 108.843 1.2632 108.024 1.24012L107.968 3.23933ZM86.8552 2.64449L107.968 3.23933L108.024 1.24012L86.9115 0.645279L86.8552 2.64449ZM70.0246 10.1646C74.0528 5.40927 80.1242 2.45484 86.8552 2.64449L86.9115 0.645279C79.5466 0.437773 72.9019 3.6736 68.4985 8.87184L70.0246 10.1646ZM2.66332 10.5408L69.2619 10.5182L69.2612 8.5182L2.66264 8.54079L2.66332 10.5408ZM64.2881 20.6138C44.2014 17.039 18.6827 11.8782 2.8682 8.56208L2.45776 10.5195C18.2802 13.8373 43.8217 19.0029 63.9377 22.5828L64.2881 20.6138Z" fill="black"/>
<rect x="104.996" y="1" width="6" height="77" fill="white"/>
<line x1="105" y1="2" x2="111" y2="2" stroke="black" stroke-width="2"/>
<line x1="105" y1="78" x2="111" y2="78" stroke="black" stroke-width="2"/>
</svg>
