<svg width="22" height="22" viewBox="0 0 22 22" fill="none" xmlns="http://www.w3.org/2000/svg">
<path d="M2.72497 7.95708C2.14412 7.05658 1.89091 5.98351 2.00799 4.9183C2.12522 3.8531 2.60555 2.86071 3.3684 2.10803L4.01182 1.45001C4.30693 1.16152 4.70316 0.999999 5.11579 0.999999C5.52843 0.999999 5.9248 1.16152 6.21976 1.45001L8.98349 4.24293C9.27104 4.53554 9.43217 4.92937 9.43217 5.33963C9.43217 5.74988 9.27104 6.14373 8.98349 6.43632C8.695 6.7314 8.53348 7.12768 8.53348 7.54034C8.53348 7.953 8.695 8.34927 8.98349 8.64434L13.3703 13.0311C13.5145 13.1775 13.6864 13.2937 13.8759 13.373C14.0654 13.4523 14.2688 13.4932 14.4743 13.4932C14.6797 13.4932 14.8831 13.4523 15.0727 13.373C15.2622 13.2937 15.4341 13.1775 15.5783 13.0311C15.8709 12.7436 16.2647 12.5825 16.675 12.5825C17.0852 12.5825 17.4791 12.7436 17.7717 13.0311L20.55 15.8094C20.8385 16.1045 21 16.5007 21 16.9134C21 17.3262 20.8385 17.7224 20.55 18.0175L19.892 18.6609C19.1393 19.4236 18.1469 19.904 17.0817 20.0212C16.0165 20.1384 14.9434 19.8852 14.0429 19.3042C9.58194 16.2773 5.74046 12.4259 2.72497 7.95708Z" stroke="black" stroke-width="2" stroke-linecap="round" stroke-linejoin="round"/>
</svg>
