<svg width="25" height="25" viewBox="0 0 25 25" fill="none" xmlns="http://www.w3.org/2000/svg">
<path d="M20.4615 8.96154C20.4615 14.2692 12.5 20.4615 12.5 20.4615C12.5 20.4615 4.53847 14.2692 4.53847 8.96154C4.53847 4.62515 8.16362 1 12.5 1C16.8364 1 20.4615 4.62515 20.4615 8.96154Z" stroke="black" stroke-width="2" stroke-linecap="round" stroke-linejoin="round"/>
<path d="M12.5 11.6154C13.9657 11.6154 15.1539 10.4273 15.1539 8.96159C15.1539 7.4959 13.9657 6.30774 12.5 6.30774C11.0343 6.30774 9.84616 7.4959 9.84616 8.96159C9.84616 10.4273 11.0343 11.6154 12.5 11.6154Z" stroke="black" stroke-width="2" stroke-linecap="round" stroke-linejoin="round"/>
<path d="M19.7137 17.8076H21.3462L24 23.9999H1L3.65385 17.8076H5.28632" stroke="black" stroke-width="2" stroke-linecap="round" stroke-linejoin="round"/>
</svg>
